<?xml version="1.0" encoding="UTF-8" standalone="no"?>
<svg
   version="1.1"
   viewBox="0 0 1668.0186 472"
   id="svg97"
   sodipodi:docname="FocalPlane logo RGB+Strapline (1).svg"
   width="1668.0186"
   height="472"
   inkscape:version="1.4.2 (f4327f4, 2025-05-13)"
   xmlns:inkscape="http://www.inkscape.org/namespaces/inkscape"
   xmlns:sodipodi="http://sodipodi.sourceforge.net/DTD/sodipodi-0.dtd"
   xmlns="http://www.w3.org/2000/svg"
   xmlns:svg="http://www.w3.org/2000/svg">
  <defs
     id="defs97" />
  <sodipodi:namedview
     id="namedview97"
     pagecolor="#ffffff"
     bordercolor="#000000"
     borderopacity="0.25"
     inkscape:showpageshadow="2"
     inkscape:pageopacity="0.0"
     inkscape:pagecheckerboard="0"
     inkscape:deskcolor="#d1d1d1"
     inkscape:zoom="1.0629496"
     inkscape:cx="834"
     inkscape:cy="235.66497"
     inkscape:window-width="1920"
     inkscape:window-height="991"
     inkscape:window-x="2551"
     inkscape:window-y="-4"
     inkscape:window-maximized="1"
     inkscape:current-layer="svg97" />
  <g
     stroke-width="2"
     fill="none"
     stroke-linecap="butt"
     id="g44">
    <path
       stroke="#00abc1"
       vector-effect="non-scaling-stroke"
       d="M 233.37,34.27 Q 179.79,35.01 135.36,60.25 109.42,74.99 89.03,96.41 C 34.68,153.5 19.7,237.64 49.9,310.15 q 22.24,53.39 72.06,87.93 4.57,3.16 10.84,6.72 a 0.93,0.93 0 0 0 1.26,-0.35 q 20.55,-35.67 96.36,-166.81 1.07,-1.85 1.52,-3.99"
       id="path1" />
    <path
       stroke="#00a18c"
       vector-effect="non-scaling-stroke"
       d="m 231.94,233.65 q 1.53,-0.04 1.1,-0.85"
       id="path2" />
    <path
       stroke="#008688"
       vector-effect="non-scaling-stroke"
       d="m 233.04,232.8 q 0.07,-0.01 0.14,-0.01"
       id="path3" />
    <path
       stroke="#807e7d"
       vector-effect="non-scaling-stroke"
       d="m 233.18,232.79 0.1,28.67"
       id="path4" />
    <path
       stroke="#009764"
       vector-effect="non-scaling-stroke"
       d="m 315.84,90.29 q -1.38,-0.35 -2.28,-0.86 -33.25,-18.55 -71.21,-20.6 c -4.93,-0.27 -10.32,0.09 -15.4,0.12 q -5.65,0.04 -11.51,0.71 c -61.1,6.88 -112.91,46.28 -135.46,103.52 -17.92,45.49 -14.39,97.74 9.92,141.03 a 1.21,1.21 0 0 0 1.66,0.46 l 140.38,-81.02"
       id="path5" />
    <path
       stroke="#57a218"
       vector-effect="non-scaling-stroke"
       d="m 315.73,90.7 -17.44,29.56"
       id="path6" />
    <path
       stroke="#5f9018"
       vector-effect="non-scaling-stroke"
       d="m 298.29,120.26 -16.77,29.1"
       id="path7" />
    <path
       stroke="#007d2d"
       vector-effect="non-scaling-stroke"
       d="m 281.52,149.36 q -12.67,-5.67 -16.96,-7.2 -15.17,-5.41 -31.32,-4.92"
       id="path8" />
    <path
       stroke="#00712b"
       vector-effect="non-scaling-stroke"
       d="m 233.24,137.24 -3.56,-0.51"
       id="path9" />
    <path
       stroke="#007d2d"
       vector-effect="non-scaling-stroke"
       d="m 229.68,136.73 q 1.33,-0.61 3.1,-0.79 a 0.58,0.58 0 0 0 0.53,-0.58 v -32.02 a 0.45,0.45 0 0 0 -0.44,-0.45 c -2.46,-0.08 -6.29,-0.25 -8.77,0.15 -4.84,0.78 -8.86,0.87 -14.07,1.87 q -44.67,8.53 -74.51,42.14 -22.52,25.37 -29.87,59.42 c -1.82,8.45 -2.3,17.32 -2.57,25.31 a 0.99,0.98 -85.5 0 0 0.86,1.01 q 0.74,0.1 2.91,0.12 16.71,0.12 102.93,0.03 10.25,-0.01 20.4,0.03 0.55,0 1.28,-0.71"
       id="path10" />
    <path
       stroke="#00712b"
       vector-effect="non-scaling-stroke"
       d="m 231.46,232.26 q 1.32,-0.88 1.58,0.54"
       id="path11" />
    <path
       stroke="#b6a600"
       vector-effect="non-scaling-stroke"
       d="m 346.56,167.86 q 0.01,-0.46 -0.52,-0.76 -0.52,-0.28 -0.72,-0.63 -17.27,-29.29 -47.03,-46.21"
       id="path12" />
    <path
       stroke="#006229"
       vector-effect="non-scaling-stroke"
       d="m 229.68,136.73 c -5.77,0.95 -12.29,1.5 -17.39,2.72 -24.94,5.95 -48.27,21.63 -61.13,44.23 a 1.23,1.23 0 0 0 0.44,1.67 q 28.11,16.61 61.91,35.85 2.06,1.17 3.5,2.55"
       id="path13" />
    <path
       stroke="#007d2d"
       vector-effect="non-scaling-stroke"
       d="m 217.01,223.75 q 4.75,3.71 10.34,6.1"
       id="path14" />
    <path
       stroke="#006229"
       vector-effect="non-scaling-stroke"
       d="m 227.35,229.85 3.48,1.45 a 0.34,0.34 0 0 1 0.16,0.49 q -0.09,0.15 -0.11,0.27 a 0.27,0.26 -1.4 0 0 0.33,0.31 q 0.12,-0.03 0.25,-0.11"
       id="path15" />
    <path
       stroke="#dfa600"
       vector-effect="non-scaling-stroke"
       d="m 346.56,167.86 q -0.22,-0.36 -0.61,-0.13 -20.74,12.09 -29.34,16.98"
       id="path16" />
    <path
       stroke="#df8300"
       vector-effect="non-scaling-stroke"
       d="m 316.61,184.71 q -0.09,0.01 -0.18,0.03"
       id="path17" />
    <path
       stroke="#c37c00"
       vector-effect="non-scaling-stroke"
       d="m 316.43,184.74 q -13.11,-22 -35.16,-35"
       id="path18" />
    <path
       stroke="#5f8016"
       vector-effect="non-scaling-stroke"
       d="m 281.27,149.74 q 0.27,-0.25 0.25,-0.38"
       id="path19" />
    <path
       stroke="#006229"
       vector-effect="non-scaling-stroke"
       d="m 233.24,137.24 -0.52,33.75"
       id="path20" />
    <path
       stroke="#003714"
       vector-effect="non-scaling-stroke"
       d="m 232.72,170.99 q -15.91,0.5 -29.7,7.92 a 0.69,0.68 60.9 0 0 -0.26,0.94 l 29.76,51.55 a 0.32,0.31 67.8 0 0 0.34,0.15 q 0.29,-0.06 0.41,-0.36"
       id="path21" />
    <path
       stroke="#333e1a"
       vector-effect="non-scaling-stroke"
       d="m 233.27,231.19 q 0.16,0.51 0.1,1.08"
       id="path22" />
    <path
       stroke="#804e1d"
       vector-effect="non-scaling-stroke"
       d="m 233.37,232.27 -0.19,0.52"
       id="path23" />
    <path
       stroke="#00712b"
       vector-effect="non-scaling-stroke"
       d="m 227.35,229.85 -10.34,-6.1"
       id="path24" />
    <path
       stroke="#646916"
       vector-effect="non-scaling-stroke"
       d="M 281.27,149.74 264.2,179.46"
       id="path25" />
    <path
       stroke="#5b5a1c"
       vector-effect="non-scaling-stroke"
       d="m 264.2,179.46 q -0.1,-0.11 -0.2,-0.23"
       id="path26" />
    <path
       stroke="#33491c"
       vector-effect="non-scaling-stroke"
       d="m 264,179.23 q -13.27,-7.82 -28.75,-8.25 -0.71,-0.01 -1.93,0.27"
       id="path27" />
    <path
       stroke="#004316"
       vector-effect="non-scaling-stroke"
       d="m 233.32,171.25 -0.6,-0.26"
       id="path28" />
    <path
       stroke="#e36b00"
       vector-effect="non-scaling-stroke"
       d="m 316.43,184.74 -29.77,17.28"
       id="path29" />
    <path
       stroke="#be5506"
       vector-effect="non-scaling-stroke"
       d="m 286.66,202.02 q -0.52,-1.08 -1.05,-1.89 -8.48,-12.82 -21.41,-20.67"
       id="path30" />
    <path
       stroke="#ffa900"
       vector-effect="non-scaling-stroke"
       d="m 329.88,233.29 -0.23,-1.02"
       id="path31" />
    <path
       stroke="#ff9500"
       vector-effect="non-scaling-stroke"
       d="m 329.65,232.27 q -0.37,-25.46 -13.04,-47.56"
       id="path32" />
    <path
       stroke="#331f07"
       vector-effect="non-scaling-stroke"
       d="m 233.32,171.25 -0.05,59.94"
       id="path33" />
    <path
       stroke="#8e360d"
       vector-effect="non-scaling-stroke"
       d="m 264,179.23 -30.47,53.16"
       id="path34" />
    <path
       stroke="#b33610"
       vector-effect="non-scaling-stroke"
       d="m 233.53,232.39 q -0.08,-0.06 -0.16,-0.12"
       id="path35" />
    <path
       stroke="#8e360d"
       vector-effect="non-scaling-stroke"
       d="m 239.58,205.51 q -1.11,-0.46 -1.96,-0.21 a 0.16,0.15 43.5 0 0 0.01,0.3 l 1.78,0.42 a 0.27,0.27 0 0 0 0.17,-0.51"
       id="path36" />
    <path
       stroke="#da460f"
       vector-effect="non-scaling-stroke"
       d="m 286.66,202.02 q -14.04,8.32 -25.86,15.05 -2.15,1.22 -4.26,2.5 -11.15,6.76 -23.01,12.82"
       id="path37" />
    <path
       stroke="#be5506"
       vector-effect="non-scaling-stroke"
       d="m 253.11,213.43 q 1.32,1.34 2.64,2.69 a 0.02236068,0.02236068 0 0 0 0.04,-0.02 q -0.01,-0.03 -0.01,-0.06 a 0.41,0.36 -69.3 0 0 -0.08,-0.21 q -1.07,-1.41 -2.31,-2.67 -1.24,-1.27 -2.63,-2.36 a 0.41,0.36 -19.7 0 0 -0.21,-0.08 q -0.03,0 -0.06,-0.01 a 0.02236068,0.02236068 0 0 0 -0.02,0.04 q 1.32,1.34 2.64,2.68"
       id="path38" />
    <path
       stroke="#ff8600"
       vector-effect="non-scaling-stroke"
       d="m 329.65,232.27 -0.06,0.29 a 0.5,0.49 4.8 0 1 -0.49,0.41 l -33.74,-0.19"
       id="path39" />
    <path
       stroke="#ff5c09"
       vector-effect="non-scaling-stroke"
       d="m 295.36,232.78 q -0.26,-17.13 -8.7,-30.76"
       id="path40" />
    <path
       stroke="#ff7009"
       vector-effect="non-scaling-stroke"
       d="m 295.36,232.78 q 0.24,16.11 -7.77,30.91"
       id="path41" />
    <path
       stroke="#ff5c09"
       vector-effect="non-scaling-stroke"
       d="m 287.59,263.69 q -0.63,0.72 -1.23,0.2 -1.06,-0.92 -1.08,-0.92 -13.29,-7.59 -27.24,-15.76 a 0.44,0.43 -60.3 0 0 -0.6,0.17 q -3.45,6.17 -10.11,10.32"
       id="path42" />
    <path
       stroke="#ff5c09"
       vector-effect="non-scaling-stroke"
       d="m 290.99,233.44 a 0.22,0.22 0 0 0 -0.22,-0.22 h -27.96 a 0.22,0.22 0 0 0 -0.22,0.22 0.22,0.22 0 0 0 0.22,0.22 h 27.96 a 0.22,0.22 0 0 0 0.22,-0.22"
       id="path43" />
    <path
       stroke="#ff8600"
       vector-effect="non-scaling-stroke"
       d="m 287.63,264.68 q 0.24,-0.58 -0.04,-0.99"
       id="path44" />
  </g>
  <path
     fill="#00b5e8"
     d="m 233.21,0 0.16,34.27 Q 179.79,35.01 135.36,60.25 109.42,74.99 89.03,96.41 C 34.68,153.5 19.7,237.64 49.9,310.15 q 22.24,53.39 72.06,87.93 4.57,3.16 10.84,6.72 a 0.93,0.93 0 0 0 1.26,-0.35 q 20.55,-35.67 96.36,-166.81 1.07,-1.85 1.52,-3.99 1.53,-0.04 1.1,-0.85 0.07,-0.01 0.14,-0.01 l 0.1,28.67 0.02,204.53 a 0.85,0.85 0 0 1 -0.9,0.85 q -9.1,-0.5 -12.93,-0.68 C 187.56,464.68 155.94,455.82 127.74,441.47 59.92,406.97 13.44,342.23 2.21,266.75 Q 1.2,260.02 0,245.06 V 221.42 Q 0.63,215.22 1.28,209.03 8.17,143.4 47.47,91.97 C 84.56,43.44 138.4,11.38 198.82,2.38 Q 207.15,1.14 221.38,0 Z"
     id="path45" />
  <path
     fill="#00a199"
     d="m 233.37,34.27 q 52.91,-0.31 98.99,26.13 a 0.59,0.59 0 0 1 0.22,0.81 l -16.74,29.08 q -1.38,-0.35 -2.28,-0.86 -33.25,-18.55 -71.21,-20.6 c -4.93,-0.27 -10.32,0.09 -15.4,0.12 q -5.65,0.04 -11.51,0.71 c -61.1,6.88 -112.91,46.28 -135.46,103.52 -17.92,45.49 -14.39,97.74 9.92,141.03 a 1.21,1.21 0 0 0 1.66,0.46 l 140.38,-81.02 q -0.45,2.14 -1.52,3.99 -75.81,131.14 -96.36,166.81 a 0.93,0.93 0 0 1 -1.26,0.35 q -6.27,-3.56 -10.84,-6.72 Q 72.14,363.54 49.9,310.15 C 19.7,237.64 34.68,153.5 89.03,96.41 q 20.39,-21.42 46.33,-36.16 44.43,-25.24 98.01,-25.98 z"
     id="path46" />
  <path
     fill="#008c2f"
     d="m 315.84,90.29 q -0.19,-0.33 -0.11,0.41 l -17.44,29.56 -16.77,29.1 q -12.67,-5.67 -16.96,-7.2 -15.17,-5.41 -31.32,-4.92 l -3.56,-0.51 q 1.33,-0.61 3.1,-0.79 a 0.58,0.58 0 0 0 0.53,-0.58 v -32.02 a 0.45,0.45 0 0 0 -0.44,-0.45 c -2.46,-0.08 -6.29,-0.25 -8.77,0.15 -4.84,0.78 -8.86,0.87 -14.07,1.87 q -44.67,8.53 -74.51,42.14 -22.52,25.37 -29.87,59.42 c -1.82,8.45 -2.3,17.32 -2.57,25.31 a 0.98,0.99 4.5 0 0 0.86,1.01 q 0.74,0.1 2.91,0.12 16.71,0.12 102.93,0.03 10.25,-0.01 20.4,0.03 0.55,0 1.28,-0.71 1.32,-0.88 1.58,0.54 0.43,0.81 -1.1,0.85 L 91.56,314.67 A 1.21,1.21 0 0 1 89.9,314.21 C 65.59,270.92 62.06,218.67 79.98,173.18 102.53,115.94 154.34,76.54 215.44,69.66 q 5.86,-0.67 11.51,-0.71 c 5.08,-0.03 10.47,-0.39 15.4,-0.12 q 37.96,2.05 71.21,20.6 0.9,0.51 2.28,0.86 z"
     id="path47" />
  <path
     fill="#adb800"
     d="m 315.73,90.7 q 0.19,0.06 0.38,0.02 0.2,-0.04 0.33,0.04 37.44,22.2 59.44,59.6 a 0.48,0.48 0 0 1 -0.18,0.66 l -29.14,16.84 q 0.01,-0.46 -0.52,-0.76 -0.52,-0.28 -0.72,-0.63 -17.27,-29.29 -47.03,-46.21 z"
     id="path48" />
  <path
     fill="#ffffff"
     d="m 458.29,298.89 h -37.45 a 0.4,0.4 0 0 1 -0.4,-0.4 V 97.33 a 0.4,0.4 0 0 1 0.4,-0.4 h 129.73 a 0.4,0.4 0 0 1 0.4,0.4 v 32.9 a 0.4,0.4 0 0 1 -0.4,0.4 h -91.48 a 0.4,0.4 0 0 0 -0.4,0.4 v 51.5 a 0.4,0.4 0 0 0 0.4,0.4 h 68.2 a 0.4,0.4 0 0 1 0.4,0.4 v 33.16 a 0.4,0.4 0 0 1 -0.4,0.4 h -68.2 a 0.4,0.4 0 0 0 -0.4,0.4 v 81.2 a 0.4,0.4 0 0 1 -0.4,0.4 z"
     id="path49" />
  <rect
     fill="#ffffff"
     x="997.31"
     y="96.93"
     width="35.759998"
     height="201.96001"
     rx="0.44"
     id="rect49" />
  <path
     fill="#ffffff"
     d="m 1081.5,213.96 v 84.31 a 0.62,0.63 0 0 1 -0.62,0.63 h -13.57 a 0.43,0.43 0 0 1 -0.43,-0.43 V 97.32 a 0.38,0.37 0 0 1 0.38,-0.37 Q 1116.59,96.88 1134,97 c 12.7,0.1 27.35,2.7 39.33,9.12 q 18.41,9.88 23.64,30.67 4.8,19.13 -0.34,37.9 c -8.07,29.45 -36.65,38.12 -63.63,38.5 q -3.46,0.05 -50.8,0.06 a 0.7,0.71 0 0 0 -0.7,0.71 z m 0,-58.86 q 0,23.51 0.03,44.12 a 0.34,0.34 0 0 0 0.34,0.34 q 32.52,0.02 50.38,0.01 c 9.69,-0.01 19.14,-0.94 28.17,-4.71 16.69,-6.97 23,-22.43 23.01,-39.76 0,-17.33 -6.31,-32.79 -23,-39.76 -9.04,-3.77 -18.48,-4.7 -28.17,-4.71 q -17.86,-0.01 -50.38,0 a 0.34,0.34 0 0 0 -0.35,0.34 q -0.03,20.62 -0.03,44.13 z"
     id="path50" />
  <rect
     fill="#ffffff"
     x="1217"
     y="96.940002"
     width="13.7"
     height="201.96001"
     rx="0.49000001"
     id="rect50" />
  <path
     fill="#006d2b"
     d="m 229.68,136.73 c -5.77,0.95 -12.29,1.5 -17.39,2.72 -24.94,5.95 -48.27,21.63 -61.13,44.23 a 1.23,1.23 0 0 0 0.44,1.67 q 28.11,16.61 61.91,35.85 2.06,1.17 3.5,2.55 4.75,3.71 10.34,6.1 l 3.48,1.45 a 0.34,0.34 0 0 1 0.16,0.49 q -0.09,0.15 -0.11,0.27 a 0.26,0.27 88.6 0 0 0.33,0.31 q 0.12,-0.03 0.25,-0.11 -0.73,0.71 -1.28,0.71 -10.15,-0.04 -20.4,-0.03 -86.22,0.09 -102.93,-0.03 -2.17,-0.02 -2.91,-0.12 a 0.98,0.99 4.5 0 1 -0.86,-1.01 c 0.27,-7.99 0.75,-16.86 2.57,-25.31 q 7.35,-34.05 29.87,-59.42 29.84,-33.61 74.51,-42.14 c 5.21,-1 9.23,-1.09 14.07,-1.87 2.48,-0.4 6.31,-0.23 8.77,-0.15 a 0.45,0.45 0 0 1 0.44,0.45 v 32.02 a 0.58,0.58 0 0 1 -0.53,0.58 q -1.77,0.18 -3.1,0.79 z"
     id="path51" />
  <path
     fill="#be9300"
     d="m 298.29,120.26 q 29.76,16.92 47.03,46.21 0.2,0.35 0.72,0.63 0.53,0.3 0.52,0.76 -0.22,-0.36 -0.61,-0.13 -20.74,12.09 -29.34,16.98 -0.09,0.01 -0.18,0.03 -13.11,-22 -35.16,-35 0.27,-0.25 0.25,-0.38 z"
     id="path52" />
  <path
     fill="#005627"
     d="m 229.68,136.73 3.56,0.51 -0.52,33.75 q -15.91,0.5 -29.7,7.92 a 0.69,0.68 60.9 0 0 -0.26,0.94 l 29.76,51.55 a 0.32,0.31 67.8 0 0 0.34,0.15 q 0.29,-0.06 0.41,-0.36 0.16,0.51 0.1,1.08 l -0.19,0.52 q -0.07,0 -0.14,0.01 -0.26,-1.42 -1.58,-0.54 -0.13,0.08 -0.25,0.11 a 0.26,0.27 88.6 0 1 -0.33,-0.31 q 0.02,-0.12 0.11,-0.27 a 0.34,0.34 0 0 0 -0.16,-0.49 l -3.48,-1.45 -10.34,-6.1 q -1.44,-1.38 -3.5,-2.55 -33.8,-19.24 -61.91,-35.85 a 1.23,1.23 0 0 1 -0.44,-1.67 c 12.86,-22.6 36.19,-38.28 61.13,-44.23 5.1,-1.22 11.62,-1.77 17.39,-2.72 z"
     id="path53" />
  <path
     fill="#006d2b"
     d="m 281.52,149.36 q 0.02,0.13 -0.25,0.38 l -17.07,29.72 q -0.1,-0.11 -0.2,-0.23 -13.27,-7.82 -28.75,-8.25 -0.71,-0.01 -1.93,0.27 l -0.6,-0.26 0.52,-33.75 q 16.15,-0.49 31.32,4.92 4.29,1.53 16.96,7.2 z"
     id="path54" />
  <path
     fill="#c76400"
     d="m 316.43,184.74 -29.77,17.28 q -0.52,-1.08 -1.05,-1.89 -8.48,-12.82 -21.41,-20.67 l 17.07,-29.72 q 22.05,13 35.16,35 z"
     id="path55" />
  <path
     fill="#ffffff"
     d="m 620.3,152 c 43.09,0.04 76.27,32.76 76.23,75.93 -0.03,43.16 -33.26,75.84 -76.35,75.8 -43.09,-0.03 -76.27,-32.76 -76.23,-75.92 0.03,-43.17 33.26,-75.84 76.35,-75.81 z m -40.25,75.89 c 0.01,23.32 15.05,44.91 40.21,44.9 25.15,-0.01 40.18,-21.61 40.17,-44.93 -0.01,-23.31 -15.05,-44.9 -40.21,-44.89 -25.15,0.01 -40.18,21.61 -40.17,44.92 z"
     id="path56" />
  <path
     fill="#ffffff"
     d="m 818.87,257.31 a 0.32,0.33 45.6 0 1 0.47,0 l 20.72,22.51 a 0.4,0.4 0 0 1 0,0.55 q -22.6,23.46 -55.8,23.09 C 757.81,303.16 733.66,294 719.72,271.08 710.54,256 707.39,237.43 709,219.75 c 2.31,-25.45 17.52,-47.97 39.94,-59.36 29.74,-15.1 67.45,-9.87 91.34,14.3 a 0.64,0.64 0 0 1 0,0.9 l -22.04,22.03 a 0.59,0.59 0 0 1 -0.83,0.01 c -1.61,-1.52 -3.7,-3.84 -6.12,-5.69 -14.82,-11.25 -37.59,-12.13 -52.15,0.28 -17.69,15.07 -18.91,46.97 -5.2,64.98 16.4,21.52 47.73,18.69 64.93,0.11 z"
     id="path57" />
  <path
     fill="#ffffff"
     d="m 937.76,286.31 c -1.45,1.11 -3.41,3.52 -5.57,5.07 q -22.29,15.9 -49.62,10.8 c -21.13,-3.94 -36.46,-20.67 -37.14,-42.2 q -0.93,-29.36 22.48,-43.95 c 14.33,-8.93 32.45,-9.99 48.86,-9.34 q 14.83,0.59 20.83,1.03 a 0.64,0.64 0 0 0 0.69,-0.6 q 0.88,-15.43 -12.87,-21.82 c -8.26,-3.84 -17.1,-3.89 -26.71,-3.09 -11.59,0.97 -21.4,5.77 -30.81,11.75 a 0.5,0.5 0 0 1 -0.68,-0.14 l -15.86,-23.49 a 0.46,0.46 0 0 1 0.11,-0.62 c 19.21,-14.13 42.18,-18.46 65.79,-17.54 28.97,1.13 55.13,19.16 55.26,50.6 q 0.09,22.05 0.03,95.75 a 0.44,0.45 0 0 1 -0.44,0.45 h -32.44 a 0.53,0.53 0 0 1 -0.53,-0.5 l -0.75,-11.87 a 0.39,0.39 0 0 0 -0.63,-0.29 z m 0.25,-51.51 q -15.8,-1.34 -29.23,-1.17 c -14,0.19 -26.16,4.53 -28.91,19.44 q -0.74,4.05 0.51,8.31 c 3.03,10.25 12.54,13.19 22.08,13.76 13.88,0.82 28.08,-5.78 34.19,-18.73 1.32,-2.78 1.65,-6.1 1.66,-9.16 q 0.02,-5.75 -0.01,-12.14 a 0.31,0.31 0 0 0 -0.29,-0.31 z"
     id="path58" />
  <path
     fill="#ffffff"
     d="m 1351.89,215.53 a 0.31,0.3 6.1 0 0 0.35,-0.28 q 0.54,-9.14 -0.75,-18.48 -3.23,-23.34 -26.66,-27.13 c -15.34,-2.48 -32.95,-1.81 -46.78,6.13 q -5.97,3.43 -10.7,6.97 a 0.47,0.47 0 0 1 -0.65,-0.09 l -6.68,-8.61 a 0.79,0.78 52 0 1 0.13,-1.1 c 11.63,-9.23 25.75,-15.41 41.33,-16.64 16.3,-1.29 35.15,0.55 48.66,10.3 11.25,8.12 15.61,22.15 15.75,35.94 q 0.21,19.49 0.09,79.19 c -0.01,5.46 0.62,12.08 0.87,16.59 a 0.61,0.61 0 0 1 -0.61,0.65 h -12.11 a 0.77,0.77 0 0 1 -0.77,-0.77 v -21.84 a 0.26,0.26 0 0 0 -0.47,-0.15 c -15.22,21.36 -39.57,29.55 -65.32,25.26 -18.82,-3.13 -32.65,-13.66 -35.02,-33.24 -2.06,-17.05 2.97,-34.88 17.62,-44.81 15.3,-10.36 33.36,-11.22 51.27,-10.72 q 15.54,0.44 30.45,2.83 z m 0.01,12.05 q -24.5,-4.89 -50.65,-2.82 c -14.6,1.15 -29.61,9.42 -33.09,24.52 -4.49,19.48 1.16,34.88 21.84,39.38 20.87,4.55 42.14,-2.47 54.96,-19.66 q 7.88,-10.57 7.71,-23.71 -0.1,-8.33 -0.06,-16.84 a 0.88,0.89 5.5 0 0 -0.71,-0.87 z"
     id="path59" />
  <path
     fill="#ffffff"
     d="m 1407.73,187.5 q 0.55,-1.5 4.89,-7.4 c 12.06,-16.41 29.41,-24.24 49.57,-24.12 23.44,0.14 41.99,9.31 48.9,33.14 q 3.51,12.09 3.49,28.88 -0.06,40.39 0,80.41 a 0.55,0.55 0 0 1 -0.55,0.56 h -12.59 a 0.5,0.5 0 0 1 -0.5,-0.5 q -0.06,-25.96 0.01,-75.97 c 0.01,-14.56 -1.33,-31.14 -10.55,-42.53 -6.67,-8.22 -17.04,-10.62 -28.05,-11.11 -16.24,-0.73 -30.32,4.97 -40.61,17.7 q -8.89,10.99 -12.36,25.79 -1.88,8.02 -1.64,24.01 0.01,0.37 0.04,62.08 a 0.53,0.52 0 0 1 -0.53,0.52 h -12.74 a 0.52,0.52 0 0 1 -0.52,-0.52 q 0.11,-43.29 0.02,-128.68 0,-4.49 -0.45,-9.56 a 0.53,0.53 0 0 1 0.53,-0.58 h 11.58 a 0.59,0.59 0 0 1 0.59,0.55 q 0.8,10.6 0.81,13.07 0.06,14.27 0.06,14.29 a 0.33,0.33 0 0 0 0.6,-0.03 z"
     id="path60" />
  <path
     fill="#ffffff"
     d="m 1668,226.14 v 6.81 l -118.16,-0.01 a 0.42,0.42 0 0 0 -0.42,0.44 c 1.79,47.03 47.09,69.81 87.9,48.22 q 8.27,-4.38 14.72,-11.51 a 0.43,0.42 40.6 0 1 0.59,-0.04 l 9,7.6 a 0.56,0.57 40.3 0 1 0.06,0.79 c -17.47,20.99 -48.6,27.71 -74.22,22.11 -33.58,-7.33 -52.9,-36.62 -53.24,-69.97 -0.33,-32.94 17.91,-64.33 50.73,-72.6 18.7,-4.71 40.39,-1.27 55.99,10.32 15.18,11.29 23.63,29.52 25.95,48.22 q 0.6,4.79 1.1,9.62 z m -14.98,-5.58 c -2.4,-29.37 -19.69,-51.44 -51.27,-51.79 -29.72,-0.32 -50.14,23.51 -52.02,51.82 a 0.42,0.41 1.9 0 0 0.42,0.44 h 102.43 a 0.43,0.44 87.6 0 0 0.44,-0.47 z"
     id="path61" />
  <path
     fill="#ffb800"
     d="m 346.56,167.86 q 17.2,30.16 17.49,65 a 0.39,0.39 0 0 1 -0.39,0.4 l -33.78,0.03 -0.23,-1.02 q -0.37,-25.46 -13.04,-47.56 8.6,-4.89 29.34,-16.98 0.39,-0.23 0.61,0.13 z"
     id="path62" />
  <path
     fill="#001801"
     d="m 232.72,170.99 0.6,0.26 -0.05,59.94 q -0.12,0.3 -0.41,0.36 a 0.32,0.31 67.8 0 1 -0.34,-0.15 l -29.76,-51.55 a 0.69,0.68 60.9 0 1 0.26,-0.94 q 13.79,-7.42 29.7,-7.92 z"
     id="path63" />
  <path
     fill="#66250d"
     d="m 264,179.23 -30.47,53.16 q -0.08,-0.06 -0.16,-0.12 0.06,-0.57 -0.1,-1.08 l 0.05,-59.94 q 1.22,-0.28 1.93,-0.27 15.48,0.43 28.75,8.25 z m -24.42,26.28 q -1.11,-0.46 -1.96,-0.21 a 0.16,0.15 43.5 0 0 0.01,0.3 l 1.78,0.42 a 0.27,0.27 0 0 0 0.17,-0.51 z"
     id="path64" />
  <path
     fill="#b5460c"
     d="m 264.2,179.46 q 12.93,7.85 21.41,20.67 0.53,0.81 1.05,1.89 -14.04,8.32 -25.86,15.05 -2.15,1.22 -4.26,2.5 -11.15,6.76 -23.01,12.82 L 264,179.23 q 0.1,0.12 0.2,0.23 z m -11.09,33.97 q 1.32,1.34 2.64,2.69 a 0.02236068,0.02236068 0 0 0 0.04,-0.02 q -0.01,-0.03 -0.01,-0.06 a 0.36,0.41 20.7 0 0 -0.08,-0.21 q -1.07,-1.41 -2.31,-2.67 -1.24,-1.27 -2.63,-2.36 a 0.36,0.41 70.3 0 0 -0.21,-0.08 q -0.03,0 -0.06,-0.01 a 0.02236068,0.02236068 0 0 0 -0.02,0.04 q 1.32,1.34 2.64,2.68 z"
     id="path65" />
  <path
     fill="#ff7200"
     d="m 316.61,184.71 q 12.67,22.1 13.04,47.56 l -0.06,0.29 a 0.5,0.49 4.8 0 1 -0.49,0.41 l -33.74,-0.19 q -0.26,-17.13 -8.7,-30.76 l 29.77,-17.28 q 0.09,-0.02 0.18,-0.03 z"
     id="path66" />
  <path
     fill="#ff4612"
     d="m 286.66,202.02 q 8.44,13.63 8.7,30.76 0.24,16.11 -7.77,30.91 -0.63,0.72 -1.23,0.2 -1.06,-0.92 -1.08,-0.92 -13.29,-7.59 -27.24,-15.76 a 0.43,0.44 29.7 0 0 -0.6,0.17 q -3.45,6.17 -10.11,10.32 -6.36,3.78 -14.05,3.76 l -0.1,-28.67 0.19,-0.52 q 0.08,0.06 0.16,0.12 11.86,-6.06 23.01,-12.82 2.11,-1.28 4.26,-2.5 11.82,-6.73 25.86,-15.05 z m 4.33,31.42 a 0.22,0.22 0 0 0 -0.22,-0.22 h -27.96 a 0.22,0.22 0 0 0 -0.22,0.22 0.22,0.22 0 0 0 0.22,0.22 h 27.96 a 0.22,0.22 0 0 0 0.22,-0.22 z"
     id="path67" />
  <path
     fill="#b5460c"
     d="m 239.41,206.02 -1.78,-0.42 a 0.16,0.15 43.5 0 1 -0.01,-0.3 q 0.85,-0.25 1.96,0.21 a 0.27,0.27 0 0 1 -0.17,0.51 z"
     id="path68" />
  <path
     fill="#c76400"
     d="m 253.39,213.16 q 1.24,1.26 2.31,2.67 a 0.36,0.41 20.7 0 1 0.08,0.21 q 0,0.03 0.01,0.06 a 0.02236068,0.02236068 0 0 1 -0.04,0.02 q -1.32,-1.35 -2.64,-2.69 -1.32,-1.34 -2.64,-2.68 a 0.02236068,0.02236068 0 0 1 0.02,-0.04 q 0.03,0.01 0.06,0.01 a 0.36,0.41 70.3 0 1 0.21,0.08 q 1.39,1.09 2.63,2.36 z"
     id="path69" />
  <path
     fill="#008c2f"
     d="m 217.01,223.75 10.34,6.1 q -5.59,-2.39 -10.34,-6.1 z"
     id="path70" />
  <path
     fill="#ff9900"
     d="m 329.65,232.27 0.23,1.02 q -0.2,25.22 -12.53,47.62 a 0.78,0.78 0 0 1 -1.07,0.3 l -28.65,-16.53 q 0.24,-0.58 -0.04,-0.99 8.01,-14.8 7.77,-30.91 l 33.74,0.19 a 0.5,0.49 4.8 0 0 0.49,-0.41 z"
     id="path71" />
  <rect
     fill="#ff7200"
     x="262.59"
     y="233.22"
     width="28.4"
     height="0.44"
     rx="0.22"
     id="rect71" />
  <path
     fill="#ff7200"
     d="m 287.59,263.69 q 0.28,0.41 0.04,0.99 -0.06,-0.33 -0.39,0.22 -8.33,13.72 -22.4,22.22 a 0.43,0.42 59 0 1 -0.59,-0.15 L 247.33,257.7 q 6.66,-4.15 10.11,-10.32 a 0.43,0.44 29.7 0 1 0.6,-0.17 q 13.95,8.17 27.24,15.76 0.02,0 1.08,0.92 0.6,0.52 1.23,-0.2 z"
     id="path72" />
  <path
     fill="#ffffff"
     d="m 473.38,440.26 11.32,-47.52 a 0.3,0.29 6 0 1 0.29,-0.23 h 8.68 a 0.17,0.17 0 0 1 0.16,0.21 l -16.02,59.68 a 0.66,0.67 7.4 0 1 -0.64,0.5 h -8.53 a 0.76,0.74 82.4 0 1 -0.72,-0.56 l -11.48,-43.03 a 0.67,0.67 0 0 0 -1.29,0 l -11.52,42.94 a 0.89,0.88 7.1 0 1 -0.86,0.66 h -8.38 a 0.77,0.77 0 0 1 -0.75,-0.58 l -15.91,-59.61 a 0.17,0.17 0 0 1 0.17,-0.21 h 9.19 a 0.34,0.34 0 0 1 0.33,0.26 l 11.27,47.44 a 0.35,0.34 45.7 0 0 0.67,0.01 l 12.13,-45.19 a 0.97,0.98 7.3 0 1 0.94,-0.73 h 7.46 a 0.93,0.93 0 0 1 0.9,0.7 l 12.08,45.26 a 0.26,0.26 0 0 0 0.51,0 z"
     id="path73" />
  <path
     fill="#ffffff"
     d="m 507.98,416.22 q 0.18,-0.15 2.14,-2.07 4.96,-4.88 13.48,-4.27 c 9.41,0.66 14.09,7.72 14.13,16.63 q 0.07,14.42 0.02,25.88 a 0.52,0.52 0 0 1 -0.52,0.51 h -7.18 a 0.5,0.49 0.6 0 1 -0.5,-0.5 q 0.09,-13.16 -0.06,-25.62 c -0.06,-5.73 -3.24,-9.67 -9.23,-9.84 -9.13,-0.26 -12.26,7.67 -12.51,15.56 q -0.11,3.61 -0.05,20.12 a 0.28,0.28 0 0 1 -0.28,0.28 h -7.68 a 0.24,0.24 0 0 1 -0.24,-0.24 v -59.82 a 0.33,0.34 0 0 1 0.33,-0.34 h 7.34 a 0.39,0.39 0 0 1 0.39,0.39 v 23.14 a 0.25,0.25 0 0 0 0.42,0.19 z"
     id="path74" />
  <path
     fill="#ffffff"
     d="m 693.07,414.64 a 0.22,0.22 0 0 0 0.37,0.15 q 3.8,-3.88 9.09,-4.67 c 25.41,-3.8 30.39,31.72 10.73,41.44 -8.14,4.03 -19.08,2.87 -27.96,0.09 A 0.68,0.68 0 0 1 684.82,451 v -58.26 a 0.24,0.24 0 0 1 0.24,-0.24 h 7.75 a 0.26,0.26 0 0 1 0.26,0.26 z m 0.56,31.37 c 7.2,2.07 15.5,1.5 20.38,-4.96 3.96,-5.27 3.8,-15.17 -0.79,-20.48 -3.34,-3.86 -9.54,-4.51 -13.85,-2.41 -6.65,3.23 -6.44,9.08 -6.42,16.98 q 0.03,10 0.03,10.09 a 0.91,0.9 5.2 0 0 0.65,0.78 z"
     id="path75" />
  <rect
     fill="#ffffff"
     x="801.51001"
     y="392.48999"
     width="8.1800003"
     height="60.400002"
     rx="0.38999999"
     id="rect75" />
  <rect
     fill="#ffffff"
     x="731.92303"
     y="395.3761"
     transform="rotate(-0.1)"
     width="9.2200003"
     height="9.2200003"
     rx="0.47999999"
     id="rect76" />
  <rect
     fill="#ffffff"
     x="1308.1938"
     y="391.80933"
     transform="rotate(0.1)"
     width="9.1999998"
     height="9.1999998"
     rx="0.44"
     id="rect77" />
  <path
     fill="#ffffff"
     d="m 1155.07,397.42 v 12.83 a 0.57,0.57 0 0 0 0.57,0.57 h 11.32 a 0.41,0.41 0 0 1 0.41,0.41 v 6 a 0.39,0.4 0 0 1 -0.39,0.4 h -11.29 a 0.57,0.56 2.2 0 0 -0.57,0.52 q -0.18,1.96 0.04,22.08 c 0.08,7.61 7.68,8.77 12.37,4.43 a 0.62,0.62 0 0 1 0.92,0.07 l 3.01,3.88 a 0.81,0.8 49.9 0 1 -0.09,1.09 q -6.32,5.78 -15.58,3.93 c -6.26,-1.25 -8.74,-6.79 -8.83,-12.63 q -0.15,-9.47 -0.07,-22.88 a 0.48,0.48 0 0 0 -0.48,-0.49 h -6.7 a 0.4,0.4 0 0 1 -0.4,-0.4 v -6.02 a 0.39,0.4 0 0 1 0.39,-0.4 h 6.61 a 0.57,0.57 0 0 0 0.57,-0.57 v -12.81 a 0.41,0.4 0 0 1 0.41,-0.4 h 7.39 a 0.39,0.39 0 0 1 0.39,0.39 z"
     id="path77" />
  <path
     fill="#ffffff"
     d="m 554.12,434.24 a 0.69,0.69 0 0 0 -0.68,0.8 c 2.38,13.95 17.99,15.09 27.06,7.04 a 0.53,0.54 48.5 0 1 0.75,0.04 l 3.91,4.24 a 0.55,0.55 0 0 1 -0.01,0.75 c -7.32,7.5 -20.98,9.37 -30.03,3.94 -10.74,-6.46 -13.5,-23.17 -5.71,-33.32 8.2,-10.69 26.49,-11.77 33.63,1.45 q 3.57,6.63 3.47,14.45 a 0.62,0.62 0 0 1 -0.62,0.61 z m -0.33,-6.12 24.06,-0.04 a 0.15,0.15 0 0 0 0.15,-0.15 v -0.12 a 11.37,12.05 89.9 0 0 -12.07,-11.35 h -0.26 a 11.37,12.05 89.9 0 0 -12.03,11.39 v 0.12 a 0.15,0.15 0 0 0 0.15,0.15 z"
     id="path78" />
  <path
     fill="#ffffff"
     d="m 629.44,435.04 c 2.39,13.95 18,15.09 27.07,7.04 a 0.53,0.54 48.5 0 1 0.75,0.04 l 3.91,4.24 a 0.55,0.55 0 0 1 -0.01,0.75 c -7.32,7.5 -20.98,9.37 -30.03,3.94 -10.75,-6.46 -13.51,-23.17 -5.72,-33.32 8.2,-10.69 26.49,-11.77 33.63,1.45 q 3.58,6.63 3.48,14.45 a 0.62,0.62 0 0 1 -0.62,0.61 h -31.78 a 0.69,0.69 0 0 0 -0.68,0.8 z m 0.37,-6.92 24.04,-0.04 a 0.15,0.15 0 0 0 0.15,-0.15 v -0.12 a 11.37,12.04 89.9 0 0 -12.06,-11.35 h -0.26 a 11.37,12.04 89.9 0 0 -12.02,11.39 v 0.12 a 0.15,0.15 0 0 0 0.15,0.15 z"
     id="path79" />
  <path
     fill="#ffffff"
     d="m 793.99,431.78 a 22.37,22.37 0 0 1 -22.37,22.37 22.37,22.37 0 0 1 -22.37,-22.37 22.37,22.37 0 0 1 22.37,-22.37 22.37,22.37 0 0 1 22.37,22.37 z m -22.6367,-15.2677 a 15.28,13.98 89 0 0 -13.7112,15.5217 15.28,13.98 89 0 0 14.2446,15.0337 15.28,13.98 89 0 0 13.7112,-15.5217 15.28,13.98 89 0 0 -14.2446,-15.0337 z"
     id="path80" />
  <path
     fill="#ffffff"
     d="m 861.94,431.78 a 22.37,22.37 0 0 1 -22.37,22.37 22.37,22.37 0 0 1 -22.37,-22.37 22.37,22.37 0 0 1 22.37,-22.37 22.37,22.37 0 0 1 22.37,22.37 z m -22.6267,-15.2677 a 15.28,13.98 89 0 0 -13.7112,15.5217 15.28,13.98 89 0 0 14.2446,15.0337 15.28,13.98 89 0 0 13.7112,-15.5217 15.28,13.98 89 0 0 -14.2446,-15.0337 z"
     id="path81" />
  <path
     fill="#ffffff"
     d="m 1056.49,434.24 a 0.69,0.69 0 0 0 -0.68,0.8 c 2.39,13.95 18,15.09 27.07,7.03 a 0.53,0.54 48.4 0 1 0.75,0.04 l 3.91,4.24 a 0.55,0.55 0 0 1 -0.01,0.75 c -7.32,7.51 -20.97,9.38 -30.03,3.95 -10.75,-6.45 -13.52,-23.16 -5.73,-33.31 8.2,-10.7 26.49,-11.79 33.63,1.43 q 3.58,6.63 3.49,14.45 a 0.62,0.62 0 0 1 -0.62,0.61 z m -0.33,-6.14 h 24.06 a 0.14,0.14 0 0 0 0.14,-0.14 v -0.13 a 12.04,11.37 0 0 0 -12.04,-11.37 h -0.26 a 12.04,11.37 0 0 0 -12.04,11.37 v 0.13 a 0.14,0.14 0 0 0 0.14,0.14 z"
     id="path82" />
  <path
     fill="#ffffff"
     d="m 1103.39,434.24 a 0.69,0.69 0 0 0 -0.68,0.8 c 2.38,13.95 17.99,15.09 27.07,7.04 a 0.53,0.54 48.5 0 1 0.75,0.04 l 3.91,4.24 a 0.55,0.55 0 0 1 -0.01,0.75 c -7.33,7.5 -20.99,9.37 -30.04,3.94 -10.74,-6.46 -13.5,-23.17 -5.71,-33.32 8.2,-10.69 26.49,-11.77 33.63,1.45 q 3.58,6.63 3.48,14.45 a 0.62,0.62 0 0 1 -0.62,0.61 z m -0.35,-6.14 h 24.08 a 0.14,0.14 0 0 0 0.14,-0.14 v -0.13 a 12.05,11.37 0 0 0 -12.05,-11.37 h -0.26 a 12.05,11.37 0 0 0 -12.05,11.37 v 0.13 a 0.14,0.14 0 0 0 0.14,0.14 z"
     id="path83" />
  <path
     fill="#ffffff"
     d="m 1179.5,442.52 q 7.15,6.35 17.31,4.05 c 6.05,-1.37 6.13,-8.1 0.14,-9.83 q -10.99,-3.19 -12,-3.54 -7.64,-2.62 -8.84,-9.56 c -1.75,-10.11 9.4,-14.4 17.45,-14.22 q 8.55,0.2 14.58,4.98 a 0.66,0.66 0 0 1 0.1,0.94 l -3.91,4.63 a 0.55,0.55 0 0 1 -0.77,0.07 q -5.92,-4.65 -14.12,-3.39 c -1.77,0.27 -4.08,1.13 -4.84,2.91 -1.65,3.81 0.81,5.57 4.29,6.83 3.41,1.22 14.01,2.65 17.74,6.97 6.32,7.32 2.51,16.45 -6.18,19.41 -8.09,2.76 -19.41,1.59 -25.88,-4.62 a 0.5,0.5 0 0 1 -0.04,-0.69 l 4.12,-4.87 a 0.6,0.6 0 0 1 0.85,-0.07 z"
     id="path84" />
  <path
     fill="#ffffff"
     d="m 1324.21,432.02 c -0.1,-12.44 7.9,-21.33 20.32,-22.41 q 10.3,-0.89 17.63,6.32 a 0.71,0.73 44.1 0 1 0,1.01 l -4.18,4.33 a 0.68,0.68 0 0 1 -0.99,-0.01 c -5.83,-6.27 -16.55,-6.29 -21.62,1.13 q -2.9,4.23 -2.86,9.56 0.04,5.33 3,9.52 c 5.19,7.34 15.91,7.15 21.64,0.8 a 0.68,0.68 0 0 1 0.99,-0.03 l 4.25,4.26 a 0.73,0.71 45.1 0 1 0.01,1.01 q -7.21,7.32 -17.52,6.59 c -12.44,-0.88 -20.57,-9.65 -20.67,-22.08 z"
     id="path85" />
  <path
     fill="#ffffff"
     d="m 1440.94,431.78 a 22.37,22.37 0 0 1 -22.37,22.37 22.37,22.37 0 0 1 -22.37,-22.37 22.37,22.37 0 0 1 22.37,-22.37 22.37,22.37 0 0 1 22.37,22.37 z m -22.6267,-15.2777 a 15.28,13.98 89 0 0 -13.7112,15.5217 15.28,13.98 89 0 0 14.2446,15.0337 15.28,13.98 89 0 0 13.7112,-15.5217 15.28,13.98 89 0 0 -14.2446,-15.0337 z"
     id="path86" />
  <path
     fill="#ffffff"
     d="m 1450.66,442.59 a 0.6,0.6 0 0 1 0.85,-0.07 q 7.15,6.35 17.31,4.05 c 6.05,-1.37 6.13,-8.1 0.14,-9.83 q -10.99,-3.19 -12,-3.54 -7.64,-2.62 -8.84,-9.56 c -1.75,-10.11 9.4,-14.4 17.45,-14.22 q 8.55,0.2 14.58,4.98 a 0.66,0.66 0 0 1 0.1,0.94 l -3.91,4.63 a 0.55,0.55 0 0 1 -0.77,0.07 q -5.92,-4.65 -14.12,-3.39 c -1.77,0.27 -4.08,1.13 -4.84,2.91 -1.65,3.81 0.81,5.57 4.29,6.83 3.41,1.22 14.01,2.65 17.74,6.97 6.32,7.32 2.51,16.45 -6.18,19.41 -8.09,2.76 -19.41,1.59 -25.88,-4.62 a 0.5,0.5 0 0 1 -0.04,-0.69 z"
     id="path87" />
  <path
     fill="#ffffff"
     d="m 1495.9,431.96 q 0.04,5.33 3.01,9.52 c 5.2,7.33 15.92,7.13 21.64,0.77 a 0.68,0.68 0 0 1 0.99,-0.03 l 4.26,4.26 a 0.73,0.71 45 0 1 0.01,1.01 q -7.21,7.33 -17.52,6.61 c -12.44,-0.87 -20.58,-9.64 -20.69,-22.07 -0.11,-12.43 7.88,-21.34 20.3,-22.43 q 10.3,-0.9 17.63,6.31 a 0.71,0.73 44 0 1 0.01,1.01 l -4.18,4.33 a 0.68,0.68 0 0 1 -0.99,-0.01 c -5.83,-6.26 -16.56,-6.27 -21.62,1.15 q -2.9,4.24 -2.85,9.57 z"
     id="path88" />
  <path
     fill="#ffffff"
     d="m 1572.7,431.78 a 22.37,22.37 0 0 1 -22.37,22.37 22.37,22.37 0 0 1 -22.37,-22.37 22.37,22.37 0 0 1 22.37,-22.37 22.37,22.37 0 0 1 22.37,22.37 z m -22.61,-15.2781 a 15.28,13.98 89.1 0 0 -13.7383,15.4977 15.28,13.98 89.1 0 0 14.2183,15.0585 15.28,13.98 89.1 0 0 13.7383,-15.4977 15.28,13.98 89.1 0 0 -14.2183,-15.0585 z"
     id="path89" />
  <path
     fill="#ffffff"
     d="m 891,472 h -7.39 q -6.71,-0.82 -11.84,-4.18 a 0.54,0.55 31.5 0 1 -0.17,-0.73 l 3.06,-5.3 a 0.55,0.54 30.8 0 1 0.77,-0.19 c 6.73,4.2 19.62,5.95 23.24,-3.52 q 1.11,-2.89 0.91,-9.35 a 0.41,0.41 0 0 0 -0.61,-0.35 c -0.78,0.44 -1.71,1.54 -2.51,2 q -8.59,4.97 -17.74,1.37 c -8.21,-3.23 -11.47,-11.51 -11.3,-20.15 0.17,-8.77 4.99,-16.21 13.02,-19.74 7.85,-3.45 18.62,-2.21 26.88,0.61 a 0.82,0.81 9.6 0 1 0.55,0.77 q -0.15,18.27 0.05,33.61 0.14,10.27 -1.65,14.64 -3.65,8.94 -15.27,10.51 z m 7.91,-53.96 c -8.45,-2.31 -17.69,-1.13 -21.63,7.3 -2.84,6.06 -1.94,16.78 5.32,19.72 6.8,2.75 15.95,0.09 16.89,-8.15 q 0.28,-2.52 0.1,-18 a 0.92,0.91 7.1 0 0 -0.68,-0.87 z"
     id="path90" />
  <path
     fill="#ffffff"
     d="m 982.07,416.02 a 0.37,0.37 0 0 0 0.66,0.23 q 6.98,-8.72 18.26,-5.69 c 4.22,1.13 5.31,3.09 7.57,6.08 a 0.58,0.58 0 0 0 0.85,0.08 c 5.33,-4.9 9.21,-7.57 17.22,-6.8 8.68,0.84 12.83,7 13.41,15.36 q 0.17,2.52 0.05,27.2 a 0.43,0.43 0 0 1 -0.43,0.43 h -7.3 a 0.44,0.44 0 0 1 -0.44,-0.44 q -0.01,-23.54 0,-23.95 c 0.07,-3.91 -0.74,-9.01 -4.71,-10.68 q -5.5,-2.3 -10.32,0.98 c -4.79,3.26 -5.64,7.47 -5.61,13.56 q 0.06,17.62 0.03,20.05 a 0.49,0.49 0 0 1 -0.49,0.48 h -7.2 a 0.5,0.5 0 0 1 -0.5,-0.5 q -0.01,-23.23 -0.02,-23.91 c -0.06,-6.05 -1.69,-11.61 -8.97,-11.55 -8.54,0.05 -11.4,7.83 -11.67,15.27 q -0.15,4.44 -0.07,20.23 a 0.45,0.45 0 0 1 -0.45,0.45 h -7.34 a 0.43,0.42 0 0 1 -0.43,-0.42 v -40.59 a 1.16,1.16 0 0 1 1.16,-1.16 h 5.74 a 1,1 0 0 1 1,1 z"
     id="path91" />
  <path
     fill="#ffffff"
     d="m 1240.92,416.25 q 6.98,-8.72 18.26,-5.69 c 4.22,1.13 5.31,3.09 7.57,6.08 a 0.58,0.58 0 0 0 0.85,0.08 c 5.33,-4.9 9.21,-7.57 17.21,-6.8 8.68,0.84 12.83,6.99 13.41,15.35 q 0.17,2.52 0.06,27.2 a 0.43,0.43 0 0 1 -0.43,0.43 h -7.3 a 0.44,0.44 0 0 1 -0.44,-0.44 q -0.01,-23.54 0,-23.95 c 0.06,-3.91 -0.75,-9.01 -4.71,-10.67 q -5.5,-2.3 -10.32,0.98 c -4.79,3.26 -5.64,7.46 -5.61,13.55 q 0.06,17.62 0.03,20.05 a 0.49,0.49 0 0 1 -0.49,0.48 h -7.2 a 0.5,0.5 0 0 1 -0.5,-0.5 q -0.01,-23.22 -0.02,-23.9 c -0.06,-6.05 -1.69,-11.61 -8.97,-11.55 -8.54,0.05 -11.4,7.83 -11.67,15.27 q -0.15,4.44 -0.07,20.22 a 0.45,0.45 0 0 1 -0.45,0.45 h -7.34 a 0.43,0.42 0 0 1 -0.43,-0.42 v -40.58 a 1.16,1.16 0 0 1 1.16,-1.16 h 5.74 a 1,1 0 0 1 1,1 v 4.29 a 0.37,0.37 0 0 0 0.66,0.23 z"
     id="path92" />
  <path
     fill="#ffffff"
     d="m 1588.86,415.94 q 6.81,-7.33 16.93,-5.8 c 9.96,1.5 14.99,10 15.6,19.5 q 0.88,13.74 -8.74,20.56 c -6.34,4.5 -16.76,5.37 -23.59,1.55 a 0.5,0.51 14.4 0 0 -0.75,0.45 v 18.33 a 0.44,0.44 0 0 1 -0.44,0.44 h -7.28 a 0.43,0.43 0 0 1 -0.43,-0.43 v -58.65 a 1.1,1.1 0 0 1 1.1,-1.1 h 5.85 a 0.99,1 0 0 1 0.99,1 v 3.85 a 0.44,0.44 0 0 0 0.76,0.3 z m -0.54,26.88 a 1.7,1.7 0 0 0 0.81,1.43 c 6.81,4.17 16.54,4.06 21.33,-3.1 3.21,-4.78 3.25,-11.24 1.4,-16.55 -1.96,-5.61 -7.18,-8.28 -12.97,-7.45 -12.24,1.75 -10.69,15.45 -10.57,25.67 z"
     id="path93" />
  <path
     fill="#ffffff"
     d="m 601.93,416.35 a 0.34,0.33 68.8 0 0 0.56,0.25 q 1.84,-1.71 2.04,-1.89 6.51,-6.16 15.47,-4 a 0.43,0.42 13.5 0 1 0.32,0.51 l -1.6,6.73 a 0.47,0.46 11.3 0 1 -0.53,0.35 q -10.64,-1.83 -14.7,6.75 -1.43,3.01 -1.36,8.62 0.13,9.5 0.04,18.82 a 0.42,0.41 0 0 1 -0.42,0.41 h -7.32 a 0.44,0.43 0 0 1 -0.44,-0.43 l -0.01,-40.53 a 1.21,1.21 0 0 1 1.21,-1.21 h 5.42 a 1.32,1.31 0 0 1 1.32,1.31 z"
     id="path94" />
  <path
     fill="#ffffff"
     d="m 1377.67,416.6 q 1.84,-1.71 2.04,-1.89 6.51,-6.16 15.47,-4 a 0.43,0.42 13.5 0 1 0.32,0.51 l -1.6,6.73 a 0.47,0.46 11.3 0 1 -0.53,0.35 q -10.64,-1.83 -14.7,6.75 -1.43,3.01 -1.36,8.62 0.12,9.5 0.03,18.82 a 0.42,0.41 0 0 1 -0.42,0.41 h -7.32 a 0.44,0.43 0 0 1 -0.44,-0.43 v -40.53 a 1.21,1.21 0 0 1 1.21,-1.21 h 5.42 a 1.32,1.31 0 0 1 1.32,1.31 v 4.31 a 0.34,0.33 68.8 0 0 0.56,0.25 z"
     id="path95" />
  <rect
     fill="#ffffff"
     x="733.15997"
     y="410.82001"
     width="8.2200003"
     height="42.080002"
     rx="0.44999999"
     id="rect95" />
  <path
     fill="#ffffff"
     d="m 923.38,472 h -4.75 q -3.6,-0.88 -5.86,-2.45 a 0.94,0.94 0 0 1 -0.28,-1.24 l 2.72,-4.7 a 0.71,0.7 39.9 0 1 1.15,-0.1 q 0.64,0.77 2.27,1.29 4.1,1.32 6.31,-2.06 1.98,-3.04 4.34,-9.79 a 1.51,1.54 41.8 0 0 -0.05,-1.13 L 910.83,411 a 0.13,0.12 77.6 0 1 0.11,-0.18 h 8.92 a 0.46,0.45 77.8 0 1 0.41,0.27 l 13.06,30.57 a 0.33,0.33 0 0 0 0.61,-0.01 l 11.49,-30.57 a 0.38,0.4 11.3 0 1 0.36,-0.25 h 8.53 a 0.13,0.13 0 0 1 0.12,0.18 q -11.05,26.6 -21.06,51.6 -2.87,7.17 -10,9.39 z"
     id="path96" />
  <rect
     fill="#ffffff"
     x="1308"
     y="410.82001"
     width="8.2399998"
     height="42.080002"
     rx="0.34"
     id="rect96" />
  <path
     fill="#ffffff"
     d="m 1637.11,472 h -4.99 q -3.08,-0.61 -6.33,-2.86 a 0.19,0.19 0 0 1 -0.05,-0.25 l 3.18,-5.52 a 0.35,0.35 0 0 1 0.5,-0.11 q 5.95,4.12 8.98,-0.46 2.48,-3.74 4.43,-10.02 a 1.47,1.46 41.8 0 0 -0.06,-1.02 L 1624.39,411 a 0.13,0.12 77.6 0 1 0.11,-0.18 h 8.94 a 0.43,0.41 78 0 1 0.38,0.26 l 13.11,30.66 a 0.29,0.29 0 0 0 0.54,-0.02 L 1659,411.08 a 0.38,0.39 9.7 0 1 0.36,-0.26 h 8.51 a 0.15,0.15 0 0 1 0.14,0.2 q -11.87,28.58 -20.9,51.12 -3.01,7.5 -10,9.86 z"
     id="path97" />
</svg>
