<?xml version="1.0" encoding="UTF-8" standalone="no"?>
<!DOCTYPE svg PUBLIC "-//W3C//DTD SVG 1.1//EN" "http://www.w3.org/Graphics/SVG/1.1/DTD/svg11.dtd">
<svg xmlns="http://www.w3.org/2000/svg" version="1.1" viewBox="0.00 0.00 249.00 256.00">
<path fill="#ffffff" d="
  M 124.73 133.99
  C 114.35 126.35 135.78 100.46 140.81 94.56
  C 155.64 77.19 163.47 68.25 168.89 60.88
  Q 170.56 58.60 171.27 55.54
  A 0.49 0.49 0.0 0 1 172.02 55.25
  C 182.43 62.67 164.92 81.92 159.65 87.95
  C 150.49 98.43 140.54 108.03 131.68 118.40
  C 128.58 122.03 123.02 129.08 124.99 133.78
  A 0.17 0.17 0.0 0 1 124.73 133.99
  Z"
/>
<path fill="#ffffff" d="
  M 159.57 97.63
  Q 164.00 98.11 164.42 98.26
  C 171.42 100.73 164.26 108.98 161.13 112.16
  Q 150.02 123.47 145.99 127.48
  Q 144.48 128.99 143.86 131.02
  A 1.55 1.55 0.0 0 0 145.34 133.03
  C 151.67 133.05 156.86 129.71 162.12 126.09
  A 1.34 1.31 -9.7 0 0 162.64 125.37
  L 163.65 121.64
  A 12.23 11.83 -25.6 0 1 164.39 119.64
  Q 167.32 113.51 171.73 107.22
  C 181.42 93.35 195.64 78.25 205.15 66.65
  Q 209.30 61.59 211.38 57.06
  A 1.85 1.84 47.1 0 1 214.79 57.19
  L 215.40 58.82
  A 9.37 9.33 -46.5 0 1 215.55 64.90
  C 213.19 72.32 208.05 78.79 202.96 84.72
  Q 194.08 95.05 178.16 111.65
  Q 172.91 117.12 167.75 124.49
  Q 164.41 129.26 165.28 133.34
  A 0.24 0.24 0.0 0 1 164.89 133.57
  Q 162.57 131.51 162.67 128.03
  A 0.42 0.42 0.0 0 0 162.02 127.66
  C 156.43 131.32 148.03 137.12 141.11 134.11
  Q 137.34 132.47 138.91 128.10
  Q 140.53 123.58 143.89 119.35
  Q 154.31 106.25 155.74 104.73
  C 156.95 103.45 159.33 100.18 159.10 98.10
  A 0.42 0.42 0.0 0 1 159.57 97.63
  Z"
/>
<path fill="#ffffff" d="
  M 54.82 143.54
  C 52.84 144.59 50.35 146.85 48.39 147.40
  C 37.35 150.45 28.13 144.49 27.97 132.80
  Q 27.84 123.82 29.71 118.24
  C 39.10 90.36 61.74 65.50 91.46 58.95
  C 98.80 57.33 109.85 56.68 116.10 61.68
  C 123.39 67.49 118.85 77.06 113.79 82.91
  Q 103.24 95.13 87.70 92.90
  Q 85.29 92.55 83.66 91.52
  A 0.40 0.40 0.0 0 1 83.74 90.80
  C 92.91 87.63 99.86 81.04 105.44 72.94
  C 107.79 69.53 110.73 61.57 103.58 60.93
  C 96.49 60.30 90.79 62.73 84.94 66.70
  Q 74.85 73.54 65.22 84.97
  Q 52.19 100.42 43.95 117.45
  C 40.67 124.22 35.34 136.22 39.13 143.08
  C 40.79 146.09 45.64 145.78 48.26 144.73
  C 57.28 141.13 64.66 130.20 69.65 121.65
  Q 73.22 115.52 73.94 110.82
  A 0.82 0.81 -89.5 0 1 74.64 110.13
  C 79.37 109.48 88.78 110.23 86.37 117.37
  C 84.65 122.46 80.92 127.29 76.85 131.85
  Q 67.88 141.91 58.09 152.60
  Q 58.06 152.63 54.29 157.53
  Q 51.52 161.12 49.25 165.89
  A 2.25 2.25 0.0 0 0 49.03 166.86
  L 49.03 169.79
  A 0.29 0.28 -65.6 0 1 48.53 169.98
  C 46.62 167.76 46.74 165.03 47.08 162.10
  C 47.79 156.07 51.20 150.38 55.16 143.91
  A 0.26 0.26 0.0 0 0 54.82 143.54
  Z"
/>
<path fill="#ffffff" d="
  M 172.40 88.02
  A 1.32 1.31 -30.1 0 1 170.01 87.39
  Q 169.70 83.98 172.27 80.50
  Q 176.46 74.80 179.38 69.58
  A 0.70 0.69 -66.2 0 1 180.19 69.26
  Q 183.74 70.35 186.07 72.53
  A 3.07 2.96 -55.2 0 1 186.65 76.10
  Q 185.47 78.43 183.26 80.03
  Q 177.93 83.90 173.71 86.69
  Q 172.98 87.18 172.40 88.02
  Z"
/>
<path fill="#ffffff" d="
  M 107.71 124.38
  A 0.22 0.22 0.0 0 0 107.36 124.12
  C 104.47 127.35 94.75 139.42 89.71 132.16
  C 87.24 128.60 90.20 120.58 92.17 116.96
  C 98.10 106.03 109.32 94.86 122.48 95.37
  C 126.54 95.52 131.76 98.58 129.12 103.26
  A 0.27 0.26 55.0 0 1 128.63 103.17
  C 127.61 97.21 120.53 99.85 117.34 102.06
  Q 102.38 112.47 94.78 127.05
  Q 93.64 129.25 93.81 131.09
  A 1.31 1.31 0.0 0 0 95.61 132.17
  Q 98.79 130.88 101.55 128.04
  Q 111.96 117.34 118.49 108.99
  Q 119.99 107.07 120.40 104.78
  A 0.28 0.28 0.0 0 1 120.90 104.66
  C 123.98 108.73 121.94 114.15 119.43 117.95
  Q 115.26 124.27 112.61 130.54
  Q 111.31 133.62 112.85 136.32
  A 0.35 0.34 84.7 0 1 112.44 136.82
  Q 102.63 133.39 107.71 124.38
  Z"
/>
<path fill="#ffffff" d="
  M 208.00 124.43
  C 203.38 130.49 192.62 138.47 184.86 133.22
  C 178.50 128.91 181.30 118.61 184.45 112.91
  Q 189.40 103.95 196.53 99.51
  C 200.62 96.97 207.96 94.60 212.18 96.54
  C 216.40 98.48 216.60 103.37 215.16 107.47
  C 212.10 116.19 203.49 121.99 194.48 122.98
  Q 191.37 123.32 188.90 122.33
  A 0.66 0.65 -64.7 0 0 188.07 122.63
  C 186.27 126.07 184.10 131.59 189.59 132.91
  C 195.40 134.31 203.03 128.27 207.75 124.20
  A 0.17 0.17 0.0 0 1 208.00 124.43
  Z
  M 189.76 120.87
  C 199.13 122.57 209.13 106.97 212.03 99.85
  A 0.98 0.98 0.0 0 0 210.84 98.55
  Q 208.47 99.28 206.71 100.69
  Q 196.33 109.00 189.45 120.17
  A 0.46 0.46 0.0 0 0 189.76 120.87
  Z"
/>
<path fill="#ffffff" d="
  M 249.00 101.61
  L 249.00 105.94
  C 245.85 118.08 233.12 131.25 221.40 134.60
  C 213.71 136.80 208.72 131.67 210.31 124.03
  Q 212.47 113.69 222.98 104.50
  Q 230.66 97.77 241.00 97.30
  Q 246.75 97.04 249.00 101.61
  Z
  M 244.1401 99.4065
  A 22.00 5.29 -49.8 0 0 225.8995 112.7955
  A 22.00 5.29 -49.8 0 0 215.7399 133.0135
  A 22.00 5.29 -49.8 0 0 233.9805 119.6245
  A 22.00 5.29 -49.8 0 0 244.1401 99.4065
  Z"
/>
<path fill="#ffffff" d="
  M 83.97 155.08
  Q 85.98 155.09 86.10 152.51
  Q 86.32 147.69 86.23 142.95
  A 1.00 0.99 82.7 0 1 86.98 141.97
  L 87.02 141.96
  A 0.69 0.69 0.0 0 1 87.87 142.60
  Q 88.34 152.11 87.26 155.01
  A 1.17 1.16 -89.5 0 1 86.57 155.69
  Q 85.34 156.14 83.96 156.13
  Q 82.59 156.13 81.36 155.67
  A 1.17 1.16 -90.0 0 1 80.68 154.98
  Q 79.62 152.07 80.18 142.57
  A 0.69 0.69 0.0 0 1 81.03 141.93
  L 81.07 141.94
  A 1.00 0.99 -82.2 0 1 81.81 142.93
  Q 81.68 147.67 81.86 152.49
  Q 81.95 155.07 83.97 155.08
  Z"
/>
<path fill="#ffffff" d="
  M 119.14 142.12
  L 119.87 142.34
  A 0.32 0.32 0.0 0 1 120.09 142.74
  L 115.99 156.72
  A 0.32 0.32 0.0 0 1 115.38 156.72
  L 111.10 142.51
  A 0.32 0.32 0.0 0 1 111.32 142.11
  L 112.15 141.85
  A 0.32 0.32 0.0 0 1 112.55 142.07
  L 115.42 151.58
  A 0.32 0.32 0.0 0 0 116.03 151.58
  L 118.74 142.34
  A 0.32 0.32 0.0 0 1 119.14 142.12
  Z"
/>
<rect fill="#ffffff" x="-0.85" y="-7.10" transform="translate(157.97,149.02) rotate(0.1)" width="1.70" height="14.20" rx="0.82"/>
<path fill="#ffffff" d="
  M 97.37 148.68
  Q 97.92 149.77 98.61 151.11
  A 0.27 0.27 0.0 0 0 99.13 150.98
  L 99.13 142.95
  A 0.82 0.82 0.0 0 1 99.95 142.13
  L 100.25 142.13
  A 0.47 0.47 0.0 0 1 100.72 142.59
  Q 100.76 146.47 100.67 155.73
  Q 100.67 156.07 100.48 156.18
  Q 100.06 156.42 99.77 156.03
  Q 97.57 152.96 95.88 149.57
  Q 95.34 148.48 94.65 147.15
  A 0.27 0.27 0.0 0 0 94.13 147.27
  L 94.13 155.30
  A 0.82 0.82 0.0 0 1 93.31 156.12
  L 93.01 156.12
  A 0.47 0.47 0.0 0 1 92.54 155.66
  Q 92.50 151.78 92.59 142.52
  Q 92.59 142.18 92.78 142.07
  Q 93.20 141.83 93.48 142.22
  Q 95.69 145.29 97.37 148.68
  Z"
/>
<rect fill="#ffffff" x="105.87" y="142.04" width="1.12" height="13.88" rx="0.54"/>
<path fill="#ffffff" d="
  M 129.78 155.81
  Q 127.56 156.34 124.48 155.88
  A 0.78 0.77 -85.7 0 1 123.83 155.11
  L 123.83 142.78
  A 0.71 0.71 0.0 0 1 124.54 142.07
  L 129.27 142.07
  A 0.77 0.77 0.0 0 1 130.01 143.06
  L 129.93 143.34
  A 0.63 0.61 8.0 0 1 129.33 143.78
  L 126.02 143.78
  A 0.96 0.95 -90.0 0 0 125.07 144.74
  L 125.07 147.42
  A 0.81 0.81 0.0 0 0 125.88 148.23
  L 128.76 148.23
  A 0.71 0.71 0.0 0 1 129.47 148.94
  L 129.47 149.24
  A 0.58 0.57 -90.0 0 1 128.90 149.82
  L 126.07 149.82
  A 1.09 1.08 0.0 0 0 124.98 150.90
  L 124.98 153.95
  A 1.19 1.19 0.0 0 0 126.17 155.14
  L 129.71 155.14
  A 0.34 0.34 0.0 0 1 129.78 155.81
  Z"
/>
<path fill="#ffffff" d="
  M 141.88 155.38
  A 0.49 0.49 0.0 0 1 141.46 156.12
  L 141.20 156.12
  A 1.22 1.22 0.0 0 1 140.14 155.50
  L 137.21 150.44
  A 0.66 0.66 0.0 0 0 135.98 150.77
  L 135.98 155.30
  A 0.84 0.84 0.0 0 1 135.14 156.14
  L 134.77 156.14
  A 0.47 0.47 0.0 0 1 134.30 155.67
  L 134.30 143.88
  A 1.97 1.97 0.0 0 1 136.27 141.91
  L 137.76 141.91
  A 3.23 3.23 0.0 0 1 140.90 144.38
  Q 141.64 147.40 139.43 149.93
  A 0.89 0.89 0.0 0 0 139.33 150.96
  L 141.88 155.38
  Z
  M 136.14 143.84
  L 135.83 148.55
  A 0.49 0.49 0.0 0 0 136.28 149.07
  L 136.45 149.08
  A 2.73 2.54 -86.2 0 0 139.17 146.53
  L 139.18 146.29
  A 2.73 2.54 -86.2 0 0 136.83 143.39
  L 136.66 143.38
  A 0.49 0.49 0.0 0 0 136.14 143.84
  Z"
/>
<path fill="#ffffff" d="
  M 146.08 155.69
  A 0.48 0.47 -24.3 0 1 146.41 154.82
  Q 147.80 155.05 149.30 154.90
  A 2.05 2.03 -1.2 0 0 151.13 153.01
  C 151.24 151.18 149.18 149.96 147.33 148.58
  C 145.21 147.00 145.15 142.45 148.35 142.12
  C 149.83 141.97 150.84 141.73 151.87 142.33
  A 0.72 0.71 29.1 0 1 152.15 143.29
  L 152.14 143.33
  A 0.78 0.77 24.3 0 1 151.17 143.69
  Q 149.68 143.11 148.39 143.66
  A 1.82 1.68 53.1 0 0 148.09 146.62
  Q 150.99 149.11 152.27 150.92
  A 2.04 2.02 -66.4 0 1 152.64 151.88
  C 153.13 155.98 149.12 157.62 146.08 155.69
  Z"
/>
<path fill="#ffffff" d="
  M 163.84 143.42
  A 1.43 1.43 0.0 0 1 165.26 141.98
  L 166.67 141.98
  A 5.39 5.22 89.7 0 1 171.92 147.34
  L 171.94 150.88
  A 5.39 5.22 89.7 0 1 166.75 156.30
  L 165.34 156.30
  A 1.43 1.43 0.0 0 1 163.90 154.88
  L 163.84 143.42
  Z
  M 164.98 144.61
  L 164.92 153.99
  A 1.18 1.18 0.0 0 0 166.09 155.18
  L 166.20 155.18
  A 4.18 3.91 -89.6 0 0 170.14 151.03
  L 170.16 147.65
  A 4.18 3.91 -89.6 0 0 166.28 143.44
  L 166.17 143.44
  A 1.18 1.18 0.0 0 0 164.98 144.61
  Z"
/>
<path fill="#ffffff" d="
  M 187.55 143.13
  A 1.20 1.20 0.0 0 1 188.75 141.93
  L 190.40 141.92
  A 5.79 5.45 89.9 0 1 195.86 147.70
  L 195.86 150.48
  A 5.79 5.45 89.9 0 1 190.42 156.28
  L 188.77 156.29
  A 1.20 1.20 0.0 0 1 187.57 155.09
  L 187.55 143.13
  Z
  M 188.97 144.56
  L 188.93 153.96
  A 1.13 1.13 0.0 0 0 190.05 155.09
  L 190.18 155.09
  A 4.28 3.90 -89.7 0 0 194.10 150.83
  L 194.12 147.73
  A 4.28 3.90 -89.7 0 0 190.24 143.43
  L 190.11 143.43
  A 1.13 1.13 0.0 0 0 188.97 144.56
  Z"
/>
<path fill="#ffffff" d="
  M 179.39 142.20
  Q 179.84 142.20 180.23 143.52
  Q 182.04 149.46 183.72 155.26
  A 0.58 0.58 0.0 0 1 183.33 155.97
  L 182.94 156.09
  A 0.55 0.54 73.1 0 1 182.26 155.72
  L 181.38 152.79
  A 1.02 1.02 0.0 0 0 180.45 152.07
  Q 180.17 152.06 179.40 152.06
  Q 178.63 152.06 178.35 152.07
  A 1.02 1.02 0.0 0 0 177.42 152.80
  L 176.55 155.73
  A 0.55 0.54 -73.2 0 1 175.87 156.10
  L 175.48 155.98
  A 0.58 0.58 0.0 0 1 175.09 155.27
  Q 176.75 149.47 178.54 143.52
  Q 178.94 142.21 179.39 142.20
  Z
  M 179.35 151.04
  Q 179.87 151.05 180.21 150.93
  A 0.60 0.60 0.0 0 0 180.61 150.23
  Q 179.57 145.56 179.40 145.55
  Q 179.24 145.55 178.11 150.20
  A 0.60 0.60 0.0 0 0 178.49 150.92
  Q 178.83 151.04 179.35 151.04
  Z"
/>
<rect fill="#bb9a5c" x="6.93" y="162.52" width="35.14" height="1.44" rx="0.70"/>
<rect fill="#bb9a5c" x="56.90" y="162.47" width="177.12" height="1.56" rx="0.76"/>
<path fill="#ffffff" d="
  M 100.15 173.68
  Q 101.82 173.43 102.37 175.85
  C 102.92 178.33 102.59 182.41 98.71 181.12
  Q 97.80 180.81 97.52 179.83
  Q 96.40 175.99 98.75 173.64
  A 1.41 1.38 78.0 0 0 99.04 173.18
  L 100.09 170.50
  A 0.44 0.44 0.0 0 1 100.63 170.24
  L 100.93 170.33
  A 0.22 0.22 0.0 0 1 101.07 170.64
  L 99.79 173.17
  A 0.35 0.35 0.0 0 0 100.15 173.68
  Z
  M 99.7755 174.6500
  A 2.76 1.51 -90.3 0 0 98.2800 177.4179
  A 2.76 1.51 -90.3 0 0 99.8045 180.1700
  A 2.76 1.51 -90.3 0 0 101.3000 177.4021
  A 2.76 1.51 -90.3 0 0 99.7755 174.6500
  Z"
/>
<path fill="#ffffff" d="
  M 211.47 173.12
  A 0.35 0.35 0.0 0 0 211.82 173.63
  Q 213.48 173.40 214.00 175.80
  C 214.52 178.26 214.15 182.30 210.32 180.98
  Q 209.42 180.66 209.16 179.69
  Q 208.09 175.88 210.44 173.58
  A 1.40 1.36 78.6 0 0 210.73 173.12
  L 211.80 170.48
  A 0.44 0.44 0.0 0 1 212.33 170.23
  L 212.63 170.32
  A 0.22 0.22 0.0 0 1 212.76 170.63
  L 211.47 173.12
  Z
  M 211.4730 174.4704
  A 2.99 1.67 -90.9 0 0 209.8502 177.4862
  A 2.99 1.67 -90.9 0 0 211.5670 180.4496
  A 2.99 1.67 -90.9 0 0 213.1898 177.4338
  A 2.99 1.67 -90.9 0 0 211.4730 174.4704
  Z"
/>
<path fill="#ffffff" d="
  M 41.81 177.07
  L 41.81 180.47
  A 0.40 0.39 90.0 0 1 41.42 180.87
  L 41.09 180.87
  A 0.49 0.49 0.0 0 1 40.60 180.38
  L 40.60 171.56
  A 0.95 0.94 84.9 0 1 41.37 170.63
  C 45.60 169.86 46.54 173.33 44.46 176.29
  A 1.17 1.16 -42.6 0 0 44.40 177.54
  L 45.94 180.21
  A 0.43 0.43 0.0 0 1 45.57 180.86
  L 44.97 180.86
  A 0.40 0.40 0.0 0 1 44.60 180.61
  Q 43.73 178.22 42.37 176.84
  A 0.33 0.33 0.0 0 0 41.81 177.07
  Z
  M 41.83 171.83
  L 41.83 175.71
  A 0.19 0.19 0.0 0 0 42.02 175.90
  L 42.11 175.90
  A 2.00 1.96 -90.0 0 0 44.07 173.90
  L 44.07 173.64
  A 2.00 1.96 90.0 0 0 42.11 171.64
  L 42.02 171.64
  A 0.19 0.19 0.0 0 0 41.83 171.83
  Z"
/>
<path fill="#ffffff" d="
  M 161.45 175.23
  Q 162.56 176.22 160.04 175.83
  A 0.93 0.93 0.0 0 0 158.97 176.75
  L 158.97 179.01
  A 1.13 1.13 0.0 0 0 160.10 180.14
  L 162.62 180.14
  A 0.26 0.25 -0.0 0 1 162.88 180.39
  L 162.88 180.79
  A 0.12 0.12 0.0 0 1 162.76 180.91
  L 159.13 180.91
  A 1.07 1.06 -0.0 0 1 158.06 179.85
  L 158.06 172.03
  A 1.19 1.19 0.0 0 1 159.32 170.84
  L 162.38 171.00
  A 0.41 0.40 46.5 0 1 162.36 171.81
  L 159.87 171.81
  A 0.87 0.86 -90.0 0 0 159.01 172.68
  L 159.01 174.27
  A 0.78 0.78 0.0 0 0 159.75 175.05
  L 161.21 175.13
  A 0.41 0.39 -20.4 0 1 161.45 175.23
  Z"
/>
<path fill="#ffffff" d="
  M 21.05 171.24
  L 21.05 178.99
  A 1.16 1.15 -1.9 0 0 22.28 180.14
  Q 24.16 180.02 24.78 180.16
  A 0.35 0.35 0.0 0 1 24.73 180.85
  Q 21.91 181.13 20.65 180.77
  A 0.76 0.75 -82.5 0 1 20.10 180.04
  L 20.10 171.23
  A 0.27 0.26 -0.0 0 1 20.37 170.97
  L 20.78 170.97
  A 0.27 0.27 0.0 0 1 21.05 171.24
  Z"
/>
<path fill="#ffffff" d="
  M 72.40 171.12
  A 0.31 0.31 0.0 0 1 73.01 171.16
  Q 73.05 171.82 73.02 177.74
  Q 73.01 179.71 74.40 180.64
  A 0.27 0.27 0.0 0 1 74.34 181.11
  C 73.07 181.60 72.23 181.14 72.12 179.72
  Q 71.74 174.75 72.40 171.12
  Z"
/>
<ellipse fill="#ffffff" cx="0.00" cy="0.00" transform="translate(93.38,171.51) rotate(-93.6)" rx="0.55" ry="0.48"/>
<path fill="#ffffff" d="
  M 140.26 171.23
  A 0.30 0.30 0.0 0 1 140.86 171.26
  Q 140.91 171.91 140.93 177.75
  Q 140.93 179.70 142.31 180.60
  A 0.26 0.26 0.0 0 1 142.26 181.07
  C 141.01 181.56 140.18 181.11 140.06 179.71
  Q 139.64 174.81 140.26 171.23
  Z"
/>
<path fill="#ffffff" d="
  M 169.77 171.31
  A 0.38 0.38 0.0 0 1 170.15 170.93
  L 170.52 170.93
  A 0.33 0.33 0.0 0 1 170.85 171.26
  L 170.85 180.05
  A 1.15 1.15 0.0 0 1 169.70 181.20
  L 167.44 181.20
  A 1.53 1.52 0.0 0 1 165.91 179.68
  L 165.91 175.44
  A 1.44 1.43 71.4 0 1 166.47 174.30
  Q 167.54 173.48 169.27 173.68
  A 0.45 0.44 3.4 0 0 169.77 173.24
  L 169.77 171.31
  Z
  M 169.8198 175.9247
  A 1.18 1.18 0.0 0 0 168.6945 174.6924
  L 168.2750 174.6733
  A 1.18 1.18 0.0 0 0 167.0427 175.7986
  L 166.9002 178.9353
  A 1.18 1.18 0.0 0 0 168.0255 180.1676
  L 168.4450 180.1867
  A 1.18 1.18 0.0 0 0 169.6773 179.0614
  L 169.8198 175.9247
  Z"
/>
<ellipse fill="#ffffff" cx="0.00" cy="0.00" transform="translate(205.00,171.53) rotate(-174.5)" rx="0.80" ry="0.60"/>
<path fill="#ffffff" d="
  M 52.62 180.16
  A 0.37 0.37 0.0 0 1 52.81 180.85
  Q 51.16 181.76 49.45 180.93
  A 1.32 1.29 -84.9 0 1 48.75 180.08
  Q 48.26 178.18 48.72 174.82
  A 1.06 1.03 -5.3 0 1 49.44 173.97
  Q 52.04 173.14 52.85 174.23
  A 2.45 2.01 63.0 0 1 52.05 177.88
  Q 51.70 177.96 50.44 178.00
  A 0.65 0.64 -1.2 0 0 49.82 178.64
  L 49.82 179.06
  A 1.13 1.12 -0.2 0 0 50.95 180.17
  L 52.62 180.16
  Z
  M 49.80 176.75
  Q 49.99 177.02 51.27 176.91
  A 1.14 1.12 -65.9 0 0 51.83 176.69
  Q 52.57 176.12 51.94 175.23
  Q 51.31 174.34 50.53 174.85
  A 1.14 1.12 -4.9 0 0 50.13 175.31
  Q 49.61 176.48 49.80 176.75
  Z"
/>
<path fill="#ffffff" d="
  M 69.0062 178.8089
  A 2.45 2.45 0.0 0 1 66.6037 181.3055
  L 66.2038 181.3131
  A 2.45 2.45 0.0 0 1 63.7072 178.9106
  L 63.6538 176.1311
  A 2.45 2.45 0.0 0 1 66.0563 173.6345
  L 66.4562 173.6269
  A 2.45 2.45 0.0 0 1 68.9528 176.0294
  L 69.0062 178.8089
  Z
  M 66.3208 174.6304
  A 2.82 1.60 -91.0 0 0 64.7702 177.4779
  A 2.82 1.60 -91.0 0 0 66.4192 180.2696
  A 2.82 1.60 -91.0 0 0 67.9698 177.4221
  A 2.82 1.60 -91.0 0 0 66.3208 174.6304
  Z"
/>
<path fill="#ffffff" d="
  M 85.06 177.81
  C 84.86 175.32 86.06 172.78 88.81 173.81
  A 0.40 0.40 0.0 0 1 88.67 174.59
  C 86.69 174.59 85.95 175.78 86.11 177.72
  C 86.27 179.65 87.19 180.70 89.14 180.38
  A 0.40 0.40 0.0 0 1 89.41 181.13
  C 86.86 182.59 85.26 180.28 85.06 177.81
  Z"
/>
<path fill="#ffffff" d="
  M 109.75 180.61
  Q 109.50 179.98 109.61 176.03
  A 1.26 1.26 0.0 0 0 108.35 174.73
  L 107.94 174.73
  A 1.10 1.10 0.0 0 0 106.84 175.83
  L 106.84 180.68
  A 0.19 0.19 0.0 0 1 106.65 180.87
  L 106.30 180.87
  A 0.47 0.46 -90.0 0 1 105.84 180.40
  L 105.84 174.86
  A 0.83 0.82 78.8 0 1 106.34 174.10
  Q 108.38 173.24 110.04 174.04
  A 0.95 0.94 -78.0 0 1 110.58 174.88
  L 110.62 180.45
  A 0.45 0.45 0.0 0 1 109.75 180.61
  Z"
/>
<path fill="#ffffff" d="
  M 122.86 180.19
  A 0.37 0.37 0.0 0 1 123.03 180.88
  Q 121.37 181.77 119.67 180.92
  A 1.32 1.29 -84.1 0 1 118.98 180.05
  Q 118.51 178.15 119.02 174.79
  A 1.06 1.03 -4.6 0 1 119.75 173.95
  Q 122.36 173.15 123.16 174.26
  A 2.45 2.01 63.8 0 1 122.31 177.89
  Q 121.96 177.97 120.70 178.00
  A 0.65 0.64 -0.4 0 0 120.06 178.63
  L 120.06 179.04
  A 1.13 1.12 0.5 0 0 121.18 180.17
  L 122.86 180.19
  Z
  M 121.30 176.83
  Q 121.80 176.79 121.91 176.77
  A 0.67 0.66 -5.4 0 0 122.45 176.13
  Q 122.47 174.56 121.13 174.67
  Q 119.78 174.78 120.04 176.32
  A 0.67 0.66 -3.7 0 0 120.68 176.87
  Q 120.79 176.87 121.30 176.83
  Z"
/>
<path fill="#ffffff" d="
  M 130.87 180.67
  Q 130.62 180.03 130.76 176.05
  A 1.27 1.27 0.0 0 0 129.50 174.72
  L 129.09 174.72
  A 1.11 1.11 0.0 0 0 127.97 175.82
  L 127.93 180.72
  A 0.19 0.19 0.0 0 1 127.74 180.91
  L 127.38 180.90
  A 0.47 0.46 -89.5 0 1 126.92 180.43
  L 126.97 174.83
  A 0.84 0.82 79.2 0 1 127.48 174.07
  Q 129.55 173.22 131.21 174.04
  A 0.96 0.95 -77.5 0 1 131.75 174.89
  L 131.75 180.51
  A 0.46 0.45 34.8 0 1 130.87 180.67
  Z"
/>
<path fill="#ffffff" d="
  M 183.07 177.51
  C 183.14 179.43 184.00 180.51 185.94 180.28
  A 0.40 0.40 0.0 0 1 186.17 181.03
  C 183.59 182.36 182.12 180.00 182.03 177.54
  C 181.94 175.10 183.24 172.64 185.91 173.78
  A 0.40 0.40 0.0 0 1 185.74 174.54
  C 183.78 174.46 183.00 175.59 183.07 177.51
  Z"
/>
<path fill="#ffffff" d="
  M 196.71 177.33
  C 196.70 174.88 198.08 172.46 200.72 173.69
  A 0.40 0.40 0.0 0 1 200.52 174.45
  C 198.57 174.30 197.75 175.41 197.75 177.33
  C 197.76 179.25 198.59 180.36 200.54 180.20
  A 0.40 0.40 0.0 0 1 200.74 180.96
  C 198.11 182.20 196.72 179.79 196.71 177.33
  Z"
/>
<path fill="#ffffff" d="
  M 221.95 180.52
  A 0.34 0.33 0.0 0 1 221.61 180.85
  L 221.30 180.85
  A 0.25 0.25 0.0 0 1 221.05 180.60
  Q 221.15 177.19 220.90 175.59
  A 1.10 0.99 81.2 0 0 219.74 174.64
  Q 218.81 174.79 218.64 175.90
  Q 218.36 177.77 218.45 180.33
  A 0.62 0.62 0.0 0 1 217.83 180.97
  L 217.55 180.97
  A 0.42 0.42 0.0 0 1 217.13 180.55
  L 217.13 174.50
  A 0.74 0.74 0.0 0 1 217.87 173.76
  L 220.79 173.76
  A 1.16 1.16 0.0 0 1 221.95 174.92
  L 221.95 180.52
  Z"
/>
<path fill="#ffffff" d="
  M 28.44 174.88
  A 0.41 0.40 30.4 0 1 28.24 174.12
  Q 30.23 173.01 31.63 174.23
  A 1.17 1.17 0.0 0 1 32.04 175.12
  L 32.04 179.63
  A 1.50 1.49 -0.0 0 1 30.54 181.12
  Q 28.44 181.11 27.77 180.52
  A 2.04 1.90 -40.2 0 1 28.15 177.41
  Q 28.88 176.94 30.14 176.96
  A 0.78 0.78 0.0 0 0 30.93 176.18
  L 30.93 175.75
  A 0.87 0.87 0.0 0 0 30.06 174.88
  L 28.44 174.88
  Z
  M 31.00 179.04
  A 1.12 1.12 0.0 0 0 29.88 177.92
  A 1.12 1.12 0.0 0 0 28.76 179.04
  A 1.12 1.12 0.0 0 0 29.88 180.16
  A 1.12 1.12 0.0 0 0 31.00 179.04
  Z"
/>
<path fill="#ffffff" d="
  M 58.43 178.63
  Q 59.25 176.49 59.93 174.13
  A 0.11 0.10 -5.4 0 1 59.99 174.06
  L 60.58 173.88
  A 0.31 0.30 89.0 0 1 60.96 174.25
  Q 60.18 177.40 59.14 180.13
  Q 58.66 181.37 58.43 181.37
  Q 58.20 181.37 57.73 180.13
  Q 56.69 177.40 55.92 174.24
  A 0.31 0.30 -88.8 0 1 56.30 173.87
  L 56.89 174.06
  A 0.11 0.10 5.5 0 1 56.95 174.12
  Q 57.62 176.49 58.43 178.63
  Z"
/>
<path fill="#ffffff" d="
  M 78.05 174.21
  Q 78.31 174.86 78.17 178.88
  A 1.29 1.29 0.0 0 0 79.45 180.21
  L 79.87 180.22
  A 1.12 1.12 0.0 0 0 80.99 179.10
  L 81.02 174.16
  A 0.19 0.19 0.0 0 1 81.22 173.96
  L 81.57 173.97
  A 0.48 0.47 -89.7 0 1 82.04 174.45
  L 82.01 180.10
  A 0.84 0.83 79.1 0 1 81.49 180.87
  Q 79.41 181.73 77.72 180.91
  A 0.97 0.96 -77.6 0 1 77.18 180.05
  L 77.17 174.37
  A 0.46 0.46 0.0 0 1 78.05 174.21
  Z"
/>
<rect fill="#ffffff" x="-0.44" y="-3.49" transform="translate(93.52,177.42) rotate(0.6)" width="0.88" height="6.98" rx="0.40"/>
<path fill="#ffffff" d="
  M 145.45 174.87
  A 0.35 0.35 0.0 0 1 145.26 174.22
  Q 146.83 173.30 148.49 174.07
  A 1.27 1.25 -86.1 0 1 149.18 174.88
  Q 149.69 176.69 149.32 179.94
  A 1.02 1.00 -6.5 0 1 148.64 180.77
  Q 146.15 181.63 145.35 180.59
  A 2.36 1.94 61.8 0 1 146.05 177.06
  Q 146.38 176.98 147.60 176.91
  A 0.62 0.61 -2.4 0 0 148.18 176.28
  L 148.17 175.88
  A 1.09 1.08 -1.4 0 0 147.06 174.83
  L 145.45 174.87
  Z
  M 148.21 179.04
  A 1.17 1.17 0.0 0 0 147.04 177.87
  A 1.17 1.17 0.0 0 0 145.87 179.04
  A 1.17 1.17 0.0 0 0 147.04 180.21
  A 1.17 1.17 0.0 0 0 148.21 179.04
  Z"
/>
<path fill="#ffffff" d="
  M 174.94 174.10
  Q 175.19 174.76 175.02 178.87
  A 1.31 1.31 0.0 0 0 176.31 180.24
  L 176.74 180.25
  A 1.14 1.14 0.0 0 0 177.90 179.12
  L 177.97 174.07
  A 0.20 0.20 0.0 0 1 178.17 173.88
  L 178.54 173.89
  A 0.49 0.48 -89.2 0 1 179.01 174.38
  L 178.92 180.14
  A 0.86 0.85 79.6 0 1 178.39 180.93
  Q 176.26 181.79 174.54 180.93
  A 0.99 0.98 -77.1 0 1 173.99 180.05
  L 174.04 174.26
  A 0.47 0.47 0.0 0 1 174.94 174.10
  Z"
/>
<path fill="#ffffff" d="
  M 189.85 174.83
  A 0.36 0.36 0.0 0 1 189.67 174.15
  Q 191.31 173.25 193.00 174.08
  A 1.31 1.28 -84.7 0 1 193.69 174.93
  Q 194.17 176.81 193.70 180.14
  A 1.05 1.03 -5.1 0 1 192.98 180.98
  Q 190.40 181.80 189.60 180.71
  A 2.43 1.99 63.2 0 1 190.41 177.10
  Q 190.76 177.02 192.01 176.98
  A 0.64 0.63 -0.9 0 0 192.63 176.35
  L 192.63 175.94
  A 1.12 1.11 0.0 0 0 191.51 174.83
  L 189.85 174.83
  Z
  M 192.6513 178.6909
  A 1.42 1.05 -13.4 0 0 191.0267 177.9986
  A 1.42 1.05 -13.4 0 0 189.8887 179.3491
  A 1.42 1.05 -13.4 0 0 191.5133 180.0414
  A 1.42 1.05 -13.4 0 0 192.6513 178.6909
  Z"
/>
<rect fill="#ffffff" x="-0.51" y="-3.64" transform="translate(204.84,177.45) rotate(0.3)" width="1.02" height="7.28" rx="0.49"/>
</svg>
