<?xml version="1.0" encoding="UTF-8" standalone="no"?>
<svg
   version="1.1"
   viewBox="0 0 1664.91 778.74139"
   id="svg35"
   sodipodi:docname="uide-logo.svg"
   width="1664.91"
   height="778.74139"
   inkscape:version="1.4.2 (f4327f4, 2025-05-13)"
   xmlns:inkscape="http://www.inkscape.org/namespaces/inkscape"
   xmlns:sodipodi="http://sodipodi.sourceforge.net/DTD/sodipodi-0.dtd"
   xmlns="http://www.w3.org/2000/svg"
   xmlns:svg="http://www.w3.org/2000/svg">
  <defs
     id="defs35" />
  <sodipodi:namedview
     id="namedview35"
     pagecolor="#ffffff"
     bordercolor="#000000"
     borderopacity="0.25"
     inkscape:showpageshadow="2"
     inkscape:pageopacity="0.0"
     inkscape:pagecheckerboard="0"
     inkscape:deskcolor="#d1d1d1"
     inkscape:zoom="0.90278884"
     inkscape:cx="832.42056"
     inkscape:cy="369.41086"
     inkscape:window-width="2560"
     inkscape:window-height="1351"
     inkscape:window-x="-9"
     inkscape:window-y="-9"
     inkscape:window-maximized="1"
     inkscape:current-layer="svg35" />
  <path
     fill="#ffffff"
     d="M 0.66,0.03270008 185.34,74.3327 a 0.31,0.3 11.8 0 1 0.19,0.28 q 0.03,225.04 -0.02,304.42 -0.01,15.15 1.23,22.89 5.85,36.55 30.77,63.08 c 31.29,33.3 79.39,45.13 122.5,29.88 34.54,-12.21 61.02,-39.56 72.78,-74.4 a 2.68,2.58 74.2 0 1 0.4,-0.75 q 0.54,-0.7 0.81,-0.84 a 1.9,1.9 0 0 1 2.77,1.91 q -7.71,63.95 -49.17,112.98 c -21.9,25.91 -50.89,46.25 -81.84,59.37 -53.54,22.69 -115,20.26 -166.97,-6.41 q -19.12,-9.82 -34.96,-21.77 C 38.31,530.6327 8.87,479.3927 1.65,422.3527 Q 0,409.2927 0,381.5827 0.06,44.6727 0.02,0.46270008 a 0.47,0.46 10.8 0 1 0.64,-0.43 z"
     id="path1" />
  <path
     fill="#edae00"
     d="m 233.45,93.6827 184.47,74.21 a 0.6,0.6 0 0 1 0.38,0.56 q -0.06,169.77 0.04,183.91 0.15,24.55 -1.48,33.2 -6.65,35.17 -33.9,57.08 -18.17,14.62 -41.01,18.72 c -50.39,9.06 -98.25,-24.37 -107.64,-74.61 q -1.57,-8.42 -1.56,-27.09 0.1,-170.68 0.01,-265.51 a 0.5,0.51 11 0 1 0.69,-0.47 z"
     id="path2" />
  <path
     fill="#ffffff"
     d="m 848.55,167.7327 q 0.13,56.42 0,171.79 -0.01,11.98 -0.89,24.15 c -1.93,26.59 -7.47,52.37 -19.95,74.3 q -21.49,37.79 -65.47,51.72 -21.04,6.67 -44.2,8.08 c -38.08,2.31 -79.47,-0.94 -112.61,-21.66 -39.48,-24.68 -53.87,-68.17 -57.19,-112.7 q -0.71,-9.52 -0.71,-23.92 0.03,-156.56 0,-171.86 a 0.63,0.63 0 0 1 0.63,-0.63 h 84.8 a 0.32,0.32 0 0 1 0.32,0.32 q 0.03,135.69 -0.02,177.36 c -0.04,38.39 5.21,83.79 53.06,89.26 23.87,2.73 49.93,-0.97 64.65,-21.85 8.55,-12.12 12.42,-27.92 13.79,-42.59 q 1.05,-11.22 1.04,-19.73 -0.01,-6.52 0.01,-182.18 a 0.59,0.59 0 0 1 0.59,-0.59 h 81.42 a 0.73,0.73 0 0 1 0.73,0.73 z"
     id="path3" />
  <rect
     fill="#ffffff"
     x="900.78998"
     y="167.0027"
     width="85.800003"
     height="331.5"
     rx="0.52999997"
     id="rect3" />
  <path
     fill="#ffffff"
     d="m 1040.79,497.7827 v -330.15 a 0.62,0.61 0 0 1 0.62,-0.61 q 56.67,-0.05 106.62,0.01 15.32,0.01 32.75,1.54 c 37.74,3.29 77.46,14.34 106.93,39.14 28.44,23.94 43.54,56.85 48.32,93.9 3.41,26.43 2.27,54.33 -3.89,80.48 -8.66,36.72 -30.07,67.75 -62.39,87.89 -33.45,20.84 -73.66,27.78 -112.97,28.34 q -25.78,0.37 -115.38,0.08 a 0.62,0.62 0 0 1 -0.61,-0.62 z m 85.81,-269.59 v 209.28 a 0.48,0.48 0 0 0 0.47,0.48 q 14.81,0.28 29.62,-0.55 c 28.15,-1.58 56.2,-11.18 73.56,-33.98 8.84,-11.61 14.45,-26.35 17.04,-40.93 q 4.79,-26.95 1.15,-55.15 c -3.74,-28.93 -16.68,-54.12 -43.57,-67.62 -15.46,-7.76 -33.56,-11.05 -50.96,-11.83 q -12.66,-0.57 -26.66,-0.35 a 0.65,0.66 89.6 0 0 -0.65,0.65 z"
     id="path4" />
  <path
     fill="#ffffff"
     d="m 1374.93,167.0027 h 236.47 a 0.39,0.39 0 0 1 0.39,0.39 v 62.22 a 0.39,0.39 0 0 1 -0.39,0.39 h -150.72 a 0.39,0.39 0 0 0 -0.39,0.39 v 65.46 a 0.39,0.39 0 0 0 0.39,0.39 h 128.21 a 0.39,0.39 0 0 1 0.39,0.39 v 62.23 a 0.39,0.39 0 0 1 -0.39,0.39 h -128.22 a 0.39,0.39 0 0 0 -0.39,0.39 v 75.47 a 0.39,0.39 0 0 0 0.39,0.39 h 156.48 a 0.39,0.39 0 0 1 0.39,0.39 v 62.22 a 0.39,0.39 0 0 1 -0.39,0.39 h -242.22 a 0.39,0.39 0 0 1 -0.39,-0.39 v -330.72 a 0.39,0.39 0 0 1 0.39,-0.39 z"
     id="path5" />
  <path
     fill="#ffffff"
     d="m 552.28,654.2127 v -46.05 a 0.62,0.63 89.5 0 1 0.62,-0.62 q 19.98,-0.22 24.32,0.27 c 9.16,1.04 12.54,10.92 10.54,18.69 -3.02,11.72 -15.73,10.46 -25.32,10.22 a 0.64,0.64 0 0 0 -0.65,0.64 v 16.86 a 0.27,0.27 0 0 1 -0.27,0.27 h -8.95 a 0.29,0.28 0 0 1 -0.29,-0.28 z m 9.55,-38.29 -0.08,12.16 a 0.38,0.38 0 0 0 0.38,0.38 l 8.7,0.07 a 7.43,6.24 0.4 0 0 7.48,-6.19 v -0.44 a 7.43,6.24 0.4 0 0 -7.38,-6.29 l -8.71,-0.06 a 0.38,0.38 0 0 0 -0.39,0.37 z"
     id="path6" />
  <path
     fill="#ffffff"
     d="m 800.01,650.5727 q -6.01,6.09 -13.21,4.23 c -9.01,-2.31 -11.7,-11.86 -10.86,-20.56 q 0.59,-6.15 3.66,-9.86 c 4.98,-6.01 14.37,-6.63 19.91,-0.83 a 0.27,0.26 23.3 0 0 0.46,-0.18 v -15.55 a 0.3,0.3 0 0 1 0.3,-0.3 h 8.5 a 0.3,0.3 0 0 1 0.3,0.3 v 45.72 a 0.98,0.98 0 0 1 -0.98,0.98 h -6.7 a 0.82,0.82 0 0 1 -0.82,-0.82 v -2.9 a 0.33,0.33 0 0 0 -0.56,-0.23 z m -7.3912,-24.05 a 7.57,10.75 0.1 0 0 -7.5888,10.7368 7.57,10.75 0.1 0 0 7.5512,10.7632 7.57,10.75 0.1 0 0 7.5888,-10.7368 7.57,10.75 0.1 0 0 -7.5512,-10.7632 z"
     id="path7" />
  <path
     fill="#ffffff"
     d="m 841.79,650.7927 -0.01,2.9 a 0.82,0.82 0 0 1 -0.82,0.82 l -6.71,-0.01 a 0.98,0.98 0 0 1 -0.98,-0.98 l 0.1,-45.76 a 0.3,0.3 0 0 1 0.3,-0.3 l 8.51,0.02 a 0.3,0.3 0 0 1 0.3,0.3 l -0.04,15.56 a 0.26,0.27 66.8 0 0 0.46,0.19 c 5.56,-5.8 14.96,-5.16 19.93,0.87 q 3.06,3.72 3.64,9.87 c 0.82,8.71 -1.89,18.26 -10.91,20.55 q -7.21,1.85 -13.21,-4.26 a 0.33,0.33 0 0 0 -0.56,0.23 z m 7.8332,-24.318 a 10.77,7.54 88.9 0 0 -7.3318,10.9127 10.77,7.54 88.9 0 0 7.7454,10.6233 10.77,7.54 88.9 0 0 7.3318,-10.9127 10.77,7.54 88.9 0 0 -7.7454,-10.6233 z"
     id="path8" />
  <path
     fill="#ffffff"
     d="m 610.9932,619.3558 a 17.84,18.05 2.9 0 1 16.904,18.9295 17.84,18.05 2.9 0 1 -18.7304,17.1243 17.84,18.05 2.9 0 1 -16.904,-18.9295 17.84,18.05 2.9 0 1 18.7304,-17.1243 z m -0.8813,7.6569 a 10.37,8.29 89.9 0 0 -8.2719,10.3845 10.37,8.29 89.9 0 0 8.3081,10.3555 10.37,8.29 89.9 0 0 8.2719,-10.3845 10.37,8.29 89.9 0 0 -8.3081,-10.3555 z"
     id="path9" />
  <path
     fill="#ffffff"
     d="m 711.74,645.8527 q -1.57,3.41 -3.73,5.54 c -4.34,4.28 -12,4.66 -17.48,2.85 -10.2,-3.35 -11.71,-16.01 -8.73,-24.81 2.71,-7.98 10.87,-11.16 18.74,-9.42 9.22,2.04 12.21,11.08 11.73,19.42 a 0.6,0.6 0 0 1 -0.6,0.57 h -21.05 a 0.58,0.59 0 0 0 -0.58,0.59 c -0.02,5.38 5.24,9.66 10.25,6.69 q 1.49,-0.88 1.99,-2.77 a 1.33,1.34 12.2 0 1 1.52,-0.98 l 7.37,1.24 a 0.76,0.77 16.9 0 1 0.57,1.08 z m -21.33,-11.59 12.46,-0.02 a 0.27,0.27 0 0 0 0.27,-0.27 v -0.26 a 7.01,6.4 89.9 0 0 -6.42,-7 h -0.2 a 7.01,6.4 89.9 0 0 -6.38,7.02 v 0.26 a 0.27,0.27 0 0 0 0.27,0.27 z"
     id="path10" />
  <path
     fill="#ffffff"
     d="m 727.19,623.8227 q 4.37,-6.93 12.64,-2.75 a 0.48,0.48 0 0 1 0.24,0.6 l -2.62,7.31 a 0.38,0.38 0 0 1 -0.55,0.2 c -6.58,-3.81 -9.16,1.26 -9.5,6.89 q -0.55,9.02 -0.33,18.06 a 0.36,0.37 89.2 0 1 -0.37,0.37 h -8.28 a 0.38,0.38 0 0 1 -0.38,-0.38 v -32.88 a 1,1 0 0 1 1,-1 h 6.9 a 0.75,0.75 0 0 1 0.72,0.94 q -0.4,1.45 -0.06,2.55 a 0.33,0.33 0 0 0 0.59,0.09 z"
     id="path11" />
  <path
     fill="#ffffff"
     d="m 763.3,643.5327 7.37,1.25 a 0.76,0.77 17 0 1 0.57,1.09 q -1.58,3.4 -3.74,5.53 c -4.35,4.27 -12,4.63 -17.48,2.81 -10.19,-3.36 -11.67,-16.02 -8.68,-24.81 2.72,-7.97 10.89,-11.13 18.75,-9.38 9.21,2.05 12.18,11.1 11.69,19.43 a 0.6,0.6 0 0 1 -0.6,0.57 l -21.04,-0.04 a 0.58,0.59 0.1 0 0 -0.58,0.59 c -0.03,5.38 5.22,9.66 10.23,6.7 q 1.49,-0.87 1.99,-2.76 a 1.33,1.34 12.3 0 1 1.52,-0.98 z m -13.42,-9.28 h 12.56 a 0.25,0.25 0 0 0 0.25,-0.25 v -0.17 a 6.45,7.12 0 0 0 -6.45,-7.12 h -0.16 a 6.45,7.12 0 0 0 -6.45,7.12 v 0.17 a 0.25,0.25 0 0 0 0.25,0.25 z"
     id="path12" />
  <path
     fill="#ffffff"
     d="m 654.32,620.2527 q 2.5,0 3.87,0.07 a 0.81,0.8 83.8 0 1 0.74,0.6 l 5.25,20.42 a 0.21,0.21 0 0 0 0.4,0 l 6.02,-20.82 a 0.33,0.33 0 0 1 0.32,-0.24 h 8.66 a 0.26,0.25 8.9 0 1 0.25,0.33 l -10.98,33.4 a 0.71,0.72 9 0 1 -0.68,0.5 h -7.58 a 0.82,0.82 0 0 1 -0.79,-0.61 l -5.24,-19.84 a 0.33,0.06 76.7 0 0 -0.11,-0.25 q -0.06,-0.03 -0.15,-0.03 -0.08,0 -0.14,0.03 a 0.06,0.33 13.4 0 0 -0.11,0.25 l -5.28,19.83 a 0.82,0.82 0 0 1 -0.79,0.61 l -7.58,-0.02 a 0.72,0.71 81.2 0 1 -0.68,-0.5 l -10.92,-33.42 a 0.25,0.26 81.2 0 1 0.25,-0.33 l 8.66,0.02 a 0.33,0.33 0 0 1 0.32,0.24 l 5.98,20.83 a 0.21,0.21 0 0 0 0.4,0 l 5.29,-20.41 a 0.8,0.81 6.3 0 1 0.74,-0.6 q 1.38,-0.06 3.88,-0.06 z"
     id="path13" />
  <path
     fill="#ffffff"
     d="m 885.83,643.5627 a 0.15,0.15 0 0 0 0.29,0 l 7.57,-23.04 a 0.38,0.39 9.7 0 1 0.36,-0.26 h 9.14 a 0.16,0.15 10.2 0 1 0.15,0.21 q -8.4,22.8 -12.66,34.54 c -2.5,6.93 -3.98,11.85 -11.11,12.97 q -3.92,0.61 -8.21,-0.32 a 0.3,0.3 0 0 1 -0.25,-0.27 l -0.69,-6.92 a 0.19,0.19 0 0 1 0.24,-0.2 q 7.94,2.44 10.23,-5.38 a 1.59,1.58 43 0 0 -0.04,-1.01 l -12.68,-33.42 a 0.15,0.14 78.8 0 1 0.13,-0.2 h 9.45 a 0.31,0.31 0 0 1 0.29,0.21 z"
     id="path14" />
  <path
     fill="#ffffff"
     d="m 1664.91,704.8527 a 21.78,21.78 0 0 1 -21.78,21.78 21.78,21.78 0 0 1 -21.78,-21.78 21.78,21.78 0 0 1 21.78,-21.78 21.78,21.78 0 0 1 21.78,21.78 z m -2.83,0.01 a 18.93,18.93 0 0 0 -18.93,-18.93 18.93,18.93 0 0 0 -18.93,18.93 18.93,18.93 0 0 0 18.93,18.93 18.93,18.93 0 0 0 18.93,-18.93 z"
     id="path15" />
  <path
     fill="#ffffff"
     d="m 930.88,734.4127 a 1.25,1.25 0 0 1 1.34,0.96 c 1.73,7.68 6,11.77 13.79,12.16 q 5,0.26 8.95,-1.53 c 4.52,-2.05 7.49,-8.16 3.57,-12.26 q -1.61,-1.69 -5.58,-2.89 c -12.09,-3.66 -31.77,-5.24 -32.22,-22.84 -0.32,-12.42 9.48,-18.89 20.72,-19.84 14.8,-1.26 29.42,2.55 31.17,19.91 a 0.97,0.97 0 0 1 -0.92,1.06 l -13.02,0.57 a 0.27,0.27 0 0 1 -0.28,-0.34 q 0.05,-0.2 -1.05,-3.42 c -2.57,-7.51 -13.33,-7.08 -19.22,-4.8 -3.94,1.52 -5.26,6.32 -1.85,9.21 1.94,1.65 6.02,3.01 8.74,3.64 q 9.02,2.08 15.4,4.35 10.14,3.62 13.09,12.53 1.92,5.81 0.52,11.8 c -2.26,9.74 -9.64,15.03 -19.87,16.37 -17.72,2.32 -33.76,-2.59 -35.87,-23.13 a 0.26,0.26 0 0 1 0.24,-0.29 z"
     id="path16" />
  <path
     fill="#ffffff"
     d="m 581.91,689.0027 q 3.68,-0.01 6.93,0.1 a 0.91,0.91 0 0 1 0.81,0.57 l 27.01,67.86 a 0.47,0.46 79.2 0 1 -0.43,0.64 H 602.3 a 0.83,0.81 78.8 0 1 -0.76,-0.52 l -5.81,-14.58 a 0.56,0.56 0 0 0 -0.52,-0.36 q -0.73,0.01 -13.15,0.04 -12.41,0.04 -13.14,0.03 a 0.56,0.56 0 0 0 -0.52,0.37 l -5.73,14.61 a 0.81,0.83 10.9 0 1 -0.76,0.52 l -13.93,0.08 a 0.46,0.47 10.5 0 1 -0.43,-0.64 l 26.63,-68.01 a 0.91,0.91 0 0 1 0.81,-0.57 q 3.25,-0.13 6.92,-0.14 z m -9.13,41.35 a 0.32,0.32 0 0 0 0.3,0.43 l 17.42,-0.06 a 0.32,0.32 0 0 0 0.29,-0.43 l -8.78,-23.68 a 0.32,0.32 0 0 0 -0.61,0 z"
     id="path17" />
  <rect
     fill="#ffffff"
     x="659.50244"
     y="687.84094"
     transform="rotate(0.1)"
     width="13.5"
     height="12.5"
     rx="0.38999999"
     id="rect17" />
  <path
     fill="#ffffff"
     d="m 1202.06,747.4227 c 6.8,-0.01 12.5,-3.28 13.08,-10.42 q 0.34,-4.26 0.36,-8.25 0.04,-10.43 -0.06,-39.39 a 0.39,0.39 0 0 1 0.39,-0.39 h 13.13 a 0.59,0.6 89.5 0 1 0.6,0.58 q 0.07,6.96 0.06,39.94 0,6.76 -0.78,11.76 c -1.91,12.14 -11.48,17.81 -23.06,18.21 q -1.05,0.04 -3.7,0.04 -2.66,0 -3.71,-0.03 c -11.58,-0.36 -21.17,-5.99 -23.12,-18.13 q -0.8,-4.99 -0.82,-11.75 -0.13,-32.98 -0.08,-39.94 a 0.6,0.59 0.3 0 1 0.59,-0.58 l 13.13,-0.05 a 0.39,0.39 0 0 1 0.4,0.39 q 0,28.96 0.08,39.39 0.03,3.99 0.39,8.25 c 0.6,7.14 6.31,10.38 13.12,10.37 z"
     id="path18" />
  <rect
     fill="#ffffff"
     x="1300.7515"
     y="686.72174"
     transform="rotate(0.1)"
     width="13.5"
     height="12.5"
     rx="0.38999999"
     id="rect18" />
  <rect
     fill="#ffffff"
     x="1517.7511"
     y="686.34302"
     transform="rotate(0.1)"
     width="13.5"
     height="12.5"
     rx="0.38999999"
     id="rect19" />
  <path
     fill="#ffffff"
     d="m 978.87,708.6027 a 0.64,0.64 0 0 1 0.65,-0.64 h 4.77 a 0.58,0.58 0 0 0 0.58,-0.58 l 0.02,-8.67 a 0.98,0.97 75.1 0 1 0.48,-0.84 l 12.72,-7.32 a 0.27,0.27 0 0 1 0.4,0.24 l -0.02,16.6 a 0.6,0.59 0.1 0 0 0.6,0.59 l 7.92,0.01 a 0.58,0.58 0 0 1 0.58,0.59 l -0.02,9.86 a 0.55,0.56 0.1 0 1 -0.55,0.56 l -7.91,-0.01 a 0.62,0.62 0 0 0 -0.63,0.62 q -0.06,10.81 0.02,24.17 c 0.03,5.98 4.92,4.42 8.43,3.44 a 0.52,0.52 0 0 1 0.66,0.46 l 0.9,9.31 a 0.75,0.76 76.4 0 1 -0.48,0.78 c -6.97,2.68 -19.84,3.5 -22.27,-5.89 q -0.87,-3.35 -0.87,-9.88 0.02,-20.62 0,-22.43 a 0.61,0.6 89.6 0 0 -0.6,-0.6 l -4.82,-0.01 a 0.57,0.57 0 0 1 -0.57,-0.57 z"
     id="path19" />
  <path
     fill="#ffffff"
     d="m 1061.91,708.0227 h 4.77 a 0.58,0.58 0 0 0 0.58,-0.58 v -8.66 a 0.98,0.97 75 0 1 0.48,-0.84 l 12.69,-7.33 a 0.27,0.27 0 0 1 0.4,0.24 v 16.57 a 0.6,0.59 0 0 0 0.6,0.59 h 7.91 a 0.58,0.58 0 0 1 0.58,0.58 v 9.85 a 0.55,0.56 0 0 1 -0.55,0.56 h -7.9 a 0.62,0.62 0 0 0 -0.62,0.62 q -0.04,10.8 0.06,24.14 c 0.04,5.97 4.92,4.4 8.42,3.42 a 0.52,0.52 0 0 1 0.66,0.45 l 0.92,9.3 a 0.75,0.76 76.3 0 1 -0.48,0.78 c -6.96,2.69 -19.81,3.53 -22.25,-5.84 q -0.87,-3.35 -0.88,-9.87 -0.02,-20.59 -0.04,-22.39 a 0.61,0.6 89.5 0 0 -0.6,-0.6 h -4.82 a 0.57,0.57 0 0 1 -0.57,-0.57 v -9.78 a 0.64,0.64 0 0 1 0.64,-0.64 z"
     id="path20" />
  <path
     fill="#ffffff"
     d="m 1536.23,708.6627 a 0.64,0.64 0 0 1 0.64,-0.64 h 4.77 a 0.58,0.58 0 0 0 0.58,-0.58 v -8.66 a 0.98,0.97 75 0 1 0.48,-0.84 l 12.69,-7.33 a 0.27,0.27 0 0 1 0.4,0.24 v 16.57 a 0.6,0.59 0 0 0 0.6,0.59 h 7.91 a 0.58,0.58 0 0 1 0.58,0.58 v 9.85 a 0.55,0.56 0 0 1 -0.55,0.56 h -7.9 a 0.62,0.62 0 0 0 -0.62,0.62 q -0.04,10.8 0.06,24.15 c 0.04,5.97 4.92,4.4 8.42,3.42 a 0.52,0.52 0 0 1 0.66,0.45 l 0.92,9.3 a 0.75,0.76 76.3 0 1 -0.48,0.78 c -6.96,2.69 -19.81,3.53 -22.25,-5.84 q -0.87,-3.35 -0.88,-9.87 -0.02,-20.6 -0.04,-22.4 a 0.61,0.6 89.5 0 0 -0.6,-0.6 h -4.82 a 0.57,0.57 0 0 1 -0.57,-0.57 z"
     id="path21" />
  <path
     fill="#ffffff"
     d="m 1653.57,716.4527 a 0.2,0.2 0 0 1 -0.18,0.3 h -4.83 a 0.27,0.27 0 0 1 -0.23,-0.13 l -4.86,-8.42 a 0.9,0.9 0 0 0 -0.78,-0.45 h -2.37 a 0.53,0.53 0 0 0 -0.53,0.53 v 8.07 a 0.4,0.4 0 0 1 -0.4,0.4 h -3.93 a 0.42,0.42 0 0 1 -0.42,-0.42 v -23.2 a 0.6,0.6 0 0 1 0.59,-0.6 c 6.91,-0.13 15.4,-1.46 17.09,5.65 0.75,3.12 -0.22,7.28 -3.5,8.38 q -0.26,0.08 -0.37,0.18 a 0.68,0.68 0 0 0 -0.15,0.84 z m -13.84,-19.33 0.12,6.48 a 0.33,0.33 0 0 0 0.33,0.33 l 4.33,-0.08 a 3.42,3.7 89 0 0 3.64,-3.48 v -0.3 a 3.42,3.7 89 0 0 -3.76,-3.36 l -4.33,0.08 a 0.33,0.33 0 0 0 -0.33,0.33 z"
     id="path22" />
  <path
     fill="#ffffff"
     d="m 634.26,714.2427 a 0.32,0.31 48.6 0 0 0.57,0.04 c 4.17,-7.82 11.82,-9.19 19.24,-5.02 a 0.7,0.7 0 0 1 0.32,0.85 l -3.87,10.8 a 0.4,0.4 0 0 1 -0.57,0.21 c -10.75,-6.26 -14.03,3.08 -14.4,11.64 q -0.4,9.19 -0.23,24.89 a 0.61,0.61 0 0 1 -0.61,0.61 h -12.27 a 0.65,0.65 0 0 1 -0.65,-0.65 v -49.03 a 0.58,0.58 0 0 1 0.58,-0.58 h 11.29 a 0.65,0.65 0 0 1 0.65,0.66 q -0.06,5.56 -0.05,5.58 z"
     id="path23" />
  <path
     fill="#ffffff"
     d="m 753.33,706.9827 c 15.49,0.32 25.66,11.35 25.34,26.78 -0.31,15.43 -10.92,26.04 -26.41,25.72 -15.5,-0.32 -25.66,-11.35 -25.35,-26.78 0.32,-15.42 10.92,-26.04 26.42,-25.72 z m -0.4731,10.87 a 12.3,15.39 0.1 0 0 -12.3269,15.3685 12.3,15.39 0.1 0 0 12.2731,15.4115 12.3,15.39 0.1 0 0 12.3269,-15.3685 12.3,15.39 0.1 0 0 -12.2731,-15.4115 z"
     id="path24" />
  <path
     fill="#ffffff"
     d="m 800.39,714.3127 c 0.74,-0.67 1.44,-1.7 2.28,-2.39 q 9.02,-7.55 20.62,-3.68 c 7.85,2.62 9.67,9.46 9.7,17.01 q 0.06,14.39 0,32.73 a 0.33,0.33 0 0 1 -0.33,0.33 h -12.57 a 0.63,0.63 0 0 1 -0.63,-0.64 q 0.06,-5.21 0.03,-27.9 0,-2.51 -0.33,-4.94 c -0.81,-6.04 -5.25,-8.84 -11.35,-6.78 -7.13,2.42 -7.17,9.71 -7.2,16.21 q -0.04,13.42 -0.03,23.41 a 0.62,0.62 0 0 1 -0.62,0.62 h -12.27 a 0.62,0.61 0 0 1 -0.62,-0.61 v -49.08 a 0.63,0.63 0 0 1 0.63,-0.63 h 11.43 a 0.59,0.59 0 0 1 0.59,0.59 v 5.46 a 0.4,0.4 0 0 0 0.67,0.29 z"
     id="path25" />
  <path
     fill="#ffffff"
     d="m 887.5,758.2527 h -12.1 a 0.74,0.74 0 0 1 -0.7,-0.5 l -1.39,-4.11 a 0.38,0.38 0 0 0 -0.63,-0.16 q -7.21,6.84 -17.31,5.93 c -6.73,-0.61 -12.45,-4.46 -13.95,-11.13 -1.81,-7.99 2.06,-15.2 10.1,-17.57 6.97,-2.06 13.21,-2.89 19.87,-4.92 a 0.86,0.86 0 0 0 0.61,-0.75 q 0.43,-4.07 -2.04,-6.21 c -1.95,-1.69 -8.16,-1.8 -10.41,-0.95 q -3.31,1.27 -4.67,5.17 a 0.69,0.7 15 0 1 -0.77,0.45 l -11.15,-1.87 a 0.55,0.55 0 0 1 -0.44,-0.68 q 3.04,-11.49 14.5,-13.39 9.69,-1.6 18.43,0.78 c 7.67,2.08 10.23,8.38 9.84,16.62 q -0.03,0.7 0.02,22.03 0.01,4.59 2.62,10.59 a 0.48,0.47 78.1 0 1 -0.43,0.67 z m -16.18,-23.57 q -3.24,0.93 -9.93,2.38 -3.11,0.68 -5.04,2.26 c -2.82,2.29 -2.16,6.46 0.39,8.74 q 3.09,2.75 7.79,1.44 c 7.12,-1.98 7.82,-7.12 7.46,-14.34 a 0.52,0.52 0 0 0 -0.67,-0.48 z"
     id="path26" />
  <path
     fill="#ffffff"
     d="m 1058.19,757.5927 a 0.48,0.47 78.1 0 1 -0.43,0.67 h -12.1 a 0.74,0.74 0 0 1 -0.7,-0.5 l -1.39,-4.11 a 0.38,0.38 0 0 0 -0.63,-0.16 q -7.21,6.84 -17.31,5.93 c -6.73,-0.61 -12.45,-4.46 -13.95,-11.13 -1.82,-7.99 2.05,-15.2 10.09,-17.57 6.98,-2.06 13.22,-2.89 19.88,-4.92 a 0.86,0.86 0 0 0 0.61,-0.75 q 0.43,-4.07 -2.04,-6.21 c -1.95,-1.69 -8.17,-1.8 -10.42,-0.95 q -3.31,1.27 -4.67,5.17 a 0.69,0.7 15 0 1 -0.77,0.45 l -11.15,-1.87 a 0.55,0.55 0 0 1 -0.44,-0.68 q 3.04,-11.49 14.5,-13.39 9.69,-1.6 18.44,0.78 c 7.67,2.08 10.23,8.38 9.84,16.62 q -0.03,0.7 0.02,22.03 0.01,4.59 2.62,10.59 z m -16.62,-22.93 q -3.24,0.94 -9.92,2.4 -3.11,0.68 -5.04,2.27 c -2.82,2.29 -2.15,6.46 0.4,8.73 q 3.1,2.75 7.79,1.43 c 7.12,-1.99 7.81,-7.13 7.44,-14.35 a 0.52,0.52 0 0 0 -0.67,-0.48 z"
     id="path27" />
  <path
     fill="#ffffff"
     d="m 1107.26,737.9727 c 0.32,6.93 5.16,12.32 12.27,11.18 q 4.78,-0.77 6.48,-6.51 a 0.57,0.58 13.4 0 1 0.64,-0.4 l 12.36,2.08 a 0.57,0.57 0 0 1 0.44,0.75 c -4.59,12.53 -16.19,16.26 -28.53,13.72 -14.82,-3.04 -19.11,-17.6 -17.18,-31.15 1.61,-11.28 9.29,-19.85 20.96,-20.6 18.45,-1.18 26.4,13.02 25.59,29.61 a 0.63,0.63 0 0 1 -0.63,0.6 h -31.71 a 0.69,0.69 0 0 0 -0.69,0.72 z m 0.58,-9.19 18.58,-0.06 a 0.39,0.39 0 0 0 0.39,-0.39 v -0.39 a 10.58,9.44 89.8 0 0 -9.48,-10.55 h -0.48 a 10.58,9.44 89.8 0 0 -9.4,10.61 v 0.39 a 0.39,0.39 0 0 0 0.39,0.39 z"
     id="path28" />
  <path
     fill="#ffffff"
     d="m 1254.84,714.0527 a 0.4,0.4 0 0 0 0.67,0.29 c 0.74,-0.67 1.43,-1.69 2.27,-2.38 q 8.99,-7.54 20.56,-3.69 c 7.83,2.6 9.65,9.42 9.68,16.95 q 0.08,14.34 0.04,32.63 a 0.33,0.33 0 0 1 -0.33,0.33 l -12.54,0.01 a 0.63,0.63 0 0 1 -0.62,-0.63 q 0.05,-5.2 0,-27.82 0,-2.51 -0.34,-4.93 c -0.81,-6.02 -5.24,-8.81 -11.32,-6.75 -7.1,2.42 -7.14,9.69 -7.16,16.17 q -0.03,13.38 -0.01,23.34 a 0.62,0.62 0 0 1 -0.62,0.62 l -12.23,0.01 a 0.61,0.62 89.9 0 1 -0.62,-0.6 l -0.05,-48.94 a 0.63,0.63 0 0 1 0.63,-0.63 l 11.4,-0.01 a 0.59,0.59 0 0 1 0.59,0.59 z"
     id="path29" />
  <path
     fill="#ffffff"
     d="m 1387.44,737.2527 a 0.69,0.69 0 0 0 -0.69,0.72 c 0.32,6.93 5.15,12.32 12.26,11.18 q 4.78,-0.77 6.49,-6.5 a 0.57,0.58 13.4 0 1 0.64,-0.4 l 12.36,2.08 a 0.57,0.57 0 0 1 0.43,0.75 c -4.59,12.53 -16.19,16.25 -28.53,13.71 -14.82,-3.04 -19.1,-17.6 -17.17,-31.15 1.62,-11.28 9.3,-19.85 20.97,-20.6 18.45,-1.17 26.39,13.03 25.58,29.62 a 0.63,0.63 0 0 1 -0.63,0.6 z m -0.26,-8.5 h 18.86 a 0.28,0.28 0 0 0 0.28,-0.28 v -0.35 a 9.54,10.75 0 0 0 -9.54,-10.75 h -0.34 a 9.54,10.75 0 0 0 -9.54,10.75 v 0.35 a 0.28,0.28 0 0 0 0.28,0.28 z"
     id="path30" />
  <path
     fill="#ffffff"
     d="m 1440.51,714.2427 a 0.32,0.31 48.6 0 0 0.57,0.04 c 4.17,-7.82 11.82,-9.18 19.23,-5.01 a 0.7,0.7 0 0 1 0.32,0.85 l -3.87,10.79 a 0.4,0.4 0 0 1 -0.57,0.21 c -10.74,-6.26 -14.02,3.07 -14.39,11.63 q -0.4,9.18 -0.24,24.87 a 0.61,0.61 0 0 1 -0.61,0.61 h -12.26 a 0.65,0.65 0 0 1 -0.65,-0.65 l 0.01,-49 a 0.58,0.58 0 0 1 0.58,-0.58 h 11.29 a 0.65,0.65 0 0 1 0.64,0.66 q -0.06,5.56 -0.05,5.58 z"
     id="path31" />
  <path
     fill="#ffffff"
     d="m 1460.44,743.7627 12.48,-1.89 a 0.6,0.6 0 0 1 0.68,0.47 q 1.18,5.37 6.51,6.84 c 3.68,1.01 12.21,0.91 13.16,-4.13 q 0.61,-3.2 -3.21,-4.15 -10.23,-2.55 -14.03,-3.63 c -3.43,-0.97 -7.98,-2.55 -10.31,-4.96 q -5.3,-5.53 -3.59,-13.09 c 2.28,-10.11 12.28,-12.36 21.81,-12.22 10.02,0.14 18.11,2.72 21.12,13 a 0.61,0.61 0 0 1 -0.5,0.77 l -11.69,1.78 a 0.5,0.5 0 0 1 -0.53,-0.28 q -1.8,-3.85 -4.14,-4.63 -6.01,-2 -11.85,0.26 a 2.53,2.86 69.4 0 0 -1.78,3.35 q 0.23,0.64 1.31,1.86 a 2.12,2.06 78.8 0 0 0.81,0.56 c 5.8,2.17 12.16,3.22 18.54,5.15 7.95,2.41 12.46,7.13 11.48,15.93 -0.71,6.29 -6.21,11.58 -12.08,13.3 q -9.74,2.84 -19.77,0.4 -11.6,-2.83 -14.86,-14 a 0.55,0.55 0 0 1 0.44,-0.69 z"
     id="path32" />
  <rect
     fill="#ffffff"
     x="658.28998"
     y="708.0127"
     width="13.5"
     height="50.240002"
     rx="0.40000001"
     id="rect32" />
  <path
     fill="#ffffff"
     d="m 702.91,719.2427 h -22.34 a 0.53,0.53 0 0 1 -0.53,-0.53 v -10.13 a 0.58,0.58 0 0 1 0.58,-0.58 h 40.34 a 0.57,0.58 0 0 1 0.57,0.58 v 8.67 a 1.5,1.53 64.9 0 1 -0.37,0.99 l -24.67,28.19 a 0.05,0.05 0 0 0 0.04,0.09 h 25.93 a 0.58,0.58 0 0 1 0.58,0.58 v 10.56 a 0.59,0.59 0 0 1 -0.59,0.59 h -43.82 a 0.59,0.59 0 0 1 -0.59,-0.59 v -9.21 a 1.62,1.67 64.8 0 1 0.41,-1.08 l 24.51,-28.01 a 0.07,0.07 0 0 0 -0.05,-0.12 z"
     id="path33" />
  <rect
     fill="#ffffff"
     x="1299.54"
     y="708.0127"
     width="13.5"
     height="50.240002"
     rx="0.38999999"
     id="rect33" />
  <path
     fill="#ffffff"
     d="m 1344.51,741.1627 q 0.04,0 0.05,0 a 0.08,0.08 0 0 0 0.06,-0.06 l 11.67,-32.53 a 0.88,0.88 0 0 1 0.83,-0.58 h 12.95 a 0.49,0.49 0 0 1 0.45,0.67 l -19.69,48.95 a 0.98,0.98 0 0 1 -0.88,0.61 q -0.91,0.03 -5.42,0.03 -4.52,0 -5.43,-0.02 a 0.98,0.98 0 0 1 -0.88,-0.61 l -19.78,-48.91 a 0.49,0.49 0 0 1 0.45,-0.67 l 12.95,-0.03 a 0.88,0.88 0 0 1 0.83,0.58 l 11.73,32.51 a 0.08,0.08 0 0 0 0.06,0.06 q 0.01,0 0.05,0 z"
     id="path34" />
  <rect
     fill="#ffffff"
     x="1516.54"
     y="708.0127"
     width="13.5"
     height="50.240002"
     rx="0.40000001"
     id="rect34" />
  <path
     fill="#ffffff"
     d="m 1592.31,742.4627 11.16,-33.96 a 0.73,0.72 8.8 0 1 0.69,-0.5 h 13.09 a 0.3,0.3 0 0 1 0.28,0.4 q -13.96,38.19 -21.57,58.74 c -4.15,11.2 -14.61,12.92 -25.11,10.83 a 0.84,0.83 2.4 0 1 -0.67,-0.72 l -1.06,-9.59 a 0.31,0.32 8.4 0 1 0.44,-0.33 q 0.24,0.11 4.25,0.47 c 5.95,0.53 10.06,-3.64 10.9,-9.32 a 1.43,1.42 39.1 0 0 -0.08,-0.74 l -18.65,-49.15 a 0.44,0.43 79.6 0 1 0.4,-0.59 h 13.27 a 0.74,0.73 80.5 0 1 0.69,0.5 l 11.45,33.96 a 0.28,0.27 44.6 0 0 0.52,0 z"
     id="path35" />
</svg>
