<?xml version="1.0" encoding="UTF-8" standalone="no"?>
<svg
   version="1.1"
   viewBox="0 0 936.98877 145.06586"
   id="svg47"
   sodipodi:docname="Línea gráfica_Misión Visión copy (1).svg"
   width="936.98877"
   height="145.06586"
   inkscape:version="1.4.2 (f4327f4, 2025-05-13)"
   xmlns:inkscape="http://www.inkscape.org/namespaces/inkscape"
   xmlns:sodipodi="http://sodipodi.sourceforge.net/DTD/sodipodi-0.dtd"
   xmlns="http://www.w3.org/2000/svg"
   xmlns:svg="http://www.w3.org/2000/svg">
  <defs
     id="defs47" />
  <sodipodi:namedview
     id="namedview47"
     pagecolor="#ffffff"
     bordercolor="#000000"
     borderopacity="0.25"
     inkscape:showpageshadow="2"
     inkscape:pageopacity="0.0"
     inkscape:pagecheckerboard="0"
     inkscape:deskcolor="#d1d1d1"
     inkscape:zoom="1.576"
     inkscape:cx="482.55076"
     inkscape:cy="57.423858"
     inkscape:window-width="1920"
     inkscape:window-height="991"
     inkscape:window-x="2551"
     inkscape:window-y="-4"
     inkscape:window-maximized="1"
     inkscape:current-layer="svg47" />
  <path
     stroke="#f08f93"
     stroke-width="2"
     fill="none"
     stroke-linecap="butt"
     vector-effect="non-scaling-stroke"
     d="m 155.23001,36.73436 q -0.44,-0.2 -0.43,0.49"
     id="path1" />
  <path
     fill="#e01f26"
     d="m 175.98001,48.89436 q -0.65,-0.15 -0.77,-0.89 a 0.48,0.42 55 0 1 0.02,-0.19 l 1.63,-4.16 a 1.63,1.59 47.4 0 0 0.03,-1.06 l -0.1,-0.31 a 0.5,0.5 0 0 0 -0.84,-0.19 c -1.35,1.49 -1.05,5.55 -4.35,4.59 q -2.83,-0.82 -4.86,-2.04 a 1.2,1.2 0 0 0 -1.81,1.1 q 0.07,1.45 1.63,1.64 0.47,0.06 2.5,-0.38 a 0.77,0.77 0 0 1 0.89,0.99 q -0.39,1.21 -4.53,1.21 a 1.38,1.4 8.5 0 0 -1.33,1 q -0.44,1.52 -1.38,2.72 c -0.95,1.21 -2.19,1.53 -3.01,0.1 a 0.22,0.23 84.8 0 1 0.27,-0.32 q 1.91,0.66 2.96,-1.75 a 1.32,1.32 0 0 0 -0.95,-1.82 q -1.94,-0.38 -3.39,-1.34 a 2.69,2.61 88.7 0 1 -0.71,-0.7 c -3.45,-4.91 -6.04,-9.71 -12.07,-11.09 a 1.18,1.21 38.3 0 0 -0.79,0.1 l -5.25,2.59 a 0.85,0.88 35.1 0 1 -0.46,0.09 q -1.81,-0.15 -3.74,-1.47 a 0.24,0.24 0 0 0 -0.37,0.28 q 0.89,2.62 1.42,3.54 a 3.53,3.28 22.3 0 1 0.32,0.69 q 1.17,3.57 2.77,6.13 a 2.38,2.44 89.3 0 0 0.89,0.85 c 3.73,2.09 6.1,2.66 11.39,3.99 a 1.82,1.9 53.4 0 0 0.47,0.06 h 3.61 a 0.4,0.41 14.5 0 1 0.35,0.6 q -1.46,2.67 -4.61,2.47 a 0.3,0.3 0 0 0 -0.2,0.54 q 5.84,4.15 11.05,9.26 c 8.74,8.57 10.75,18.42 8.59,30.18 -1.12,6.11 -2.24,11.16 -5.43,15.57 q -3.14,4.34 -5.27,8.08 a 0.19,0.19 0 0 1 -0.25,0.08 h -0.01 a 0.23,0.22 23.1 0 1 -0.11,-0.26 l 1.85,-6.94 a 0.61,0.61 0 0 0 -1.02,-0.59 q -8.23,8.26 -9.31,19.61 a 0.42,0.42 0 0 1 -0.78,0.18 c -2.06,-3.39 -2.24,-6.89 -2.99,-10.24 a 0.41,0.4 69 0 0 -0.59,-0.27 q -5.42,3.1 -13.09,6.25 -0.36,0.14 -4.09,0.79 a 0.1,0.1 0 0 1 -0.08,-0.18 l 4.25,-3.36 a 0.1,0.11 21.5 0 0 -0.08,-0.19 q -3.4,0.63 -8.51,0.44 c -6.72,-0.26 -13.73,6.35 -18.31,11.01 a 0.27,0.27 0 0 1 -0.44,-0.29 c 1.67,-4.31 3.36,-8.03 5.73,-11.75 q 1.4,-2.19 1.94,-3.58 a 0.1,0.1 0 0 0 -0.17,-0.1 c -3.5,3.58 -12.32,3.04 -16.770002,2.5 a 0.32,0.32 0 0 1 -0.2,-0.53 q 0.49,-0.55 3.070002,-1.63 c 8.32,-3.47 8.26,-14.94 1.35,-19.82 -6.090002,-4.3 -13.430002,-0.92 -17.460002,4.92 -7.61,10.99 -7.61,21.88 -7.62,34.8 a 0.22,0.22 0 0 1 -0.43,0.05 q -2.6,-13.1 -1.42,-24.74 a 0.28,0.28 0 0 0 -0.52,-0.18 q -1.16,1.81 -2.03,4.58 -2.16,6.85 -2.66,14.4 a 0.27,0.27 0 0 1 -0.49,0.14 q -0.79,-1.11 -0.8,-3.07 -0.03,-13.78 5.16,-26.46 3.31,-8.08 8.8,-13.83 c 8.37,-8.77 17.11,-16.28 29.510002,-13.04 a 0.11,0.11 0 0 1 -0.01,0.21 q -5.39,0.99 -8.42,4.77 a 0.34,0.34 0 0 0 0.24,0.55 c 4.56,0.25 8.45,-0.37 12.84,1.52 a 0.28,0.28 0 0 1 -0.06,0.54 c -1.8,0.33 -4.58,-0.53 -5.91,0.65 a 0.97,0.97 0 0 0 0.11,1.54 l 5.2,3.37 a 0.92,0.91 38 0 0 1.16,-0.14 c 2.32,-2.48 7.83,-6.36 10.93,-5.27 a 0.24,0.24 0 0 1 0.02,0.44 c -3.49,1.68 -5.16,4.88 -5.83,8.35 q -0.31,1.58 0.39,3.46 2.43,6.61 8.84,6.68 3.29,0.04 5.45,-1.44 a 0.57,0.58 44.3 0 0 -0.01,-0.96 l -2.21,-1.44 a 0.23,0.23 0 0 1 0.15,-0.42 c 3.95,0.49 7.83,0.88 9.71,-3.15 a 0.49,0.48 12.7 0 0 -0.44,-0.69 h -3.01 a 0.46,0.46 0 0 1 -0.18,-0.89 q 4.32,-1.82 5.11,-5.81 0.73,-3.73 -0.47,-8.04 c -1.6,-5.74 -7.89,-8.7 -12.95,-11.53 a 0.37,0.37 0 0 0 -0.51,0.48 q 0.87,1.75 3.19,3.84 a 0.32,0.31 73.7 0 1 -0.29,0.54 q -4.56,-1.32 -6.51,-2.68 -1.94,-1.36 -4.85,-5.82 a 0.17,0.11 83.4 0 0 -0.05,-0.06 l -6.65,-6.69 a 0.36,0.36 0 0 0 -0.55,0.05 q -2.44,3.45 -6.36,3.21 a 0.57,0.56 29.6 0 1 -0.29,-1.03 q 3.23,-2.2 1.69,-6.39 c -2.59,-7.04 -4.71,-11.04 -4.38,-16.88 q 0.03,-0.53 -0.9,-2.78 -0.32,-0.78 0.06,-0.92 0.24,-0.09 0.63,-0.07 a 0.88,0.88 0 0 0 0.78,-0.41 l 1.09,-1.68 a 0.66,0.75 66.9 0 0 0.09,-0.19 c 1.7,-5.17 3.75,-9.53 8.8,-11.82 a 0.15,0.15 0 0 0 0.06,-0.23 l -0.28,-0.34 a 0.02,0.02 0 0 0 -0.03,-0.01 q -4.42,1.94 -6.17,3.97 -0.49,0.57 -3.28,4.05 a 0.19,0.19 0 0 1 -0.33,-0.14 q 0.93,-6.54 6.5,-10.32 2.45,-1.66 3.87,-3.02 a 0.71,0.71 0 0 0 -0.49,-1.23 h -2.38 a 0.29,0.29 0 0 1 -0.23,-0.46 c 1.37,-1.79 2.71,-1.88 5.7,-2.8 a 0.31,0.31 0 0 0 0.16,-0.48 q -4.12,-5.82 -11.16,-7.75 a 0.6,0.6 0 0 1 -0.3,-0.97 q 0.29,-0.36 0.85,-0.47 1.21,-0.26000004 5.38,-0.34000004 6.57,-0.13 11.88,3.53000004 a 3.24,3.33 89.2 0 1 0.73,0.69 c 2.56,3.35 4.47,5.27 8.52,4.19 a 0.6,0.59 73.7 0 0 0.41,-0.76 l -0.33,-1.06 a 0.37,0.37 0 0 1 0.44,-0.47 q 0.87,0.21 1.12,0.41 a 0.61,0.6 10.8 0 0 0.96,-0.65 q -1.45,-4.49 -5.13,-6.10000004 a 0.26,0.26 0 0 1 0.16,-0.49 q 4.06,1.00000004 8.27,3.86000004 c 2.02,1.37 4.78,3.46 2.57,5.83 a 0.46,0.45 10.1 0 0 0.51,0.73 q 1.97,-0.85 5.43,-0.4 a 1.32,1.3 68.3 0 1 0.66,0.29 l 1.36,1.13 a 0.04,0.05 29.4 0 1 0.01,0.06 l -0.15,0.23 a 0.31,0.31 0 0 1 -0.5,0.02 l -0.43,-0.53 a 1.21,1.19 76.4 0 0 -0.69,-0.43 q -3.37,-0.67 -4.38,2.33 a 0.58,0.58 0 0 0 0.75,0.73 q 0.25,-0.09 0.53,-0.35 a 0.48,0.48 0 0 1 0.79,0.24 q 0,0.01 0.02,0.15 a 0.74,0.74 0 0 0 0.35,0.55 q 2.82,1.65 5.53,1.44 a 1.66,1.79 54.9 0 1 0.8,0.11 q 3.06,1.14 3.08,3.72 a 0.77,0.76 3.4 0 0 0.68,0.76 q 4.62,0.53 5.35,5.69 a 0.6,0.61 85.9 0 1 -0.6,0.69 h -1.54 a 0.73,0.72 4.1 0 0 -0.72,0.62 q -0.39,2.49 1.94,4.04 c 3.71,2.46 6.69,4.56 10.84,4.43 a 2.22,2.21 80.2 0 1 2.19,1.55 l 1.59,5.04 a 1.04,1.01 48.3 0 1 -0.03,0.72 q -0.86,2.03 -2.25,3.67 c -0.55,0.66 -0.54,1.21 -0.23,1.97 z m -27.91,-26.69 a 0.24,0.24 0 0 0 0.11,0.4 q 4.4,1.12 7.03,2.63 0.8,0.45 1.34,0.22 a 0.61,0.61 0 0 0 0.23,-0.96 q -2.51,-2.97 -6.24,-4.6 a 0.17,0.18 35.3 0 0 -0.2,0.04 z m 6.73,15.02 q 2.17,4.37 5.83,8.2 a 0.82,0.82 0 0 0 1.41,-0.56 v -2.18 a 3.03,3.02 21.5 0 0 -0.97,-2.22 c -1.07,-1 -3.91,-3.76 -5.84,-3.73 q -0.44,-0.2 -0.43,0.49 z"
     id="path2" />
  <path
     fill="#ffffff"
     d="m 232.48001,8.90436 a 0.53,0.52 0 0 0 0.53,-0.52 v -5.78 a 0.72,0.72 0 0 1 0.72,-0.72 h 4.19 a 0.56,0.56 0 0 1 0.56,0.56 v 37.75 a 0.67,0.68 0 0 1 -0.67,0.68 h -3.97 a 0.79,0.79 0 0 1 -0.79,-0.81 c 0.1,-4.49 -0.25,-8.06 -1.12,-13.01 q -0.82,-4.66 -3.14,-7.13 -3.52,-3.73 -8.22,-4.65 -8.51,-1.67 -18.32,-1.09 a 0.28,0.28 0 0 0 -0.27,0.28 v 25.43 a 0.99,0.99 0 0 0 0.99,0.99 h 11.9 a 0.61,0.61 0 0 0 0.61,-0.61 v -13.76 a 0.64,0.63 0 0 1 0.64,-0.63 h 4.09 a 0.73,0.73 0 0 1 0.73,0.73 v 38.24 a 0.52,0.52 0 0 1 -0.52,0.52 h -4.39 a 0.62,0.62 0 0 1 -0.62,-0.66 q 0.4,-7.58 -0.79,-12.32 c -1.34,-5.37 -7.05,-7.19 -11.98,-6.48 a 0.79,0.79 0 0 0 -0.67,0.78 v 64.18 a 2.05,2.02 34 0 0 0.16,0.79 q 1.61,3.69 5.51,4.06 3.02,0.29 7.12,0.12 a 1.19,1.18 88.8 0 1 1.23,1.19 v 2.74 a 1.07,1.07 0 0 1 -1.07,1.07 h -38.95 a 0.52,0.52 0 0 1 -0.52,-0.52 v -3.89 a 0.52,0.52 0 0 1 0.52,-0.52 h 10.05 a 0.95,0.96 0 0 0 0.95,-0.96 q 0.04,-68.52 -0.04,-94.05 -0.01,-2.96 -2.96,-5.72 a 2.03,2.09 70.7 0 0 -1.17,-0.54 l -6.83,-0.79 a 0.57,0.57 0 0 1 -0.5,-0.57 v -3.8 a 0.58,0.58 0 0 1 0.58,-0.58 z"
     id="path3" />
  <path
     fill="#ffffff"
     d="m 679.93001,19.44436 a 15.56,15.56 0 0 1 -15.56,15.56 15.56,15.56 0 0 1 -15.56,-15.56 15.56,15.56 0 0 1 15.56,-15.56 15.56,15.56 0 0 1 15.56,15.56 z m -15.5814,-14.7999 a 14.73,10.62 89.8 0 0 -10.5685,14.767 14.73,10.62 89.8 0 0 10.6713,14.6928 14.73,10.62 89.8 0 0 10.5685,-14.767 14.73,10.62 89.8 0 0 -10.6713,-14.6928 z"
     id="path4" />
  <path
     fill="#ffffff"
     d="m 488.03001,25.22436 a 0.36,0.36 0 0 1 0.7,-0.11 c 1.09,3.25 2.51,6.79 5.61,8.12 q 3.67,1.57 6.64,-1.28 a 2.38,2.53 76.5 0 0 0.59,-0.9 c 2.48,-6.59 -2.41,-9.2 -7.97,-12.13 -5.63,-2.97 -5.73,-9.11 -1.2,-13.04 q 3.86,-3.36 9.55,-0.68 c 0.78,0.37 1.39,0.42 2.12,0.14 a 0.69,0.69 0 0 1 0.94,0.65 v 6.31 a 0.35,0.35 0 0 1 -0.35,0.35 h -0.34 a 0.28,0.27 86.4 0 1 -0.27,-0.25 q -0.45,-4.91 -4.19,-6.86 c -5.99,-3.12 -10.02,5.63 -3.98,8.91 q 6.3,3.42 6.34,3.44 c 6.87,4.1 6.02,14.11 -1.77,16.5 q -4.01,1.23 -8.51,-0.94 c -1.39,-0.66 -1.84,-0.67 -3.24,0.02 a 0.46,0.46 0 0 1 -0.67,-0.41 z"
     id="path5" />
  <path
     fill="#ffffff"
     d="m 452.44001,33.34436 a 0.31,0.31 0 0 1 -0.14,0.58 h -13.08 a 0.25,0.24 0 0 1 -0.25,-0.24 v -0.28 a 0.25,0.25 0 0 1 0.22,-0.25 c 2.87,-0.38 3.67,-1.44 3.73,-4.39 q 0.3,-16.01 -0.01,-20.07 -0.18,-2.36 -3.52,-3.2 a 0.27,0.28 10 0 1 -0.2,-0.29 q 0.02,-0.29 0.17,-0.29 5.76,-0.17 12.45,0.06 a 0.27,0.27 0 0 1 0.07,0.53 l -2.12,0.67 a 2.44,2.44 0 0 0 -1.69,2.22 q -0.38,9.74 -0.09,21.65 c 0.08,3.28 2.61,2.39 4.46,3.3 z"
     id="path6" />
  <path
     fill="#ffffff"
     d="m 453.98001,33.73436 3.33,-1.37 a 1.49,1.52 89.8 0 0 0.84,-0.83 q 0.65,-1.57 0.64,-3.16 -0.02,-5.06 0.12,-18.5 c 0.02,-1.35 -1.02,-3.65 -2.74,-3.92 q -1.18,-0.18 -1.41,-0.41 a 0.42,0.42 0 0 1 0.28,-0.73 l 6.91,0.1 a 1.69,1.71 71.6 0 1 1.32,0.65 l 16.17,20.96 a 0.05,0.05 0 0 0 0.09,-0.03 l -0.07,-15.85 a 3.17,2.36 48 0 0 -0.05,-0.53 l -0.55,-2.8 a 1.26,1.3 7.4 0 0 -0.68,-0.91 q -1.27,-0.62 -2.61,-0.65 a 0.34,0.34 0 0 1 -0.33,-0.34 v -0.36 a 0.15,0.15 0 0 1 0.15,-0.15 h 9.42 a 0.1,0.09 0 0 1 0.1,0.09 v 0.33 a 0.33,0.33 0 0 1 -0.32,0.33 q -3.2,0.16 -4.09,3.8 a 0.56,0.26 70.1 0 0 -0.01,0.11 v 23.59 a 0.68,0.69 25.7 0 1 -1.22,0.43 l -18.84,-23.84 a 0.22,0.22 0 0 0 -0.39,0.13 v 21.18 a 1.37,1.36 20.7 0 0 0.47,1.03 q 1.01,0.89 2.68,1.03 a 0.32,0.33 1.8 0 1 0.3,0.33 v 0.28 a 0.17,0.17 0 0 1 -0.17,0.17 h -9.31 a 0.0813941,0.0813941 0 0 1 -0.03,-0.16 z"
     id="path7" />
  <path
     fill="#ffffff"
     d="m 537.65001,12.36436 a 0.28,0.28 0 0 1 -0.55,-0.08 c -0.21,-6.6 -5.48,-6.59 -10.32,-6.27 a 0.85,0.85 0 0 0 -0.8,0.84 q -0.15,14.39 0.19,23.25 0.11,2.77 3.12,3.03 a 0.35,0.36 2.6 0 1 0.32,0.36 v 0.26 a 0.11,0.12 0 0 1 -0.11,0.12 h -11.95 a 0.19,0.18 0 0 1 -0.19,-0.18 v -0.29 a 0.31,0.31 0 0 1 0.3,-0.31 q 3.27,-0.13 3.29,-3.7 0.08,-11.26 0.07,-22.31 a 1.06,1.04 4.9 0 0 -0.88,-1.03 q -8.83,-1.48 -11.32,6.51 a 0.27,0.27 0 0 1 -0.32,0.17 l -0.04,-0.04 a 0.06,0.05 20.8 0 1 -0.03,-0.06 l 0.59,-6.87 a 0.99,0.99 0 0 1 0.99,-0.91 h 27.5 a 0.79,0.79 0 0 1 0.75,1.05 l -0.19,0.54 a 3.6,3.55 53.6 0 0 -0.19,1.32 q 0.16,3.44 -0.23,4.6 z"
     id="path8" />
  <path
     fill="#ffffff"
     d="m 539.56001,5.50436 a 0.3,0.31 58.4 0 1 0.14,-0.58 l 13.05,0.01 a 0.25,0.24 0 0 1 0.25,0.24 v 0.27 a 0.25,0.25 0 0 1 -0.22,0.25 c -2.87,0.38 -3.66,1.44 -3.73,4.38 q -0.31,15.96 0,20.01 0.18,2.36 3.51,3.2 a 0.27,0.28 10.1 0 1 0.2,0.29 q -0.02,0.28 -0.17,0.28 -5.75,0.17 -12.42,-0.06 a 0.27,0.27 0 0 1 -0.07,-0.53 l 2.12,-0.67 a 2.43,2.43 0 0 0 1.68,-2.21 q 0.39,-9.71 0.11,-21.59 c -0.08,-3.27 -2.6,-2.39 -4.45,-3.29 z"
     id="path9" />
  <path
     fill="#ffffff"
     d="m 583.53001,12.48436 a 0.23,0.23 0 0 1 -0.45,-0.06 q -0.45,-5.17 -4.39,-6.06 -3.14,-0.72 -6.83,-0.4 a 0.92,0.9 87.9 0 0 -0.82,0.9 q -0.11,12.56 -0.03,18.24 c 0.05,4.12 -0.25,7.49 4.34,8.23 a 0.29107559,0.29107559 0 0 1 -0.05,0.58 h -12.6 a 0.36086701,0.36086701 0 0 1 -0.05,-0.72 c 3.8,-0.53 3.85,-3.42 3.84,-6.57 q -0.04,-10.32 0,-19.93 a 0.68,0.7 4.3 0 0 -0.58,-0.69 q -5.51,-0.88 -8.87,1.68 a 2.26,2.22 82.4 0 0 -0.73,0.97 l -1.56,3.98 a 0.15,0.15 0 0 1 -0.29,-0.05 v -6.36 a 1.37,1.37 0 0 1 1.37,-1.37 h 27.51 a 0.7,0.7 0 0 1 0.7,0.69 q 0.07,5.29 -0.51,6.94 z"
     id="path10" />
  <path
     fill="#ffffff"
     d="m 585.18001,5.52436 a 0.35,0.35 0 0 1 0.09,-0.68 l 12.43,0.01 a 0.34,0.34 0 0 1 0.17,0.63 c -1.95,1.07 -3.73,0.42 -3.79,3.69 q -0.18,8.66 -0.1,17.17 0.05,7.42 7.44,7.5 c 4.85,0.04 9.71,-2.37 9.48,-7.97 q -0.18,-4.04 -0.04,-15.65 0.05,-4.53 -4.21,-4.48 a 0.25,0.25 0 0 1 -0.25,-0.32 l 0.08,-0.28 a 0.34,0.34 0 0 1 0.33,-0.26 l 8.86,0.01 a 0.32,0.32 0 0 1 0.1,0.63 l -2.43,0.77 a 1.76,1.76 0 0 0 -1.23,1.61 q -0.22,5.58 -0.08,17.46 0.07,6.61 -5.99,8.55 c -6.63,2.12 -16.77,1.2 -16.97,-7.89 q -0.2,-8.7 0.02,-15.17 0.04,-1.34 -0.29,-3.23 a 1.93,1.92 2.5 0 0 -1.38,-1.5 z"
     id="path11" />
  <path
     fill="#ffffff"
     d="m 646.52001,12.45436 a 0.13238202,0.13238202 0 0 1 -0.26,0.05 c -1.3,-3.36 -2,-5.51 -5.92,-6.42 q -1.88,-0.44 -5.72,-0.09 a 0.5,0.5 0 0 0 -0.46,0.5 q 0.06,16.96 0.04,21.65 -0.02,4.48 3.99,4.97 a 0.33,0.33 0 0 1 0.3,0.33 v 0.26 a 0.18,0.18 0 0 1 -0.18,0.18 h -12.82 a 0.17,0.18 0 0 1 -0.17,-0.18 v -0.27 a 0.37,0.36 85.4 0 1 0.3,-0.36 q 3.27,-0.53 3.31,-2.95 0.07,-3.62 0.08,-22.92 a 1.24,1.25 4.9 0 0 -1.03,-1.23 q -4.27,-0.73 -7.98,1.22 a 1.78,1.85 84.8 0 0 -0.87,1.01 q -1.28,3.59 -1.48,4.09 a 0.36,0.36 0 0 1 -0.69,-0.14 v -6.47 a 0.84,0.83 0 0 1 0.84,-0.83 h 27.04 a 1.68,1.68 0 0 1 1.68,1.68 z"
     id="path12" />
  <path
     fill="#ffffff"
     d="m 694.56001,33.79436 a 0.24,0.24 0 0 1 -0.21,-0.3 l 0.11,-0.44 a 0.07,0.07 0 0 1 0.08,-0.05 q 3.63,0.04 3.73,-3.42 0.27,-9.45 0.11,-21.11 a 2.34,2.33 7.4 0 0 -1.71,-2.23 l -2.33,-0.63 a 0.38,0.38 0 0 1 0.1,-0.75 q 8.69,-0.01 10.98,-0.06 c 7.9,-0.15 14.5,1.51 17.51,8.61 q 3.06,7.21 -0.07,14.13 -2.85,6.3 -12.02,6.35 -6.52,0.05 -16.28,-0.1 z m 8.43,-26.64 q -0.13,14.53 0.12,21.05 0.2,4.98 5.12,4.92 c 10.81,-0.12 13.2,-12.6 9.04,-20.69 q -3.93,-7.62 -13.08,-6.61 a 1.36,1.34 87.3 0 0 -1.2,1.33 z"
     id="path13" />
  <path
     fill="#ffffff"
     d="m 743.07001,14.33436 a 0.39,0.39 0 0 1 0.38,-0.38 h 0.03 a 0.22,0.21 87 0 1 0.21,0.2 q 0.47,5.4 -0.03,9.61 a 0.13,0.13 0 0 1 -0.25,0.02 l -1.19,-3.74 a 0.79,0.79 0 0 0 -0.4,-0.47 q -1.93,-0.98 -3.76,-0.8 a 1.06,1.08 88.7 0 0 -0.97,1 c -0.21,3.24 -1.55,11.8 3.01,12.76 q 3.69,0.77 7.46,-0.09 c 3.2,-0.73 3.93,-3.71 4.86,-6.63 a 0.3,0.3 0 0 1 0.59,0.09 v 7.19 a 0.88,0.88 0 0 1 -0.88,0.88 l -23.42,-0.08 a 0.39,0.38 61.8 0 1 -0.22,-0.07 q -0.26,-0.22 -0.03,-0.56 0.11,-0.15 0.19,-0.17 2.57,-0.5 3.31,-2.34 a 1.06,1.14 54.1 0 0 0.08,-0.41 v -21.59 a 2.53,2.53 0 0 0 -1.61,-2.36 l -1.9,-0.74 a 0.41,0.41 0 0 1 0.15,-0.79 h 20.71 a 1.18,1.19 0 0 1 1.18,1.19 v 5.49 a 0.15,0.15 0 0 1 -0.28,0.06 c -1.34,-3.21 -1.7,-5.22 -5.52,-5.58 q -1.49,-0.13 -6.67,-0.14 a 1.18,1.18 0 0 0 -1.18,1.18 v 9.53 a 1.26,1.26 0 0 0 1.05,1.24 q 5,0.81 5.1,-3.5 z"
     id="path14" />
  <rect
     fill="#e01f26"
     x="403.48001"
     y="5.3143625"
     width="3.5"
     height="117.98"
     rx="0.44999999"
     id="rect14" />
  <path
     fill="#ffffff"
     d="m 340.26001,116.00436 a 0.36,0.36 0 0 0 0.08,0.63 q 20.2,7.5 40.59,12.77 c 21.86,5.64 43.15,8.02 64.57,5.97 q 10.56,-1 20.28,-5.42 a 1.84,1.83 60.1 0 1 2.26,0.62 l 0.06,0.08 a 1.26,1.26 0 0 1 -0.5,1.87 q -15.51,7.25 -15.64,7.3 -9.97,4.01 -20.75,4.9 -19.58,1.63 -38.37,-4.52 -20.96,-6.85 -35.66,-12 -10.98,-3.85 -20.39,-7.66 -0.45,-0.18 -3.07,-0.81 a 1.81,1.8 43.1 0 0 -0.97,0.03 q -3.23,1.02 -7.75,2.13 c -16.89,4.15 -36.14,1.91 -50.65,-7.91 -14.17,-9.6 -23.72,-22.9 -26.06,-40.15 q -3.25,-23.94 9.37,-42.35 8.6,-12.54 22.71,-19.33 12.76,-6.14 29.35,-5.81 c 17.54,0.34 34.5,7.06 44.92,20.52 2.12,2.74 3.97,4.54 5.65,7.14 12.84,19.84 11.75,48.79 -3.79,66.9 q -6.98,8.13 -10.84,11.19 -1.71,1.35 -5.4,3.91 z m -45.05,-3.95 2.38,-2.82 a 0.99,0.95 5.1 0 1 0.35,-0.28 c 4.26,-2.18 8.92,-1.47 14.44,-0.86 q 2.61,0.3 7.66,1.91 3.07,0.99 10.4,3.06 c 2.79,0.79 3.69,0.1 5.74,-1.52 14.34,-11.36 20.05,-27.9 17.25,-46.15 q -4.21,-27.47 -26.09,-43.78 c -11.21,-8.36 -27.99,-11.95 -41.38,-5.97 -10.25,4.57 -16.11,12.03 -20.84,21.59 q -2.74,5.54 -3.17,14.13 -0.76,15.09 3.72,26.1 3.35,8.26 4.11,9.58 7.14,12.28 13.49,17.53 6.02,4.98 10.01,7.74 a 1.44,1.45 37.4 0 0 1.93,-0.26 z m 29.25,4.45 q -8.32,-2.8 -16.46,-3.07 -4.11,-0.13 -6.54,1.45 a 0.5,0.5 0 0 0 0.28,0.92 q 1.74,-0.01 2.93,0.7 a 2.55,2.57 64.2 0 0 0.9,0.31 c 7.5,0.98 12.44,1.73 18.87,0.11 a 0.22,0.22 0 0 0 0.02,-0.42 z"
     id="path15" />
  <path
     fill="#ffffff"
     d="m 51.540008,8.88436 h 27.04 a 0.4,0.4 0 0 1 0.4,0.4 v 4.39 a 0.41,0.42 0 0 1 -0.41,0.42 h -10.47 a 0.63,0.63 0 0 0 -0.63,0.63 q 0.04,69.42 -0.04,81.4 -0.03,4.41 -1.48,9.94 c -3.44,13.14 -14.64,17.81 -27.48,17.28 q -20.03,-0.84 -24.99,-16.66 -1.7,-5.41 -1.55,-17.78 0.09,-7.07 0.05,-65.56 a 2.98,3.41 34.8 0 0 -0.08,-0.72 l -1.01,-4.62 a 4.11,4.12 1.7 0 0 -2.9000002,-3.08 q -3.83,-1.09 -7.03999999,-0.79 A 0.87,0.87 0 0 1 7.811349e-6,13.26436 v -3.35 A 1,1.01 0 0 1 1.0000078,8.90436 H 37.770008 a 0.7,0.7 0 0 1 0.7,0.7 v 3.8 a 0.68,0.68 0 0 1 -0.68,0.68 h -10.29 a 0.52,0.52 0 0 0 -0.52,0.52 q -0.02,47.6 0.03,83.51 0.01,7.25 4.84,12.38 c 5.31,5.64 19.22,5.82 24.82,0.46 5.25,-5.04 6.07,-12.68 6.07,-19.82 q 0.07,-59.31 -0.01,-65 -0.05,-4.07 -0.84,-7.96 a 4.32,4.33 2.6 0 0 -3.02,-3.31 q -3.54,-1.05 -7.31,-0.7 a 0.53,0.52 87.5 0 1 -0.57,-0.53 v -4.2 a 0.55,0.55 0 0 1 0.55,-0.55 z"
     id="path16" />
  <path
     fill="#ffffff"
     d="m 155.23001,36.73436 -0.43,0.49 q -0.01,-0.69 0.43,-0.49 z"
     id="path17" />
  <path
     fill="#ffffff"
     d="m 467.47001,68.75436 c 0.52,0.51 0.95,2.98 1.56,4.16 q 2.69,5.23 8.53,3.56 a 2.23,2.24 15.4 0 0 0.93,-0.53 c 3.77,-3.56 2.32,-8.3 -1.76,-10.56 -2.84,-1.58 -7.29,-3.47 -8.17,-5.9 -2.06,-5.7 0.48,-11.8 7.19,-12.07 q 1.27,-0.05 5.55,1.46 a 1.19,1.19 0 0 0 1.12,-0.19 l 0.62,-0.48 a 0.53,0.53 0 0 1 0.86,0.42 v 7.59 a 0.4,0.4 0 0 1 -0.4,0.4 h -0.34 a 0.16,0.17 0 0 1 -0.16,-0.17 q 0.01,-5.24 -5.01,-7.76 -2.55,-1.28 -4.68,0.33 c -3.52,2.66 -2.88,6.96 0.84,9.25 q 1.58,0.98 7.49,3.77 a 3.51,3.53 80.7 0 1 1.01,0.72 q 5.18,5.2 1.91,10.72 c -2.38,4.03 -7.63,5.33 -11.79,4.04 q -4.35,-1.35 -5.06,-1.13 a 0.51,0.51 0 0 1 -0.66,-0.49 l -0.02,-6.95 a 0.26,0.26 0 0 1 0.44,-0.19 z"
     id="path18" />
  <path
     fill="#ffffff"
     d="m 631.92271,59.73236 a 15.24,15.61 78.8 0 1 -12.3526,17.9818 15.24,15.61 78.8 0 1 -18.2728,-11.9178 15.24,15.61 78.8 0 1 12.3526,-17.9818 15.24,15.61 78.8 0 1 18.2728,11.9178 z m -15.1648,-11.7476 a 14.63,10.28 89.6 0 0 -10.1776,14.7014 14.63,10.28 89.6 0 0 10.3818,14.5578 14.63,10.28 89.6 0 0 10.1776,-14.7014 14.63,10.28 89.6 0 0 -10.3818,-14.5578 z"
     id="path19" />
  <path
     fill="#ffffff"
     d="m 653.47001,48.63436 v 7.8 a 0.08,0.08 0 0 1 -0.13,0.06 q -1.14,-1.19 -1.35,-2.37 c -0.55,-3.16 -3.86,-6.94 -7.31,-5.82 q -2.42,0.78 -3.38,3.26 -1.65,4.29 3.43,6.95 c 5.32,2.79 13.4,5.9 9.41,14.69 -2.22,4.91 -8.36,5.66 -12.95,3.91 q -2.43,-0.92 -3.67,-0.77 a 0.55,0.55 0 0 1 -0.61,-0.56 l 0.11,-6.34 a 0.36,0.36 0 0 1 0.65,-0.21 q 0.04,0.06 0.96,2.99 0.7,2.21 3.66,4.12 a 2.53,2.52 66.4 0 0 0.91,0.36 q 5.13,0.97 6.89,-3.06 c 2.88,-6.57 -6.47,-9.79 -9.52,-11.81 -3.16,-2.1 -3.6,-7.1 -1.89,-10.22 2.71,-4.92 6.95,-4.68 11.61,-3.07 0.98,0.34 1.77,0.34 2.51,-0.24 a 0.42,0.41 71 0 1 0.67,0.33 z"
     id="path20" />
  <path
     fill="#ffffff"
     d="m 914.01011,59.40406 a 15.25,15.68 77.7 0 1 -12.0714,18.2402 15.25,15.68 77.7 0 1 -18.5688,-11.5596 15.25,15.68 77.7 0 1 12.0714,-18.2402 15.25,15.68 77.7 0 1 18.5688,11.5596 z m -15.4611,-11.3796 a 14.61,10.34 89.8 0 0 -10.2889,14.646 14.61,10.34 89.8 0 0 10.3909,14.5738 14.61,10.34 89.8 0 0 10.2889,-14.646 14.61,10.34 89.8 0 0 -10.3909,-14.5738 z"
     id="path21" />
  <path
     fill="#ffffff"
     d="m 918.81001,68.59436 q 0.63,0.89 1.47,3.22 c 1.17,3.27 3.71,5.38 7.48,5.04 4.74,-0.44 5.46,-5.99 3.13,-9.53 q -0.87,-1.32 -4.15,-2.88 c -3.07,-1.47 -6.9,-3.56 -7.12,-7.21 q -0.59,-9.38 8.03,-9.9 a 1.36,1.37 51.1 0 1 0.49,0.05 l 4.46,1.19 a 0.51,0.59 54.7 0 0 0.21,0.02 l 1.52,-0.2 a 0.57,0.58 86.5 0 1 0.65,0.57 l 0.05,6.99 a 0.48,0.48 0 0 1 -0.81,0.35 q -0.02,-0.02 -0.56,-2.65 c -1.56,-7.54 -12.52,-7.47 -10.45,1.68 a 2.18,2.15 17.3 0 0 0.55,1.03 c 2.95,3.1 7.84,4.42 10.34,6.52 a 3.99,3.99 0 0 1 0.58,0.58 q 4.23,5.01 0.71,10.54 c -3.25,5.09 -9.74,4.75 -14.48,2.34 a 1.14,1.12 46.8 0 0 -0.97,-0.04 l -0.76,0.31 a 0.51,0.51 0 0 1 -0.7,-0.48 v -7.44 a 0.18,0.18 0 0 1 0.33,-0.1 z"
     id="path22" />
  <path
     fill="#ffffff"
     d="m 495.57001,77.03436 q 1.02,-0.78 2.58,-1.24 a 0.95,0.95 0 0 0 0.62,-0.59 q 0.96,-2.67 0.96,-3.62 0.08,-13.26 0.01,-22.06 a 0.59,0.6 2.8 0 0 -0.52,-0.58 q -4.06,-0.48 -8.03,1.25 c -2.17,0.94 -2.36,4.57 -3.27,5.93 a 0.12,0.12 0 0 1 -0.22,-0.06 v -6.84 a 1.29,1.29 0 0 1 1.26,-1.29 q 8.31,-0.2 23.02,-0.11 3.61,0.02 4.68,0.36 a 0.75,0.82 56.6 0 0 0.25,0.04 l 14.3,-0.23 a 0.30103986,0.30103986 0 0 1 0.05,0.6 q -4.26,0.61 -4.26,5.01 -0.02,9.26 -0.02,15.01 c 0.01,3.11 0.78,7.22 4.31,7.95 q 5.81,1.2 10.4,-1.79 2.28,-1.49 2.29,-5.15 0.02,-10.67 -0.15,-17.25 c -0.07,-3.03 -2.45,-3.06 -4.47,-3.81 a 0.34,0.34 0 0 1 0.11,-0.66 h 10.07 a 0.31,0.3 35.8 0 1 0.1,0.59 l -2.56,0.81 a 2.81,2.82 81 0 0 -1.96,2.69 q 0.05,14 -0.03,17.78 -0.12,5.34 -5.33,7.15 c -3.73,1.3 -10.81,1.87 -14.3,-0.89 q -2.02,-1.6 -2.28,-2.48 -0.63,-2.1 -1.02,-3.49 a 5.01,4.88 37.9 0 1 -0.18,-1.32 q 0.01,-9.8 0.06,-16.17 c 0.02,-2.95 -1.34,-3.54 -4.07,-3.76 a 0.78,0.78 0 0 0 -0.85,0.74 l -0.31,6.39 a 0.12,0.1 72.1 0 1 -0.03,0.08 l -0.16,0.17 a 0.24,0.24 0 0 1 -0.38,-0.19 c -0.19,-2.98 -1.39,-5.39 -4.34,-6.34 q -3.71,-1.19 -7.46,-0.66 a 0.3,0.32 85.6 0 0 -0.27,0.3 q 0.01,19.05 0.04,22.05 0.02,1.45 1,3.86 a 0.99,0.97 0.9 0 0 0.52,0.53 q 2.06,0.87 2.63,1.32 a 0.2,0.2 0 0 1 -0.12,0.36 h -12.54 a 0.22,0.22 0 0 1 -0.13,-0.39 z"
     id="path23" />
  <path
     fill="#ffffff"
     d="m 744.49001,77.13436 q 0.82,-0.74 1.9,-1.18 a 2.2,2.43 69.3 0 0 1.45,-2.82 q -1.12,-3.3 -2.37,-6.19 a 1.73,1.72 78.3 0 0 -1.58,-1.04 h -6.58 a 1.94,1.94 0 0 0 -1.7,1.01 q -1.14,2.14 -2.2,5.84 -0.65,2.27 2.96,4.32 a 0.18,0.18 0 0 1 -0.09,0.33 h -8.75 a 0.32,0.32 0 0 1 -0.09,-0.62 q 1.49,-0.43 2.93,-1.63 0.92,-0.77 1.64,-2.54 5.29,-12.93 9,-23.49 0.22,-0.63 0.73,-1.18 a 0.62,0.62 0 0 1 1.03,0.2 q 4.8,12.4 10.04,24.67 0.52,1.2 1.49,2.59 a 1.32,1.34 77.5 0 0 0.88,0.55 q 1.44,0.24 2.27,0.88 a 0.31,0.31 0 0 1 -0.19,0.55 h -12.67 a 0.15,0.14 24 0 1 -0.1,-0.25 z m -4.02,-12.35 q 2.81,-0.06 3.48,-0.15 a 0.45,0.45 0 0 0 0.36,-0.61 l -3.98,-9.73 a 0.08,0.04 71.1 0 0 -0.05,-0.04 q -0.01,0 -0.03,0 -0.01,0 -0.03,0 a 0.04,0.08 16.6 0 0 -0.04,0.04 l -3.58,9.89 a 0.45,0.45 0 0 0 0.38,0.6 q 0.68,0.06 3.49,0 z"
     id="path24" />
  <path
     fill="#ffffff"
     d="m 815.27001,77.38436 h -23.66 a 0.42,0.42 0 0 1 -0.36,-0.65 l 17.42,-26.85 a 0.7,0.7 0 0 0 -0.59,-1.09 q -5.62,0.05 -8.78,0.45 -5.75,0.72 -6.77,6.36 a 0.35,0.36 8.6 0 1 -0.39,0.29 l -0.02,-0.01 a 0.06,0.05 7 0 1 -0.05,-0.05 l -0.14,-7.22 a 0.74,0.75 89.3 0 1 0.75,-0.76 h 21.95 a 0.41,0.41 0 0 1 0.34,0.63 l -17.72,27.31 a 0.37,0.36 16.2 0 0 0.31,0.56 h 8.84 a 0.28,0.26 25.4 0 0 0.16,-0.05 c 0.95,-0.64 2.9,-0.38 4.19,-1.04 q 3.96,-2.03 5.37,-6.86 a 0.34,0.34 0 0 1 0.41,-0.24 l 0.24,0.06 a 0.06,0.05 18.9 0 1 0.04,0.06 l -0.99,8.61 a 0.55,0.56 3.5 0 1 -0.55,0.49 z"
     id="path25" />
  <path
     fill="#ffffff"
     d="m 834.35001,77.40436 a 0.15,0.14 24.1 0 1 -0.1,-0.25 q 0.83,-0.74 1.91,-1.18 a 2.2,2.44 69.4 0 0 1.46,-2.83 q -1.12,-3.31 -2.37,-6.21 a 1.73,1.72 78.4 0 0 -1.58,-1.04 l -6.59,-0.01 a 1.94,1.94 0 0 0 -1.71,1.01 q -1.14,2.14 -2.21,5.85 -0.66,2.27 2.96,4.33 a 0.18,0.18 0 0 1 -0.09,0.33 l -8.78,-0.01 a 0.32,0.32 0 0 1 -0.08,-0.63 q 1.49,-0.42 2.94,-1.62 0.92,-0.77 1.64,-2.55 5.33,-12.95 9.07,-23.53 0.22,-0.63 0.73,-1.18 a 0.62,0.62 0 0 1 1.03,0.2 q 4.79,12.44 10.02,24.75 0.52,1.2 1.49,2.6 a 1.32,1.34 77.6 0 0 0.88,0.55 q 1.44,0.24 2.28,0.89 a 0.31,0.31 0 0 1 -0.2,0.55 z m -8.08,-12.95 a 0.32,0.32 0 0 0 0.3,0.43 l 7.29,-0.05 a 0.32,0.32 0 0 0 0.29,-0.43 l -3.71,-9.55 a 0.32,0.32 0 0 0 -0.59,0.01 z"
     id="path26" />
  <path
     fill="#ffffff"
     d="m 438.64001,77.17436 2.03,-0.83 a 3.63,3.62 79.5 0 0 2.26,-3.3 q 0.15,-7.77 0.11,-15.66 c -0.02,-4.1 0.59,-8.06 -4.26,-8.67 a 0.44,0.43 3.8 0 1 -0.38,-0.43 v -0.27 a 0.18,0.17 0 0 1 0.18,-0.17 h 22.29 a 1.05,1.04 0 0 1 1.05,1.04 v 6.27 a 0.46,0.47 78.6 0 1 -0.29,0.43 l -0.28,0.11 a 0.29,0.29 0 0 1 -0.4,-0.28 q 0.18,-5.45 -4.83,-6.16 -3.78,-0.54 -7.16,-0.33 a 1.04,1.06 87.9 0 0 -0.98,1.04 v 11.04 a 1.02,1.02 0 0 0 1.17,1.01 l 3.14,-0.49 a 2.63,2.65 1.6 0 0 2.17,-2.06 q 0.32,-1.52 0.67,-2.19 a 0.34,0.34 0 0 1 0.64,0.16 l -0.16,9.88 a 0.36,0.37 79.5 0 1 -0.24,0.34 h -0.02 a 0.38,0.39 87.1 0 1 -0.26,-0.23 l -1.65,-3.85 a 1.07,1.07 0 0 0 -0.98,-0.64 h -3.33 a 1.08,1.09 2.3 0 0 -1.08,1 q -0.17,2.16 -0.18,6.97 -0.01,4.34 4.16,5.16 3.77,0.75 7.05,-0.38 c 3.25,-1.12 3.64,-4.01 4.57,-6.13 a 0.17,0.17 0 0 1 0.33,0.07 v 6.9 a 0.86,0.86 0 0 1 -0.86,0.86 h -24.44 a 0.11,0.11 0 0 1 -0.04,-0.21 z"
     id="path27" />
  <path
     fill="#ffffff"
     d="m 551.23001,77.34436 a 0.24,0.24 0 0 1 -0.22,-0.3 l 0.11,-0.45 a 0.07,0.08 14.1 0 1 0.08,-0.05 q 3.7,0.02 3.79,-3.5 0.22,-9.63 0.01,-21.49 a 2.38,2.38 0 0 0 -1.75,-2.25 l -2.38,-0.64 a 0.39,0.39 0 0 1 0.1,-0.77 q 8.85,-0.04 11.18,-0.11 c 8.04,-0.19 14.77,1.48 17.86,8.69 q 3.14,7.33 0,14.38 -2.88,6.42 -12.21,6.52 -6.64,0.08 -16.57,-0.03 z m 8.71,-26.95 q -0.04,14.7 0.26,21.29 0.23,5.03 5.21,4.94 c 10.93,-0.19 13.26,-12.83 9,-20.98 q -4.02,-7.68 -13.27,-6.6 a 1.37,1.36 86.9 0 0 -1.2,1.35 z"
     id="path28" />
  <path
     fill="#ffffff"
     d="m 584.18001,48.54436 a 0.31,0.31 0 0 1 0.14,-0.58 l 13.28,-0.07 a 0.24,0.25 89.7 0 1 0.25,0.24 v 0.28 a 0.26,0.26 0 0 1 -0.22,0.26 c -2.91,0.4 -3.72,1.48 -3.76,4.47 q -0.22,16.26 0.11,20.38 0.2,2.39 3.59,3.23 a 0.28,0.28 0 0 1 0.21,0.29 q -0.02,0.3 -0.17,0.3 -5.85,0.2 -12.64,0 a 0.27,0.28 37 0 1 -0.08,-0.54 l 2.15,-0.69 a 2.47,2.47 0 0 0 1.71,-2.26 q 0.33,-9.89 -0.02,-21.98 c -0.1,-3.33 -2.67,-2.41 -4.55,-3.33 z"
     id="path29" />
  <path
     fill="#ffffff"
     d="m 718.80001,48.74436 a 0.38,0.38 0 0 1 -0.33,-0.51 l 0.1,-0.25 a 0.2,0.2 0 0 1 0.19,-0.13 h 9.49 a 0.12,0.13 0 0 1 0.12,0.13 v 0.35 a 0.38,0.37 84.4 0 1 -0.3,0.37 q -3.33,0.61 -4.1,2.48 -6.94,16.86 -10.81,25.9 a 0.61,0.61 0 0 1 -1.13,-0.02 q -8.95,-23.04 -9.5,-24.53 -1.28,-3.48 -4.73,-3.84 a 0.43,0.43 0 0 1 -0.39,-0.46 v -0.02 a 0.37,0.36 2.5 0 1 0.37,-0.33 l 13.04,0.01 a 0.31,0.31 0 0 1 0.07,0.61 q -4.14,0.98 -2.68,5.37 2.89,8.72 6.11,16.45 a 0.34,0.34 0 0 0 0.63,0 q 3.73,-8.92 6.36,-16.2 c 0.83,-2.28 0.93,-5.2 -2.51,-5.38 z"
     id="path30" />
  <path
     fill="#ffffff"
     d="m 784.79001,77.09436 a 0.57,0.57 0 0 1 -0.99,0.2 l -19.43,-24.59 a 0.22,0.22 0 0 0 -0.4,0.14 v 19.5 a 4.26,4.25 10.7 0 0 2.71,3.96 l 1.81,0.7 a 0.2,0.2 0 0 1 -0.07,0.39 h -9.27 a 0.03,0.02 69.9 0 1 -0.02,-0.04 q 0.33,-0.35 2.73,-1.77 a 2.05,2.03 74.9 0 0 1,-1.76 v -21.84 a 3.06,3.07 10.6 0 0 -1.95,-2.86 l -1.56,-0.61 a 0.36,0.36 0 0 1 0.13,-0.7 h 5.7 a 2.6,2.6 0 0 1 2.04,0.99 l 16.35,20.69 a 0.17,0.17 0 0 0 0.31,-0.11 v -17.14 a 3.15,3.15 0 0 0 -2.33,-3.04 l -1.92,-0.52 a 0.39,0.39 0 0 1 0.1,-0.77 h 9.95 a 0.35,0.36 38.3 0 1 0.08,0.7 c -2.23,0.55 -4.71,0.47 -4.71,3.73 q 0.04,14.82 -0.18,23.53 -0.02,1.03 -0.08,1.22 z"
     id="path31" />
  <path
     fill="#ffffff"
     d="m 847.74001,77.31436 q 3.7,-0.38 4.99,-3.33 a 2.63,2.64 57 0 0 0.21,-0.98 q 0.08,-5.68 0.01,-20.07 -0.02,-4.18 -4.31,-4 a 0.49,0.49 0 0 1 -0.51,-0.49 v -0.31 a 0.26,0.26 0 0 1 0.25,-0.26 q 12.27,-0.21 15.57,0.02 3.8,0.26 7.29,1.96 c 4.98,2.43 7.61,9.11 7.78,14.26 q 0.05,1.33 -1,4.82 -1.75,5.83 -7.52,7.69 a 3.28,3.56 36.3 0 1 -0.77,0.15 c -3.33,0.22 -5.39,0.67 -8.63,0.66 q -6.71,-0.04 -13.36,-0.12 z m 12.21,-1.46 q 0.68,-0.04 1.89,0.73 a 2.25,2.28 56 0 0 1.7,0.32 c 10.98,-2.24 12.09,-14.03 7.56,-22.25 q -3.48,-6.32 -11.82,-5.79 a 1.4,1.4 0 0 0 -1.31,1.39 q -0.04,8.7 0.03,21.62 0.02,2.28 1.07,3.6 a 1.03,1.03 0 0 0 0.88,0.38 z"
     id="path32" />
  <path
     fill="#ffffff"
     d="m 667.97001,76.93436 q 0.02,-0.02 1.96,-1.39 1.87,-1.32 3,-4.26 4.71,-12.32 6.27,-15.96 c 0.73,-1.71 1.25,-5.28 2.54,-6.93 a 0.88,0.89 53.4 0 1 1.52,0.22 q 4.52,11.58 9.8,24.18 0.35,0.84 1.68,2.55 c 0.68,0.88 2.51,0.48 3.64,1.71 a 0.22,0.21 68.3 0 1 -0.15,0.36 h -13.77 a 0.11,0.11 0 0 1 -0.06,-0.2 q 1.37,-0.91 2.36,-1.21 a 1.81,1.8 78.4 0 0 1.28,-1.95 q -0.45,-3.84 -2.61,-7.5 a 1.42,1.41 74.8 0 0 -1.22,-0.7 h -7.05 a 1.14,1.14 0 0 0 -0.98,0.56 q -2.53,4.28 -2.21,8.39 a 1.13,1.13 0 0 0 0.65,0.94 q 1.44,0.67 2.01,1.56 a 0.1,0.1 0 0 1 -0.08,0.15 l -8.4,-0.09 a 0.25,0.26 21.9 0 1 -0.18,-0.43 z m 8.75,-12.5 a 0.3,0.3 0 0 0 0.28,0.41 l 7.54,-0.06 a 0.3,0.3 0 0 0 0.28,-0.41 l -3.84,-9.26 a 0.3,0.3 0 0 0 -0.55,0.01 z"
     id="path33" />
  <path
     fill="#e01f26"
     d="m 175.98001,48.89436 q 0.7,-0.02 1.35,0.28 a 0.32,0.33 44.8 0 1 0,0.59 q -0.35,0.16 -0.9,-0.02 c -0.36,-0.11 -0.48,-0.51 -0.45,-0.85 z"
     id="path34" />
  <path
     fill="#ffffff"
     d="m 571.04001,112.29436 a 0.36,0.36 0 0 1 0.7,-0.12 c 1.1,3.26 2.54,6.8 5.65,8.12 q 3.68,1.55 6.65,-1.31 a 2.38,2.53 76.3 0 0 0.59,-0.91 c 2.45,-6.61 -2.46,-9.2 -8.04,-12.12 -5.65,-2.95 -5.77,-9.1 -1.25,-13.06 q 3.85,-3.38 9.56,-0.72 c 0.79,0.37 1.4,0.42 2.13,0.14 a 0.7,0.69 79.3 0 1 0.94,0.64 l 0.03,6.33 a 0.35,0.35 0 0 1 -0.35,0.35 h -0.34 a 0.28,0.27 86.2 0 1 -0.27,-0.25 q -0.47,-4.92 -4.23,-6.86 c -6.01,-3.1 -10.01,5.68 -3.95,8.95 q 6.32,3.4 6.36,3.42 c 6.9,4.08 6.09,14.11 -1.7,16.53 q -4.02,1.25 -8.53,-0.9 c -1.4,-0.66 -1.85,-0.67 -3.25,0.03 a 0.46,0.47 76.5 0 1 -0.67,-0.41 z"
     id="path35" />
  <path
     fill="#ffffff"
     d="m 635.09001,100.32436 q -1.45,-1.16 -1.81,-2.11 -1.73,-4.65 -5.88,-5.9 c -14.04,-4.23 -17.64,26.48 -4.18,28.5 3.83,0.58 6.98,-1.66 7.75,-5.46 q 0.35,-1.71 -0.89,-3.33 a 0.93,0.88 80.3 0 0 -0.4,-0.3 l -3.53,-1.38 a 0.28,0.28 0 0 1 0.1,-0.54 h 13.21 a 0.39,0.4 29.3 0 1 0.2,0.73 q -0.79,0.49 -1.84,0.7 a 2.32,2.32 0 0 0 -1.86,2.09 q -0.1,1.23 0.04,4.39 a 0.94,0.94 0 0 1 -0.77,0.97 q -1.26,0.24 -2.72,0.97 c -8.98,4.55 -20.66,2.29 -22.63,-8.63 -1.28,-7.06 0.69,-14.55 7.35,-18.11 q 6.96,-3.72 14.02,-0.29 a 2.08,2.05 58 0 0 0.84,0.2 q 1.48,0.04 2.67,-0.58 a 0.48,0.48 0 0 1 0.7,0.42 v 7.48 a 0.23,0.23 0 0 1 -0.37,0.18 z"
     id="path36" />
  <path
     fill="#ffffff"
     d="m 855.91001,112.27436 a 0.36,0.36 0 0 1 0.7,-0.11 c 1.09,3.25 2.5,6.8 5.6,8.13 q 3.67,1.58 6.65,-1.27 a 2.38,2.53 76.6 0 0 0.59,-0.9 c 2.49,-6.59 -2.4,-9.21 -7.96,-12.15 -5.63,-2.98 -5.72,-9.12 -1.18,-13.05 q 3.87,-3.35 9.56,-0.66 c 0.78,0.37 1.39,0.42 2.12,0.14 a 0.7,0.69 79.6 0 1 0.94,0.65 l -0.01,6.31 a 0.35,0.35 0 0 1 -0.35,0.35 h -0.34 a 0.28,0.27 86.5 0 1 -0.27,-0.25 q -0.45,-4.91 -4.19,-6.87 c -5.98,-3.13 -10.03,5.62 -3.99,8.91 q 6.3,3.43 6.34,3.45 c 6.87,4.12 6,14.13 -1.8,16.51 q -4.01,1.23 -8.51,-0.95 c -1.39,-0.66 -1.84,-0.68 -3.24,0.01 a 0.46,0.47 76.8 0 1 -0.67,-0.41 z"
     id="path37" />
  <path
     fill="#ffffff"
     d="m 439.46001,120.36436 c 3.12,-0.82 3.47,-2.15 3.52,-5.54 q 0.17,-13.64 -0.08,-18.68 a 3.32,3.31 6.2 0 0 -2.45,-3.03 l -1.79,-0.48 a 0.42,0.42 0 0 1 0.11,-0.83 h 22.21 a 0.83,0.82 87.3 0 1 0.82,0.75 q 0.38,3.81 -0.01,5.58 a 0.37,0.37 0 0 1 -0.73,0 q -0.75,-3.63 -3.5,-4.9 a 1.05,0.94 54.4 0 0 -0.41,-0.09 l -8.03,-0.31 a 1.08,1.08 0 0 0 -1.12,1.08 v 10.17 a 0.96,0.96 0 0 0 1.04,0.96 l 3.44,-0.32 a 1.3,1.28 17.6 0 0 0.9,-0.46 q 1.26,-1.48 1.65,-3.82 a 0.34,0.34 0 0 1 0.34,-0.29 h 0.36 a 0.08,0.09 0 0 1 0.08,0.09 l -0.22,11.18 a 0.17,0.17 0 0 1 -0.33,0.06 l -1.69,-4.13 a 1.28,1.32 87 0 0 -0.87,-0.76 l -3.64,-0.97 a 0.64,0.63 11.6 0 0 -0.8,0.52 q -0.82,5.85 0,11.01 a 1.78,1.73 20.3 0 0 0.43,0.9 q 1.21,1.32 2.89,1.55 c 3.95,0.55 9.28,0.94 10.79,-3.1 q 0.71,-1.86 1.24,-3.26 a 0.21,0.21 0 0 1 0.4,0.08 v 6.54 a 0.72,0.73 84.1 0 1 -0.58,0.71 q -2.52,0.51 -5.75,0.46 -8.48,-0.12 -18.15,-0.13 a 0.27225907,0.27225907 0 0 1 -0.07,-0.54 z"
     id="path38" />
  <path
     fill="#ffffff"
     d="m 474.56001,120.80436 h -8.18 a 0.13,0.13 0 0 1 -0.12,-0.18 l 0.14,-0.35 a 0.22,0.22 0 0 1 0.21,-0.15 q 3.26,-0.07 3.27,-3.25 0,-1.97 0.07,-17.32 c 0.02,-3.63 0.61,-6.16 -3.33,-6.79 a 0.43,0.43 0 0 1 0.01,-0.85 q 3.91,-0.56 6.7,0.31 a 2.59,2.67 78.6 0 1 1.18,0.76 q 8.94,9.96 15.56,19.42 a 0.43,0.43 0 0 0 0.79,-0.25 v -17.43 a 1.24,1.24 0 0 0 -0.78,-1.15 l -2.71,-1.05 a 0.37,0.37 0 0 1 0.13,-0.72 h 9 a 0.19,0.2 0 0 1 0.19,0.2 v 0.42 a 0.36,0.37 0.8 0 1 -0.37,0.37 q -4.2,-0.03 -4.23,4.2 -0.02,4.22 -0.12,22.88 0,0.59 -0.02,0.62 a 0.69,0.69 0 0 1 -1.14,0.1 l -19.23,-24.03 a 0.29,0.28 26.2 0 0 -0.51,0.17 q -0.05,6.83 0.04,19.82 0.02,2.86 3.5,3.84 a 0.21,0.21 0 0 1 -0.05,0.41 z"
     id="path39" />
  <path
     fill="#ffffff"
     d="m 510.17001,120.88436 a 0.24,0.24 0 0 1 -0.22,-0.3 l 0.11,-0.44 a 0.07,0.07 0 0 1 0.08,-0.05 q 3.64,0.02 3.73,-3.45 0.22,-9.48 0.01,-21.17 a 2.34,2.34 0 0 0 -1.73,-2.22 l -2.34,-0.63 a 0.38,0.38 0 0 1 0.1,-0.75 q 8.72,-0.05 11.01,-0.11 c 7.92,-0.19 14.55,1.45 17.6,8.55 q 3.1,7.22 0,14.17 -2.83,6.33 -12.03,6.43 -6.54,0.08 -16.32,-0.03 z m 8.82,-25.1 -0.04,21.68 a 2.86,2.86 0 0 0 2.86,2.86 h 1.91 a 11.01,12.92 0.1 0 0 11.03,-12.9 v -1.56 a 11.01,12.92 0.1 0 0 -10.99,-12.94 h -1.91 a 2.86,2.86 0 0 0 -2.86,2.86 z"
     id="path40" />
  <path
     fill="#ffffff"
     d="m 559.78001,111.06436 -0.4,0.77 a 0.5,0.5 0 0 1 -0.5,-0.53 c 0.22,-3.9 -1.96,-5.9 -5.75,-5.39 a 0.77,0.77 0 0 0 -0.66,0.74 q -0.08,4.26 0.1,8.13 0.21,4.45 4.2,4.99 4.01,0.54 7.51,-0.61 a 3.4,3.39 1.5 0 0 2.12,-2.01 l 1.52,-3.89 a 0.32,0.32 0 0 1 0.62,0.12 v 6.87 a 0.67,0.66 0 0 1 -0.67,0.66 h -24.24 a 0.23,0.23 0 0 1 -0.23,-0.23 v -0.3 a 0.11,0.11 0 0 1 0.11,-0.11 c 4.9,-0.35 4.34,-5.05 4.5,-8.7 q 0.43,-9.66 -0.42,-15.6 a 3.6,3.6 0 0 0 -2.63,-2.98 l -1.63,-0.44 a 0.38,0.38 0 0 1 0.1,-0.74 h 21.19 a 1.29,1.29 0 0 1 1.29,1.29 v 5.04 a 0.38052595,0.38052595 0 0 1 -0.76,0.04 q -0.39,-3.86 -3.97,-4.97 a 3.83,3.76 54.3 0 0 -0.98,-0.17 l -7.2,-0.24 a 0.5,0.5 0 0 0 -0.52,0.5 v 10.84 a 0.72,0.71 2.6 0 0 0.65,0.71 c 4.76,0.4 4.66,-0.23 5.98,-4.44 a 0.48,0.48 0 0 1 0.93,0.15 l -0.12,9.94 a 1.4,1.3 61.2 0 1 -0.14,0.56 z"
     id="path41" />
  <path
     fill="#ffffff"
     d="m 731.28001,120.91436 a 0.24,0.24 0 0 1 -0.22,-0.3 l 0.11,-0.44 a 0.07,0.07 0 0 1 0.09,-0.06 q 3.65,0.03 3.74,-3.46 0.22,-9.51 0.02,-21.24 a 2.35,2.35 0 0 0 -1.74,-2.22 l -2.35,-0.64 a 0.38,0.38 0 0 1 0.1,-0.75 q 8.75,-0.05 11.05,-0.11 c 7.95,-0.18 14.6,1.46 17.66,8.59 q 3.1,7.24 -0.01,14.22 -2.84,6.35 -12.07,6.44 -6.56,0.08 -16.38,-0.03 z m 8.73,-25.26 v 21.94 a 2.76,2.76 0 0 0 2.76,2.76 h 1.83 a 11.15,12.91 0 0 0 11.15,-12.91 v -1.64 a 11.15,12.91 0 0 0 -11.15,-12.91 h -1.83 a 2.76,2.76 0 0 0 -2.76,2.76 z"
     id="path42" />
  <path
     fill="#ffffff"
     d="m 771.60001,120.34436 a 0.24,0.24 0 0 1 -0.07,0.46 h -7.9 a 0.33,0.33 0 0 1 -0.13,-0.64 l 2.32,-0.95 a 1.59,1.6 89.5 0 0 0.91,-0.92 l 10.14,-25.97 a 0.86,0.87 34.6 0 1 1.45,-0.27 q 0.09,0.1 0.48,1.01 3.12,7.32 8.2,19.96 c 0.77,1.91 2,4 3.2,5.74 a 1.69,1.69 0 0 0 0.61,0.53 c 3.66,1.86 7.79,1.61 8.04,-3.58 q 0.3,-6.43 0.1,-18.09 -0.08,-4.55 -4.19,-4.97 a 0.42,0.43 3.6 0 1 -0.38,-0.44 v -0.01 a 0.36,0.36 0 0 1 0.35,-0.35 q 8.49,-0.21 15.87,-0.05 4.23,0.1 9.15,3.55 c 5.07,3.55 6.06,10.57 4.89,16.27 q -1.24,6.01 -6.58,8.25 -3.01,1.27 -10.9,1.11 -8.8,-0.17 -26.47,-0.06 a 0.31,0.31 0 0 1 -0.31,-0.31 v -0.28 a 0.2,0.21 86.8 0 1 0.19,-0.2 q 1.91,-0.13 2.66,-1.37 a 1.6,1.56 52.2 0 0 0.15,-1.3 l -2.52,-7.97 a 0.86,0.86 0 0 0 -0.82,-0.6 h -7.64 a 1.04,1.01 9.6 0 0 -0.97,0.67 c -1.42,3.85 -4.62,9.27 0.17,10.78 z m 31.89,-26.15 q -0.08,14.59 0.2,21.13 0.22,5 5.16,4.92 c 10.85,-0.16 13.19,-12.7 8.98,-20.8 q -3.96,-7.63 -13.15,-6.58 a 1.36,1.35 87.1 0 0 -1.19,1.33 z m -31.37,13.21 a 0.37,0.37 0 0 0 0.35,0.5 l 7.07,-0.11 a 0.37,0.37 0 0 0 0.33,-0.52 l -3.67,-8.75 a 0.37,0.37 0 0 0 -0.69,0.01 z"
     id="path43" />
  <path
     fill="#ffffff"
     d="m 844.54001,111.37436 a 0.15,0.14 34.6 0 1 -0.28,0.05 l -1.58,-3.84 a 1.69,1.71 3.6 0 0 -0.72,-0.83 q -1.92,-1.07 -4.23,-0.86 a 0.71,0.71 0 0 0 -0.65,0.65 q -0.24,2.79 -0.03,8.05 c 0.27,7.15 9.65,5.99 13.6,3.66 a 1.72,1.72 0 0 0 0.7,-0.76 l 1.99,-4.17 a 0.31,0.32 57.4 0 1 0.6,0.13 v 6.27 a 0.94,0.94 0 0 1 -0.86,0.94 c -7.75,0.7 -15.74,0.25 -24.44,0.14 a 0.3,0.3 0 0 1 -0.3,-0.3 v -0.03 a 0.38,0.38 0 0 1 0.38,-0.37 q 1.85,0 2.95,-1.3 a 2.35,2.35 0 0 0 0.56,-1.55 l -0.04,-21.11 a 4.66,4.78 31.4 0 0 -0.47,-2.06 q -0.62,-1.27 -3.02,-1.2 a 0.44,0.45 89.4 0 1 -0.46,-0.44 v -0.32 a 0.29,0.3 0 0 1 0.29,-0.3 h 21.24 a 1.49,1.49 0 0 1 1.49,1.49 v 4.97 a 0.0509902,0.0509902 0 0 1 -0.1,0.02 c -2.96,-6.33 -7.38,-5.41 -13.07,-5.32 a 1.15,1.15 0 0 0 -1.13,1.15 v 9.66 a 0.88,0.87 8.6 0 0 0.62,0.83 q 5.61,1.7 6.52,-4.26 a 0.38,0.39 13.4 0 1 0.5,-0.31 l 0.04,0.05 a 0.51,0.5 27.5 0 1 0.11,0.34 z"
     id="path44" />
  <path
     fill="#ffffff"
     d="m 606.47001,92.47436 c -1.85,0.91 -4.37,0.01 -4.46,3.29 q -0.33,11.89 0.02,21.62 a 2.43,2.43 0 0 0 1.68,2.23 l 2.12,0.67 a 0.27,0.27 0 0 1 -0.07,0.53 q -6.69,0.21 -12.44,0.02 -0.15,0 -0.17,-0.29 a 0.28,0.27 80.1 0 1 0.2,-0.29 q 3.34,-0.82 3.53,-3.18 0.32,-4.06 0.07,-20.05 c -0.05,-2.95 -0.85,-4.01 -3.71,-4.4 a 0.25,0.25 0 0 1 -0.22,-0.25 v -0.28 a 0.25,0.24 0.2 0 1 0.25,-0.24 l 13.07,0.04 a 0.31,0.31 0 0 1 0.13,0.58 z"
     id="path45" />
  <path
     fill="#ffffff"
     d="m 641.20001,92.56436 a 0.35,0.35 0 0 1 0.09,-0.68 h 12.43 a 0.34,0.34 0 0 1 0.17,0.63 c -1.95,1.07 -3.73,0.43 -3.79,3.7 q -0.17,8.66 -0.09,17.17 0.06,7.42 7.45,7.49 c 4.85,0.04 9.71,-2.38 9.47,-7.98 q -0.18,-4.04 -0.05,-15.65 0.05,-4.53 -4.21,-4.47 a 0.25,0.25 0 0 1 -0.25,-0.32 l 0.08,-0.28 a 0.34,0.34 0 0 1 0.33,-0.26 h 8.86 a 0.32,0.32 0 0 1 0.1,0.63 l -2.43,0.77 a 1.76,1.76 0 0 0 -1.23,1.61 q -0.22,5.58 -0.07,17.46 0.08,6.61 -5.98,8.56 c -6.63,2.12 -16.77,1.21 -16.98,-7.88 q -0.2,-8.7 0.01,-15.17 0.04,-1.34 -0.29,-3.23 a 1.93,1.92 2.5 0 0 -1.38,-1.5 z"
     id="path46" />
  <path
     fill="#ffffff"
     d="m 672.99001,120.36436 q 3.34,-1.14 4.46,-4.23 4.45,-12.33 9.14,-23.81 a 0.61,0.61 0 0 1 0.96,-0.23 q 0.98,0.88 1.58,2.4 4.51,11.45 9.27,21.73 0.42,0.89 1.54,2.76 a 1.82,1.78 82.5 0 0 1.02,0.8 c 3.16,0.96 7.18,0.87 7.35,-3.14 q 0.23,-5.16 0.19,-19.56 -0.01,-4.26 -3.91,-4.35 a 0.4,0.4 0 0 1 -0.39,-0.4 v -0.28 a 0.2,0.21 0 0 1 0.2,-0.21 h 12.96 a 0.25,0.25 0 0 1 0.25,0.25 v 0.29 a 0.38,0.38 0 0 1 -0.4,0.38 q -3.85,-0.15 -4.07,4.47 -0.55,11.08 0.3,18.63 c 0.56,5.02 7.24,4.35 10.87,3.54 a 3.61,3.46 22.6 0 0 1.03,-0.4 q 3.3,-1.89 3.9,-6.44 a 0.26,0.26 0 0 1 0.26,-0.23 h 0.34 a 0.12,0.12 0 0 1 0.12,0.12 v 7.46 a 0.61,0.6 85.6 0 1 -0.51,0.6 q -3.24,0.51 -4.23,0.5 -18.78,-0.16 -35.7,-0.14 a 0.26,0.26 0 0 1 -0.08,-0.5 l 2.66,-0.84 a 0.93,0.93 0 0 0 0.63,-0.68 c 0.64,-2.69 -1.09,-6.27 -2.37,-8.89 a 2,2.01 76.9 0 0 -1.8,-1.12 h -6.43 a 0.84,0.85 12.9 0 0 -0.76,0.48 c -1.32,2.83 -2.66,6.09 -2.58,8.73 q 0.05,1.71 2.67,2.14 a 0.32097508,0.32097508 0 0 1 -0.05,0.64 h -8.34 a 0.24,0.24 0 0 1 -0.08,-0.47 z m 8.83,-12.93 a 0.31,0.31 0 0 0 0.29,0.42 l 7.14,-0.04 a 0.31,0.31 0 0 0 0.29,-0.42 l -3.62,-9.11 a 0.31,0.31 0 0 0 -0.58,0 z"
     id="path47" />
</svg>
