<?xml version="1.0" encoding="UTF-8" standalone="no"?>
<svg
   version="1.1"
   viewBox="0 0 259.07077 192.49289"
   id="svg274"
   sodipodi:docname="desc-bulletpoint-3.svg"
   width="259.07077"
   height="192.49289"
   inkscape:version="1.4.2 (f4327f4, 2025-05-13)"
   xmlns:inkscape="http://www.inkscape.org/namespaces/inkscape"
   xmlns:sodipodi="http://sodipodi.sourceforge.net/DTD/sodipodi-0.dtd"
   xmlns="http://www.w3.org/2000/svg"
   xmlns:svg="http://www.w3.org/2000/svg">
  <defs
     id="defs274" />
  <sodipodi:namedview
     id="namedview274"
     pagecolor="#ffffff"
     bordercolor="#000000"
     borderopacity="0.25"
     inkscape:showpageshadow="2"
     inkscape:pageopacity="0.0"
     inkscape:pagecheckerboard="0"
     inkscape:deskcolor="#d1d1d1"
     inkscape:zoom="2.234104"
     inkscape:cx="128.68693"
     inkscape:cy="87.507115"
     inkscape:window-width="1920"
     inkscape:window-height="991"
     inkscape:window-x="2551"
     inkscape:window-y="-4"
     inkscape:window-maximized="1"
     inkscape:current-layer="svg274" />
  <g
     stroke-width="2"
     fill="none"
     stroke-linecap="butt"
     id="g138"
     transform="translate(-8.3975567,-85.343243)">
    <path
       stroke="#e4e4e5"
       stroke-opacity="0.847"
       vector-effect="non-scaling-stroke"
       d="m 151,104.25 q 0.01,0.9 0.49,0.51"
       id="path1" />
    <path
       stroke="#e4e4e5"
       stroke-opacity="0.847"
       vector-effect="non-scaling-stroke"
       d="m 158.99,113.55 q 1.87,5.07 4.89,9.16 a 2.37,2.33 -0.5 0 0 0.61,0.59 l 1.07,0.73"
       id="path2" />
    <path
       stroke="#e4e4e5"
       stroke-opacity="0.847"
       vector-effect="non-scaling-stroke"
       d="m 165.8,124.54 q 0.09,0.37 0.49,0.5"
       id="path3" />
    <path
       stroke="#e4e4e5"
       stroke-opacity="0.847"
       vector-effect="non-scaling-stroke"
       d="m 167.39,128.47 q -0.24,0.79 0.1,1.28"
       id="path4" />
    <path
       stroke="#e4e4e5"
       stroke-opacity="0.847"
       vector-effect="non-scaling-stroke"
       d="m 167.49,129.75 q 0.21,1.24 0.96,0.96"
       id="path5" />
    <path
       stroke="#e4e4e5"
       stroke-opacity="0.847"
       vector-effect="non-scaling-stroke"
       d="m 168.54,131.5 q -0.13,-0.2 -0.33,-0.24 a 0.29,0.29 0 0 0 -0.31,0.39 q 0.33,0.84 1.24,1.18 a 0.98,0.96 -89.5 0 1 0.57,0.59 l 0.97,2.77"
       id="path6" />
    <path
       stroke="#e4e4e5"
       stroke-opacity="0.847"
       vector-effect="non-scaling-stroke"
       d="m 170.57,137.76 q 0.25,2.39 1.65,4.39 a 1.03,1.01 72.5 0 0 0.81,0.43 l 2.41,0.04 a 0.02,0.02 0 0 0 0.02,-0.03 q 0,-0.01 -0.01,-0.03 a 0.08,0.07 -4.1 0 0 -0.08,-0.06 l -1.33,0.01 a 0.09,0.03 -2.2 0 1 -0.08,-0.02 q -0.01,-0.01 -0.04,-0.01 a 0.06055837,0.05046531 -42.1 0 1 0.01,-0.11 q 0.95,-0.01 1.61,0 a 1.2,1.2 0 0 1 0.72,0.24 l 5.93,4.46 a 0.9,0.88 -30.3 0 0 0.68,0.17 l 0.43,-0.06"
       id="path7" />
    <path
       stroke="#e4e4e5"
       stroke-opacity="0.847"
       vector-effect="non-scaling-stroke"
       d="m 183.3,147.18 q -0.24,1.5 1.44,2.71 a 2.57,2.52 1.8 0 1 0.65,0.68 q 2.03,3.06 5.13,5.23"
       id="path8" />
    <path
       stroke="#e4e4e5"
       stroke-opacity="0.847"
       vector-effect="non-scaling-stroke"
       d="m 190.52,155.8 q 0.06,0.64 0.7,1.11"
       id="path9" />
    <path
       stroke="#e4e4e5"
       stroke-opacity="0.847"
       vector-effect="non-scaling-stroke"
       d="m 191.54,157.28 q 0.1,0.58 0.5,0.71"
       id="path10" />
    <path
       stroke="#808080"
       stroke-opacity="0.996"
       vector-effect="non-scaling-stroke"
       d="m 220.54,195.04 0.42,0.42"
       id="path11" />
    <path
       stroke="#808080"
       stroke-opacity="0.996"
       vector-effect="non-scaling-stroke"
       d="m 221.79,196.03 q 0.04,0.57 0.99,0.88"
       id="path12" />
    <path
       stroke="#808080"
       stroke-opacity="0.996"
       vector-effect="non-scaling-stroke"
       d="m 222.78,196.91 q 0.86,1.31 1.96,2.08"
       id="path13" />
    <path
       stroke="#808080"
       stroke-opacity="0.996"
       vector-effect="non-scaling-stroke"
       d="m 224.74,198.99 0.48,0.89"
       id="path14" />
    <path
       stroke="#808080"
       stroke-opacity="0.996"
       vector-effect="non-scaling-stroke"
       d="m 225.79,200.47 q 0.08,0.4 0.45,0.5"
       id="path15" />
    <path
       stroke="#e4e4e5"
       stroke-opacity="0.847"
       vector-effect="non-scaling-stroke"
       d="m 235.12,212.99 4.03,3.92 a 2.82,2.79 -80 0 1 0.61,0.88 q 1.67,3.79 4.76,6.67 a 0.04,0.04 0 0 0 0.07,-0.03 V 224 a 0.1,0.1 0 0 1 0.18,-0.07 q 0.11,0.11 0.39,0.44 0.25,0.31 -0.04,0.91 a 0.12,0.11 25.4 0 0 0.06,0.15 q 0.26,0.12 0.2,-0.16 -0.11,-0.61 0.27,0.15 1.3,2.58 3.95,4.1"
       id="path16" />
    <path
       stroke="#e4e4e5"
       stroke-opacity="0.847"
       vector-effect="non-scaling-stroke"
       d="m 252.56,233.93 q 0.12,0.35 0.49,0.65"
       id="path17" />
    <path
       stroke="#e4e4e5"
       stroke-opacity="0.847"
       vector-effect="non-scaling-stroke"
       d="m 257.38,241.75 q 0.21,0.72 0.65,0.95"
       id="path18" />
    <path
       stroke="#e4e4e5"
       stroke-opacity="0.847"
       vector-effect="non-scaling-stroke"
       d="m 258.03,242.7 q 0.09,0.34 0.37,0.62"
       id="path19" />
    <path
       stroke="#e4e4e5"
       stroke-opacity="0.847"
       vector-effect="non-scaling-stroke"
       d="m 265.51,258.78 q -0.03,0.56 0.24,0.97"
       id="path20" />
    <path
       stroke="#808080"
       stroke-opacity="0.996"
       vector-effect="non-scaling-stroke"
       d="m 265.84,259.94 q 0.13,1.66 -0.36,3.31"
       id="path21" />
    <path
       stroke="#808080"
       stroke-opacity="0.996"
       vector-effect="non-scaling-stroke"
       d="m 265.48,263.25 q -0.39,0.14 -0.43,0.51"
       id="path22" />
    <path
       stroke="#808080"
       stroke-opacity="0.996"
       vector-effect="non-scaling-stroke"
       d="m 262.12,265.5 -0.58,0.2"
       id="path23" />
    <path
       stroke="#808080"
       stroke-opacity="0.996"
       vector-effect="non-scaling-stroke"
       d="m 259.54,266.37 q -1.67,0.3 -3.54,-0.14"
       id="path24" />
    <path
       stroke="#808080"
       stroke-opacity="0.996"
       vector-effect="non-scaling-stroke"
       d="m 256,266.23 -1.45,-0.77"
       id="path25" />
    <path
       stroke="#e4e4e5"
       stroke-opacity="0.847"
       vector-effect="non-scaling-stroke"
       d="m 246.02,249.79 q 0.03,-0.84 -0.56,-1.23"
       id="path26" />
    <path
       stroke="#e4e4e5"
       stroke-opacity="0.847"
       vector-effect="non-scaling-stroke"
       d="m 244.71,247.46 q 0.01,-0.44 -0.38,-0.49"
       id="path27" />
    <path
       stroke="#808080"
       stroke-opacity="0.996"
       vector-effect="non-scaling-stroke"
       d="m 240.77,240.3 q -0.11,-0.42 -0.48,-0.6"
       id="path28" />
    <path
       stroke="#808080"
       stroke-opacity="0.996"
       vector-effect="non-scaling-stroke"
       d="m 238.76,237.52 q -0.36,-0.71 -0.7,-0.45"
       id="path29" />
    <path
       stroke="#e4e4e5"
       stroke-opacity="0.847"
       vector-effect="non-scaling-stroke"
       d="m 229.14,224.04 q -0.72,-1.48 -1.92,-2.47 -0.61,-0.5 -1.02,-1.47 -1.11,-2.61 -4.1,-4.21 -0.69,-0.37 -0.79,-0.79 a 0.56,0.49 26.4 0 1 1,-0.26 q 0.5,0.79 1.04,1.05 a 0.16,0.16 0 0 0 0.2,-0.24 q -0.74,-0.94 -1.51,-1.21 -1.87,-0.68 -2.81,-1.26"
       id="path30" />
    <path
       stroke="#e4e4e5"
       stroke-opacity="0.847"
       vector-effect="non-scaling-stroke"
       d="m 184.54,169.3 q -0.14,-1.04 -2.81,-0.53"
       id="path31" />
    <path
       stroke="#e4e4e5"
       stroke-opacity="0.847"
       vector-effect="non-scaling-stroke"
       d="m 167.59,146.83 q -0.29,-1.35 -1.35,-1.84"
       id="path32" />
    <path
       stroke="#e4e4e5"
       stroke-opacity="0.847"
       vector-effect="non-scaling-stroke"
       d="m 166.24,144.99 q -0.3,-0.78 -0.94,-1"
       id="path33" />
    <path
       stroke="#e4e4e5"
       stroke-opacity="0.847"
       vector-effect="non-scaling-stroke"
       d="m 161.23,138.89 q -0.07,-2.36 -1.72,-3.91 a 1.94,1.88 14.8 0 1 -0.53,-0.88 l -0.39,-1.47 a 1,0.99 -7.6 0 0 -0.96,-0.73 h -6.14 a 2.05,2.04 -88.2 0 0 -2.04,1.92 q -0.16,2.49 0.84,4.9"
       id="path34" />
    <path
       stroke="#e4e4e5"
       stroke-opacity="0.847"
       vector-effect="non-scaling-stroke"
       d="m 150.46,139.76 q -0.62,0.77 0.17,2.03"
       id="path35" />
    <path
       stroke="#e4e4e5"
       stroke-opacity="0.847"
       vector-effect="non-scaling-stroke"
       d="m 150.84,143.01 c -0.49,2.82 0.63,4.5 -1.25,7.52 a 2.31,2.24 -25.7 0 0 -0.29,0.79 q -0.48,2.69 0.64,5.04"
       id="path36" />
    <path
       stroke="#e4e4e5"
       stroke-opacity="0.847"
       vector-effect="non-scaling-stroke"
       d="m 150.22,158.2 q -0.27,0.84 0.31,1.11"
       id="path37" />
    <path
       stroke="#808080"
       stroke-opacity="0.996"
       vector-effect="non-scaling-stroke"
       d="m 150.53,159.31 q -0.07,0.88 0.15,1.74"
       id="path38" />
    <path
       stroke="#808080"
       stroke-opacity="0.996"
       vector-effect="non-scaling-stroke"
       d="m 150.78,186.44 q -0.31,-0.04 -0.09,0.83"
       id="path39" />
    <path
       stroke="#e4e4e5"
       stroke-opacity="0.847"
       vector-effect="non-scaling-stroke"
       d="m 149.63,234.94 q -0.6,1.13 0.08,1.88"
       id="path40" />
    <path
       stroke="#808080"
       stroke-opacity="0.996"
       vector-effect="non-scaling-stroke"
       d="m 149.69,237.29 q -0.1,0.32 -0.02,0.67"
       id="path41" />
    <path
       stroke="#808080"
       stroke-opacity="0.996"
       vector-effect="non-scaling-stroke"
       d="m 149.62,246.04 -0.03,1.18"
       id="path42" />
    <path
       stroke="#808080"
       stroke-opacity="0.996"
       vector-effect="non-scaling-stroke"
       d="m 149.9,254.45 q -0.12,0.81 0.08,1.52"
       id="path43" />
    <path
       stroke="#e4e4e5"
       stroke-opacity="0.847"
       vector-effect="non-scaling-stroke"
       d="m 143.86,261.38 -0.61,-0.33"
       id="path44" />
    <path
       stroke="#808080"
       stroke-opacity="0.996"
       vector-effect="non-scaling-stroke"
       d="m 141.98,260.36 q -0.48,-0.51 -1.44,-0.64"
       id="path45" />
    <path
       stroke="#808080"
       stroke-opacity="0.996"
       vector-effect="non-scaling-stroke"
       d="m 139.76,259.22 q -0.18,-0.57 -0.8,-0.76"
       id="path46" />
    <path
       stroke="#808080"
       stroke-opacity="0.996"
       vector-effect="non-scaling-stroke"
       d="m 138.82,258.2 -1.08,-3.97 a 0.4,0.34 40.3 0 1 -0.02,-0.12 l -0.47,-7.75 a 2.54,2.49 -44.4 0 1 0.01,-0.5 l 0.17,-1.42 a 0.7,0.68 43.9 0 0 -0.01,-0.26 l -1.15,-6.14"
       id="path47" />
    <path
       stroke="#808080"
       stroke-opacity="0.996"
       vector-effect="non-scaling-stroke"
       d="m 136.13,236.79 -0.03,-1.76"
       id="path48" />
    <path
       stroke="#808080"
       stroke-opacity="0.996"
       vector-effect="non-scaling-stroke"
       d="m 136.1,233.71 0.03,-0.92"
       id="path49" />
    <path
       stroke="#808080"
       stroke-opacity="0.996"
       vector-effect="non-scaling-stroke"
       d="m 136.3,228.71 0.04,-3.66"
       id="path50" />
    <path
       stroke="#808080"
       stroke-opacity="0.996"
       vector-effect="non-scaling-stroke"
       d="m 135.56,216.23 -0.51,-1.53"
       id="path51" />
    <path
       stroke="#808080"
       stroke-opacity="0.996"
       vector-effect="non-scaling-stroke"
       d="m 135.06,212.27 0.07,-1.81"
       id="path52" />
    <path
       stroke="#808080"
       stroke-opacity="0.996"
       vector-effect="non-scaling-stroke"
       d="m 135.28,208.21 0.1,-2.42"
       id="path53" />
    <path
       stroke="#808080"
       stroke-opacity="0.996"
       vector-effect="non-scaling-stroke"
       d="m 135.58,203.23 0.06,-2.19"
       id="path54" />
    <path
       stroke="#e4e4e5"
       stroke-opacity="0.847"
       vector-effect="non-scaling-stroke"
       d="m 136.99,127.3 q 0.03,-1.33 0.07,-2.61 0.01,-0.31 -0.02,-0.35 -0.24,-0.27 -0.51,-0.22 a 0.4,0.39 -3.1 0 0 -0.31,0.34 q -0.06,0.67 -0.5,0.8"
       id="path55" />
    <path
       stroke="#808080"
       stroke-opacity="0.996"
       vector-effect="non-scaling-stroke"
       d="m 135.4,125.54 q -0.17,-0.13 -0.34,-0.13 -0.13,0 -0.29,0.19 -0.19,0.26 -0.47,0.26"
       id="path56" />
    <path
       stroke="#808080"
       stroke-opacity="0.996"
       vector-effect="non-scaling-stroke"
       d="m 99.6,209.44 q 0.17,0.26 -0.01,0.78"
       id="path57" />
    <path
       stroke="#808080"
       stroke-opacity="0.996"
       vector-effect="non-scaling-stroke"
       d="m 99.22,211.29 -0.6,1.91"
       id="path58" />
    <path
       stroke="#808080"
       stroke-opacity="0.996"
       vector-effect="non-scaling-stroke"
       d="m 94.83,220.55 q -0.25,0.22 -0.3,0.66"
       id="path59" />
    <path
       stroke="#808080"
       stroke-opacity="0.996"
       vector-effect="non-scaling-stroke"
       d="m 93.78,222.54 q -0.19,0.29 -0.25,0.67"
       id="path60" />
    <path
       stroke="#808080"
       stroke-opacity="0.996"
       vector-effect="non-scaling-stroke"
       d="m 91.64,226.53 -0.1,0.68"
       id="path61" />
    <path
       stroke="#e4e4e5"
       stroke-opacity="0.847"
       vector-effect="non-scaling-stroke"
       d="m 73.15,261.04 q -0.67,0.07 -0.59,1.18"
       id="path62" />
    <path
       stroke="#e4e4e5"
       stroke-opacity="0.847"
       vector-effect="non-scaling-stroke"
       d="m 72.45,262.54 q -0.72,0.31 -0.89,0.93"
       id="path63" />
    <path
       stroke="#808080"
       stroke-opacity="0.996"
       vector-effect="non-scaling-stroke"
       d="m 72.33,231.77 2.01,-1.98"
       id="path64" />
    <path
       stroke="#808080"
       stroke-opacity="0.996"
       vector-effect="non-scaling-stroke"
       d="m 77.97,225.96 q 0.33,-0.25 0.56,-0.65"
       id="path65" />
    <path
       stroke="#808080"
       stroke-opacity="0.996"
       vector-effect="non-scaling-stroke"
       d="m 112.15,150.83 q 0.1,-0.44 0.47,-0.79"
       id="path66" />
    <path
       stroke="#e4e4e5"
       stroke-opacity="0.847"
       vector-effect="non-scaling-stroke"
       d="m 112.62,150.04 q 0.58,-1.3 0.43,-2.58"
       id="path67" />
    <path
       stroke="#e4e4e5"
       stroke-opacity="0.847"
       vector-effect="non-scaling-stroke"
       d="m 118.55,129.53 q 0.47,-0.69 0.4,-1.74"
       id="path68" />
    <path
       stroke="#e4e4e5"
       stroke-opacity="0.847"
       vector-effect="non-scaling-stroke"
       d="m 119.07,126.74 q 0.52,-1.74 0.18,-3.55 a 0.24083189,0.24083189 0 0 0 -0.48,0.04 q 0,1.59 -1.53,2.98"
       id="path69" />
    <path
       stroke="#e4e4e5"
       stroke-opacity="0.847"
       vector-effect="non-scaling-stroke"
       d="m 117.24,126.21 q -0.48,0.32 -0.72,0.98"
       id="path70" />
    <path
       stroke="#e4e4e5"
       stroke-opacity="0.847"
       vector-effect="non-scaling-stroke"
       d="m 116.21,127.54 q -0.4,0.37 -0.41,0.92"
       id="path71" />
    <path
       stroke="#e4e4e5"
       stroke-opacity="0.847"
       vector-effect="non-scaling-stroke"
       d="m 115.63,128.72 q -0.69,0.71 -0.49,1.51"
       id="path72" />
    <path
       stroke="#e4e4e5"
       stroke-opacity="0.847"
       vector-effect="non-scaling-stroke"
       d="m 114.99,130.53 q -1.1,0.74 -1.3,1.74"
       id="path73" />
    <path
       stroke="#808080"
       stroke-opacity="0.996"
       vector-effect="non-scaling-stroke"
       d="m 43.45,231.72 q -0.38,0.25 -0.46,0.74"
       id="path74" />
    <path
       stroke="#808080"
       stroke-opacity="0.996"
       vector-effect="non-scaling-stroke"
       d="m 42.99,232.46 q -1.23,1.25 -1.81,3.04"
       id="path75" />
    <path
       stroke="#808080"
       stroke-opacity="0.996"
       vector-effect="non-scaling-stroke"
       d="m 18.31,263.05 -1.32,0.21"
       id="path76" />
    <path
       stroke="#e4e4e5"
       stroke-opacity="0.847"
       vector-effect="non-scaling-stroke"
       d="m 16.99,263.26 q -0.28,-0.37 -0.95,-0.29"
       id="path77" />
    <path
       stroke="#808080"
       stroke-opacity="0.996"
       vector-effect="non-scaling-stroke"
       d="m 15.72,262.88 q -1.8,-0.77 -2.25,0.34"
       id="path78" />
    <path
       stroke="#808080"
       stroke-opacity="0.996"
       vector-effect="non-scaling-stroke"
       d="m 13.17,263.54 -0.36,0.91"
       id="path79" />
    <path
       stroke="#808080"
       stroke-opacity="0.996"
       vector-effect="non-scaling-stroke"
       d="m 83.05,159.57 q 0.8,-0.68 0.97,-1.29"
       id="path80" />
    <path
       stroke="#808080"
       stroke-opacity="0.996"
       vector-effect="non-scaling-stroke"
       d="m 84.02,158.28 q 0.62,-0.6 0.89,-1.32"
       id="path81" />
    <path
       stroke="#e4e4e5"
       stroke-opacity="0.847"
       vector-effect="non-scaling-stroke"
       d="m 85.03,156.8 q 1.1,-0.46 1.45,-1.36"
       id="path82" />
    <path
       stroke="#e4e4e5"
       stroke-opacity="0.847"
       vector-effect="non-scaling-stroke"
       d="m 88.37,153.29 c 0.36,0.28 1.06,-0.18 0.6,-0.58"
       id="path83" />
    <path
       stroke="#e4e4e5"
       stroke-opacity="0.847"
       vector-effect="non-scaling-stroke"
       d="m 90.46,151.28 q 0.76,0.04 1,-0.74"
       id="path84" />
    <path
       stroke="#e4e4e5"
       stroke-opacity="0.847"
       vector-effect="non-scaling-stroke"
       d="m 92.43,149.53 q 0.58,-0.15 0.47,-0.61"
       id="path85" />
    <path
       stroke="#e4e4e5"
       stroke-opacity="0.847"
       vector-effect="non-scaling-stroke"
       d="m 95.18,144.36 1.89,-2.19"
       id="path86" />
    <path
       stroke="#e4e4e5"
       stroke-opacity="0.847"
       vector-effect="non-scaling-stroke"
       d="m 97.07,142.17 q -0.58,0.88 -0.7,1.44 a 0.21,0.21 0 0 0 0.35,0.19 q 1.03,-1.07 0.35,-1.63"
       id="path87" />
    <path
       stroke="#e4e4e5"
       stroke-opacity="0.847"
       vector-effect="non-scaling-stroke"
       d="m 97.07,142.17 q 1.64,-1.2 2.48,-2.68"
       id="path88" />
    <path
       stroke="#e4e4e5"
       stroke-opacity="0.847"
       vector-effect="non-scaling-stroke"
       d="m 99.55,139.49 q 0.52,-0.69 1.21,-1.15 a 1.3,1.27 89.3 0 0 0.43,-0.45 l 3,-5.16"
       id="path89" />
    <path
       stroke="#808080"
       stroke-opacity="0.996"
       vector-effect="non-scaling-stroke"
       d="m 109.67,123.45 q 1.09,-0.67 1.58,-1.91"
       id="path90" />
    <path
       stroke="#4e4e4f"
       stroke-opacity="0.843"
       vector-effect="non-scaling-stroke"
       d="m 72.2,263.29 -0.42,0.31"
       id="path91" />
    <path
       stroke="#4e4e4f"
       stroke-opacity="0.843"
       vector-effect="non-scaling-stroke"
       d="m 183.97,169.27 q -0.98,-0.4 -1.72,0.1"
       id="path92" />
    <path
       stroke="#4e4e4f"
       stroke-opacity="0.843"
       vector-effect="non-scaling-stroke"
       d="m 136.49,126.2 q 0.05,-0.35 -0.13,-0.55 -0.19,-0.2 -0.49,-0.18"
       id="path93" />
    <path
       stroke="#e4e4e5"
       stroke-opacity="0.847"
       vector-effect="non-scaling-stroke"
       d="m 159.45,153.86 q -0.99,-1.75 -1.87,-2.43 a 1.96,1.76 24.8 0 0 -3.06,0.94 l -0.75,4.62"
       id="path94" />
    <path
       stroke="#4e4e4f"
       stroke-opacity="0.843"
       vector-effect="non-scaling-stroke"
       d="m 112.62,150.04 q -0.18,-0.6 -0.14,-1.25"
       id="path95" />
    <path
       stroke="#808080"
       stroke-opacity="0.996"
       vector-effect="non-scaling-stroke"
       d="m 161.84,157.97 q -0.1,0.34 0.06,0.81"
       id="path96" />
    <path
       stroke="#e4e4e5"
       stroke-opacity="0.847"
       vector-effect="non-scaling-stroke"
       d="m 176.66,192.9 q -0.49,1.22 0.2,1.01"
       id="path97" />
    <path
       stroke="#e4e4e5"
       stroke-opacity="0.847"
       vector-effect="non-scaling-stroke"
       d="m 179.28,201.38 q -0.43,4.45 1.89,6.51"
       id="path98" />
    <path
       stroke="#808080"
       stroke-opacity="0.996"
       vector-effect="non-scaling-stroke"
       d="m 192.55,228.95 q 0.16,0.29 0.41,0.52"
       id="path99" />
    <path
       stroke="#e4e4e5"
       stroke-opacity="0.847"
       vector-effect="non-scaling-stroke"
       d="m 194.04,231.11 q 0.03,0.32 0.17,0.6"
       id="path100" />
    <path
       stroke="#808080"
       stroke-opacity="0.996"
       vector-effect="non-scaling-stroke"
       d="m 194.21,231.71 q 0.18,0.43 0.49,0.75"
       id="path101" />
    <path
       stroke="#e4e4e5"
       stroke-opacity="0.847"
       vector-effect="non-scaling-stroke"
       d="m 196.04,234.95 q -0.2,1.5 0.45,1.01"
       id="path102" />
    <path
       stroke="#808080"
       stroke-opacity="0.996"
       vector-effect="non-scaling-stroke"
       d="m 196.49,235.96 0.69,1.84"
       id="path103" />
    <path
       stroke="#e4e4e5"
       stroke-opacity="0.847"
       vector-effect="non-scaling-stroke"
       d="m 197.18,237.8 q 0.72,2.38 1.35,4.77 0.04,0.15 0,0.38 -0.03,0.22 0.09,0.43 a 0.09,0.07 -81.4 0 0 0.11,-0.11 q -0.17,-0.34 -0.15,-0.4 a 0.56,0.52 48.7 0 1 1.02,0.1 l 1.71,6.2"
       id="path104" />
    <path
       stroke="#808080"
       stroke-opacity="0.996"
       vector-effect="non-scaling-stroke"
       d="m 201.31,249.17 q 0.48,2.24 1.56,3.83"
       id="path105" />
    <path
       stroke="#808080"
       stroke-opacity="0.996"
       vector-effect="non-scaling-stroke"
       d="m 202.87,253 q -0.01,0.23 0.27,0.55"
       id="path106" />
    <path
       stroke="#808080"
       stroke-opacity="0.996"
       vector-effect="non-scaling-stroke"
       d="m 204.05,255.37 q -0.21,1.53 0.96,3.1"
       id="path107" />
    <path
       stroke="#808080"
       stroke-opacity="0.996"
       vector-effect="non-scaling-stroke"
       d="m 205.05,258.78 q 0,0.39 0.2,0.68"
       id="path108" />
    <path
       stroke="#808080"
       stroke-opacity="0.996"
       vector-effect="non-scaling-stroke"
       d="m 205.25,259.46 q 0.04,0.4 0.21,0.75"
       id="path109" />
    <path
       stroke="#808080"
       stroke-opacity="0.996"
       vector-effect="non-scaling-stroke"
       d="m 205.71,263.54 q -0.18,0.32 -0.23,0.71"
       id="path110" />
    <path
       stroke="#808080"
       stroke-opacity="0.996"
       vector-effect="non-scaling-stroke"
       d="m 205.48,264.25 -0.69,0.14"
       id="path111" />
    <path
       stroke="#e4e4e5"
       stroke-opacity="0.847"
       vector-effect="non-scaling-stroke"
       d="m 203.22,264.55 q -0.45,0.01 -0.7,-0.19"
       id="path112" />
    <path
       stroke="#808080"
       stroke-opacity="0.996"
       vector-effect="non-scaling-stroke"
       d="m 196.99,263.74 q -0.13,-0.51 -0.47,-0.72"
       id="path113" />
    <path
       stroke="#808080"
       stroke-opacity="0.996"
       vector-effect="non-scaling-stroke"
       d="m 196.17,262.56 q -0.15,-1.64 -1.37,-2.61"
       id="path114" />
    <path
       stroke="#808080"
       stroke-opacity="0.996"
       vector-effect="non-scaling-stroke"
       d="m 194.76,259.78 q -0.02,-0.8 -0.56,-0.98"
       id="path115" />
    <path
       stroke="#e4e4e5"
       stroke-opacity="0.847"
       vector-effect="non-scaling-stroke"
       d="m 188.3,245.94 q -0.02,-0.39 -0.17,-0.73"
       id="path116" />
    <path
       stroke="#e4e4e5"
       stroke-opacity="0.847"
       vector-effect="non-scaling-stroke"
       d="m 188.07,244.5 q 0.48,-1.44 0.06,-3.08"
       id="path117" />
    <path
       stroke="#e4e4e5"
       stroke-opacity="0.847"
       vector-effect="non-scaling-stroke"
       d="m 187.96,241.24 q -0.01,-0.27 -0.18,-0.45"
       id="path118" />
    <path
       stroke="#e4e4e5"
       stroke-opacity="0.847"
       vector-effect="non-scaling-stroke"
       d="m 187.46,240.2 q -0.01,-0.7 -0.41,-1.24"
       id="path119" />
    <path
       stroke="#e4e4e5"
       stroke-opacity="0.847"
       vector-effect="non-scaling-stroke"
       d="m 187.03,238.79 q 0.17,-1.02 -0.24,-1.22 -0.34,-0.18 -0.39,0.19 -0.04,0.22 0.11,0.53"
       id="path120" />
    <path
       stroke="#e4e4e5"
       stroke-opacity="0.847"
       vector-effect="non-scaling-stroke"
       d="m 186.21,237.96 q 0.12,-0.43 -0.21,-0.74"
       id="path121" />
    <path
       stroke="#808080"
       stroke-opacity="0.996"
       vector-effect="non-scaling-stroke"
       d="m 186,237.22 q -0.09,-0.26 -0.28,-0.43"
       id="path122" />
    <path
       stroke="#808080"
       stroke-opacity="0.996"
       vector-effect="non-scaling-stroke"
       d="m 184.71,236.13 0.01,-0.51"
       id="path123" />
    <path
       stroke="#e4e4e5"
       stroke-opacity="0.847"
       vector-effect="non-scaling-stroke"
       d="m 163.01,193.12 q 0.14,-0.43 -0.13,-0.85"
       id="path124" />
    <path
       stroke="#808080"
       stroke-opacity="0.996"
       vector-effect="non-scaling-stroke"
       d="m 162.88,192.27 q 0.05,-0.89 -0.4,-0.81"
       id="path125" />
    <path
       stroke="#e4e4e5"
       stroke-opacity="0.847"
       vector-effect="non-scaling-stroke"
       d="m 162.54,190.3 q 0.32,-0.92 -0.33,-1.1"
       id="path126" />
    <path
       stroke="#808080"
       stroke-opacity="0.996"
       vector-effect="non-scaling-stroke"
       d="m 156.52,179.1 -0.23,-0.64"
       id="path127" />
    <path
       stroke="#e4e4e5"
       stroke-opacity="0.847"
       vector-effect="non-scaling-stroke"
       d="m 156.23,178.15 q 0.05,-1.96 -0.75,-3.22"
       id="path128" />
    <path
       stroke="#e4e4e5"
       stroke-opacity="0.847"
       vector-effect="non-scaling-stroke"
       d="m 154.48,165.8 q 0.22,-0.47 -0.24,-0.84"
       id="path129" />
    <path
       stroke="#808080"
       stroke-opacity="0.996"
       vector-effect="non-scaling-stroke"
       d="m 154.18,163.04 0.01,-1.82"
       id="path130" />
    <path
       stroke="#e4e4e5"
       stroke-opacity="0.847"
       vector-effect="non-scaling-stroke"
       d="m 154.19,161.22 q 0.38,-1.16 -0.18,-1.27"
       id="path131" />
    <path
       stroke="#e4e4e5"
       stroke-opacity="0.847"
       vector-effect="non-scaling-stroke"
       d="m 154.03,158.3 q 0.28,-0.97 -0.23,-1.1"
       id="path132" />
    <path
       stroke="#4e4e4f"
       stroke-opacity="0.843"
       vector-effect="non-scaling-stroke"
       d="m 197.48,237.62 q -0.15,0.09 -0.3,0.18"
       id="path133" />
    <path
       stroke="#4e4e4f"
       stroke-opacity="0.843"
       vector-effect="non-scaling-stroke"
       d="m 194.29,231.53 q -0.04,0.09 -0.08,0.18"
       id="path134" />
    <path
       stroke="#4e4e4f"
       stroke-opacity="0.843"
       vector-effect="non-scaling-stroke"
       d="m 200.56,246.06 q 0.86,1.73 0.75,3.11"
       id="path135" />
    <path
       stroke="#4e4e4f"
       stroke-opacity="0.843"
       vector-effect="non-scaling-stroke"
       d="m 154.19,161.22 q -0.07,0.03 -0.14,0.07"
       id="path136" />
    <path
       stroke="#4e4e4f"
       stroke-opacity="0.843"
       vector-effect="non-scaling-stroke"
       d="m 162.88,192.27 -0.14,0.27"
       id="path137" />
    <path
       stroke="#4e4e4f"
       stroke-opacity="0.843"
       vector-effect="non-scaling-stroke"
       d="m 196.56,235.7 q -0.04,0.13 -0.07,0.26"
       id="path138" />
  </g>
  <path
     fill="#ffffff"
     d="m 142.60244,18.906757 q 0.01,0.9 0.49,0.51 l 7.5,8.79 q 1.87,5.07 4.89,9.16 a 2.33,2.37 89.5 0 0 0.61,0.59 l 1.07,0.73 q 0.03,0.26 0.24,0.51 0.09,0.37 0.49,0.5 l 1.1,3.43 q -0.24,0.79 0.1,1.28 0.21,1.24 0.96,0.96 l 0.09,0.79 q -0.13,-0.2 -0.33,-0.24 a 0.29,0.29 0 0 0 -0.31,0.39 q 0.33,0.84 1.24,1.18 a 0.96,0.98 0.5 0 1 0.57,0.59 l 0.97,2.77 -0.11,1.57 q 0.25,2.39 1.65,4.39 a 1.03,1.01 72.5 0 0 0.81,0.43 l 2.41,0.04 a 0.02,0.02 0 0 0 0.02,-0.03 q 0,-0.01 -0.01,-0.03 a 0.07,0.08 85.9 0 0 -0.08,-0.06 l -1.33,0.01 a 0.03,0.09 87.8 0 1 -0.08,-0.02 q -0.01,-0.01 -0.04,-0.01 a 0.05046531,0.06055837 47.9 0 1 0.01,-0.11 q 0.95,-0.01 1.61,0 a 1.2,1.2 0 0 1 0.72,0.24 l 5.93,4.46 a 0.88,0.9 59.7 0 0 0.68,0.17 l 0.43,-0.06 q -0.24,1.5 1.44,2.71 a 2.57,2.52 1.8 0 1 0.65,0.68 q 2.03,3.06 5.13,5.23 0.06,0.64 0.7,1.11 l 0.32,0.37 q 0.1,0.58 0.5,0.71 c 1.44,2.26 2.67,4.69 4.23,6.76 q 7.08,9.43 14.47,17.1 a 3.98,4.14 8 0 1 0.7,0.97 q 2.81,5.340003 6.85,10.150003 0.98,1.17 2.25,2.07 l 0.42,0.42 0.83,0.57 q 0.04,0.57 0.99,0.88 0.86,1.31 1.96,2.08 l 0.48,0.89 0.57,0.59 q 0.08,0.4 0.45,0.5 l 8.88,12.02 4.03,3.92 a 2.79,2.82 10 0 1 0.61,0.88 q 1.67,3.79 4.76,6.67 a 0.04,0.04 0 0 0 0.07,-0.03 v -0.43 a 0.1,0.1 0 0 1 0.18,-0.07 q 0.11,0.11 0.39,0.44 0.25,0.31 -0.04,0.91 a 0.12,0.11 25.4 0 0 0.06,0.15 q 0.26,0.12 0.2,-0.16 -0.11,-0.61 0.27,0.15 1.3,2.58 3.95,4.1 l 2.96,4.41 q 0.12,0.35 0.49,0.65 2.75,3.15 4.33,7.17 0.21,0.72 0.65,0.95 0.09,0.34 0.37,0.62 c 2.82,4.97 5.7,9.87 7.11,15.46 q -0.03,0.56 0.24,0.97 0.04,0.1 0.09,0.19 0.13,1.66 -0.36,3.31 -0.39,0.14 -0.43,0.51 l -2.93,1.74 -0.58,0.2 -2,0.67 q -1.67,0.3 -3.54,-0.14 l -1.45,-0.77 -3.85,-2.69 a 1.45,1.45 0 0 1 -0.6,-0.95 l -0.39,-2.22 a 1.35,1.47 29 0 0 -0.07,-0.29 l -3.62,-9.52 q 0.03,-0.84 -0.56,-1.23 l -0.75,-1.1 q 0.01,-0.44 -0.38,-0.49 l -3.56,-6.67 q -0.11,-0.42 -0.48,-0.6 l -1.53,-2.18 q -0.36,-0.71 -0.7,-0.45 l -8.92,-13.03 q -0.72,-1.48 -1.92,-2.47 -0.61,-0.5 -1.02,-1.47 -1.11,-2.61 -4.1,-4.21 -0.69,-0.37 -0.79,-0.79 a 0.56,0.49 26.4 0 1 1,-0.26 q 0.5,0.79 1.04,1.05 a 0.16,0.16 0 0 0 0.2,-0.24 q -0.74,-0.94 -1.51,-1.21 -1.87,-0.68 -2.81,-1.26 c -3.08,-5.06 -6.95,-7.92 -12.35,-13.06 q -3.69,-3.52 -7.81,-11.05 a 8.34,8.5 10 0 0 -0.96,-1.4 l -3.23,-3.830003 a 4.43,4.41 13.9 0 1 -0.74,-1.22 q -2.37,-5.68 -4.43,-10.32 -1.13,-2.56 -5.17,-3 -0.14,-1.04 -2.81,-0.53 -1.01,-2.16 -4.72,-6.8 -2.48,-3.1 -7.58,-13.37 -0.33,-0.66 -1.84,-1.77 -0.29,-1.35 -1.35,-1.84 -0.3,-0.78 -0.94,-1 l -4.07,-5.1 q -0.07,-2.36 -1.72,-3.91 a 1.94,1.88 14.8 0 1 -0.53,-0.88 l -0.39,-1.47 a 0.99,1 82.4 0 0 -0.96,-0.73 h -6.14 a 2.04,2.05 1.8 0 0 -2.04,1.92 q -0.16,2.49 0.84,4.9 l 0.17,1.04 q -0.62,0.77 0.17,2.03 l 0.21,1.22 c -0.49,2.82 0.63,4.5 -1.25,7.52 a 2.24,2.31 64.3 0 0 -0.29,0.79 q -0.48,2.69 0.64,5.04 l 0.28,1.84 q -0.27,0.84 0.31,1.11 -0.07,0.88 0.15,1.74 l 0.1,25.390003 q -0.31,-0.04 -0.09,0.83 -0.51,2.28 -0.47,4.65 0.05,3.22 -0.11,4.65 -1.26,10.95 -0.93,18.18 0.67,14.61 0.45,20.19 -0.6,1.13 0.08,1.88 l -0.02,0.47 q -0.1,0.32 -0.02,0.67 l -0.05,8.08 -0.03,1.18 0.31,7.23 q -0.12,0.81 0.08,1.52 l 0.14,6.99 a 1.8,1.8 0 0 1 -1.99,1.82 q -2.75,-0.29 -4.27,-3.4 l -0.61,-0.33 q -0.6,-0.48 -1.27,-0.69 -0.48,-0.51 -1.44,-0.64 -0.19,-0.27 -0.78,-0.5 -0.18,-0.57 -0.8,-0.76 l -0.14,-0.26 -1.08,-3.97 a 0.4,0.34 40.3 0 1 -0.02,-0.12 l -0.47,-7.75 a 2.49,2.54 45.6 0 1 0.01,-0.5 l 0.17,-1.42 a 0.7,0.68 43.9 0 0 -0.01,-0.26 l -1.15,-6.14 -0.14,-1.25 -0.03,-1.76 v -1.32 l 0.03,-0.92 0.17,-4.08 0.04,-3.66 q 0.44,-4.72 -0.78,-8.82 l -0.51,-1.53 q -0.28,-1.15 0.01,-2.43 l 0.07,-1.81 0.15,-2.25 0.1,-2.42 0.2,-2.56 0.06,-2.19 c 0.55,-12.03 0.23,-24.090003 0.24,-36.130003 0.02,-12.13 0.72,-25.06 1.11,-37.61 q 0.03,-1.33 0.07,-2.61 0.01,-0.31 -0.02,-0.35 -0.24,-0.27 -0.51,-0.22 a 0.39,0.4 86.9 0 0 -0.31,0.34 q -0.06,0.67 -0.5,0.8 l -0.32,0.28 q -0.17,-0.13 -0.34,-0.13 -0.13,0 -0.29,0.19 -0.19,0.26 -0.47,0.26 -2.42,5 -3.03,6.93 -3.78,12.12 -7.24,19.99 -3.1,7.04 -4.43,12.7 -0.65,2.78 -4.62,15.48 a 14.18,13.82 69.5 0 1 -1.3,2.96 q -2.72,4.660003 -6.139997,9.350003 -2.82,3.85 -7.94,16.17 0.17,0.26 -0.01,0.78 l -0.37,1.07 -0.6,1.91 -3.79,7.35 q -0.25,0.22 -0.3,0.66 l -0.75,1.33 q -0.19,0.29 -0.25,0.67 l -1.89,3.32 -0.1,0.68 c -2.16,5.63 -9.37,8.99 -11.19,15.11 q -1.33,4.49 -3.73,8.56 a 7.77,7.48 70.5 0 0 -0.68,1.5 l -2.79,8.66 q -0.67,0.07 -0.59,1.18 -0.06,0.16 -0.11,0.32 -0.72,0.31 -0.89,0.93 c -1.2,2.35 -6.15,1.45 -8.07,0.89 a 2.74,2.72 6.3 0 1 -1.96,-2.43 c -0.06,-0.95 0.3,-3.22 0.64,-4.33 q 2.72,-9.05 5.07,-17.57 0.66,-2.42 5.09,-8.26 l 2.01,-1.98 3.63,-3.83 q 0.33,-0.25 0.56,-0.65 1.9,-1.94 3.15,-4.36 4.65,-8.98 6.53,-15.62 c 1.65,-5.87 3.79,-9.3 7.17,-16.4 q 1.79,-3.760003 3.03,-6.950003 c 1.27,-3.27 2.97,-5.79 4.14,-9.19 2.57,-7.44 6.589997,-13.97 9.599997,-21.96 q 0.1,-0.44 0.47,-0.79 0.58,-1.3 0.43,-2.58 l 5.5,-17.93 q 0.47,-0.69 0.4,-1.74 -0.06,-0.58 0.12,-1.05 0.52,-1.74 0.18,-3.55 a 0.24083189,0.24083189 0 0 0 -0.48,0.04 q 0,1.59 -1.53,2.98 -0.48,0.32 -0.72,0.98 l -0.31,0.35 q -0.4,0.37 -0.41,0.92 l -0.17,0.26 q -0.69,0.71 -0.49,1.51 -0.08,0.15 -0.15,0.3 -1.1,0.74 -1.3,1.74 l -5.659997,12.3 a 11.47,11.14 76.6 0 1 -1.24,2.08 q -2.84,3.79 -4.89,7.6 c -2.3,4.28 -5.04,6.16 -7.64,9.94 q -1.3,1.88 -3.82,4.34 -4.97,4.82 -11.35,12.91 c -2.57,3.27 -3.89,7.010003 -7.18,9.690003 a 5.38,5.38 0 0 0 -1.01,1.08 c -2.05,2.91 -4.46,7.39 -7.54,11.41 q -10.49,13.68 -19.91,28.1 -0.38,0.25 -0.46,0.74 -1.23,1.25 -1.81,3.04 -6.38,10.54 -10.73,15.95 -4.42,5.51 -12.1399997,11.6 l -1.32,0.21 q -0.28,-0.37 -0.95,-0.29 -0.16,-0.04 -0.32,-0.09 -1.8,-0.77 -2.25,0.34 l -0.3,0.32 -0.36,0.91 q -0.15,1.72 -0.96,3.29 a 0.69,0.68 18.7 0 1 -0.73,0.35 q -2.06999997,-0.37 -2.44999997,-2.03 -1.04,-4.52 1.88999997,-9 3,-4.57 5.79,-8.95 c 0.84,-1.31 2.9399997,-3.15 3.9599997,-4.72 2.58,-3.97 6.09,-7.41 8.15,-10.61 2.75,-4.25 5.29,-7.12 7.85,-11.2 q 4.71,-7.51 15.76,-24.45 3.88,-5.96 7.74,-10.97 c 2.67,-3.480003 6.99,-9.430003 11.26,-13.920003 q 6.02,-6.33 11.98,-12.67 0.8,-0.68 0.97,-1.29 0.62,-0.6 0.89,-1.32 0.06,-0.08 0.12,-0.16 1.1,-0.46 1.45,-1.36 l 1.89,-2.15 c 0.36,0.28 1.06,-0.18 0.6,-0.58 l 1.49,-1.43 q 0.76,0.04 1,-0.74 0.65,-0.29 0.97,-1.01 0.58,-0.15 0.47,-0.61 l 2.28,-4.56 1.89,-2.19 q -0.58,0.88 -0.7,1.44 a 0.21,0.21 0 0 0 0.35,0.19 q 1.03,-1.07 0.35,-1.63 1.64,-1.2 2.48,-2.68 0.52,-0.69 1.21,-1.15 a 1.3,1.27 89.3 0 0 0.43,-0.45 l 3,-5.16 5.479997,-9.28 q 1.09,-0.67 1.58,-1.91 2.78,-8.21 4.89,-11.14 7.89,-10.92 13.12,-23.1299996 1.2,-2.78999997 3.6,-1.53999997 c 2.65,1.39999997 7.9,5.10999997 10.69,8.75999997 q 1.84,2.4199996 4.4,4.6999996 a 2.06,2.28 2.9 0 1 0.44,0.54 z"
     id="path139" />
  <path
     fill="#bcbcbf"
     fill-opacity="0.694"
     d="m 143.09244,19.416757 q -0.48,0.39 -0.49,-0.51 0.28,0.17 0.49,0.51 z"
     id="path140" />
  <path
     fill="#bcbcbf"
     fill-opacity="0.694"
     d="m 157.16244,38.686757 -1.07,-0.73 a 2.33,2.37 89.5 0 1 -0.61,-0.59 q -3.02,-4.09 -4.89,-9.16 l 5.39,5.64 a 0.24,0.24 0 0 1 -0.29,0.38 q -0.8,-0.42 -1.1,-1.68 a 0.2,0.2 0 0 0 -0.2,-0.16 h -0.42 a 0.16,0.16 0 0 0 -0.13,0.26 l 1.29,1.86 a 0.78,0.72 83 0 0 0.27,0.23 q 0.68,0.34 0.56,1.36 a 1.33,1.34 32.9 0 0 0.17,0.82 z"
     id="path141" />
  <path
     fill="#010101"
     fill-opacity="0.992"
     d="m 102.85244,36.196757 q -0.49,1.24 -1.58,1.91 0.57,-1.12 1.58,-1.91 z"
     id="path142" />
  <path
     fill="#bcbcbf"
     fill-opacity="0.694"
     d="m 110.67244,41.396757 q -0.1,-0.4 -0.29,-0.62 -0.19,-0.21 -0.59,-0.05 -0.44,0.17 -0.95,0.14 1.53,-1.39 1.53,-2.98 a 0.24083189,0.24083189 0 0 1 0.48,-0.04 q 0.34,1.81 -0.18,3.55 z"
     id="path143" />
  <path
     fill="#bcbcbf"
     fill-opacity="0.694"
     d="m 128.59244,41.956757 q -0.32,0.12 -0.5,-1.1 0.05,-0.35 -0.13,-0.55 -0.19,-0.2 -0.49,-0.18 -0.07,-0.1 -0.15,-0.21 0.44,-0.13 0.5,-0.8 a 0.39,0.4 86.9 0 1 0.31,-0.34 q 0.27,-0.05 0.51,0.22 0.03,0.04 0.02,0.35 -0.04,1.28 -0.07,2.61 z"
     id="path144" />
  <path
     fill="#bcbcbf"
     fill-opacity="0.694"
     d="m 157.89244,39.696757 q -0.4,-0.13 -0.49,-0.5 0.28,0.18 0.49,0.5 z"
     id="path145" />
  <path
     fill="#010101"
     fill-opacity="0.992"
     d="m 127.00244,40.196757 q 0.3,0.62 -1.1,0.32 0.28,0 0.47,-0.26 0.16,-0.19 0.29,-0.19 0.17,0 0.34,0.13 z"
     id="path146" />
  <path
     fill="#010101"
     fill-opacity="0.992"
     d="m 128.09244,40.856757 q -0.45,-0.29 -0.62,-0.73 0.3,-0.02 0.49,0.18 0.18,0.2 0.13,0.55 z"
     id="path147" />
  <path
     fill="#bcbcbf"
     fill-opacity="0.694"
     d="m 108.84244,40.866757 q 0.21,0.47 -0.72,0.98 0.24,-0.66 0.72,-0.98 z"
     id="path148" />
  <path
     fill="#bcbcbf"
     fill-opacity="0.694"
     d="m 107.81244,42.196757 q -0.04,0.64 -0.41,0.92 0.01,-0.55 0.41,-0.92 z"
     id="path149" />
  <path
     fill="#bcbcbf"
     fill-opacity="0.694"
     d="m 110.55244,42.446757 q 0.07,1.05 -0.4,1.74 -0.1,-1.04 0.4,-1.74 z"
     id="path150" />
  <path
     fill="#bcbcbf"
     fill-opacity="0.694"
     d="m 159.09244,44.406757 q -0.34,-0.49 -0.1,-1.28 0.74,0.3 0.1,1.28 z"
     id="path151" />
  <path
     fill="#bcbcbf"
     fill-opacity="0.694"
     d="m 106.74244,44.886757 q -0.2,-0.8 0.49,-1.51 0.07,1.14 -0.49,1.51 z"
     id="path152" />
  <path
     fill="#bcbcbf"
     fill-opacity="0.694"
     d="m 160.05244,45.366757 q -0.75,0.28 -0.96,-0.96 1.11,-0.53 1.26,0.27 0.07,0.42 -0.3,0.69 z"
     id="path153" />
  <path
     fill="#bcbcbf"
     fill-opacity="0.694"
     d="m 106.59244,45.186757 q -0.4,1.08 -1.3,1.74 0.2,-1 1.3,-1.74 z"
     id="path154" />
  <path
     fill="#bcbcbf"
     fill-opacity="0.694"
     d="m 160.14244,46.156757 q 0.63,0.33 1.48,0.46 a 0.71,0.69 88.1 0 1 0.58,0.56 q 0.36,1.89 0.08,3.67 l -0.97,-2.77 a 0.96,0.98 0.5 0 0 -0.57,-0.59 q -0.91,-0.34 -1.24,-1.18 a 0.29,0.29 0 0 1 0.31,-0.39 q 0.2,0.04 0.33,0.24 z"
     id="path155" />
  <path
     fill="#bcbcbf"
     fill-opacity="0.694"
     d="m 152.83244,53.546757 q -2.94,-3.01 -7.36,-2.4 a 2.4,2.4 0 0 0 -2.08,2.38 v 3.85 a 0.16,0.15 6.1 0 1 -0.19,0.15 q -0.14,-0.04 -0.28,-0.16 a 0.06,0.06 0 0 1 0,-0.09 q 0.59,-0.54 0.55,-1.15 -0.49,-6.31 -1.58,-2.75 -1,-2.41 -0.84,-4.9 a 2.04,2.05 1.8 0 1 2.04,-1.92 h 6.14 a 0.99,1 82.4 0 1 0.96,0.73 l 0.39,1.47 a 1.94,1.88 14.8 0 0 0.53,0.88 q 1.65,1.55 1.72,3.91 z m -10.32,-1.65 a 0.12,0.12 0 0 0 -0.12,-0.12 0.12,0.12 0 0 0 -0.12,0.12 0.12,0.12 0 0 0 0.12,0.12 0.12,0.12 0 0 0 0.12,-0.12 z"
     id="path156" />
  <path
     fill="#bcbcbf"
     fill-opacity="0.694"
     d="m 95.792443,47.386757 -3,5.16 a 1.3,1.27 89.3 0 1 -0.43,0.45 q -0.69,0.46 -1.21,1.15 -0.52,-1.56 0.15,-2.79 a 0.64,0.65 31.9 0 0 -0.19,-0.84 q -0.18,-0.12 0.16,-0.69 0.21,-0.35 0.61,-0.08 a 0.42,0.42 0 0 0 0.59,-0.13 q 1.25,-1.98 3.32,-2.23 z m -1.8513,1.3663 a 0.11,0.26 61.6 0 0 -0.281,0.0269 0.11,0.26 61.6 0 0 -0.1764,0.2205 0.11,0.26 61.6 0 0 0.281,-0.0269 0.11,0.26 61.6 0 0 0.1764,-0.2205 z"
     id="path157" />
  <path
     fill="#bcbcbf"
     fill-opacity="0.694"
     d="m 91.152443,54.146757 q -0.84,1.48 -2.48,2.68 l -1.89,2.19 3.03,-6.4 a 0.27,0.28 52.9 0 1 0.52,0.07 q 0.05,0.34 -0.28,0.59 a 0.39,0.39 0 0 0 0.07,0.67 q 0.38,0.18 1.03,0.2 z"
     id="path158" />
  <path
     fill="#bcbcbf"
     fill-opacity="0.694"
     d="m 174.90244,61.836757 -0.43,0.06 a 0.88,0.9 59.7 0 1 -0.68,-0.17 l -5.93,-4.46 a 1.2,1.2 0 0 0 -0.72,-0.24 q -0.66,-0.01 -1.61,0 a 0.05046531,0.06055837 47.9 0 0 -0.01,0.11 q 0.03,0 0.04,0.01 a 0.03,0.09 87.8 0 0 0.08,0.02 l 1.33,-0.01 a 0.07,0.08 85.9 0 1 0.08,0.06 q 0.01,0.02 0.01,0.03 a 0.02,0.02 0 0 1 -0.02,0.03 l -2.41,-0.04 a 1.03,1.01 72.5 0 1 -0.81,-0.43 q -1.4,-2 -1.65,-4.39 0.57,1.5 1.59,2.43 0.67,0.61 2.42,0.6 1.74,-0.02 3.21,1.19 3.45,2.84 5.51,5.2 z"
     id="path159" />
  <path
     fill="#bcbcbf"
     fill-opacity="0.694"
     d="m 142.06244,54.416757 q 0.29,0.87 0.17,2.03 -0.79,-1.26 -0.17,-2.03 z"
     id="path160" />
  <path
     fill="#bcbcbf"
     fill-opacity="0.694"
     d="m 88.672443,56.826757 q 0.68,0.56 -0.35,1.63 a 0.21,0.21 0 0 1 -0.35,-0.19 q 0.12,-0.56 0.7,-1.44 z"
     id="path161" />
  <path
     fill="#bcbcbf"
     fill-opacity="0.694"
     d="m 151.05244,68.516757 q -0.99,-1.75 -1.87,-2.43 a 1.96,1.76 24.8 0 0 -3.06,0.94 l -0.75,4.62 q -0.98,-1.79 -1.18,-3.55 a 0.37,0.36 74.5 0 0 -0.51,-0.29 q -0.62,0.29 -1.26,0.22 a 0.44,0.44 0 0 0 -0.48,0.46 q 0.06,1.13 -0.4,2.53 -1.12,-2.35 -0.64,-5.04 a 2.24,2.31 64.3 0 1 0.29,-0.79 c 1.88,-3.02 0.76,-4.7 1.25,-7.52 q 0.43,0.64 0.49,1.37 a 0.63,0.64 83 0 0 0.72,0.56 q 0.42,-0.05 0.68,0.08 a 0.64,0.63 26.2 0 1 0.29,0.84 q -0.09,0.17 -0.09,0.19 a 0.32,0.3 27.1 0 0 0.08,0.23 q 1.23,1.29 4.75,2.89 a 1.13,1.15 8.3 0 1 0.66,0.9 q 0.08,0.67 0.74,1.27 a 0.17,0.17 0 0 1 -0.11,0.3 h -0.39 a 0.01,0.01 0 0 0 0,0.02 q 1.12,0.88 0.79,2.2 z"
     id="path162" />
  <path
     fill="#bcbcbf"
     fill-opacity="0.694"
     d="m 157.84244,59.646757 q -1.09,-0.01 -0.94,-1 0.64,0.22 0.94,1 z"
     id="path163" />
  <path
     fill="#bcbcbf"
     fill-opacity="0.694"
     d="m 159.19244,61.486757 q -1.13,-0.91 -1.35,-1.84 1.06,0.49 1.35,1.84 z"
     id="path164" />
  <path
     fill="#bcbcbf"
     fill-opacity="0.694"
     d="m 182.12244,70.456757 q -3.1,-2.17 -5.13,-5.23 a 2.57,2.52 1.8 0 0 -0.65,-0.68 q -1.68,-1.21 -1.44,-2.71 z"
     id="path165" />
  <path
     fill="#bcbcbf"
     fill-opacity="0.694"
     d="m 104.65244,62.116757 q 0.15,1.28 -0.43,2.58 -0.18,-0.6 -0.14,-1.25 0.08,-0.86 0.57,-1.33 z"
     id="path166" />
  <path
     fill="#010101"
     fill-opacity="0.992"
     d="m 104.08244,63.446757 q -0.04,0.65 0.14,1.25 -0.37,0.35 -0.47,0.79 -0.03,-1.03 0.33,-2.04 z"
     id="path167" />
  <path
     fill="#bcbcbf"
     fill-opacity="0.694"
     d="m 84.502443,63.576757 q 0.11,0.46 -0.47,0.61 0.1,-0.46 0.47,-0.61 z"
     id="path168" />
  <path
     fill="#bcbcbf"
     fill-opacity="0.694"
     d="m 83.062443,65.196757 q -0.24,0.78 -1,0.74 0.36,-0.6 1,-0.74 z"
     id="path169" />
  <path
     fill="#ffffff"
     d="m 151.05244,68.516757 q 0.71,2.01 2.39,4.11 -0.1,0.34 0.06,0.81 l 3.74,7.28 a 2.84,2.44 26.6 0 1 0.18,0.43 q 1.83,6.01 2.68,7.74 5.82,11.870003 8.16,18.670003 -0.49,1.22 0.2,1.01 l 2.42,7.47 q -0.43,4.45 1.89,6.51 0.94,4.17 3.05,7.88 3.19,5.61 3.38,5.98 2.09,3.85 4.95,7.2 0.16,0.29 0.41,0.52 l 1.08,1.64 q 0.03,0.32 0.17,0.6 0.18,0.43 0.49,0.75 l 1.34,2.49 q -0.2,1.5 0.45,1.01 l 0.69,1.84 q 0.72,2.38 1.35,4.77 0.04,0.15 0,0.38 -0.03,0.22 0.09,0.43 a 0.07,0.09 8.6 0 0 0.11,-0.11 q -0.17,-0.34 -0.15,-0.4 a 0.56,0.52 48.7 0 1 1.02,0.1 l 1.71,6.2 q 0.48,2.24 1.56,3.83 -0.01,0.23 0.27,0.55 0.12,0.98 0.91,1.82 -0.21,1.53 0.96,3.1 0.02,0.16 0.04,0.31 0,0.39 0.2,0.68 0.04,0.4 0.21,0.75 0.47,1.66 0.25,3.33 -0.18,0.32 -0.23,0.71 l -0.69,0.14 -1.57,0.16 q -0.45,0.01 -0.7,-0.19 -3.11,0.36 -5.53,-0.62 -0.13,-0.51 -0.47,-0.72 -0.14,-0.28 -0.35,-0.46 -0.15,-1.64 -1.37,-2.61 -0.02,-0.08 -0.04,-0.17 -0.02,-0.8 -0.56,-0.98 l -5.9,-12.86 q -0.02,-0.39 -0.17,-0.73 l -0.06,-0.71 q 0.48,-1.44 0.06,-3.08 -0.08,-0.09 -0.17,-0.18 -0.01,-0.27 -0.18,-0.45 -0.11,-0.33 -0.32,-0.59 -0.01,-0.7 -0.41,-1.24 -0.01,-0.08 -0.02,-0.17 0.17,-1.02 -0.24,-1.22 -0.34,-0.18 -0.39,0.19 -0.04,0.22 0.11,0.53 l -0.3,-0.33 q 0.12,-0.43 -0.21,-0.74 -0.09,-0.26 -0.28,-0.43 -0.32,-0.57 -1.01,-0.66 l 0.01,-0.51 q -2.61,-0.25 -3.53,-2.89 a 2.73,2.58 19.4 0 0 -0.33,-0.64 q -6.32,-9.16 -8.62,-15.09 -0.09,-0.24 -7.22,-20 -0.75,-2.08 -2.01,-3.88 0.14,-0.43 -0.13,-0.85 0.05,-0.89 -0.4,-0.81 l 0.06,-1.16 q 0.32,-0.92 -0.33,-1.1 l -5.69,-10.100003 -0.23,-0.64 q 0.03,-0.66 -0.06,-0.31 0.05,-1.96 -0.75,-3.22 l -1,-9.13 q 0.22,-0.47 -0.24,-0.84 l -0.06,-1.92 0.01,-1.82 q 0.38,-1.16 -0.18,-1.27 l 0.02,-1.65 q 0.28,-0.97 -0.23,-1.1 -0.02,-0.11 -0.03,-0.21 l 0.75,-4.62 a 1.96,1.76 24.8 0 1 3.06,-0.94 q 0.88,0.68 1.87,2.43 z"
     id="path170" />
  <path
     fill="#bcbcbf"
     fill-opacity="0.694"
     d="m 80.572443,67.366757 c 0.46,0.4 -0.24,0.86 -0.6,0.58 q -0.34,-0.23 0.6,-0.58 z"
     id="path171" />
  <path
     fill="#bcbcbf"
     fill-opacity="0.694"
     d="m 78.082443,70.096757 q -0.35,0.9 -1.45,1.36 0.16,-1.51 1.45,-1.36 z"
     id="path172" />
  <path
     fill="#bcbcbf"
     fill-opacity="0.694"
     d="m 182.82244,71.566757 q -0.64,-0.47 -0.7,-1.11 0.63,0.46 0.7,1.11 z"
     id="path173" />
  <path
     fill="#010101"
     fill-opacity="0.992"
     d="m 76.512443,71.616757 q -0.27,0.72 -0.89,1.32 0,-0.89 0.89,-1.32 z"
     id="path174" />
  <path
     fill="#bcbcbf"
     fill-opacity="0.694"
     d="m 145.63244,72.956757 q -0.42,-0.04 -0.23,-1.1 0.51,0.13 0.23,1.1 z"
     id="path175" />
  <path
     fill="#bcbcbf"
     fill-opacity="0.694"
     d="m 183.64244,72.646757 q -0.4,-0.13 -0.5,-0.71 z"
     id="path176" />
  <path
     fill="#010101"
     fill-opacity="0.992"
     d="m 153.50244,73.436757 q -0.16,-0.47 -0.06,-0.81 z"
     id="path177" />
  <path
     fill="#010101"
     fill-opacity="0.992"
     d="m 75.622443,72.936757 q -0.17,0.61 -0.97,1.29 0.07,-0.76 0.97,-1.29 z"
     id="path178" />
  <path
     fill="#bcbcbf"
     fill-opacity="0.694"
     d="m 142.13244,73.966757 q -0.58,-0.27 -0.31,-1.11 0.31,0.43 0.31,1.11 z"
     id="path179" />
  <path
     fill="#010101"
     fill-opacity="0.992"
     d="m 142.28244,75.706757 q -0.22,-0.86 -0.15,-1.74 z"
     id="path180" />
  <path
     fill="#bcbcbf"
     fill-opacity="0.694"
     d="m 145.79244,75.876757 q -0.07,0.03 -0.14,0.07 -0.16,-0.67 -0.04,-1.34 0.56,0.11 0.18,1.27 z"
     id="path181" />
  <path
     fill="#010101"
     fill-opacity="0.992"
     d="m 145.79244,75.876757 -0.01,1.82 -0.13,-1.75 q 0.07,-0.04 0.14,-0.07 z"
     id="path182" />
  <path
     fill="#bcbcbf"
     fill-opacity="0.694"
     d="m 146.08244,80.456757 q -0.32,-0.36 -0.24,-0.84 0.46,0.37 0.24,0.84 z"
     id="path183" />
  <path
     fill="#bcbcbf"
     fill-opacity="0.694"
     d="m 176.14244,83.956757 q -0.17,-0.16 -0.57,-0.03 -0.98,-0.4 -1.72,0.1 -0.4,-0.25 -0.52,-0.6 2.67,-0.51 2.81,0.53 z"
     id="path184" />
  <path
     fill="#010101"
     fill-opacity="0.992"
     d="m 175.57244,83.926757 q -0.73,0.21 -1.3,0.7 a 0.32,0.32 0 0 1 -0.51,-0.34 l 0.09,-0.26 q 0.74,-0.5 1.72,-0.1 z"
     id="path185" />
  <path
     fill="#bcbcbf"
     fill-opacity="0.694"
     d="m 147.83244,92.806757 q -1,-1.2 -0.75,-3.22 0.8,1.26 0.75,3.22 z"
     id="path186" />
  <path
     fill="#010101"
     fill-opacity="0.992"
     d="m 148.12244,93.756757 q -0.25,0.17 -0.23,-0.64 z"
     id="path187" />
  <path
     fill="#010101"
     fill-opacity="0.992"
     d="m 142.29244,101.92676 q -0.22,-0.87 0.09,-0.83 -0.29,0.05 -0.09,0.83 z"
     id="path188" />
  <path
     fill="#bcbcbf"
     fill-opacity="0.694"
     d="m 154.14244,104.95676 q -0.6,0.04 -0.33,-1.1 0.65,0.18 0.33,1.1 z"
     id="path189" />
  <path
     fill="#010101"
     fill-opacity="0.992"
     d="m 154.48244,106.92676 -0.14,0.27 q -0.3,-0.45 -0.26,-1.08 0.45,-0.08 0.4,0.81 z"
     id="path190" />
  <path
     fill="#bcbcbf"
     fill-opacity="0.694"
     d="m 154.48244,106.92676 q 0.27,0.42 0.13,0.85 -0.22,-0.2 -0.27,-0.58 z"
     id="path191" />
  <path
     fill="#bcbcbf"
     fill-opacity="0.694"
     d="m 168.46244,108.56676 q -0.69,0.21 -0.2,-1.01 0.3,0.51 0.2,1.01 z"
     id="path192" />
  <path
     fill="#010101"
     fill-opacity="0.992"
     d="m 212.56244,110.11676 -0.42,-0.42 q 0.34,0.11 0.42,0.42 z"
     id="path193" />
  <path
     fill="#010101"
     fill-opacity="0.992"
     d="m 214.38244,111.56676 q -0.95,-0.31 -0.99,-0.88 0.57,0.19 0.99,0.88 z"
     id="path194" />
  <path
     fill="#010101"
     fill-opacity="0.992"
     d="m 216.34244,113.64676 q -1.1,-0.77 -1.96,-2.08 1.17,0.51 1.96,2.08 z"
     id="path195" />
  <path
     fill="#010101"
     fill-opacity="0.992"
     d="m 216.82244,114.53676 -0.48,-0.89 q 0.74,0.46 0.48,0.89 z"
     id="path196" />
  <path
     fill="#010101"
     fill-opacity="0.992"
     d="m 217.84244,115.62676 q -0.37,-0.1 -0.45,-0.5 0.27,0.17 0.45,0.5 z"
     id="path197" />
  <path
     fill="#010101"
     fill-opacity="0.992"
     d="m 127.24244,115.69676 -0.06,2.19 z"
     id="path198" />
  <path
     fill="#bcbcbf"
     fill-opacity="0.694"
     d="m 172.77244,122.54676 q -2.32,-2.06 -1.89,-6.51 z"
     id="path199" />
  <path
     fill="#010101"
     fill-opacity="0.992"
     d="m 126.98244,120.44676 -0.1,2.42 z"
     id="path200" />
  <path
     fill="#010101"
     fill-opacity="0.992"
     d="m 91.202443,124.09676 q 0.23,0.2 -0.01,0.78 0.18,-0.52 0.01,-0.78 z"
     id="path201" />
  <path
     fill="#010101"
     fill-opacity="0.992"
     d="m 126.73244,125.11676 -0.07,1.81 q -0.15,-0.94 0.07,-1.81 z"
     id="path202" />
  <path
     fill="#010101"
     fill-opacity="0.992"
     d="m 90.822443,125.94676 q -0.08,1.1 -0.6,1.91 z"
     id="path203" />
  <path
     fill="#bcbcbf"
     fill-opacity="0.694"
     d="m 241.20244,144.17676 q -2.65,-1.52 -3.95,-4.1 -0.38,-0.76 -0.27,-0.15 0.06,0.28 -0.2,0.16 a 0.12,0.11 25.4 0 1 -0.06,-0.15 q 0.29,-0.6 0.04,-0.91 -0.28,-0.33 -0.39,-0.44 a 0.1,0.1 0 0 0 -0.18,0.07 v 0.43 a 0.04,0.04 0 0 1 -0.07,0.03 q -3.09,-2.88 -4.76,-6.67 a 2.79,2.82 10 0 0 -0.61,-0.88 l -4.03,-3.92 q 3.59,2.07 6.06,5.24 0.53,0.69 0.29,1.33 a 0.59,0.59 0 0 0 0.3,0.75 q 1.41,0.63 2.42,2.48 a 1.47,1.42 88 0 0 0.62,0.6 q 0.32,0.16 0.43,0.37 a 0.0509902,0.0509902 0 0 0 0.1,-0.02 v -0.29 a 0.08,0.08 0 0 1 0.14,-0.05 z"
     id="path204" />
  <path
     fill="#bcbcbf"
     fill-opacity="0.694"
     d="m 220.74244,138.69676 q -1.49,-0.12 -2.51,-1.34 a 0.24,0.22 67.1 0 0 -0.2,-0.09 q -0.14,0 -0.35,0.18 a 0.05,0.19 32 0 1 0.08,-0.26 q 0.1,-0.11 0.1,-0.3 a 0.15,0.13 14.9 0 0 -0.08,-0.12 l -2.6,-1.21 a 1.06,1.07 88.2 0 1 -0.5,-0.47 l -3.85,-7.25 q 0.94,0.58 2.81,1.26 0.77,0.27 1.51,1.21 a 0.16,0.16 0 0 1 -0.2,0.24 q -0.54,-0.26 -1.04,-1.05 a 0.56,0.49 26.4 0 0 -1,0.26 q 0.1,0.42 0.79,0.79 2.99,1.6 4.1,4.21 0.41,0.97 1.02,1.47 1.2,0.99 1.92,2.47 z"
     id="path205" />
  <path
     fill="#010101"
     fill-opacity="0.992"
     d="m 127.16244,130.88676 q -0.64,-0.27 -0.51,-1.53 z"
     id="path206" />
  <path
     fill="#010101"
     fill-opacity="0.992"
     d="m 86.432443,135.20676 -0.3,0.66 q 0.05,-0.44 0.3,-0.66 z"
     id="path207" />
  <path
     fill="#010101"
     fill-opacity="0.992"
     d="m 85.382443,137.19676 -0.25,0.67 q 0.06,-0.38 0.25,-0.67 z"
     id="path208" />
  <path
     fill="#010101"
     fill-opacity="0.992"
     d="m 127.94244,139.70676 -0.04,3.66 z"
     id="path209" />
  <path
     fill="#010101"
     fill-opacity="0.992"
     d="m 70.132443,139.96676 q -0.23,0.4 -0.56,0.65 0.2,-0.43 0.56,-0.65 z"
     id="path210" />
  <path
     fill="#010101"
     fill-opacity="0.992"
     d="m 83.242443,141.18676 q 0.02,0.37 -0.1,0.68 z"
     id="path211" />
  <ellipse
     fill="#010101"
     fill-opacity="0.992"
     cx="-5.5841451"
     cy="169.06851"
     transform="rotate(-34)"
     rx="0.46000001"
     ry="0.23"
     id="ellipse211" />
  <ellipse
     fill="#010101"
     fill-opacity="0.992"
     cx="-16.992689"
     cy="168.38286"
     transform="rotate(-37.4)"
     rx="0.87"
     ry="0.41"
     id="ellipse212" />
  <path
     fill="#010101"
     fill-opacity="0.992"
     d="m 184.56244,144.12676 q -0.25,-0.23 -0.41,-0.52 0.31,0.21 0.41,0.52 z"
     id="path212" />
  <path
     fill="#010101"
     fill-opacity="0.992"
     d="m 210.55244,144.00676 q 0.04,-0.18 0.33,-0.23 a 0.13,0.13 0 0 1 0.14,0.2 q -0.07,0.11 -0.32,0.18 a 0.12,0.12 0 0 1 -0.15,-0.15 z"
     id="path213" />
  <path
     fill="#010101"
     fill-opacity="0.992"
     d="m 65.942443,144.44676 -2.01,1.98 q 0.4,-1.44 2.01,-1.98 z"
     id="path214" />
  <path
     fill="#bcbcbf"
     fill-opacity="0.694"
     d="m 185.89244,146.18676 q -0.04,0.09 -0.08,0.18 -0.14,-0.28 -0.17,-0.6 0.16,0.19 0.25,0.42 z"
     id="path215" />
  <path
     fill="#010101"
     fill-opacity="0.992"
     d="m 186.30244,147.11676 q -0.31,-0.32 -0.49,-0.75 0.04,-0.09 0.08,-0.18 0.32,0.41 0.41,0.93 z"
     id="path216" />
  <path
     fill="#010101"
     fill-opacity="0.992"
     d="m 35.052443,146.37676 q -0.06,0.61 -0.46,0.74 0.08,-0.49 0.46,-0.74 z"
     id="path217" />
  <path
     fill="#010101"
     fill-opacity="0.992"
     d="m 34.592443,147.11676 q -0.45,1.92 -1.81,3.04 0.58,-1.79 1.81,-3.04 z"
     id="path218" />
  <path
     fill="#010101"
     fill-opacity="0.992"
     d="m 127.73244,147.44676 -0.03,0.92 z"
     id="path219" />
  <ellipse
     fill="#010101"
     fill-opacity="0.992"
     cx="-57.836964"
     cy="160.81247"
     transform="rotate(-49.1)"
     rx="1.01"
     ry="0.51999998"
     id="ellipse219" />
  <path
     fill="#bcbcbf"
     fill-opacity="0.694"
     d="m 244.65244,149.23676 q -0.37,-0.3 -0.49,-0.65 1.09,0.23 0.49,0.65 z"
     id="path220" />
  <path
     fill="#010101"
     fill-opacity="0.992"
     d="m 127.73244,151.44676 -0.03,-1.76 z"
     id="path221" />
  <path
     fill="#bcbcbf"
     fill-opacity="0.694"
     d="m 141.23244,149.59676 q 0.32,0.87 0.08,1.88 -0.68,-0.75 -0.08,-1.88 z"
     id="path222" />
  <path
     fill="#bcbcbf"
     fill-opacity="0.694"
     d="m 188.16244,150.35676 q -0.04,0.13 -0.07,0.26 -0.65,0.49 -0.45,-1.01 0.34,0.32 0.52,0.75 z"
     id="path223" />
  <path
     fill="#010101"
     fill-opacity="0.992"
     d="m 176.32244,150.27676 -0.01,0.51 q -0.19,0.04 -0.29,-0.01 a 0.1,0.1 0 0 1 -0.02,-0.16 z"
     id="path224" />
  <path
     fill="#010101"
     fill-opacity="0.992"
     d="m 189.08244,152.27676 q -0.15,0.09 -0.3,0.18 l -0.69,-1.84 q 0.03,-0.13 0.07,-0.26 z"
     id="path225" />
  <path
     fill="#010101"
     fill-opacity="0.992"
     d="m 177.32244,151.44676 q 0.19,0.17 0.28,0.43 -0.47,0.11 -0.6,-0.12 a 0.13,0.13 0 0 1 0,-0.12 q 0.07,-0.14 0.32,-0.19 z"
     id="path226" />
  <path
     fill="#010101"
     fill-opacity="0.992"
     d="m 230.36244,152.17676 -0.7,-0.45 q 0.34,-0.26 0.7,0.45 z"
     id="path227" />
  <path
     fill="#010101"
     fill-opacity="0.992"
     d="m 141.29244,151.94676 -0.02,0.67 q -0.08,-0.35 0.02,-0.67 z"
     id="path228" />
  <path
     fill="#bcbcbf"
     fill-opacity="0.694"
     d="m 177.81244,152.61676 q -0.21,-0.32 -0.21,-0.74 0.33,0.31 0.21,0.74 z"
     id="path229" />
  <path
     fill="#bcbcbf"
     fill-opacity="0.694"
     d="m 178.63244,153.44676 q -0.33,-0.2 -0.52,-0.5 -0.15,-0.31 -0.11,-0.53 0.05,-0.37 0.39,-0.19 0.41,0.2 0.24,1.22 z"
     id="path230" />
  <path
     fill="#bcbcbf"
     fill-opacity="0.694"
     d="m 189.08244,152.27676 1.17,2.81 a 1.34,1.31 13.3 0 0 0.21,0.33 q 1.81,2.12 1.7,5.3 0.86,1.73 0.75,3.11 l -1.71,-6.2 a 0.56,0.52 48.7 0 0 -1.02,-0.1 q -0.02,0.06 0.15,0.4 a 0.07,0.09 8.6 0 1 -0.11,0.11 q -0.12,-0.21 -0.09,-0.43 0.04,-0.23 0,-0.38 -0.63,-2.39 -1.35,-4.77 0.15,-0.09 0.3,-0.18 z"
     id="path231" />
  <path
     fill="#010101"
     fill-opacity="0.992"
     d="m 130.42244,172.85676 q -0.19,0.13 -0.4,0 a 0.46,0.43 8.2 0 1 -0.2,-0.25 c -1.38,-3.82 -1.59,-7.77 -1.34,-11.99 a 4.26,4.3 40.9 0 0 -0.07,-1.05 q -0.64,-3.44 -0.54,-6.87 l 1.15,6.14 a 0.7,0.68 43.9 0 1 0.01,0.26 l -0.17,1.42 a 2.49,2.54 45.6 0 0 -0.01,0.5 l 0.47,7.75 a 0.4,0.34 40.3 0 0 0.02,0.12 z"
     id="path232" />
  <path
     fill="#bcbcbf"
     fill-opacity="0.694"
     d="m 179.06244,154.85676 q -0.59,-0.43 -0.41,-1.24 0.4,0.54 0.41,1.24 z"
     id="path233" />
  <path
     fill="#010101"
     fill-opacity="0.992"
     d="m 232.37244,154.95676 q -0.44,-0.08 -0.48,-0.6 0.37,0.18 0.48,0.6 z"
     id="path234" />
  <path
     fill="#bcbcbf"
     fill-opacity="0.694"
     d="m 179.38244,155.44676 q 0.17,0.18 0.18,0.45 -0.6,0.12 -0.59,-0.25 0.01,-0.16 0.41,-0.2 z"
     id="path235" />
  <path
     fill="#bcbcbf"
     fill-opacity="0.694"
     d="m 179.67244,159.15676 q -0.04,-1.01 -0.55,-1.32 -0.43,-0.27 -0.18,-0.3 0.21,-0.03 0.29,-0.1 a 0.36,0.36 0 0 0 -0.04,-0.57 q -0.09,-0.05 -0.25,-0.11 a 0.07,0.07 0 0 1 -0.02,-0.12 l 0.81,-0.56 q 0.42,1.64 -0.06,3.08 z"
     id="path236" />
  <path
     fill="#bcbcbf"
     fill-opacity="0.694"
     d="m 249.63244,157.35676 q -0.44,-0.23 -0.65,-0.95 0.65,0.05 0.65,0.95 z"
     id="path237" />
  <path
     fill="#bcbcbf"
     fill-opacity="0.694"
     d="m 250.00244,157.97676 q -0.28,-0.28 -0.37,-0.62 0.36,0.27 0.37,0.62 z"
     id="path238" />
  <path
     fill="#010101"
     fill-opacity="0.992"
     d="m 194.47244,167.65676 q -1.08,-1.59 -1.56,-3.83 0.11,-1.38 -0.75,-3.11 l 0.18,-1.46 a 0.27,0.27 0 0 1 0.46,-0.15 c 0.08,0.08 0.44,0.66 0.44,0.73 a 0.08077747,0.08077747 0 0 1 -0.15,0.06 q -0.1,-0.12 -0.16,-0.15 a 0.14,0.14 0 0 0 -0.21,0.15 z"
     id="path239" />
  <path
     fill="#bcbcbf"
     fill-opacity="0.694"
     d="m 179.90244,160.59676 q -0.24,-0.18 -0.17,-0.73 0.15,0.34 0.17,0.73 z"
     id="path240" />
  <path
     fill="#010101"
     fill-opacity="0.992"
     d="m 141.22244,160.69676 -0.03,1.18 z"
     id="path241" />
  <path
     fill="#bcbcbf"
     fill-opacity="0.694"
     d="m 236.31244,162.11676 -0.38,-0.49 q 0.39,0.05 0.38,0.49 z"
     id="path242" />
  <path
     fill="#bcbcbf"
     fill-opacity="0.694"
     d="m 237.62244,164.44676 q -0.67,-0.4 -0.56,-1.23 0.59,0.39 0.56,1.23 z"
     id="path243" />
  <path
     fill="#010101"
     fill-opacity="0.992"
     d="m 194.74244,168.20676 q -0.28,-0.32 -0.27,-0.55 0.26,0.15 0.27,0.55 z"
     id="path244" />
  <path
     fill="#010101"
     fill-opacity="0.992"
     d="m 141.58244,170.62676 q -0.2,-0.71 -0.08,-1.52 z"
     id="path245" />
  <path
     fill="#010101"
     fill-opacity="0.992"
     d="m 72.722443,170.62676 q -0.09,-0.3 0.02,-0.49 a 0.35,0.41 53.8 0 1 0.73,0.06 q 0.04,0.44 -0.45,0.6 a 0.24,0.23 74.1 0 1 -0.3,-0.17 z"
     id="path246" />
  <path
     fill="#010101"
     fill-opacity="0.992"
     d="m 196.61244,173.12676 q -1.17,-1.57 -0.96,-3.1 z"
     id="path247" />
  <path
     fill="#010101"
     fill-opacity="0.992"
     d="m 131.36244,173.87676 q -0.61,-0.1 -0.8,-0.76 0.62,0.19 0.8,0.76 z"
     id="path248" />
  <path
     fill="#010101"
     fill-opacity="0.992"
     d="m 186.36244,174.43676 -0.56,-0.98 q 0.54,0.18 0.56,0.98 z"
     id="path249" />
  <path
     fill="#010101"
     fill-opacity="0.992"
     d="m 196.85244,174.11676 q -0.2,-0.29 -0.2,-0.68 0.16,0.31 0.2,0.68 z"
     id="path250" />
  <path
     fill="#bcbcbf"
     fill-opacity="0.694"
     d="m 257.35244,174.40676 q -0.27,-0.41 -0.24,-0.97 0.27,0.37 0.24,0.97 z"
     id="path251" />
  <path
     fill="#010101"
     fill-opacity="0.992"
     d="m 197.06244,174.86676 q -0.17,-0.35 -0.21,-0.75 0.19,0.34 0.21,0.75 z"
     id="path252" />
  <path
     fill="#010101"
     fill-opacity="0.992"
     d="m 133.58244,175.01676 q -1.08,-0.08 -1.44,-0.64 0.96,0.13 1.44,0.64 z"
     id="path253" />
  <path
     fill="#010101"
     fill-opacity="0.992"
     d="m 187.77244,177.21676 q -0.97,-1.05 -1.37,-2.61 1.22,0.97 1.37,2.61 z"
     id="path254" />
  <path
     fill="#010101"
     fill-opacity="0.992"
     d="m 257.08244,177.90676 q 0.49,-1.65 0.36,-3.31 0.16,0.86 0.58,1.5 a 0.91,0.92 42.1 0 1 0.04,0.91 q -0.29,0.56 -0.98,0.9 z"
     id="path255" />
  <path
     fill="#bcbcbf"
     fill-opacity="0.694"
     d="m 64.752443,175.69676 -0.59,1.18 q -0.08,-1.11 0.59,-1.18 z"
     id="path256" />
  <path
     fill="#bcbcbf"
     fill-opacity="0.694"
     d="m 135.46244,176.03676 q -0.39,0.12 -0.61,-0.33 z"
     id="path257" />
  <path
     fill="#010101"
     fill-opacity="0.992"
     d="m 7.3224433,177.53676 q -1.1,-0.03 -2.25,0.34 0.45,-1.11 2.25,-0.34 z"
     id="path258" />
  <path
     fill="#bcbcbf"
     fill-opacity="0.694"
     d="m 64.052443,177.19676 q -0.05,0.41 -0.25,0.75 l -0.42,0.31 q -0.11,-0.07 -0.22,-0.13 0.17,-0.62 0.89,-0.93 z"
     id="path259" />
  <path
     fill="#bcbcbf"
     fill-opacity="0.694"
     d="m 8.5924433,177.91676 q -0.55,-0.03 -0.95,-0.29 0.67,-0.08 0.95,0.29 z"
     id="path260" />
  <path
     fill="#010101"
     fill-opacity="0.992"
     d="m 9.9124433,177.70676 q -0.91,0.81 -1.32,0.21 z"
     id="path261" />
  <path
     fill="#010101"
     fill-opacity="0.992"
     d="m 188.59244,178.39676 q -0.42,-0.44 -0.47,-0.72 0.34,0.21 0.47,0.72 z"
     id="path262" />
  <path
     fill="#010101"
     fill-opacity="0.992"
     d="m 63.802443,177.94676 q -0.11,0.64 -0.42,0.31 z"
     id="path263" />
  <path
     fill="#010101"
     fill-opacity="0.992"
     d="m 257.08244,177.90676 q -0.08,0.27 -0.43,0.51 0.04,-0.37 0.43,-0.51 z"
     id="path264" />
  <path
     fill="#010101"
     fill-opacity="0.992"
     d="m 4.7724433,178.19676 q 0.06,0.71 -0.36,0.91 z"
     id="path265" />
  <path
     fill="#010101"
     fill-opacity="0.992"
     d="m 197.31244,178.19676 q -0.05,0.39 -0.23,0.71 0.05,-0.39 0.23,-0.71 z"
     id="path266" />
  <path
     fill="#010101"
     fill-opacity="0.992"
     d="m 197.08244,178.90676 q -0.26,0.35 -0.69,0.14 z"
     id="path267" />
  <path
     fill="#bcbcbf"
     fill-opacity="0.694"
     d="m 194.82244,179.20676 q -0.49,0.29 -0.7,-0.19 0.25,0.2 0.7,0.19 z"
     id="path268" />
  <ellipse
     fill="#010101"
     fill-opacity="0.992"
     cx="-100.96889"
     cy="150.92929"
     transform="rotate(-38.6)"
     rx="1.05"
     ry="0.63"
     id="ellipse268" />
  <path
     fill="#010101"
     fill-opacity="0.992"
     d="m 247.60244,180.88676 q -1.35,0.13 -1.45,-0.77 z"
     id="path269" />
  <path
     fill="#010101"
     fill-opacity="0.992"
     d="m 253.72244,180.15676 q -0.12,0.21 -0.58,0.2 z"
     id="path270" />
  <path
     fill="#010101"
     fill-opacity="0.992"
     d="m 251.14244,181.02676 q -1.23,1.08 -3.01,0.67 -0.3,-0.07 -0.4,-0.29 -0.11,-0.23 -0.13,-0.52 1.87,0.44 3.54,0.14 z"
     id="path271" />
  <ellipse
     fill="#010101"
     fill-opacity="0.992"
     cx="20.551275"
     cy="317.93988"
     transform="rotate(-50.5)"
     rx="0.94999999"
     ry="0.37"
     id="ellipse271" />
  <ellipse
     fill="#010101"
     fill-opacity="0.992"
     cx="-291.42026"
     cy="92.32785"
     transform="rotate(-124.8)"
     rx="0.87"
     ry="0.46000001"
     id="ellipse272" />
  <ellipse
     fill="#010101"
     fill-opacity="0.992"
     cx="21.866169"
     cy="197.21648"
     transform="rotate(-13.7)"
     rx="0.28"
     ry="0.19"
     id="ellipse273" />
  <path
     fill="#010101"
     fill-opacity="0.992"
     d="m 198.79244,186.21676 q 0.61,-0.33 1.38,-0.07 a 0.3,0.3 0 0 1 -0.1,0.58 h -1.15 a 0.27,0.27 0 0 1 -0.13,-0.51 z"
     id="path273" />
  <rect
     fill="#010101"
     fill-opacity="0.992"
     x="-0.92953646"
     y="191.72227"
     transform="rotate(-0.8)"
     width="8.5600004"
     height="0.77999997"
     rx="0.25999999"
     id="rect273" />
  <ellipse
     fill="#010101"
     fill-opacity="0.992"
     cx="-254.11057"
     cy="-186.81604"
     transform="rotate(-178.8)"
     rx="1.29"
     ry="0.2"
     id="ellipse274" />
</svg>
