<?xml version="1.0" encoding="UTF-8" standalone="no"?>
<svg
   version="1.1"
   viewBox="0 0 279.73431 195.64687"
   id="svg298"
   sodipodi:docname="desc-bulletpoint-1.svg"
   width="279.73431"
   height="195.64687"
   inkscape:version="1.4.2 (f4327f4, 2025-05-13)"
   xmlns:inkscape="http://www.inkscape.org/namespaces/inkscape"
   xmlns:sodipodi="http://sodipodi.sourceforge.net/DTD/sodipodi-0.dtd"
   xmlns="http://www.w3.org/2000/svg"
   xmlns:svg="http://www.w3.org/2000/svg">
  <defs
     id="defs298" />
  <sodipodi:namedview
     id="namedview298"
     pagecolor="#ffffff"
     bordercolor="#000000"
     borderopacity="0.25"
     inkscape:showpageshadow="2"
     inkscape:pageopacity="0.0"
     inkscape:pagecheckerboard="0"
     inkscape:deskcolor="#d1d1d1"
     inkscape:zoom="2.234104"
     inkscape:cx="133.163"
     inkscape:cy="55.279431"
     inkscape:window-width="1920"
     inkscape:window-height="991"
     inkscape:window-x="2551"
     inkscape:window-y="-4"
     inkscape:window-maximized="1"
     inkscape:current-layer="svg298" />
  <g
     stroke-width="2"
     fill="none"
     stroke-linecap="butt"
     id="g143"
     transform="translate(-18.430735,-82.130077)">
    <path
       stroke="#8a8a8b"
       stroke-opacity="0.984"
       vector-effect="non-scaling-stroke"
       d="m 159.53,83.05 q 0.61,0.26 1.43,0.21"
       id="path1" />
    <path
       stroke="#8a8a8b"
       stroke-opacity="0.984"
       vector-effect="non-scaling-stroke"
       d="m 161.79,83.6 q 0.37,0.05 0.64,0.21"
       id="path2" />
    <path
       stroke="#f9f9fa"
       stroke-opacity="0.651"
       vector-effect="non-scaling-stroke"
       d="m 169.09,93.46 q 0.07,0.42 0.35,0.78"
       id="path3" />
    <path
       stroke="#f9f9fa"
       stroke-opacity="0.651"
       vector-effect="non-scaling-stroke"
       d="m 171.13,97.69 0.24,0.77"
       id="path4" />
    <path
       stroke="#efeef2"
       stroke-opacity="0.808"
       vector-effect="non-scaling-stroke"
       d="m 171.37,98.46 0.05,0.26 a 0.54,0.53 -12.4 0 0 0.67,0.42 q 0.77,-0.2 1.63,-0.12"
       id="path5" />
    <path
       stroke="#8a8a8b"
       stroke-opacity="0.984"
       vector-effect="non-scaling-stroke"
       d="m 175.52,99.99 0.45,0.47"
       id="path6" />
    <path
       stroke="#8a8a8b"
       stroke-opacity="0.984"
       vector-effect="non-scaling-stroke"
       d="m 199.48,138.25 q -0.19,0.36 -0.2,0.77"
       id="path7" />
    <path
       stroke="#8a8a8b"
       stroke-opacity="0.984"
       vector-effect="non-scaling-stroke"
       d="m 199.28,139.02 q -1.18,2.45 1.19,4.77"
       id="path8" />
    <path
       stroke="#8a8a8b"
       stroke-opacity="0.984"
       vector-effect="non-scaling-stroke"
       d="m 200.47,143.79 0.48,1.09"
       id="path9" />
    <path
       stroke="#f9f9fa"
       stroke-opacity="0.651"
       vector-effect="non-scaling-stroke"
       d="m 200.95,144.88 q 0.48,0.3 0.89,0.86"
       id="path10" />
    <path
       stroke="#8a8a8b"
       stroke-opacity="0.984"
       vector-effect="non-scaling-stroke"
       d="m 201.84,145.74 q 0.84,0.36 1.44,1.14 0.47,0.62 1.14,0.37"
       id="path11" />
    <path
       stroke="#f9f9fa"
       stroke-opacity="0.651"
       vector-effect="non-scaling-stroke"
       d="m 205.29,148.05 q 0.22,0.72 0.51,0.66"
       id="path12" />
    <path
       stroke="#8a8a8b"
       stroke-opacity="0.984"
       vector-effect="non-scaling-stroke"
       d="m 209.02,151.98 0.44,0.55"
       id="path13" />
    <path
       stroke="#8a8a8b"
       stroke-opacity="0.984"
       vector-effect="non-scaling-stroke"
       d="m 209.79,152.96 0.67,0.75"
       id="path14" />
    <path
       stroke="#8a8a8b"
       stroke-opacity="0.984"
       vector-effect="non-scaling-stroke"
       d="m 210.77,153.95 q 0.56,1.13 1.51,2.02"
       id="path15" />
    <path
       stroke="#8a8a8b"
       stroke-opacity="0.984"
       vector-effect="non-scaling-stroke"
       d="m 270.77,227.12 0.44,0.4"
       id="path16" />
    <path
       stroke="#8a8a8b"
       stroke-opacity="0.984"
       vector-effect="non-scaling-stroke"
       d="m 271.79,228 0.42,0.46"
       id="path17" />
    <path
       stroke="#8a8a8b"
       stroke-opacity="0.984"
       vector-effect="non-scaling-stroke"
       d="m 273.75,229.86 q 0.25,0.62 0.78,0.8"
       id="path18" />
    <path
       stroke="#8a8a8b"
       stroke-opacity="0.984"
       vector-effect="non-scaling-stroke"
       d="m 291.48,247.83 q 0.89,1.72 2.51,2.67"
       id="path19" />
    <path
       stroke="#8a8a8b"
       stroke-opacity="0.984"
       vector-effect="non-scaling-stroke"
       d="m 293.99,250.5 1.27,2.71"
       id="path20" />
    <path
       stroke="#8a8a8b"
       stroke-opacity="0.984"
       vector-effect="non-scaling-stroke"
       d="m 295.26,253.21 q 0.11,0.67 0.44,1.26"
       id="path21" />
    <path
       stroke="#8a8a8b"
       stroke-opacity="0.984"
       vector-effect="non-scaling-stroke"
       d="m 296.05,255.34 q -0.03,0.36 0.14,0.69"
       id="path22" />
    <path
       stroke="#8a8a8b"
       stroke-opacity="0.984"
       vector-effect="non-scaling-stroke"
       d="m 297.05,258.79 0.12,1.2"
       id="path23" />
    <path
       stroke="#8a8a8b"
       stroke-opacity="0.984"
       vector-effect="non-scaling-stroke"
       d="m 297.14,261.54 -0.05,0.67"
       id="path24" />
    <path
       stroke="#8a8a8b"
       stroke-opacity="0.984"
       vector-effect="non-scaling-stroke"
       d="m 294.54,264.35 q -0.8,0.03 -1.46,-0.17"
       id="path25" />
    <path
       stroke="#efeef2"
       stroke-opacity="0.808"
       vector-effect="non-scaling-stroke"
       d="m 293.08,264.18 q -0.79,-0.9 -2.31,-0.68"
       id="path26" />
    <path
       stroke="#efeef2"
       stroke-opacity="0.808"
       vector-effect="non-scaling-stroke"
       d="m 290.55,263.38 q -0.44,-0.76 -0.82,-0.35"
       id="path27" />
    <path
       stroke="#8a8a8b"
       stroke-opacity="0.984"
       vector-effect="non-scaling-stroke"
       d="m 289.05,262.68 -0.68,-0.29"
       id="path28" />
    <path
       stroke="#8a8a8b"
       stroke-opacity="0.984"
       vector-effect="non-scaling-stroke"
       d="m 288.37,262.39 q -3.12,-1.59 -5.15,-4.02"
       id="path29" />
    <path
       stroke="#efeef2"
       stroke-opacity="0.808"
       vector-effect="non-scaling-stroke"
       d="m 283.22,258.37 q -0.05,-0.45 -0.67,-0.41"
       id="path30" />
    <path
       stroke="#8a8a8b"
       stroke-opacity="0.984"
       vector-effect="non-scaling-stroke"
       d="m 282.29,257.52 q -0.85,-1.68 -2.51,-2.6"
       id="path31" />
    <path
       stroke="#8a8a8b"
       stroke-opacity="0.984"
       vector-effect="non-scaling-stroke"
       d="m 173,129.18 q -0.14,-0.76 -0.68,-1.47"
       id="path32" />
    <path
       stroke="#efeef2"
       stroke-opacity="0.808"
       vector-effect="non-scaling-stroke"
       d="m 102.35,172.43 q -0.67,0.29 -0.61,1.06"
       id="path33" />
    <path
       stroke="#8a8a8b"
       stroke-opacity="0.984"
       vector-effect="non-scaling-stroke"
       d="m 25.85,264.63 q -0.47,-0.07 -0.8,0.04"
       id="path34" />
    <path
       stroke="#8a8a8b"
       stroke-opacity="0.984"
       vector-effect="non-scaling-stroke"
       d="m 22.63,265.3 q -1.63,0.48 -3.14,0.24"
       id="path35" />
    <path
       stroke="#8a8a8b"
       stroke-opacity="0.984"
       vector-effect="non-scaling-stroke"
       d="m 34.04,234.52 q 0.43,-0.48 0.37,-0.83"
       id="path36" />
    <path
       stroke="#8a8a8b"
       stroke-opacity="0.984"
       vector-effect="non-scaling-stroke"
       d="M 34.41,233.69 40.35,229"
       id="path37" />
    <path
       stroke="#8a8a8b"
       stroke-opacity="0.984"
       vector-effect="non-scaling-stroke"
       d="m 40.96,228.71 q 0.64,-0.04 1.09,-0.46"
       id="path38" />
    <path
       stroke="#8a8a8b"
       stroke-opacity="0.984"
       vector-effect="non-scaling-stroke"
       d="m 42.05,228.25 q 0.72,-0.01 0.87,-0.5"
       id="path39" />
    <path
       stroke="#8a8a8b"
       stroke-opacity="0.984"
       vector-effect="non-scaling-stroke"
       d="m 42.92,227.75 c 2.53,-0.86 4.95,-4.69 6.37,-7.18"
       id="path40" />
    <path
       stroke="#f9f9fa"
       stroke-opacity="0.651"
       vector-effect="non-scaling-stroke"
       d="m 52.65,215.84 q 0.19,-0.47 0.7,-0.96"
       id="path41" />
    <path
       stroke="#efeef2"
       stroke-opacity="0.808"
       vector-effect="non-scaling-stroke"
       d="m 53.35,214.88 q 3.92,-3.27 6.1,-8.01 a 0.47,0.47 0 0 1 0.3,-0.26 q 0.91,-0.31 0.58,-1.64 -0.13,-0.51 0.13,-0.72 a 0.06,0.06 0 0 1 0.09,0.07 q -0.09,0.16 -0.09,0.22 a 0.33,0.33 0 0 0 0.51,0.33 q 0.13,-0.08 0.24,-0.48 a 0.28,0.28 0 0 1 0.49,-0.1 q 0.38,0.47 0.33,0.47 a 0.25,0.25 0 0 1 -0.19,-0.42 l 5.54,-6.03 a 2.96,2.9 -80.8 0 1 0.88,-0.65 q 1.22,-0.59 2.08,-1.86 a 0.1,0.1 0 0 0 -0.08,-0.16 h -0.27 a 0.24,0.24 0 0 1 -0.17,-0.42 q 1.37,-1.29 1.81,-2.39 a 0.21,0.18 4.7 0 1 0.14,-0.1 q 0.29,-0.06 0.39,0.12 a 0.1,0.1 0 0 0 0.17,0 l 1.56,-2.4 a 1.63,1.46 -3.2 0 1 0.44,-0.44 q 1.73,-1.18 2.29,-2.67 a 3.77,3.65 -15.2 0 1 0.66,-1.11 q 3.75,-4.24 5.6,-7.24 0.19,-0.3 -0.07,-0.69 a 0.37,0.37 0 0 1 0.26,-0.58 q 0.58,-0.08 0.68,0.08 a 0.35,0.35 0 0 0 0.58,0.02 l 1.37,-1.87 a 0.27,0.27 0 0 0 -0.02,-0.34 q -0.23,-0.26 0.31,-0.38 a 0.74,0.72 -75.3 0 0 0.43,-0.26 l 1.71,-2.09 a 0.4,0.4 0 0 1 0.28,-0.14 q 0.22,0 0.14,0.22 -0.12,0.35 0.15,0 0.75,-0.98 0.77,-1.72 a 0.13,0.13 0 0 1 0.13,-0.12 h 0.34 A 0.07,0.06 -75.1 0 0 90,171.08 q 1.41,-3.54 1.12,-4.01 a 0.05,0.05 0 0 1 0.04,-0.08 h 0.56 a 0.07,0.06 -75.1 0 0 0.06,-0.04 q 0.07,-0.19 -0.02,-0.37 a 0.16,0.15 -25.7 0 1 0.08,-0.21 q 0.8,-0.35 1.21,-1.64 a 1.7,1.6 -15.3 0 1 0.41,-0.67 q 1.31,-1.27 2.26,-3.16"
       id="path42" />
    <path
       stroke="#f9f9fa"
       stroke-opacity="0.651"
       vector-effect="non-scaling-stroke"
       d="m 95.72,160.9 5.61,-10.34"
       id="path43" />
    <path
       stroke="#efeef2"
       stroke-opacity="0.808"
       vector-effect="non-scaling-stroke"
       d="m 101.33,150.56 q 0.37,0.91 2.08,-1.1 0.1,-0.12 0.15,-0.26 a 0.13,0.12 -9.5 0 0 -0.2,-0.14 q -0.39,0.32 -0.45,0.34 a 0.16,0.16 0 0 1 -0.12,-0.29 q 1.04,-0.72 1.28,-1.25 2.44,-5.37 5.49,-10.38"
       id="path44" />
    <path
       stroke="#f9f9fa"
       stroke-opacity="0.651"
       vector-effect="non-scaling-stroke"
       d="m 109.56,137.48 q 2.29,-1.54 3.56,-4.08"
       id="path45" />
    <path
       stroke="#8a8a8b"
       stroke-opacity="0.984"
       vector-effect="non-scaling-stroke"
       d="m 113.7,132.95 q 0.73,-0.62 1.11,-1.41"
       id="path46" />
    <path
       stroke="#8a8a8b"
       stroke-opacity="0.984"
       vector-effect="non-scaling-stroke"
       d="m 116.22,129.96 q 0.66,-0.1 0.54,-0.65"
       id="path47" />
    <path
       stroke="#8a8a8b"
       stroke-opacity="0.984"
       vector-effect="non-scaling-stroke"
       d="m 116.76,129.31 3.55,-2.29"
       id="path48" />
    <path
       stroke="#efeef2"
       stroke-opacity="0.808"
       vector-effect="non-scaling-stroke"
       d="m 121,126.45 q 0.76,-0.29 0.95,-0.92"
       id="path49" />
    <path
       stroke="#8a8a8b"
       stroke-opacity="0.984"
       vector-effect="non-scaling-stroke"
       d="m 122.13,124.98 q 0.41,-0.12 0.37,-0.67"
       id="path50" />
    <path
       stroke="#8a8a8b"
       stroke-opacity="0.984"
       vector-effect="non-scaling-stroke"
       d="m 122.5,124.31 q 0.84,0.17 0.72,-0.86"
       id="path51" />
    <path
       stroke="#8a8a8b"
       stroke-opacity="0.984"
       vector-effect="non-scaling-stroke"
       d="M 127.05,118.96 127.26,118"
       id="path52" />
    <path
       stroke="#efeef2"
       stroke-opacity="0.808"
       vector-effect="non-scaling-stroke"
       d="m 127.26,118 0.21,-0.73"
       id="path53" />
    <path
       stroke="#8a8a8b"
       stroke-opacity="0.984"
       vector-effect="non-scaling-stroke"
       d="m 141.29,91.71 0.34,-0.25"
       id="path54" />
    <path
       stroke="#efeef2"
       stroke-opacity="0.808"
       vector-effect="non-scaling-stroke"
       d="m 141.63,91.46 q -0.64,3.13 -0.36,6.16 a 0.25,0.25 0 0 0 0.49,-0.02 l 0.11,-6.63"
       id="path55" />
    <path
       stroke="#8a8a8b"
       stroke-opacity="0.984"
       vector-effect="non-scaling-stroke"
       d="m 142.63,89.75 q 0.23,-0.12 0.45,-0.45"
       id="path56" />
    <path
       stroke="#8a8a8b"
       stroke-opacity="0.984"
       vector-effect="non-scaling-stroke"
       d="m 158.23,127.29 -2.66,-0.04"
       id="path57" />
    <path
       stroke="#8a8a8b"
       stroke-opacity="0.984"
       vector-effect="non-scaling-stroke"
       d="m 244.29,240.09 q 0.12,0.36 0.42,0.62"
       id="path58" />
    <path
       stroke="#8a8a8b"
       stroke-opacity="0.984"
       vector-effect="non-scaling-stroke"
       d="m 244.87,240.96 q 0.11,0.29 0.34,0.5"
       id="path59" />
    <path
       stroke="#8a8a8b"
       stroke-opacity="0.984"
       vector-effect="non-scaling-stroke"
       d="m 245.79,242.01 q 0.21,0.81 1.1,1.41"
       id="path60" />
    <path
       stroke="#efeef2"
       stroke-opacity="0.808"
       vector-effect="non-scaling-stroke"
       d="m 246.89,243.42 q -0.03,0.56 0.42,0.47"
       id="path61" />
    <path
       stroke="#8a8a8b"
       stroke-opacity="0.984"
       vector-effect="non-scaling-stroke"
       d="m 247.31,243.89 q 0.09,0.96 0.78,1.35 a 0.84,0.82 -84.6 0 1 0.39,0.48 q 0.48,1.4 1.76,2.28"
       id="path62" />
    <path
       stroke="#efeef2"
       stroke-opacity="0.808"
       vector-effect="non-scaling-stroke"
       d="m 259.51,260.54 q -0.29,0.21 0.01,0.64"
       id="path63" />
    <path
       stroke="#efeef2"
       stroke-opacity="0.808"
       vector-effect="non-scaling-stroke"
       d="m 257.53,262.88 q -2.29,-0.77 -3.09,0.23"
       id="path64" />
    <path
       stroke="#8a8a8b"
       stroke-opacity="0.984"
       vector-effect="non-scaling-stroke"
       d="m 249.23,267.05 q -0.41,-0.06 -0.77,0.07"
       id="path65" />
    <path
       stroke="#8a8a8b"
       stroke-opacity="0.984"
       vector-effect="non-scaling-stroke"
       d="m 245.96,266.88 q -0.39,-0.23 -0.63,-0.06"
       id="path66" />
    <path
       stroke="#efeef2"
       stroke-opacity="0.808"
       vector-effect="non-scaling-stroke"
       d="m 232.72,254.5 q 1.9,1.74 -0.46,-2.15 a 1.71,1.68 25.9 0 1 -0.19,-0.53 l -0.23,-1.38 a 0.27,0.27 0 0 0 -0.51,-0.07 q -0.11,0.23 -0.21,0.47 0,-0.02 -0.02,-2.04 a 0.14,0.14 0 0 0 -0.16,-0.14 q -0.85,0.12 -1.05,-0.23 a 0.84,0.56 67.3 0 0 -0.66,-0.44 q -0.38,0.03 -0.79,0.25"
       id="path67" />
    <path
       stroke="#8a8a8b"
       stroke-opacity="0.984"
       vector-effect="non-scaling-stroke"
       d="m 228.44,248.24 q -0.04,-0.69 -0.89,-0.54"
       id="path68" />
    <path
       stroke="#8a8a8b"
       stroke-opacity="0.984"
       vector-effect="non-scaling-stroke"
       d="m 226.21,246.88 q 0.03,-0.39 -0.2,-0.58"
       id="path69" />
    <path
       stroke="#8a8a8b"
       stroke-opacity="0.984"
       vector-effect="non-scaling-stroke"
       d="m 223.99,243.13 q -0.17,-0.38 -0.48,-0.61"
       id="path70" />
    <path
       stroke="#8a8a8b"
       stroke-opacity="0.984"
       vector-effect="non-scaling-stroke"
       d="m 223.21,242.21 q -0.16,-0.31 -0.45,-0.49"
       id="path71" />
    <path
       stroke="#8a8a8b"
       stroke-opacity="0.984"
       vector-effect="non-scaling-stroke"
       d="M 212.76,228.55 Q 212.67,228 212.27,227.7"
       id="path72" />
    <path
       stroke="#8a8a8b"
       stroke-opacity="0.984"
       vector-effect="non-scaling-stroke"
       d="m 209.19,223.31 q -0.08,-0.54 -0.65,-0.85"
       id="path73" />
    <path
       stroke="#8a8a8b"
       stroke-opacity="0.984"
       vector-effect="non-scaling-stroke"
       d="m 208.21,222.13 c 0.5,-0.22 -0.13,-1.03 -0.71,-0.63"
       id="path74" />
    <path
       stroke="#efeef2"
       stroke-opacity="0.808"
       vector-effect="non-scaling-stroke"
       d="m 207.5,221.5 q -0.36,-0.98 -0.97,-0.81"
       id="path75" />
    <path
       stroke="#8a8a8b"
       stroke-opacity="0.984"
       vector-effect="non-scaling-stroke"
       d="m 205.29,219.45 q -0.04,-0.72 -0.77,-0.98"
       id="path76" />
    <path
       stroke="#8a8a8b"
       stroke-opacity="0.984"
       vector-effect="non-scaling-stroke"
       d="m 204.52,218.47 q 0.06,-1.41 -0.77,-1.52"
       id="path77" />
    <path
       stroke="#8a8a8b"
       stroke-opacity="0.984"
       vector-effect="non-scaling-stroke"
       d="m 202.7,214.59 q 0.26,-2 -0.39,-3.48"
       id="path78" />
    <path
       stroke="#8a8a8b"
       stroke-opacity="0.984"
       vector-effect="non-scaling-stroke"
       d="m 202.21,211.04 q 0.08,-0.51 -0.16,-0.68"
       id="path79" />
    <path
       stroke="#8a8a8b"
       stroke-opacity="0.984"
       vector-effect="non-scaling-stroke"
       d="m 201.53,209.49 -4.63,-2.97"
       id="path80" />
    <path
       stroke="#8a8a8b"
       stroke-opacity="0.984"
       vector-effect="non-scaling-stroke"
       d="m 196.46,206.22 q -0.37,-0.53 -0.94,-0.78"
       id="path81" />
    <path
       stroke="#8a8a8b"
       stroke-opacity="0.984"
       vector-effect="non-scaling-stroke"
       d="m 193.72,204.23 q -0.15,-0.35 -0.47,-0.49"
       id="path82" />
    <path
       stroke="#8a8a8b"
       stroke-opacity="0.984"
       vector-effect="non-scaling-stroke"
       d="m 155.7,146.92 -2.49,-0.05"
       id="path83" />
    <path
       stroke="#8a8a8b"
       stroke-opacity="0.984"
       vector-effect="non-scaling-stroke"
       d="m 48.33,268.63 -1.3,-0.14"
       id="path84" />
    <path
       stroke="#8a8a8b"
       stroke-opacity="0.984"
       vector-effect="non-scaling-stroke"
       d="m 47.03,268.49 q -0.34,-0.27 -0.74,-0.38"
       id="path85" />
    <path
       stroke="#8a8a8b"
       stroke-opacity="0.984"
       vector-effect="non-scaling-stroke"
       d="m 64.02,234.23 q 0.32,-0.42 0.49,-0.95"
       id="path86" />
    <path
       stroke="#8a8a8b"
       stroke-opacity="0.984"
       vector-effect="non-scaling-stroke"
       d="m 68.52,228 0.58,-0.69"
       id="path87" />
    <path
       stroke="#efeef2"
       stroke-opacity="0.808"
       vector-effect="non-scaling-stroke"
       d="m 93.66,198.89 q 1.27,0.48 1.81,-0.3"
       id="path88" />
    <path
       stroke="#efeef2"
       stroke-opacity="0.808"
       vector-effect="non-scaling-stroke"
       d="m 97.19,197.52 q 1.53,-2.69 4.55,-3.05 0.15,-0.02 0.13,-0.22 a 0.12,0.11 76.1 0 0 -0.16,-0.1 q -0.82,0.37 -0.92,-0.37 -0.03,-0.2 -0.31,-0.04 -0.34,0.21 -0.34,0.3 a 0.06184658,0.06184658 0 0 1 -0.12,0.03 q -0.16,-0.36 -0.05,-0.52 0.9,-1.29 1.69,-1.49 a 0.28,0.28 0 0 1 0.34,0.37 q -0.09,0.25 -0.09,0.28 a 0.46,0.32 -48.5 0 0 0.76,-0.18 q 0.35,-1.39 1.11,-1.91 a 0.51,0.5 60.5 0 0 0.17,-0.64 q -0.31,-0.62 0.35,-1.03 c 0.57,-0.34 0.75,-0.92 0.61,-1.54"
       id="path89" />
    <path
       stroke="#efeef2"
       stroke-opacity="0.808"
       vector-effect="non-scaling-stroke"
       d="m 104.91,187.41 q 0.7,-0.09 0.58,-0.65"
       id="path90" />
    <path
       stroke="#8a8a8b"
       stroke-opacity="0.984"
       vector-effect="non-scaling-stroke"
       d="m 106.02,186.23 q 0.81,-0.75 1.22,-1.78"
       id="path91" />
    <path
       stroke="#8a8a8b"
       stroke-opacity="0.984"
       vector-effect="non-scaling-stroke"
       d="m 107.35,184.29 q 0.51,-0.03 0.61,-0.58"
       id="path92" />
    <path
       stroke="#8a8a8b"
       stroke-opacity="0.984"
       vector-effect="non-scaling-stroke"
       d="m 108.46,183.03 q 0.42,-0.1 0.57,-0.51"
       id="path93" />
    <path
       stroke="#8a8a8b"
       stroke-opacity="0.984"
       vector-effect="non-scaling-stroke"
       d="m 109.52,181.97 q 0.41,-0.17 0.46,-0.49"
       id="path94" />
    <path
       stroke="#8a8a8b"
       stroke-opacity="0.984"
       vector-effect="non-scaling-stroke"
       d="m 119.33,170.5 q 0.39,-0.35 0.81,-0.39"
       id="path95" />
    <path
       stroke="#efeef2"
       stroke-opacity="0.808"
       vector-effect="non-scaling-stroke"
       d="m 127.6,158.3 q 0.18,-0.4 0.11,-0.84"
       id="path96" />
    <path
       stroke="#8a8a8b"
       stroke-opacity="0.984"
       vector-effect="non-scaling-stroke"
       d="m 128.04,156.54 q 0.22,-0.45 0.25,-1.02"
       id="path97" />
    <path
       stroke="#8a8a8b"
       stroke-opacity="0.984"
       vector-effect="non-scaling-stroke"
       d="m 152.84,128.63 q 0.73,-0.69 1.73,-1.1"
       id="path98" />
    <path
       stroke="#8a8a8b"
       stroke-opacity="0.984"
       vector-effect="non-scaling-stroke"
       d="m 153.75,169.02 0.64,0.33"
       id="path99" />
    <path
       stroke="#8a8a8b"
       stroke-opacity="0.984"
       vector-effect="non-scaling-stroke"
       d="m 196.83,232.77 q -0.02,0.39 0.38,0.71"
       id="path100" />
    <path
       stroke="#8a8a8b"
       stroke-opacity="0.984"
       vector-effect="non-scaling-stroke"
       d="m 198.53,235.74 0.39,0.8"
       id="path101" />
    <path
       stroke="#f9f9fa"
       stroke-opacity="0.651"
       vector-effect="non-scaling-stroke"
       d="m 200.47,261.68 q -0.94,0.12 -0.41,-1.48"
       id="path102" />
    <path
       stroke="#8a8a8b"
       stroke-opacity="0.984"
       vector-effect="non-scaling-stroke"
       d="m 200.06,260.2 0.49,-0.08 a 0.58,0.57 80.6 0 0 0.46,-0.65 l -0.08,-0.64"
       id="path103" />
    <path
       stroke="#8a8a8b"
       stroke-opacity="0.984"
       vector-effect="non-scaling-stroke"
       d="m 198.49,256.73 q -0.4,-0.73 -1.46,-1.25"
       id="path104" />
    <path
       stroke="#f9f9fa"
       stroke-opacity="0.651"
       vector-effect="non-scaling-stroke"
       d="m 195.24,254.19 q -0.38,-0.86 -1.7,-0.94"
       id="path105" />
    <path
       stroke="#efeef2"
       stroke-opacity="0.808"
       vector-effect="non-scaling-stroke"
       d="m 192.73,253.04 q -0.31,-0.34 -0.93,-0.3"
       id="path106" />
    <path
       stroke="#8a8a8b"
       stroke-opacity="0.984"
       vector-effect="non-scaling-stroke"
       d="m 184.2,247.05 q -0.04,-0.39 -0.46,-0.62"
       id="path107" />
    <path
       stroke="#8a8a8b"
       stroke-opacity="0.984"
       vector-effect="non-scaling-stroke"
       d="m 181.71,243.94 q -0.07,-0.41 -0.44,-0.67"
       id="path108" />
    <path
       stroke="#efeef2"
       stroke-opacity="0.808"
       vector-effect="non-scaling-stroke"
       d="m 180.04,241.66 q -0.14,-0.32 -0.49,-0.46"
       id="path109" />
    <path
       stroke="#8a8a8b"
       stroke-opacity="0.984"
       vector-effect="non-scaling-stroke"
       d="m 167.71,220.89 q 0.82,0.09 1.23,-0.18"
       id="path110" />
    <path
       stroke="#8a8a8b"
       stroke-opacity="0.984"
       vector-effect="non-scaling-stroke"
       d="m 168.94,220.71 q 0.84,0.48 2.09,0.08"
       id="path111" />
    <path
       stroke="#efeef2"
       stroke-opacity="0.808"
       vector-effect="non-scaling-stroke"
       d="m 171.03,220.79 c -0.02,0.54 0.44,0.55 0.76,0.33"
       id="path112" />
    <path
       stroke="#f9f9fa"
       stroke-opacity="0.651"
       vector-effect="non-scaling-stroke"
       d="m 171.79,221.12 q 0.09,-0.1 0.13,-0.22 0.04,-0.12 -0.03,-0.24 -0.15,-0.22 -0.38,-0.07"
       id="path113" />
    <path
       stroke="#f9f9fa"
       stroke-opacity="0.651"
       vector-effect="non-scaling-stroke"
       d="m 172.74,219.12 0.3,-0.16"
       id="path114" />
    <path
       stroke="#efeef2"
       stroke-opacity="0.808"
       vector-effect="non-scaling-stroke"
       d="m 173.04,218.96 q 0.3,-0.36 0.22,-0.93"
       id="path115" />
    <path
       stroke="#f9f9fa"
       stroke-opacity="0.651"
       vector-effect="non-scaling-stroke"
       d="m 173.26,218.03 0.56,-1.82"
       id="path116" />
    <path
       stroke="#8a8a8b"
       stroke-opacity="0.984"
       vector-effect="non-scaling-stroke"
       d="m 173.82,216.21 q 0.17,-0.24 -0.11,-0.48"
       id="path117" />
    <path
       stroke="#f9f9fa"
       stroke-opacity="0.651"
       vector-effect="non-scaling-stroke"
       d="m 173.71,215.73 q 0.08,-0.12 0.16,-0.23"
       id="path118" />
    <path
       stroke="#8a8a8b"
       stroke-opacity="0.984"
       vector-effect="non-scaling-stroke"
       d="m 173.87,215.5 q -0.06,-0.92 -1.13,-1.96"
       id="path119" />
    <path
       stroke="#8a8a8b"
       stroke-opacity="0.984"
       vector-effect="non-scaling-stroke"
       d="m 172.74,213.54 -2.25,-1.19"
       id="path120" />
    <path
       stroke="#8a8a8b"
       stroke-opacity="0.984"
       vector-effect="non-scaling-stroke"
       d="m 170.08,212.27 q -0.84,-0.74 -2.11,-0.83"
       id="path121" />
    <path
       stroke="#8a8a8b"
       stroke-opacity="0.984"
       vector-effect="non-scaling-stroke"
       d="m 165.97,210.88 -3.67,-0.86"
       id="path122" />
    <path
       stroke="#8a8a8b"
       stroke-opacity="0.984"
       vector-effect="non-scaling-stroke"
       d="m 159.73,207.49 q -0.29,-0.79 -1.27,-1.03"
       id="path123" />
    <path
       stroke="#8a8a8b"
       stroke-opacity="0.984"
       vector-effect="non-scaling-stroke"
       d="m 158.25,206.08 q 0.2,-1.11 -0.01,-2.1"
       id="path124" />
    <path
       stroke="#8a8a8b"
       stroke-opacity="0.984"
       vector-effect="non-scaling-stroke"
       d="m 158.24,203.98 q 0.34,-0.18 0.57,-0.65"
       id="path125" />
    <path
       stroke="#8a8a8b"
       stroke-opacity="0.984"
       vector-effect="non-scaling-stroke"
       d="m 164.93,199.42 q 0.29,-0.09 0.55,-0.38"
       id="path126" />
    <path
       stroke="#8a8a8b"
       stroke-opacity="0.984"
       vector-effect="non-scaling-stroke"
       d="m 165.98,198.78 q 0.82,-0.14 1.32,-0.9 a 0.36,0.36 0 0 0 -0.51,-0.49 q -0.18,0.12 -0.18,0.45 a 0.01,0.01 0 0 1 -0.02,0 q -0.04,-0.15 -0.09,-0.3 -0.46,-1.26 -1.77,-1.01"
       id="path127" />
    <path
       stroke="#8a8a8b"
       stroke-opacity="0.984"
       vector-effect="non-scaling-stroke"
       d="m 81.76,266.05 q -2.27,0.5 -4.04,-1.26"
       id="path128" />
    <path
       stroke="#8a8a8b"
       stroke-opacity="0.984"
       vector-effect="non-scaling-stroke"
       d="m 106.02,228.97 1.2,-1.01"
       id="path129" />
    <path
       stroke="#8a8a8b"
       stroke-opacity="0.984"
       vector-effect="non-scaling-stroke"
       d="m 145.5,221.43 -1.2,0.01"
       id="path130" />
    <path
       stroke="#8a8a8b"
       stroke-opacity="0.984"
       vector-effect="non-scaling-stroke"
       d="m 160.69,235.03 q 0.44,0.25 0.77,0.69"
       id="path131" />
    <path
       stroke="#8a8a8b"
       stroke-opacity="0.984"
       vector-effect="non-scaling-stroke"
       d="m 162.04,236.33 q 0.1,0.37 0.42,0.63"
       id="path132" />
    <path
       stroke="#8a8a8b"
       stroke-opacity="0.984"
       vector-effect="non-scaling-stroke"
       d="m 164.29,239.73 q 0.17,0.62 0.69,1.04"
       id="path133" />
    <path
       stroke="#8a8a8b"
       stroke-opacity="0.984"
       vector-effect="non-scaling-stroke"
       d="m 164.98,240.77 q 0.13,0.56 0.56,0.73"
       id="path134" />
    <path
       stroke="#8a8a8b"
       stroke-opacity="0.984"
       vector-effect="non-scaling-stroke"
       d="m 173.29,258.54 0.17,0.67"
       id="path135" />
    <path
       stroke="#8a8a8b"
       stroke-opacity="0.984"
       vector-effect="non-scaling-stroke"
       d="m 174.3,263.46 0.26,1.75"
       id="path136" />
    <path
       stroke="#8a8a8b"
       stroke-opacity="0.984"
       vector-effect="non-scaling-stroke"
       d="m 174.55,265.46 q -0.32,0.45 -0.76,0.75"
       id="path137" />
    <path
       stroke="#8a8a8b"
       stroke-opacity="0.984"
       vector-effect="non-scaling-stroke"
       d="m 173.53,266.49 -2,-0.16"
       id="path138" />
    <path
       stroke="#8a8a8b"
       stroke-opacity="0.984"
       vector-effect="non-scaling-stroke"
       d="m 150.5,247.27 -0.2,-0.78"
       id="path139" />
    <path
       stroke="#8a8a8b"
       stroke-opacity="0.984"
       vector-effect="non-scaling-stroke"
       d="m 150.3,246.49 q 0.14,-0.67 -0.51,-1.07"
       id="path140" />
    <path
       stroke="#8a8a8b"
       stroke-opacity="0.984"
       vector-effect="non-scaling-stroke"
       d="m 122.27,265.58 -1.48,0.1"
       id="path141" />
    <path
       stroke="#8a8a8b"
       stroke-opacity="0.984"
       vector-effect="non-scaling-stroke"
       d="m 120.46,265.8 q -1.14,-0.16 -2,0.33"
       id="path142" />
    <path
       stroke="#efeef2"
       stroke-opacity="0.808"
       vector-effect="non-scaling-stroke"
       d="m 148.26,97.95 q 0.95,0.82 1.56,0.69 a 1.5,1.49 10.7 0 0 0.9,-0.61 l 1.78,-2.61 a 2.28,2.27 -51.1 0 0 -0.31,-2.93 q -1.5,-1.43 -4.05,-2.39 a 1.53,1.52 -80.8 0 0 -2.06,1.49 q 0.09,2.36 -0.18,3.56 -0.15,0.68 1.51,2.47 0.29,0.31 0.34,0.3 0.42,-0.04 0.51,0.03"
       id="path143" />
  </g>
  <path
     fill="#ffffff"
     d="m 141.09926,0.91992352 q 0.61,0.26000008 1.43,0.21000008 l 0.83,0.34 q 0.37,0.05 0.64,0.21 c 4.51,2.13 4.84,5.84 6.66,9.6499994 q 0.07,0.42 0.35,0.78 l 1.69,3.45 0.24,0.77 0.05,0.26 a 0.53,0.54 77.6 0 0 0.67,0.42 q 0.77,-0.2 1.63,-0.12 0.83,-0.24 1.8,0.97 l 0.45,0.47 c 2.6,2.42 3.48,5.98 5.13,7.99 3.55,4.31 5.14,9.05 7.45,12.98 q 1.64,2.8 4.96,5.69 c 3.8,3.31 5.84,6.29 5.97,11.13 q -0.19,0.36 -0.2,0.77 -1.18,2.45 1.19,4.77 l 0.48,1.09 q 0.48,0.3 0.89,0.86 0.84,0.36 1.44,1.14 0.47,0.62 1.14,0.37 0.21,0.58 0.87,0.8 0.22,0.72 0.51,0.66 l 3.22,3.27 0.44,0.55 0.33,0.43 0.67,0.75 0.31,0.24 q 0.56,1.13 1.51,2.02 l 3.95,6.53 a 1.78,2.03 3.7 0 0 0.2,0.26 q 6.34,6.69 11.33,13.47 1.52,2.07 5.95,4.88 a 5.08,5.18 85.4 0 1 1.09,0.91 q 4.82,5.299997 6.63,8.309997 c 3.64,6.04 5.23,9.44 7.69,11.77 a 1.61,1.4 59.9 0 1 0.15,0.17 l 12.87,18.43 a 1.88,1.73 88.4 0 0 0.43,0.44 l 8.2,5.98 0.44,0.4 0.58,0.48 0.42,0.46 1.54,1.4 q 0.25,0.62 0.78,0.8 3.3,4.16 7.83,6.78 a 0.85,0.54 5.8 0 1 0.14,0.11 l 6.87,7 a 0.55,0.19 70.7 0 1 0.08,0.1 l 2.03,3.18 q 0.89,1.72 2.51,2.67 l 1.27,2.71 q 0.11,0.67 0.44,1.26 0.09,0.48 0.35,0.87 -0.03,0.36 0.14,0.69 l 0.86,2.76 0.12,1.2 -0.03,1.55 -0.05,0.67 q -0.43,2.02 -2.55,2.14 -0.8,0.03 -1.46,-0.17 -0.79,-0.9 -2.31,-0.68 -0.11,-0.06 -0.22,-0.12 -0.44,-0.76 -0.82,-0.35 l -0.68,-0.35 -0.68,-0.29 q -3.12,-1.59 -5.15,-4.02 -0.05,-0.45 -0.67,-0.41 -0.1,-0.31 -0.26,-0.44 -0.85,-1.68 -2.51,-2.6 -1.13,-1.03 -4.37,-2.82 -1.45,-0.8 -5.92,-4.78 a 3.7,3.75 8.5 0 1 -0.94,-1.29 q -2.53,-5.78 -8.76,-9.25 a 4.05,4.18 81 0 1 -0.74,-0.52 q -4.05,-3.57 -6.25,-6.55 -3.1,-4.2 -5.63,-6.78 c -4.22,-4.29 -6.71,-6.9 -9.67,-11 q -4.28,-5.92 -10.21,-11.56 a 7.79,7.73 6.4 0 1 -1.36,-1.69 q -2.35,-3.94 -7.7,-9.73 a 5.39,5.2 10.3 0 1 -0.72,-1 c -2.36,-4.27 -3.77,-7.179997 -6.9,-10.499997 q -5.8,-6.16 -8.71,-9.61 a 7.53,7.93 7.8 0 1 -0.82,-1.14 q -3.38,-5.68 -4.46,-6.82 -10.28,-10.86 -17.86,-20.64 -3.4,-4.38 -5.76,-10.06 -0.14,-0.76 -0.68,-1.47 -8.4,-10.8 -11.39,-24.11 a 1.37,1.37 0 0 0 -2.28,-0.7 l -3.88,3.65 a 2.1,2.2 81.3 0 0 -0.44,0.57 q -2.84,5.34 -5.98,8.93 a 6.66,7.46 78 0 0 -0.63,0.86 q -5.2,8.41 -8.9,11.93 -8.17,7.81 -10.73,10.75 -7.93,9.12 -16.559995,19.85 c -3.22,3.99 -6.13,8.62 -9.18,12.99 q -0.67,0.29 -0.61,1.06 l -3.05,4.08 q -0.04,0.05 -0.08,0.1 -7.01,7.019997 -8.46,9.239997 -4.81,7.35 -9.67,12.08 -5.13,4.98 -7.06,7.91 -7.83,11.89 -16.41,21.75 a 7.97,8.53 77.9 0 0 -0.97,1.39 q -3.98,7.11 -8.55,11.93 c -2.94,3.11 -5.05,6.84 -6.71,10.03 a 4.23,4.1 81 0 1 -0.64,0.91 q -1.72,1.85 -3.41,4.41 c -2.67,4.04 -6.1,6.64 -10.8800003,7.31 q -0.47,-0.07 -0.8,0.04 -1.48,0.13 -2.42,0.63 -1.63,0.48 -3.14,0.24 -1.46999999,-1.13 -0.89999999,-2.21 c 1.43999999,-2.71 2.90999999,-5.23 4.01999999,-8.19 q 4.22,-11.21 11.4300003,-20.62 0.43,-0.48 0.37,-0.83 l 5.94,-4.69 0.61,-0.29 q 0.64,-0.04 1.09,-0.46 0.72,-0.01 0.87,-0.5 c 2.53,-0.86 4.95,-4.69 6.37,-7.18 l 3.36,-4.73 q 0.19,-0.47 0.7,-0.96 3.92,-3.27 6.1,-8.01 a 0.47,0.47 0 0 1 0.3,-0.26 q 0.91,-0.31 0.58,-1.64 -0.13,-0.51 0.13,-0.72 a 0.06,0.06 0 0 1 0.09,0.07 q -0.09,0.16 -0.09,0.22 a 0.33,0.33 0 0 0 0.51,0.33 q 0.13,-0.08 0.24,-0.48 a 0.28,0.28 0 0 1 0.49,-0.1 q 0.38,0.47 0.33,0.47 a 0.25,0.25 0 0 1 -0.19,-0.42 l 5.54,-6.03 a 2.9,2.96 9.2 0 1 0.88,-0.65 q 1.22,-0.59 2.08,-1.86 a 0.1,0.1 0 0 0 -0.08,-0.16 h -0.27 a 0.24,0.24 0 0 1 -0.17,-0.42 q 1.37,-1.29 1.81,-2.39 a 0.21,0.18 4.7 0 1 0.14,-0.1 q 0.29,-0.06 0.39,0.12 a 0.1,0.1 0 0 0 0.17,0 l 1.56,-2.4 a 1.46,1.63 86.8 0 1 0.44,-0.44 q 1.73,-1.18 2.29,-2.67 a 3.65,3.77 74.8 0 1 0.66,-1.11 q 3.75,-4.239997 5.6,-7.239997 0.19,-0.3 -0.07,-0.69 a 0.37,0.37 0 0 1 0.26,-0.58 q 0.58,-0.08 0.68,0.08 a 0.35,0.35 0 0 0 0.58,0.02 l 1.37,-1.87 a 0.27,0.27 0 0 0 -0.02,-0.34 q -0.23,-0.26 0.31,-0.38 a 0.72,0.74 14.7 0 0 0.43,-0.26 l 1.71,-2.09 a 0.4,0.4 0 0 1 0.28,-0.14 q 0.22,0 0.14,0.22 -0.12,0.35 0.15,0 0.75,-0.98 0.77,-1.72 a 0.13,0.13 0 0 1 0.13,-0.12 h 0.34 a 0.06,0.07 14.9 0 0 0.06,-0.04 q 1.41,-3.54 1.12,-4.01 a 0.05,0.05 0 0 1 0.04,-0.08 h 0.56 a 0.06,0.07 14.9 0 0 0.06,-0.04 q 0.07,-0.19 -0.02,-0.37 a 0.15,0.16 64.3 0 1 0.08,-0.21 q 0.8,-0.35 1.21,-1.64 a 1.6,1.7 74.7 0 1 0.41,-0.67 q 1.31,-1.27 2.26,-3.16 l 5.61,-10.34 q 0.37,0.91 2.08,-1.1 0.1,-0.12 0.15,-0.26 a 0.12,0.13 80.5 0 0 -0.2,-0.14 q -0.39,0.32 -0.45,0.34 a 0.16,0.16 0 0 1 -0.12,-0.29 q 1.04,-0.72 1.28,-1.25 2.44,-5.37 5.49,-10.38 2.29,-1.54 3.56,-4.08 0.21,-0.08 0.58,-0.45 0.73,-0.62 1.11,-1.41 l 1.41,-1.58 q 0.66,-0.1 0.54,-0.65 l 3.549995,-2.29 0.69,-0.57 q 0.76,-0.29 0.95,-0.92 l 0.18,-0.55 q 0.41,-0.12 0.37,-0.67 0.84,0.17 0.72,-0.86 l 3.45,-3.34 a 0.67,0.64 70.3 0 0 0.2,-0.45 q 0.02,-0.36 0.18,-0.7 l 0.21,-0.96 0.21,-0.73 q 1.18,-3.2 5.08,-9.77 0.59,-0.99 1.91,-5.01 a 2.23,2.31 69.2 0 1 0.25,-0.53 l 6.58,-10.2499994 0.34,-0.25 q -0.64,3.1299994 -0.36,6.1599994 a 0.25,0.25 0 0 0 0.49,-0.02 l 0.11,-6.6299994 0.76,-1.22 q 0.23,-0.12 0.45,-0.45 1.11,-2.28 2.17,-2.79 6.74,-3.28 14.28,-3.46000008 z m -11.27,14.89999948 q 0.95,0.82 1.56,0.69 a 1.5,1.49 10.7 0 0 0.9,-0.61 l 1.78,-2.61 a 2.27,2.28 38.9 0 0 -0.31,-2.93 q -1.5,-1.4299994 -4.05,-2.3899994 a 1.52,1.53 9.2 0 0 -2.06,1.49 q 0.09,2.3599994 -0.18,3.5599994 -0.15,0.68 1.51,2.47 0.29,0.31 0.34,0.3 0.42,-0.04 0.51,0.03 z"
     id="path144" />
  <path
     fill="#111112"
     fill-opacity="0.965"
     d="m 142.52926,1.1299236 q -0.82,0.05 -1.43,-0.21000008 z"
     id="path145" />
  <path
     fill="#111112"
     fill-opacity="0.965"
     d="m 143.99926,1.6799236 q -0.27,-0.16 -0.64,-0.21 0.46,-0.01 0.64,0.21 z"
     id="path146" />
  <path
     fill="#111112"
     fill-opacity="0.965"
     d="m 124.64926,7.1699236 q -0.22,0.33 -0.45,0.45 0.11,-0.33 0.45,-0.45 z"
     id="path147" />
  <path
     fill="#d5d3de"
     fill-opacity="0.612"
     d="m 129.31926,15.789923 q -0.05,0.01 -0.34,-0.3 -1.66,-1.79 -1.51,-2.47 0.27,-1.2 0.18,-3.5599994 a 1.52,1.53 9.2 0 1 2.06,-1.49 q 2.55,0.96 4.05,2.3899994 a 2.27,2.28 38.9 0 1 0.31,2.93 l -1.78,2.61 a 1.5,1.49 10.7 0 1 -0.9,0.61 q -0.61,0.13 -1.56,-0.69 -0.09,-0.07 -0.51,-0.03 z"
     id="path148" />
  <path
     fill="#111112"
     fill-opacity="0.965"
     d="m 123.29926,8.9099236 -0.1,0.42 -0.34,0.25 q 0.08,-0.44 0.44,-0.67 z"
     id="path149" />
  <path
     fill="#d5d3de"
     fill-opacity="0.612"
     d="m 123.43926,8.8399236 -0.11,6.6299994 a 0.25,0.25 0 0 1 -0.49,0.02 q -0.28,-3.03 0.36,-6.1599994 l 0.1,-0.42 q 0.07,-0.04 0.14,-0.07 z"
     id="path150" />
  <path
     fill="#e5e5e8"
     fill-opacity="0.298"
     d="m 151.00926,12.109923 q -0.28,-0.36 -0.35,-0.78 0.22,-0.07 0.37,0.08 0.31,0.31 -0.02,0.7 z"
     id="path151" />
  <path
     fill="#e5e5e8"
     fill-opacity="0.298"
     d="m 153.45926,16.419923 q -0.21,0.23 -0.52,-0.09 l -0.24,-0.77 q 0.69,-0.59 0.76,0.86 z"
     id="path152" />
  <path
     fill="#d5d3de"
     fill-opacity="0.612"
     d="m 155.28926,16.889923 q -0.86,-0.08 -1.63,0.12 a 0.53,0.54 77.6 0 1 -0.67,-0.42 l -0.05,-0.26 q 0.31,0.32 0.52,0.09 0,-0.31 0.19,-0.46 0.19,-0.15 0.37,-0.02 0.23,0.15 0.23,0.42 a 0.12,0.12 0 0 0 0.21,0.09 q 0.19,-0.2 0.2,-0.22 0.04,-0.05 0.2,0.05 0.29,0.17 0.43,0.61 z"
     id="path153" />
  <path
     fill="#111112"
     fill-opacity="0.965"
     d="m 157.53926,18.329923 -0.45,-0.47 q 0.33,0.08 0.45,0.47 z"
     id="path154" />
  <path
     fill="#d5d3de"
     fill-opacity="0.612"
     d="m 109.03926,35.139923 -0.21,0.73 q 0.02,-0.37 0.21,-0.73 z"
     id="path155" />
  <path
     fill="#111112"
     fill-opacity="0.965"
     d="m 108.82926,35.869923 -0.21,0.96 q -0.14,-0.6 0.21,-0.96 z"
     id="path156" />
  <path
     fill="#111112"
     fill-opacity="0.965"
     d="m 104.78926,41.319923 q 0.12,1.03 -0.72,0.86 0.12,-0.49 0.72,-0.86 z"
     id="path157" />
  <path
     fill="#111112"
     fill-opacity="0.965"
     d="m 104.06926,42.179923 q 0.04,0.55 -0.37,0.67 -0.1,-0.47 0.37,-0.67 z"
     id="path158" />
  <path
     fill="#d5d3de"
     fill-opacity="0.612"
     d="m 103.51926,43.399923 q -0.19,0.63 -0.95,0.92 -0.09,-0.53 0.95,-0.92 z"
     id="path159" />
  <path
     fill="#111112"
     fill-opacity="0.965"
     d="m 101.87926,44.889923 -3.549995,2.29 q 1.16,-1.94 3.549995,-2.29 z"
     id="path160" />
  <path
     fill="#111112"
     fill-opacity="0.965"
     d="m 139.79926,45.159923 -2.66,-0.04 q 1.34,-0.87 2.66,0.04 z"
     id="path161" />
  <path
     fill="#ffffff"
     d="m 139.79926,45.159923 1.13,0.82 a 9.87,9.61 88.6 0 1 1.94,1.9 q 5.9,7.67 11.12,12.76 4.31,4.19 7.84,9.17 1.52,2.14 10.65,13.66 c 3.17,4.01 5.8,9.53 8.77,13.63 q 3.61,4.999997 5.06,6.679997 a 1.44,1.23 13.9 0 1 0.2,0.28 l 7.46,12.68 a 1.11,1.25 14.9 0 1 0.13,0.26 q 1.12,2.71 3.25,6.82 1.03,1.98 8.8,11 a 9.81,9.89 10 0 1 1.15,1.66 q 3.51,6.4 9.27,10.4 a 1.6,1.2 79.6 0 1 0.26,0.24 l 9.03,10.84 q 0.12,0.36 0.42,0.62 0.08,0.12 0.16,0.25 0.11,0.29 0.34,0.5 l 0.58,0.55 q 0.21,0.81 1.1,1.41 -0.03,0.56 0.42,0.47 0.09,0.96 0.78,1.35 a 0.82,0.84 5.4 0 1 0.39,0.48 q 0.48,1.4 1.76,2.28 1.52,3.23 3.16,4.85 3.7,3.64 6.01,6.4 0.37,0.45 0.1,1.29 -0.29,0.21 0.01,0.64 -0.71,1.93 -1.99,1.7 -2.29,-0.77 -3.09,0.23 -1.52,0.83 -2.72,2.88 a 1.56,1.65 89.9 0 1 -0.65,0.62 q -0.93,0.48 -1.84,0.44 -0.41,-0.06 -0.77,0.07 l -2.5,-0.24 q -0.39,-0.23 -0.63,-0.06 -6.93,-4.47 -12.61,-12.32 1.9,1.74 -0.46,-2.15 a 1.71,1.68 25.9 0 1 -0.19,-0.53 l -0.23,-1.38 a 0.27,0.27 0 0 0 -0.51,-0.07 q -0.11,0.23 -0.21,0.47 0,-0.02 -0.02,-2.04 a 0.14,0.14 0 0 0 -0.16,-0.14 q -0.85,0.12 -1.05,-0.23 a 0.84,0.56 67.3 0 0 -0.66,-0.44 q -0.38,0.03 -0.79,0.25 -0.04,-0.69 -0.89,-0.54 -0.88,-0.23 -1.34,-0.82 0.03,-0.39 -0.2,-0.58 l -2.02,-3.17 q -0.17,-0.38 -0.48,-0.61 l -0.3,-0.31 q -0.16,-0.31 -0.45,-0.49 l -4.11,-6.36 a 0.85,0.54 84.2 0 0 -0.11,-0.14 c -2.12,-2.04 -4.71,-3.73 -5.78,-6.67 q -0.09,-0.55 -0.49,-0.85 -1.13,-2.45 -3.08,-4.39 -0.08,-0.54 -0.65,-0.85 l -0.33,-0.33 c 0.5,-0.22 -0.13,-1.03 -0.71,-0.63 q -0.36,-0.98 -0.97,-0.81 -0.43,-0.75 -1.24,-1.24 -0.04,-0.72 -0.77,-0.98 0.06,-1.41 -0.77,-1.52 l -1.05,-2.36 q 0.26,-2 -0.39,-3.48 -0.05,-0.03 -0.1,-0.07 0.08,-0.51 -0.16,-0.68 -0.39,-0.4 -0.52,-0.87 l -4.63,-2.97 -0.44,-0.3 q -0.37,-0.53 -0.94,-0.78 -0.73,-0.74 -1.8,-1.21 -0.15,-0.35 -0.47,-0.49 l -3.21,-4.89 a 3.23,3.41 18 0 1 -0.39,-0.82 q -0.95,-3.06 -4.12,-6.04 -3.06,-2.88 -5.94,-9.7 -0.62,-1.489997 -6.55,-8.989997 a 0.55,0.31 29 0 1 -0.05,-0.08 l -3.42,-6.77 a 5.64,5.48 12.2 0 0 -0.8,-1.2 q -2.36,-2.75 -3.93,-6.21 c -1.87,-4.13 -3.94,-6.65 -6.4,-10.5 q -0.92,-1.44 -2.74,-1.62 l -2.49,-0.05 c -4.03,0.39 -5.43,4.6 -7,8.32 a 6.58,6.58 0 0 1 -0.76,1.35 c -2.37,3.33 -7.11,11.39 -12.86,17.59 a 8.88,9.13 81.3 0 0 -1.06,1.4 q -3.5,5.7 -8.77,9.739997 a 2.58,2.53 89.4 0 0 -0.49,0.51 l -4.989995,6.89 a 6.28,6.25 86.5 0 1 -0.81,0.92 q -5.56,5.14 -8.01,10.78 a 3.98,3.92 77.2 0 1 -0.6,0.97 q -0.05,0.07 -2.74,2.96 c -1.99,2.13 -4.09,3.47 -5.39,5.72 q -0.73,1.25 -2.34,3.1 c -4.71,5.43 -7.61,8 -10.77,12.82 q -0.4,0.61 -4.84,5.47 a 23.19,23.49 82.2 0 0 -2.28,2.96 q -2.85,4.38 -4.18,5.7 -4.93,4.92 -6.98,7.44 a 3.42,3.55 2.3 0 1 -0.66,0.63 q -6.2,4.48 -11.14,10.89 -1.75,2.26 -8.21,5.6 l -1.3,-0.14 q -0.34,-0.27 -0.74,-0.38 -0.36,-0.14 -0.6,-0.49 a 0.81,0.8 24.7 0 1 -0.15,-0.4 q -0.47,-6.24 3.11,-11.33 8.84,-12.59 13.22,-18.49 1.14,-1.54 2.15,-3.17 0.32,-0.42 0.49,-0.95 l 4.01,-5.28 0.58,-0.69 3.47,-5.11 a 4.4,4.5 85 0 1 0.73,-0.85 q 2.99,-2.73 4.38,-6.16 a 3.68,3.69 79.2 0 1 0.88,-1.29 q 2.15,-2.06 3.19,-4.86 a 3.34,3.29 77.2 0 1 0.73,-1.18 c 4.27,-4.5 6.4,-7.31 11.18,-8.97 q 1.27,0.48 1.81,-0.3 l 1.72,-1.07 q 1.53,-2.69 4.55,-3.05 0.15,-0.02 0.13,-0.22 a 0.12,0.11 76.1 0 0 -0.16,-0.1 q -0.82,0.37 -0.92,-0.37 -0.03,-0.2 -0.31,-0.04 -0.34,0.21 -0.34,0.3 a 0.06184658,0.06184658 0 0 1 -0.12,0.03 q -0.16,-0.36 -0.05,-0.52 0.9,-1.29 1.69,-1.49 a 0.28,0.28 0 0 1 0.34,0.37 q -0.09,0.25 -0.09,0.28 a 0.32,0.46 41.5 0 0 0.76,-0.18 q 0.35,-1.39 1.11,-1.91 a 0.51,0.5 60.5 0 0 0.17,-0.64 q -0.31,-0.62 0.35,-1.03 c 0.57,-0.34 0.75,-0.92 0.61,-1.54 q 0.7,-0.09 0.58,-0.65 l 0.53,-0.53 q 0.81,-0.75 1.22,-1.78 0.05,-0.08 0.11,-0.16 0.51,-0.03 0.61,-0.58 l 0.5,-0.68 q 0.42,-0.1 0.57,-0.51 l 0.49,-0.549997 q 0.41,-0.17 0.46,-0.49 4.33,-3.68 6.98,-8.78 0.57,-1.09 2.369995,-2.2 0.39,-0.35 0.81,-0.39 2.72,-3.53 5.48,-7.26 1.52,-2.05 1.98,-4.55 0.18,-0.4 0.11,-0.84 l 0.33,-0.92 q 0.22,-0.45 0.25,-1.02 4.32,-7.58 7.2,-10.27 8.8,-8.24 17.35,-16.62 0.73,-0.69 1.73,-1.1 0.55,-0.07 1,-0.28 z"
     id="path162" />
  <path
     fill="#111112"
     fill-opacity="0.965"
     d="m 136.13926,45.399923 q -1,0.41 -1.73,1.1 -0.14,-1 1.73,-1.1 z"
     id="path163" />
  <path
     fill="#111112"
     fill-opacity="0.965"
     d="m 154.56926,47.049923 q -0.67,-0.64 -0.68,-1.47 0.54,0.71 0.68,1.47 z"
     id="path164" />
  <path
     fill="#111112"
     fill-opacity="0.965"
     d="m 98.329265,47.179923 q 0.12,0.55 -0.54,0.65 0.19,-0.43 0.54,-0.65 z"
     id="path165" />
  <path
     fill="#111112"
     fill-opacity="0.965"
     d="m 96.379265,49.409923 q -0.38,0.79 -1.11,1.41 0.19,-0.86 1.11,-1.41 z"
     id="path166" />
  <path
     fill="#e5e5e8"
     fill-opacity="0.298"
     d="m 94.689265,51.269923 q -1.27,2.54 -3.56,4.08 -1.21,0.36 -1.82,1.82 a 1.15,1.05 84.3 0 1 -0.32,0.43 q -0.81,0.67 -1.13,0.58 a 0.35,0.35 0 0 0 -0.42,0.46 q 0.07,0.2 -0.54,1.4 a 0.21,0.21 0 0 1 -0.32,0.07 q -0.09,-0.08 -0.1,-0.08 a 0.37,0.37 0 0 0 -0.31,0.51 q 0.09,0.23 0.1,0.4 a 0.78,0.77 76.1 0 1 -0.45,0.75 q -0.8,0.36 -0.9,-0.28 1.34,-2.36 3.22,-4.21 0.45,-0.44 0.46,-0.93 a 0.71,0.72 79.1 0 1 0.44,-0.64 q 1.44,-0.59 1.43,-1.51 a 0.96,0.94 81.7 0 1 0.68,-0.93 q 1.81,-0.52 3.54,-1.92 z"
     id="path167" />
  <path
     fill="#d5d3de"
     fill-opacity="0.612"
     d="m 91.129265,55.349923 q -3.05,5.01 -5.49,10.38 -0.24,0.53 -1.28,1.25 a 0.16,0.16 0 0 0 0.12,0.29 q 0.06,-0.02 0.45,-0.34 a 0.12,0.13 80.5 0 1 0.2,0.14 q -0.05,0.14 -0.15,0.26 -1.71,2.01 -2.08,1.1 l 1.31,-5.1 a 0.04,0.04 0 0 1 0.08,0 q 0.06,0.13 0.17,0.22 a 0.08,0.08 0 0 0 0.13,-0.04 q 0.34,-1.01 0.25,-1.91 -0.16,0.07 0.08,-0.19 0.1,0.64 0.9,0.28 a 0.78,0.77 76.1 0 0 0.45,-0.75 q -0.01,-0.17 -0.1,-0.4 a 0.37,0.37 0 0 1 0.31,-0.51 q 0.01,0 0.1,0.08 a 0.21,0.21 0 0 0 0.32,-0.07 q 0.61,-1.2 0.54,-1.4 a 0.35,0.35 0 0 1 0.42,-0.46 q 0.32,0.09 1.13,-0.58 a 1.15,1.05 84.3 0 0 0.32,-0.43 q 0.61,-1.46 1.82,-1.82 z"
     id="path168" />
  <path
     fill="#111112"
     fill-opacity="0.965"
     d="m 181.04926,56.119923 -0.2,0.77 q 0.01,-0.41 0.2,-0.77 z"
     id="path169" />
  <path
     fill="#111112"
     fill-opacity="0.965"
     d="m 180.84926,56.889923 q -0.48,1.42 0.32,2.22 a 1.32,0.42 86.8 0 1 0.3,0.79 q 0.09,0.49 0.86,0.88 l -0.29,0.88 q -2.37,-2.32 -1.19,-4.77 z"
     id="path170" />
  <path
     fill="#e5e5e8"
     fill-opacity="0.298"
     d="m 185.63926,64.969923 q -1.47,-1.59 -2.23,-1.36 -0.41,-0.56 -0.89,-0.86 0.36,-1.02 -0.48,-1.09 l 0.29,-0.88 q 0.87,0.08 1.35,0.57 0.35,0.37 0.12,0.71 a 0.37,0.37 0 0 1 -0.51,0.1 q -0.27,-0.18 -0.31,-0.16 a 0.12,0.12 0 0 0 -0.01,0.23 q 2.43,1.07 2.67,2.74 z"
     id="path171" />
  <path
     fill="#e5e5e8"
     fill-opacity="0.298"
     d="m 84.839265,61.599923 q 0.09,0.9 -0.25,1.91 a 0.08,0.08 0 0 1 -0.13,0.04 q -0.11,-0.09 -0.17,-0.22 a 0.04,0.04 0 0 0 -0.08,0 l -1.31,5.1 -5.61,10.34 -4.26,3.79 c 0.6,-8.9 5.4,-14.94 11.81,-20.96 z m -2.75,3.51 a 0.04,0.04 0 0 0 -0.04,-0.04 0.04,0.04 0 0 0 -0.04,0.04 0.04,0.04 0 0 0 0.04,0.04 0.04,0.04 0 0 0 0.04,-0.04 z m -4.76,6.89 -0.33,1.06 a 0.12,0.12 0 0 1 -0.22,0.02 q -0.08,-0.14 -0.3,-0.13 a 0.31,0.31 0 0 0 -0.26,0.17 q -1.19,2.35 -1.49,5.19 a 0.35,0.35 0 0 0 0.64,0.22 q 1.89,-2.84 2.3,-6.46 a 0.17356555,0.17356555 0 0 0 -0.34,-0.07 z"
     id="path172" />
  <path
     fill="#111112"
     fill-opacity="0.965"
     d="m 182.51926,62.749923 -0.48,-1.09 q 0.84,0.07 0.48,1.09 z"
     id="path173" />
  <path
     fill="#111112"
     fill-opacity="0.965"
     d="m 185.63926,64.969923 q 0.28,-0.04 0.35,0.15 -0.67,0.25 -1.14,-0.37 -0.6,-0.78 -1.44,-1.14 0.76,-0.23 2.23,1.36 z"
     id="path174" />
  <path
     fill="#111112"
     fill-opacity="0.965"
     d="m 137.26926,64.789923 -2.49,-0.05 z"
     id="path175" />
  <path
     fill="#e5e5e8"
     fill-opacity="0.298"
     d="m 187.36926,66.579923 q -0.29,0.06 -0.51,-0.66 0.34,0.16 0.51,0.66 z"
     id="path176" />
  <path
     fill="#111112"
     fill-opacity="0.965"
     d="m 191.02926,70.399923 -0.44,-0.55 q 0.37,0.1 0.44,0.55 z"
     id="path177" />
  <path
     fill="#111112"
     fill-opacity="0.965"
     d="m 192.02926,71.579923 -0.67,-0.75 0.52,0.15 a 0.26,0.26 0 0 1 0.14,0.11 q 0.12,0.19 0.01,0.49 z"
     id="path178" />
  <path
     fill="#111112"
     fill-opacity="0.965"
     d="m 193.84926,73.839923 q -0.95,-0.89 -1.51,-2.02 1.14,0.87 1.51,2.02 z"
     id="path179" />
  <path
     fill="#111112"
     fill-opacity="0.965"
     d="m 109.85926,73.389923 q -0.03,0.57 -0.25,1.02 -0.03,-0.57 0.25,-1.02 z"
     id="path180" />
  <path
     fill="#d5d3de"
     fill-opacity="0.612"
     d="m 109.27926,75.329923 q 0.07,0.44 -0.11,0.84 -0.11,-0.46 0.11,-0.84 z"
     id="path181" />
  <path
     fill="#111112"
     fill-opacity="0.965"
     d="m 103.00926,77.939923 q -0.14,-0.17 -0.12,-0.37 a 0.18,0.18 0 0 1 0.13,-0.14 q 0.24,-0.05 0.3,0.38 a 0.18,0.17 21.7 0 1 -0.31,0.13 z"
     id="path182" />
  <path
     fill="#d5d3de"
     fill-opacity="0.612"
     d="m 77.289265,78.769923 q -0.95,1.89 -2.26,3.16 a 1.6,1.7 74.7 0 0 -0.41,0.67 q -0.41,1.29 -1.21,1.64 a 0.15,0.16 64.3 0 0 -0.08,0.21 q 0.09,0.18 0.02,0.37 a 0.06,0.07 14.9 0 1 -0.06,0.04 h -0.56 a 0.05,0.05 0 0 0 -0.04,0.08 q 0.29,0.47 -1.12,4.01 a 0.06,0.07 14.9 0 1 -0.06,0.04 h -0.34 a 0.13,0.13 0 0 0 -0.13,0.12 q -0.02,0.74 -0.77,1.72 -0.27,0.35 -0.15,0 0.08,-0.22 -0.14,-0.22 a 0.4,0.4 0 0 0 -0.28,0.14 l -1.71,2.09 a 0.72,0.74 14.7 0 1 -0.43,0.26 q -0.54,0.12 -0.31,0.38 a 0.27,0.27 0 0 1 0.02,0.34 l -1.37,1.87 a 0.35,0.35 0 0 1 -0.58,-0.02 q -0.1,-0.16 -0.68,-0.08 a 0.37,0.37 0 0 0 -0.26,0.58 q 0.26,0.39 0.07,0.69 -1.85,3 -5.6,7.239997 a 3.65,3.77 74.8 0 0 -0.66,1.11 q -0.56,1.49 -2.29,2.67 a 1.46,1.63 86.8 0 0 -0.44,0.44 l -1.56,2.4 a 0.1,0.1 0 0 1 -0.17,0 q -0.1,-0.18 -0.39,-0.12 a 0.21,0.18 4.7 0 0 -0.14,0.1 q -0.44,1.1 -1.81,2.39 a 0.24,0.24 0 0 0 0.17,0.42 h 0.27 a 0.1,0.1 0 0 1 0.08,0.16 q -0.86,1.27 -2.08,1.86 a 2.9,2.96 9.2 0 0 -0.88,0.65 l -5.54,6.03 a 0.25,0.25 0 0 0 0.19,0.42 q 0.05,0 -0.33,-0.47 a 0.28,0.28 0 0 0 -0.49,0.1 q -0.11,0.4 -0.24,0.48 a 0.33,0.33 0 0 1 -0.51,-0.33 q 0,-0.06 0.09,-0.22 a 0.06,0.06 0 0 0 -0.09,-0.07 q -0.26,0.21 -0.13,0.72 0.33,1.33 -0.58,1.64 a 0.47,0.47 0 0 0 -0.3,0.26 q -2.18,4.74 -6.1,8.01 2.16,-5.16 0.91,-10.31 a 1.03,1.03 0 0 1 1.05,-1.27 q 1.71,0.09 2.81,-0.4 a 1.68,1.63 1.9 0 0 0.8,-0.73 q 2.12,-3.95 2.03,-7.67 a 0.79,0.8 76.7 0 1 0.47,-0.75 q 7.04,-3.08 13.37,-6.53 0.07,0.02 0.1,-0.03 a 0.07,0.07 0 0 0 -0.1,-0.09 l -3.03,1.37 a 0.01,0.01 0 0 1 -0.01,-0.01 l -0.13,-0.21 a 0.26,0.24 60.2 0 1 0.08,-0.33 q 1.69,-1.07 3.25,-1.37 a 1.65,1.61 15.4 0 0 0.92,-0.51 q 6.81,-7.549997 11.72,-16.349997 a 1.78,1.71 85.1 0 1 0.38,-0.47 q 0.61,-0.55 1.21,-1.58 a 0.1,0.1 0 0 0 -0.12,-0.14 l -0.02,0.01 a 0.43,0.44 71.3 0 1 -0.6,-0.29 q -0.18,-0.76 0.41,-1.01 1.37,0.37 2.61,-1.52 z"
     id="path183" />
  <path
     fill="#e5e5e8"
     fill-opacity="0.298"
     d="m 70.419265,84.079923 q -0.59,0.25 -0.41,1.01 a 0.43,0.44 71.3 0 0 0.6,0.29 l 0.02,-0.01 a 0.1,0.1 0 0 1 0.12,0.14 q -0.6,1.03 -1.21,1.58 a 1.78,1.71 85.1 0 0 -0.38,0.47 q -4.91,8.8 -11.72,16.349997 a 1.65,1.61 15.4 0 1 -0.92,0.51 q -1.56,0.3 -3.25,1.37 a 0.26,0.24 60.2 0 0 -0.08,0.33 l 0.13,0.21 a 0.01,0.01 0 0 0 0.01,0.01 l 3.03,-1.37 a 0.07,0.07 0 0 1 0.1,0.09 q -0.03,0.05 -0.1,0.03 -6.33,3.45 -13.37,6.53 a 0.79,0.8 76.7 0 0 -0.47,0.75 q 0.09,3.72 -2.03,7.67 a 1.68,1.63 1.9 0 1 -0.8,0.73 q -1.1,0.49 -2.81,0.4 a 1.03,1.03 0 0 0 -1.05,1.27 q 1.25,5.15 -0.91,10.31 -0.51,0.49 -0.7,0.96 l -1.1,-3.8 a 0.6,0.62 78.9 0 0 -0.66,-0.43 q -0.15,0.02 -0.27,0.03 a 1.05,1.07 72.5 0 1 -1.05,-0.54 q -0.7,-1.26 -0.41,-3.1 0.11,-0.74 0.56,-0.99 2.49,-1.43 3.58,-3.89 0.59,-1.34 2.05,-2.71 1.88,-1.77 1.9,-3.18 a 0.2,0.19 14 0 1 0.29,-0.17 q 0.34,0.19 0.69,-1.01 a 0.35,0.35 0 0 1 0.68,0 q 0.06,0.2 -0.03,0.56 a 0,0 0 0 0 0,0.01 q 0.01,-0.01 0.02,-0.01 c 0.28,-2.2 2.06,-3.69 4.02,-5.73 a 0.67,0.98 34.3 0 1 0.82,-0.32 q 0.17,0.04 0.38,-0.16 0.2,-0.19 0.24,-0.3 0.83,-2.16 2.29,-3.15 a 0.83,0.84 72.7 0 0 0.37,-0.69 v -2.83 a 0.47,0.47 0 0 1 0.17,-0.36 q 2.14,-1.719997 6.96,-3.119997 c 2.63,-0.77 3.3,-3.12 4,-6.19 1.28,-5.6 5.15,-6.92 10.7,-7.55 z m -36.53,45.719997 a 0.12,0.12 0 0 0 -0.12,-0.12 0.12,0.12 0 0 0 -0.12,0.12 0.12,0.12 0 0 0 0.12,0.12 0.12,0.12 0 0 0 0.12,-0.12 z"
     id="path184" />
  <path
     fill="#ffffff"
     d="m 135.31926,86.889923 0.64,0.33 q 6.65,5.11 9.83,8.94 c 2.07,2.49 4.59,7.129997 7.13,10.539997 q 4.67,6.28 7,12.94 a 8.57,8.73 15.8 0 0 1.38,2.52 q 5.81,7.29 9.22,16.26 1.58,4.15 7.88,12.22 -0.02,0.39 0.38,0.71 l 1.32,2.26 0.39,0.8 2.16,4.24 a 3.36,3.41 9.4 0 0 0.55,0.78 q 6.73,7.26 11.75,15.98 a 0.45,0.45 0 0 1 -0.28,0.66 l -12.63,3.48 q -0.94,0.12 -0.41,-1.48 l 0.49,-0.08 a 0.58,0.57 80.6 0 0 0.46,-0.65 l -0.08,-0.64 q -0.81,-1.44 -2.44,-2.1 -0.4,-0.73 -1.46,-1.25 l -1.79,-1.29 q -0.38,-0.86 -1.7,-0.94 l -0.81,-0.21 q -0.31,-0.34 -0.93,-0.3 -4.09,-1.34 -6.59,-4.74 -0.4,-0.55 -1.01,-0.95 -0.04,-0.39 -0.46,-0.62 l -2.03,-2.49 q -0.07,-0.41 -0.44,-0.67 l -1.23,-1.61 q -0.14,-0.32 -0.49,-0.46 c -1.52,-2.22 -3.47,-4.43 -4.69,-6.59 q -2.62,-4.67 -6.05,-9.63 -0.68,-0.98 -1.59,-3.6 a 0.33,0.33 0 0 1 0.02,-0.27 q 0.15,-0.31 0.47,-0.22 0.82,0.09 1.23,-0.18 0.84,0.48 2.09,0.08 c -0.02,0.54 0.44,0.55 0.76,0.33 q 0.09,-0.1 0.13,-0.22 0.04,-0.12 -0.03,-0.24 -0.15,-0.22 -0.38,-0.07 0.45,-1.31 1.23,-1.47 l 0.3,-0.16 q 0.3,-0.36 0.22,-0.93 l 0.56,-1.82 q 0.17,-0.24 -0.11,-0.48 0.08,-0.12 0.16,-0.23 -0.06,-0.92 -1.13,-1.96 l -2.25,-1.19 q -0.23,-0.08 -0.41,-0.08 -0.84,-0.74 -2.11,-0.83 l -2,-0.56 -3.67,-0.86 -2.57,-2.53 q -0.29,-0.79 -1.27,-1.03 -0.08,-0.28 -0.21,-0.38 0.2,-1.11 -0.01,-2.1 0.34,-0.18 0.57,-0.65 l 6.12,-3.91 q 0.29,-0.09 0.55,-0.38 0.35,-0.1 0.5,-0.26 0.82,-0.14 1.32,-0.9 a 0.36,0.36 0 0 0 -0.51,-0.49 q -0.18,0.12 -0.18,0.45 a 0.01,0.01 0 0 1 -0.02,0 q -0.04,-0.15 -0.09,-0.3 -0.46,-1.26 -1.77,-1.01 l -11.16,1.78 a 3.98,3.97 28.3 0 0 -0.87,0.26 q -2.51,1.1 -4.32,3.21 c -1.69,1.96 -2.53,2.52 -4.1,3.67 a 11.66,11.78 89.6 0 0 -2.57,2.58 c -1.84,2.53 -5.4,6.63 -8.18,10.64 q -5.59,8.04 -9,11.64 -3.89,4.1 -4.95,5.75 -2.589995,4.06 -12.559995,15.17 -5.05,5.62 -13.33,10.62 c -3.71,2.24 -7.76,3.2 -11.93,4.2 q -2.27,0.5 -4.04,-1.26 3.48,-5.35 6.89,-9.18 5.6,-6.29 8.16,-9.81 6.29,-8.65 8.99,-11.54 3.05,-3.25 4.26,-5.29 l 1.2,-1.01 q 2.31,-1.31 2.86,-3.99 a 1.58,1.6 72 0 1 0.4,-0.77 q 2.73,-2.82 5.36,-4.49 a 7.29,7.3 4.2 0 0 1.55,-1.34 q 6.299995,-7.22 7.169995,-8.56 c 2.83,-4.32 5.74,-6.68 8.26,-10.63 q 5.24,-8.21 8.22,-15.16 a 12.98,13.02 73 0 1 1.05,-1.969997 q 0.75,-1.14 4.59,-6.59 c 1.23,-1.74 4.62,-5.84 7.07,-5.44 z"
     id="path185" />
  <path
     fill="#111112"
     fill-opacity="0.965"
     d="m 135.95926,87.219923 -0.64,-0.33 q 0.68,0.07 0.64,0.33 z"
     id="path186" />
  <path
     fill="#111112"
     fill-opacity="0.965"
     d="m 101.70926,87.979923 q -0.42,0.04 -0.81,0.39 0.27,-0.55 0.81,-0.39 z"
     id="path187" />
  <path
     fill="#d5d3de"
     fill-opacity="0.612"
     d="m 83.919265,90.299923 q -0.05,0.59 -0.61,1.06 -0.06,-0.77 0.61,-1.06 z"
     id="path188" />
  <path
     fill="#111112"
     fill-opacity="0.965"
     d="m 91.549265,99.349923 q -0.05,0.32 -0.46,0.49 0.11,-0.3 0.46,-0.49 z"
     id="path189" />
  <path
     fill="#111112"
     fill-opacity="0.965"
     d="m 90.599265,100.38992 q -0.15,0.41 -0.57,0.51 0.19,-0.43 0.57,-0.51 z"
     id="path190" />
  <path
     fill="#111112"
     fill-opacity="0.965"
     d="m 89.529265,101.57992 q -0.1,0.55 -0.61,0.58 0.06,-0.54 0.61,-0.58 z"
     id="path191" />
  <path
     fill="#111112"
     fill-opacity="0.965"
     d="m 88.809265,102.31992 q -0.41,1.03 -1.22,1.78 -0.07,-1.01 1.22,-1.78 z"
     id="path192" />
  <path
     fill="#d5d3de"
     fill-opacity="0.612"
     d="m 87.059265,104.62992 q 0.12,0.56 -0.58,0.65 0.23,-0.39 0.58,-0.65 z"
     id="path193" />
  <path
     fill="#d5d3de"
     fill-opacity="0.612"
     d="m 86.479265,105.27992 c 0.14,0.62 -0.04,1.2 -0.61,1.54 q -0.66,0.41 -0.35,1.03 a 0.51,0.5 60.5 0 1 -0.17,0.64 q -0.76,0.52 -1.11,1.91 a 0.32,0.46 41.5 0 1 -0.76,0.18 q 0,-0.03 0.09,-0.28 a 0.28,0.28 0 0 0 -0.34,-0.37 q -0.79,0.2 -1.69,1.49 -0.11,0.16 0.05,0.52 a 0.06184658,0.06184658 0 0 0 0.12,-0.03 q 0,-0.09 0.34,-0.3 0.28,-0.16 0.31,0.04 0.1,0.74 0.92,0.37 a 0.12,0.11 76.1 0 1 0.16,0.1 q 0.02,0.2 -0.13,0.22 -3.02,0.36 -4.55,3.05 -0.66,-1.51 0.05,-1.59 1.15,-0.53 1.14,-2.51 0.12,-0.3 0.66,-0.63 0.76,-0.29 0.9,-0.81 1.12,-0.39 1.26,-0.93 l 1.81,-1.14 a 0.98,1.01 84.5 0 0 0.39,-0.46 q 0.53,-1.31 1.51,-2.04 z"
     id="path194" />
  <path
     fill="#111112"
     fill-opacity="0.965"
     d="m 82.769265,108.91992 q -0.14,0.54 -1.26,0.93 0.01,-0.91 1.26,-0.93 z"
     id="path195" />
  <path
     fill="#111112"
     fill-opacity="0.965"
     d="m 81.509265,109.84992 q -0.14,0.52 -0.9,0.81 0.13,-0.75 0.9,-0.81 z"
     id="path196" />
  <path
     fill="#e5e5e8"
     fill-opacity="0.298"
     d="m 79.949265,111.28992 q 0.01,1.98 -1.14,2.51 -0.18,-2.15 1.14,-2.51 z"
     id="path197" />
  <path
     fill="#111112"
     fill-opacity="0.965"
     d="m 147.54926,116.64992 q 0.59,-1.66 -1.25,-2.25 1.31,-0.25 1.77,1.01 0.05,0.15 0.09,0.3 a 0.01,0.01 0 0 0 0.02,0 q 0,-0.33 0.18,-0.45 a 0.36,0.36 0 0 1 0.51,0.49 q -0.5,0.76 -1.32,0.9 z"
     id="path198" />
  <path
     fill="#d5d3de"
     fill-opacity="0.612"
     d="m 77.039265,116.45992 q -0.54,0.78 -1.81,0.3 z"
     id="path199" />
  <path
     fill="#111112"
     fill-opacity="0.965"
     d="m 147.04926,116.90992 q -0.26,0.29 -0.55,0.38 0.24,-0.32 0.55,-0.38 z"
     id="path200" />
  <path
     fill="#111112"
     fill-opacity="0.965"
     d="m 140.37926,121.19992 q -0.23,0.47 -0.57,0.65 -0.24,-0.21 0.1,-0.63 0.21,-0.26 0.47,-0.02 z"
     id="path201" />
  <path
     fill="#111112"
     fill-opacity="0.965"
     d="m 175.28926,122.09992 q -0.32,-0.13 -0.47,-0.49 0.32,0.14 0.47,0.49 z"
     id="path202" />
  <path
     fill="#111112"
     fill-opacity="0.965"
     d="m 139.80926,121.84992 q 0.21,0.99 0.01,2.1 -0.87,-0.92 -0.01,-2.1 z"
     id="path203" />
  <path
     fill="#111112"
     fill-opacity="0.965"
     d="m 178.02926,124.08992 q -0.92,-0.01 -0.94,-0.78 0.57,0.25 0.94,0.78 z"
     id="path204" />
  <path
     fill="#111112"
     fill-opacity="0.965"
     d="m 141.29926,125.35992 q -0.83,0.13 -1.27,-1.03 0.98,0.24 1.27,1.03 z"
     id="path205" />
  <path
     fill="#111112"
     fill-opacity="0.965"
     d="m 183.09926,127.35992 q -2.9,-0.64 -4.63,-2.97 z"
     id="path206" />
  <path
     fill="#111112"
     fill-opacity="0.965"
     d="m 138.53926,127.15992 a 0.61,0.6 79.8 0 1 -0.52,0.76 q -3.18,0.35 -3.29,-0.01 a 1.91,1.72 8 0 1 2.82,-1.89 q 0.8,0.46 0.99,1.14 z"
     id="path207" />
  <path
     fill="#111112"
     fill-opacity="0.965"
     d="m 147.53926,128.74992 q -2.79,0.39 -3.67,-0.86 z"
     id="path208" />
  <path
     fill="#111112"
     fill-opacity="0.965"
     d="m 183.77926,128.90992 q -0.26,-0.3 -0.16,-0.68 0.24,0.17 0.16,0.68 z"
     id="path209" />
  <path
     fill="#111112"
     fill-opacity="0.965"
     d="m 184.26926,132.45992 q -0.76,-1.41 -0.39,-3.48 0.65,1.48 0.39,3.48 z"
     id="path210" />
  <path
     fill="#111112"
     fill-opacity="0.965"
     d="m 151.64926,130.13992 q -0.92,0.37 -2.11,-0.83 1.27,0.09 2.11,0.83 z"
     id="path211" />
  <path
     fill="#111112"
     fill-opacity="0.965"
     d="m 154.30926,131.40992 q -2.32,-0.11 -2.25,-1.19 z"
     id="path212" />
  <path
     fill="#111112"
     fill-opacity="0.965"
     d="m 155.43926,133.36992 q -0.8,0.38 -1.01,-1.27 -0.58,0.41 -0.63,-0.24 -0.03,-0.31 0.51,-0.45 1.07,1.04 1.13,1.96 z"
     id="path213" />
  <path
     fill="#e5e5e8"
     fill-opacity="0.298"
     d="m 155.43926,133.36992 q -0.08,0.11 -0.16,0.23 -0.29,0.02 -0.36,0.2 a 0.18,0.22 33.2 0 0 0.01,0.11 q 0.1,0.19 0.46,0.17 l -0.56,1.82 q -0.32,0.34 -0.22,0.93 l -0.3,0.16 0.12,-4.89 q 0.21,1.65 1.01,1.27 z"
     id="path214" />
  <path
     fill="#111112"
     fill-opacity="0.965"
     d="m 155.27926,133.59992 q 0.28,0.24 0.11,0.48 -0.36,0.02 -0.46,-0.17 a 0.18,0.22 33.2 0 1 -0.01,-0.11 q 0.07,-0.18 0.36,-0.2 z"
     id="path215" />
  <path
     fill="#111112"
     fill-opacity="0.965"
     d="m 186.08926,136.33992 q -0.6,-0.63 -0.77,-1.52 0.83,0.11 0.77,1.52 z"
     id="path216" />
  <path
     fill="#d5d3de"
     fill-opacity="0.612"
     d="m 154.82926,135.89992 q 0.08,0.57 -0.22,0.93 -0.1,-0.59 0.22,-0.93 z"
     id="path217" />
  <path
     fill="#111112"
     fill-opacity="0.965"
     d="m 186.85926,137.31992 q -0.64,-0.27 -0.77,-0.98 0.73,0.26 0.77,0.98 z"
     id="path218" />
  <path
     fill="#111112"
     fill-opacity="0.965"
     d="m 153.07926,138.45992 q -0.07,0.1 -0.13,0.2 -0.25,0.06 -0.35,0 -1.25,0.4 -2.09,-0.08 0.69,-0.41 2.57,-0.12 z"
     id="path219" />
  <path
     fill="#111112"
     fill-opacity="0.965"
     d="m 30.859265,138.43992 c -1.42,2.49 -3.84,6.32 -6.37,7.18 z"
     id="path220" />
  <path
     fill="#e5e5e8"
     fill-opacity="0.298"
     d="m 153.35926,138.98992 -0.41,-0.33 q 0.06,-0.1 0.13,-0.2 0.23,-0.15 0.38,0.07 0.07,0.12 0.03,0.24 -0.04,0.12 -0.13,0.22 z"
     id="path221" />
  <path
     fill="#111112"
     fill-opacity="0.965"
     d="m 150.50926,138.57992 q -0.41,0.27 -1.23,0.18 0.5,-0.26 1.23,-0.18 z"
     id="path222" />
  <path
     fill="#d5d3de"
     fill-opacity="0.612"
     d="m 152.94926,138.65992 0.41,0.33 c -0.32,0.22 -0.78,0.21 -0.76,-0.33 q 0.1,0.06 0.35,0 z"
     id="path223" />
  <path
     fill="#d5d3de"
     fill-opacity="0.612"
     d="m 189.06926,139.36992 q -0.7,-0.07 -0.97,-0.81 0.61,-0.17 0.97,0.81 z"
     id="path224" />
  <path
     fill="#111112"
     fill-opacity="0.965"
     d="m 127.06926,139.29992 -1.2,0.01 q 0.51,-0.14 1.2,-0.01 z"
     id="path225" />
  <path
     fill="#ffffff"
     d="m 125.86926,139.30992 1.2,-0.01 q 2.98,0.94 5.16,3.41 4.78,5.45 10.03,10.19 0.44,0.25 0.77,0.69 l 0.58,0.61 q 0.1,0.37 0.42,0.63 l 1.83,2.77 q 0.17,0.62 0.69,1.04 0.13,0.56 0.56,0.73 3.58,6.86 6.81,13.94 0.32,0.72 0.94,3.1 l 0.17,0.67 0.84,4.25 0.26,1.75 q -0.01,0.13 -0.01,0.25 -0.32,0.45 -0.76,0.75 -0.13,0.14 -0.26,0.28 l -2,-0.16 c -3.05,-0.57 -6.32,-1.14 -9.02,-2.43 q -5.35,-2.54 -8.26,-6.91 -2.32,-3.5 -3.75,-9.72 l -0.2,-0.78 q 0.14,-0.67 -0.51,-1.07 -1.41,-0.79 -2.33,0.31 -4.6,5.5 -9.45,10.79 -3.17,3.46 -6.68,6.58 -3.13,2.79 -9.06,2.48 l -1.48,0.1 q -0.17,0.06 -0.33,0.12 -1.14,-0.16 -2,0.33 -0.649995,0.71 -1.349995,0.57 a 0.6,0.63 88.7 0 1 -0.46,-0.42 q -0.57,-1.98 0.24,-3.42 c 2.179995,-3.86 6.369995,-9.14 8.249995,-13.64 0.88,-2.11 2.6,-6.3 4.33,-9.23 q 5.26,-8.86 12.36,-17.17 0.91,-1.07 2.47,-1.38 z"
     id="path226" />
  <path
     fill="#111112"
     fill-opacity="0.965"
     d="m 189.77926,139.99992 q -0.57,0.09 -0.71,-0.63 c 0.58,-0.4 1.21,0.41 0.71,0.63 z"
     id="path227" />
  <path
     fill="#111112"
     fill-opacity="0.965"
     d="m 190.75926,141.17992 q -0.6,-0.26 -0.65,-0.85 0.57,0.31 0.65,0.85 z"
     id="path228" />
  <path
     fill="#111112"
     fill-opacity="0.965"
     d="m 252.77926,145.38992 -0.44,-0.4 q 0.35,-0.02 0.44,0.4 z"
     id="path229" />
  <path
     fill="#111112"
     fill-opacity="0.965"
     d="m 50.669265,145.17992 -0.58,0.69 q 0.13,-0.59 0.58,-0.69 z"
     id="path230" />
  <path
     fill="#111112"
     fill-opacity="0.965"
     d="m 24.489265,145.61992 q -0.15,0.49 -0.87,0.5 0.39,-0.33 0.87,-0.5 z"
     id="path231" />
  <path
     fill="#111112"
     fill-opacity="0.965"
     d="m 194.32926,146.41992 q -0.5,-0.02 -0.49,-0.85 0.4,0.3 0.49,0.85 z"
     id="path232" />
  <path
     fill="#111112"
     fill-opacity="0.965"
     d="m 88.789265,145.82992 -1.2,1.01 q 0.44,-1.12 1.2,-1.01 z"
     id="path233" />
  <path
     fill="#111112"
     fill-opacity="0.965"
     d="m 253.77926,146.32992 -0.42,-0.46 q 0.36,0.14 0.42,0.46 z"
     id="path234" />
  <path
     fill="#111112"
     fill-opacity="0.965"
     d="m 23.619265,146.11992 q -0.45,0.42 -1.09,0.46 0.45,-0.47 1.09,-0.46 z"
     id="path235" />
  <path
     fill="#111112"
     fill-opacity="0.965"
     d="m 21.919265,146.86992 -5.94,4.69 q 2.1,-3.2 5.94,-4.69 z"
     id="path236" />
  <path
     fill="#111112"
     fill-opacity="0.965"
     d="m 256.09926,148.52992 q -0.53,-0.18 -0.78,-0.8 0.46,0.27 0.78,0.8 z"
     id="path237" />
  <path
     fill="#111112"
     fill-opacity="0.965"
     d="m 178.77926,151.34992 q -0.4,-0.32 -0.38,-0.71 0.26,0.35 0.38,0.71 z"
     id="path238" />
  <path
     fill="#111112"
     fill-opacity="0.965"
     d="m 46.079265,151.14992 q -0.17,0.53 -0.49,0.95 0.04,-0.73 0.49,-0.95 z"
     id="path239" />
  <path
     fill="#111112"
     fill-opacity="0.965"
     d="m 15.979265,151.55992 q 0.06,0.35 -0.37,0.83 z"
     id="path240" />
  <path
     fill="#111112"
     fill-opacity="0.965"
     d="m 143.02926,153.58992 q -0.33,-0.44 -0.77,-0.69 0.69,-0.01 0.77,0.69 z"
     id="path241" />
  <path
     fill="#111112"
     fill-opacity="0.965"
     d="m 180.48926,154.40992 -0.39,-0.8 q 0.35,0.32 0.39,0.8 z"
     id="path242" />
  <path
     fill="#111112"
     fill-opacity="0.965"
     d="m 144.02926,154.82992 q -0.32,-0.26 -0.42,-0.63 0.31,0.22 0.42,0.63 z"
     id="path243" />
  <path
     fill="#111112"
     fill-opacity="0.965"
     d="m 146.54926,158.63992 q -0.52,-0.42 -0.69,-1.04 0.52,0.46 0.69,1.04 z"
     id="path244" />
  <path
     fill="#111112"
     fill-opacity="0.965"
     d="m 226.27926,158.57992 q -0.3,-0.26 -0.42,-0.62 0.36,0.21 0.42,0.62 z"
     id="path245" />
  <path
     fill="#111112"
     fill-opacity="0.965"
     d="m 147.10926,159.36992 q -0.43,-0.17 -0.56,-0.73 0.33,0.25 0.56,0.73 z"
     id="path246" />
  <path
     fill="#111112"
     fill-opacity="0.965"
     d="m 226.77926,159.32992 q -0.23,-0.21 -0.34,-0.5 0.33,0.13 0.34,0.5 z"
     id="path247" />
  <path
     fill="#d5d3de"
     fill-opacity="0.612"
     d="m 161.60926,159.52992 q -0.36,-0.12 -0.49,-0.46 0.35,0.14 0.49,0.46 z"
     id="path248" />
  <path
     fill="#111112"
     fill-opacity="0.965"
     d="m 204.77926,160.07992 q -0.3,-0.1 -0.45,-0.49 0.29,0.18 0.45,0.49 z"
     id="path249" />
  <path
     fill="#111112"
     fill-opacity="0.965"
     d="m 228.54926,161.39992 q -0.05,-0.05 -0.09,-0.11 -0.89,-0.6 -1.1,-1.41 0.81,0.64 1.19,1.52 z"
     id="path250" />
  <path
     fill="#111112"
     fill-opacity="0.965"
     d="m 205.55926,160.99992 q -0.37,-0.15 -0.48,-0.61 0.31,0.23 0.48,0.61 z"
     id="path251" />
  <path
     fill="#111112"
     fill-opacity="0.965"
     d="m 163.27926,161.80992 q -0.34,-0.26 -0.44,-0.67 0.37,0.26 0.44,0.67 z"
     id="path252" />
  <path
     fill="#d5d3de"
     fill-opacity="0.612"
     d="m 228.54926,161.39992 q 0.14,0.24 0.33,0.36 -0.45,0.09 -0.42,-0.47 0.04,0.06 0.09,0.11 z"
     id="path253" />
  <path
     fill="#111112"
     fill-opacity="0.965"
     d="m 231.80926,165.86992 q -1.28,-0.88 -1.76,-2.28 a 0.82,0.84 5.4 0 0 -0.39,-0.48 q -0.69,-0.39 -0.78,-1.35 2,1.77 2.93,4.11 z"
     id="path254" />
  <path
     fill="#111112"
     fill-opacity="0.965"
     d="m 131.86926,164.35992 q -0.41,-0.34 -0.51,-1.07 0.65,0.4 0.51,1.07 z"
     id="path255" />
  <path
     fill="#111112"
     fill-opacity="0.965"
     d="m 207.77926,164.74992 q -0.21,-0.19 -0.2,-0.58 0.23,0.19 0.2,0.58 z"
     id="path256" />
  <path
     fill="#111112"
     fill-opacity="0.965"
     d="m 132.06926,165.13992 q -0.24,-0.26 -0.2,-0.78 z"
     id="path257" />
  <path
     fill="#111112"
     fill-opacity="0.965"
     d="m 165.76926,164.91992 q -0.49,-0.15 -0.46,-0.62 0.42,0.23 0.46,0.62 z"
     id="path258" />
  <path
     fill="#111112"
     fill-opacity="0.965"
     d="m 210.00926,166.10992 q -0.38,0.12 -0.67,-0.03 -0.36,-0.19 -0.22,-0.51 0.85,-0.15 0.89,0.54 z"
     id="path259" />
  <path
     fill="#111112"
     fill-opacity="0.965"
     d="m 275.55926,168.36992 q -1.62,-0.95 -2.51,-2.67 z"
     id="path260" />
  <path
     fill="#d5d3de"
     fill-opacity="0.612"
     d="m 214.28926,172.36992 q -0.96,-1.01 -1.6,-2.85 -0.32,-0.89 -0.69,-1.48 -0.44,-0.72 -1.23,-0.96 0.09,-0.49 -0.65,-0.67 -0.06,-0.15 -0.11,-0.3 0.41,-0.22 0.79,-0.25 a 0.84,0.56 67.3 0 1 0.66,0.44 q 0.2,0.35 1.05,0.23 a 0.14,0.14 0 0 1 0.16,0.14 q 0.02,2.02 0.02,2.04 0.1,-0.24 0.21,-0.47 a 0.27,0.27 0 0 1 0.51,0.07 l 0.23,1.38 a 1.71,1.68 25.9 0 0 0.19,0.53 q 2.36,3.89 0.46,2.15 z"
     id="path261" />
  <path
     fill="#111112"
     fill-opacity="0.965"
     d="m 210.76926,167.07992 q -0.55,0.28 -0.65,-0.67 0.74,0.18 0.65,0.67 z"
     id="path262" />
  <path
     fill="#111112"
     fill-opacity="0.965"
     d="m 276.82926,171.07992 -1.27,-2.71 q 1.08,1.23 1.27,2.71 z"
     id="path263" />
  <path
     fill="#d5d3de"
     fill-opacity="0.612"
     d="m 174.29926,170.90992 q -0.29,0.28 -0.93,-0.3 0.62,-0.04 0.93,0.3 z"
     id="path264" />
  <path
     fill="#e5e5e8"
     fill-opacity="0.298"
     d="m 176.80926,172.05992 q -1.51,0.28 -1.7,-0.94 1.32,0.08 1.7,0.94 z"
     id="path265" />
  <path
     fill="#111112"
     fill-opacity="0.965"
     d="m 277.26926,172.33992 q -0.33,-0.59 -0.44,-1.26 0.38,0.6 0.44,1.26 z"
     id="path266" />
  <path
     fill="#111112"
     fill-opacity="0.965"
     d="m 263.85926,175.38992 q -1.56,-0.94 -2.51,-2.6 1.66,0.92 2.51,2.6 z"
     id="path267" />
  <path
     fill="#111112"
     fill-opacity="0.965"
     d="m 277.75926,173.89992 q -0.17,-0.33 -0.14,-0.69 0.14,0.13 0.14,0.69 z"
     id="path268" />
  <path
     fill="#111112"
     fill-opacity="0.965"
     d="m 180.05926,174.59992 q -0.17,0.23 -0.68,0.26 0.42,-0.62 -1.09,-0.85 0.2,-0.29 0.31,-0.66 1.06,0.52 1.46,1.25 z"
     id="path269" />
  <path
     fill="#e5e5e8"
     fill-opacity="0.298"
     d="m 178.28926,174.00992 q 1.51,0.23 1.09,0.85 -0.04,0.93 1.25,1.99 -0.09,0.33 -0.05,0.64 0.04,0.37 0.33,0.49 0.27,0.11 0.72,0.09 -0.53,1.6 0.41,1.48 -1,0.65 -2.46,0.48 -1.66,-0.19 -2.26,-0.53 -0.55,-0.32 -0.35,-0.92 a 0.51,0.5 7.7 0 1 0.45,-0.34 q 0.16,-0.01 0.32,0.01 a 0.21,0.21 0 0 0 0.21,-0.3 q -0.22,-0.45 -0.22,-0.72 -0.01,-0.48 0.46,-0.44 0.66,0.05 0.62,-0.69 a 0.67,0.63 11.8 0 0 -0.38,-0.55 q -1.76,-0.81 -0.14,-1.54 z"
     id="path270" />
  <path
     fill="#d5d3de"
     fill-opacity="0.612"
     d="m 264.78926,176.23992 -0.34,-0.1 q -0.1,0.09 -0.33,-0.31 0.62,-0.04 0.67,0.41 z"
     id="path271" />
  <path
     fill="#111112"
     fill-opacity="0.965"
     d="m 264.78926,176.23992 q 2.03,2.43 5.15,4.02 -3.81,-0.52 -5.49,-4.12 z"
     id="path272" />
  <path
     fill="#111112"
     fill-opacity="0.965"
     d="m 155.02926,177.07992 -0.17,-0.67 z"
     id="path273" />
  <path
     fill="#111112"
     fill-opacity="0.965"
     d="m 182.49926,176.69992 0.08,0.64 a 0.58,0.57 80.6 0 1 -0.46,0.65 l -0.49,0.08 q -0.45,0.02 -0.72,-0.09 -0.29,-0.12 -0.33,-0.49 -0.04,-0.31 0.05,-0.64 0.9,0.68 1.87,-0.15 z"
     id="path274" />
  <path
     fill="#111112"
     fill-opacity="0.965"
     d="m 278.73926,177.85992 -0.12,-1.2 q 0.16,0.56 0.12,1.2 z"
     id="path275" />
  <path
     fill="#d5d3de"
     fill-opacity="0.612"
     d="m 241.07926,178.40992 q 0.26,0.5 0.01,0.64 -0.3,-0.43 -0.01,-0.64 z"
     id="path276" />
  <path
     fill="#111112"
     fill-opacity="0.965"
     d="m 278.70926,179.40992 -0.05,0.67 z"
     id="path277" />
  <path
     fill="#d5d3de"
     fill-opacity="0.612"
     d="m 239.09926,180.74992 q -0.65,0.38 -1.26,0.45 a 0.54,0.53 75.9 0 1 -0.56,-0.34 q -0.12,-0.32 -0.34,-0.29 a 0.15,0.14 59.4 0 0 -0.06,0.26 q 0.15,0.11 0.19,0.17 a 0.29,0.28 88.1 0 1 -0.37,0.42 l -0.69,-0.44 q 0.8,-1 3.09,-0.23 z"
     id="path278" />
  <path
     fill="#111112"
     fill-opacity="0.965"
     d="m 270.61926,180.54992 q -0.93,-0.01 -0.68,-0.29 z"
     id="path279" />
  <path
     fill="#d5d3de"
     fill-opacity="0.612"
     d="m 272.11926,181.24992 q -0.51,0.01 -0.82,-0.35 0.38,-0.41 0.82,0.35 z"
     id="path280" />
  <path
     fill="#111112"
     fill-opacity="0.965"
     d="m 156.12926,183.07992 -0.26,-1.75 q 0.39,0.92 0.26,1.75 z"
     id="path281" />
  <path
     fill="#d5d3de"
     fill-opacity="0.612"
     d="m 274.64926,182.04992 -0.54,0.07 -1.77,-0.75 q 1.52,-0.22 2.31,0.68 z"
     id="path282" />
  <path
     fill="#111112"
     fill-opacity="0.965"
     d="m 274.64926,182.04992 q 0.66,0.2 1.46,0.17 -1.05,0.18 -2,-0.1 z"
     id="path283" />
  <path
     fill="#111112"
     fill-opacity="0.965"
     d="m 7.4192647,182.49992 -0.8,0.04 q 0.33,-0.11 0.8,-0.04 z"
     id="path284" />
  <path
     fill="#111112"
     fill-opacity="0.965"
     d="m 4.1992647,183.16992 q -1.44,1.78 -3.14,0.24 1.51,0.24 3.14,-0.24 z"
     id="path285" />
  <path
     fill="#111112"
     fill-opacity="0.965"
     d="m 63.329265,183.91992 q -1.18,0.27 -2.23,0.48 -0.86,0.18 -1.81,-1.74 1.77,1.76 4.04,1.26 z"
     id="path286" />
  <path
     fill="#111112"
     fill-opacity="0.965"
     d="m 103.83926,183.44992 q -0.68,0.18 -1.48,0.1 z"
     id="path287" />
  <path
     fill="#111112"
     fill-opacity="0.965"
     d="m 155.35926,184.07992 q 0.44,-0.3 0.76,-0.75 0.23,0.53 -0.07,0.75 -0.34,0.23 -0.69,0 z"
     id="path288" />
  <path
     fill="#111112"
     fill-opacity="0.965"
     d="m 102.02926,183.66992 -2,0.33 q 0.86,-0.49 2,-0.33 z"
     id="path289" />
  <path
     fill="#111112"
     fill-opacity="0.965"
     d="m 155.09926,184.35992 0.62,-0.02 a 0.27,0.27 0 0 1 0.14,0.5 q -1.58,0.89 -2.76,-0.64 z"
     id="path290" />
  <ellipse
     fill="#111112"
     fill-opacity="0.965"
     cx="191.91473"
     cy="184.98096"
     transform="rotate(-0.2)"
     rx="0.68000001"
     ry="0.07"
     id="ellipse290" />
  <path
     fill="#111112"
     fill-opacity="0.965"
     d="m 195.10926,184.30992 q -0.05,0.02 -0.1,0.03 a 0.0509902,0.0509902 0 0 1 -0.02,-0.1 q 0.04,-0.01 0.1,-0.01 a 0.04123106,0.04123106 0 0 1 0.02,0.08 z"
     id="path291" />
  <ellipse
     fill="#111112"
     fill-opacity="0.965"
     cx="-203.19333"
     cy="-178.08534"
     transform="rotate(-178.2)"
     rx="1.83"
     ry="0.17"
     id="ellipse291" />
  <path
     fill="#111112"
     fill-opacity="0.965"
     d="m 226.89926,184.68992 q 0.24,-0.17 0.63,0.06 -0.31,0.31 -0.51,0.24 a 0.08,0.06 88.5 0 1 -0.05,-0.06 z"
     id="path292" />
  <path
     fill="#111112"
     fill-opacity="0.965"
     d="m 230.79926,184.91992 q -0.34,0.2 -0.77,0.07 0.36,-0.13 0.77,-0.07 z"
     id="path293" />
  <path
     fill="#111112"
     fill-opacity="0.965"
     d="m 28.599265,186.35992 q -0.62,-0.07 -0.74,-0.38 0.4,0.11 0.74,0.38 z"
     id="path294" />
  <path
     fill="#111112"
     fill-opacity="0.965"
     d="m 29.899265,186.49992 q -0.92,0.04 -1.3,-0.14 z"
     id="path295" />
  <path
     fill="#111112"
     fill-opacity="0.965"
     d="m 174.93926,189.79992 q -1.47,0.59 -1.97,0.38 a 0.45,0.45 0 0 1 0.2,-0.87 l 1.7,0.1 a 0.2,0.2 0 0 1 0.07,0.39 z"
     id="path296" />
  <ellipse
     fill="#111112"
     fill-opacity="0.965"
     cx="55.595577"
     cy="196.8427"
     transform="rotate(-1.5)"
     rx="3.98"
     ry="0.31"
     id="ellipse296" />
  <ellipse
     fill="#111112"
     fill-opacity="0.965"
     cx="25.846279"
     cy="196.26477"
     transform="rotate(-1.9)"
     rx="1.7"
     ry="0.17"
     id="ellipse297" />
  <ellipse
     fill="#111112"
     fill-opacity="0.965"
     cx="152.05264"
     cy="197.70265"
     transform="rotate(-0.9)"
     rx="1.42"
     ry="0.12"
     id="ellipse298" />
</svg>
