<?xml version="1.0" encoding="UTF-8" standalone="no"?>
<svg
   version="1.1"
   viewBox="0 0 283.99429 212.38899"
   id="svg336"
   sodipodi:docname="desc-bulletpoint-2.svg"
   width="283.99429"
   height="212.38899"
   inkscape:version="1.4.2 (f4327f4, 2025-05-13)"
   xmlns:inkscape="http://www.inkscape.org/namespaces/inkscape"
   xmlns:sodipodi="http://sodipodi.sourceforge.net/DTD/sodipodi-0.dtd"
   xmlns="http://www.w3.org/2000/svg"
   xmlns:svg="http://www.w3.org/2000/svg">
  <defs
     id="defs336" />
  <sodipodi:namedview
     id="namedview336"
     pagecolor="#ffffff"
     bordercolor="#000000"
     borderopacity="0.25"
     inkscape:showpageshadow="2"
     inkscape:pageopacity="0.0"
     inkscape:pagecheckerboard="0"
     inkscape:deskcolor="#d1d1d1"
     inkscape:zoom="2.234104"
     inkscape:cx="140.77232"
     inkscape:cy="107.64942"
     inkscape:window-width="1920"
     inkscape:window-height="991"
     inkscape:window-x="2551"
     inkscape:window-y="-4"
     inkscape:window-maximized="1"
     inkscape:current-layer="svg336" />
  <g
     stroke-width="2"
     fill="none"
     stroke-linecap="butt"
     id="g148"
     transform="translate(-3.343,-65.408994)">
    <path
       stroke="#8b8a8b"
       stroke-opacity="0.969"
       vector-effect="non-scaling-stroke"
       d="m 132.53,93.4 q -0.1,-0.7 -1.01,-0.94"
       id="path1" />
    <path
       stroke="#8b8a8b"
       stroke-opacity="0.969"
       vector-effect="non-scaling-stroke"
       d="m 131.03,91.55 q -0.02,-0.87 -0.54,-0.98"
       id="path2" />
    <path
       stroke="#8b8a8b"
       stroke-opacity="0.969"
       vector-effect="non-scaling-stroke"
       d="m 130.49,90.57 -0.35,-4.06"
       id="path3" />
    <path
       stroke="#8b8a8b"
       stroke-opacity="0.969"
       vector-effect="non-scaling-stroke"
       d="m 130.25,85.21 0.26,-1.94"
       id="path4" />
    <path
       stroke="#8b8a8b"
       stroke-opacity="0.969"
       vector-effect="non-scaling-stroke"
       d="m 130.51,83.27 q 0.23,-0.64 0.14,-1.48"
       id="path5" />
    <path
       stroke="#f7f6f8"
       stroke-opacity="0.808"
       vector-effect="non-scaling-stroke"
       d="m 130.79,81.47 q 0.05,-0.47 0.22,-0.72"
       id="path6" />
    <path
       stroke="#f7f6f8"
       stroke-opacity="0.808"
       vector-effect="non-scaling-stroke"
       d="m 172.71,112.88 q 0.18,-0.42 -0.02,-0.79 -0.2,-0.38 -0.67,-0.31"
       id="path7" />
    <path
       stroke="#8b8a8b"
       stroke-opacity="0.969"
       vector-effect="non-scaling-stroke"
       d="m 168.67,119.03 -0.07,1.18"
       id="path8" />
    <path
       stroke="#f7f6f8"
       stroke-opacity="0.808"
       vector-effect="non-scaling-stroke"
       d="m 157.95,112.97 q -0.07,-0.31 -0.41,-0.38"
       id="path9" />
    <path
       stroke="#8b8a8b"
       stroke-opacity="0.969"
       vector-effect="non-scaling-stroke"
       d="m 156.96,112.21 q 0.32,-0.38 -0.47,-0.77"
       id="path10" />
    <path
       stroke="#8b8a8b"
       stroke-opacity="0.969"
       vector-effect="non-scaling-stroke"
       d="m 156.49,111.44 q -0.15,-0.72 -0.45,-1.23"
       id="path11" />
    <path
       stroke="#8b8a8b"
       stroke-opacity="0.969"
       vector-effect="non-scaling-stroke"
       d="m 114.81,113.03 q -0.29,1.01 0.13,1.68"
       id="path12" />
    <path
       stroke="#8b8a8b"
       stroke-opacity="0.969"
       vector-effect="non-scaling-stroke"
       d="m 115.54,115.1 q 0.27,0.26 0.67,0.3"
       id="path13" />
    <path
       stroke="#8b8a8b"
       stroke-opacity="0.969"
       vector-effect="non-scaling-stroke"
       d="m 117.79,116.03 q 1.09,0.59 2.16,0.24"
       id="path14" />
    <path
       stroke="#8b8a8b"
       stroke-opacity="0.969"
       vector-effect="non-scaling-stroke"
       d="m 119.95,116.27 0.76,-0.23"
       id="path15" />
    <path
       stroke="#8b8a8b"
       stroke-opacity="0.969"
       vector-effect="non-scaling-stroke"
       d="m 122.59,115.21 q 0.34,-0.02 0.62,-0.18"
       id="path16" />
    <path
       stroke="#8b8a8b"
       stroke-opacity="0.969"
       vector-effect="non-scaling-stroke"
       d="m 125.02,114.22 0.96,-0.13"
       id="path17" />
    <path
       stroke="#8b8a8b"
       stroke-opacity="0.969"
       vector-effect="non-scaling-stroke"
       d="m 106.01,137.22 q -0.33,-0.32 -0.76,-0.48"
       id="path18" />
    <path
       stroke="#8b8a8b"
       stroke-opacity="0.969"
       vector-effect="non-scaling-stroke"
       d="m 148.53,113.15 q 0.23,0.26 0.55,0.26"
       id="path19" />
    <path
       stroke="#8b8a8b"
       stroke-opacity="0.969"
       vector-effect="non-scaling-stroke"
       d="m 155.06,121.21 -0.24,2.26"
       id="path20" />
    <path
       stroke="#8b8a8b"
       stroke-opacity="0.969"
       vector-effect="non-scaling-stroke"
       d="m 198.02,133.28 0.11,0.73"
       id="path21" />
    <path
       stroke="#8b8a8b"
       stroke-opacity="0.969"
       vector-effect="non-scaling-stroke"
       d="m 203.85,157.96 -0.07,0.99"
       id="path22" />
    <path
       stroke="#8b8a8b"
       stroke-opacity="0.969"
       vector-effect="non-scaling-stroke"
       d="m 203.04,160.34 -1,0.62"
       id="path23" />
    <path
       stroke="#8b8a8b"
       stroke-opacity="0.969"
       vector-effect="non-scaling-stroke"
       d="m 200.21,161.8 -2.43,0.1"
       id="path24" />
    <path
       stroke="#8b8a8b"
       stroke-opacity="0.969"
       vector-effect="non-scaling-stroke"
       d="m 170.81,152.01 q -0.98,2.79 -3.34,4.2"
       id="path25" />
    <path
       stroke="#8b8a8b"
       stroke-opacity="0.969"
       vector-effect="non-scaling-stroke"
       d="m 167.04,156.32 -1.5,0.02"
       id="path26" />
    <path
       stroke="#8b8a8b"
       stroke-opacity="0.969"
       vector-effect="non-scaling-stroke"
       d="m 162.71,155.9 -1.4,-0.49"
       id="path27" />
    <path
       stroke="#8b8a8b"
       stroke-opacity="0.969"
       vector-effect="non-scaling-stroke"
       d="m 96.1,152.42 q -0.14,0.36 -0.47,0.51"
       id="path28" />
    <path
       stroke="#8b8a8b"
       stroke-opacity="0.969"
       vector-effect="non-scaling-stroke"
       d="m 92.83,156.57 q -0.21,0.12 -0.38,0.55"
       id="path29" />
    <path
       stroke="#8b8a8b"
       stroke-opacity="0.969"
       vector-effect="non-scaling-stroke"
       d="m 90.72,159.54 q -0.19,0.29 -0.23,0.66"
       id="path30" />
    <path
       stroke="#f7f6f8"
       stroke-opacity="0.808"
       vector-effect="non-scaling-stroke"
       d="m 85.55,164.13 q -0.48,-1.48 -1.5,-1.56 a 0.8,0.8 0 0 0 -0.62,1.38 q 0.29,0.29 0.17,1.32"
       id="path31" />
    <path
       stroke="#f7f6f8"
       stroke-opacity="0.808"
       vector-effect="non-scaling-stroke"
       d="m 80.78,165.13 q 2.8,-1.97 1.18,-2.67"
       id="path32" />
    <path
       stroke="#8b8a8b"
       stroke-opacity="0.969"
       vector-effect="non-scaling-stroke"
       d="m 81.96,162.46 q 1.78,-1.18 1.41,-2.07 -0.19,-0.46 -0.92,-0.26"
       id="path33" />
    <path
       stroke="#f7f6f8"
       stroke-opacity="0.808"
       vector-effect="non-scaling-stroke"
       d="m 82.45,160.13 0.2,-0.19 a 0.32,0.32 0 0 0 -0.16,-0.54 q -0.61,-0.11 -0.8,0.47"
       id="path34" />
    <path
       stroke="#8b8a8b"
       stroke-opacity="0.969"
       vector-effect="non-scaling-stroke"
       d="m 81.69,159.87 -1.25,0.08"
       id="path35" />
    <path
       stroke="#f7f6f8"
       stroke-opacity="0.808"
       vector-effect="non-scaling-stroke"
       d="m 80.44,159.95 q 1.03,-0.65 2.26,-0.88 a 0.44,0.43 83.2 0 0 0.35,-0.45 q -0.03,-0.34 -0.29,-0.54 a 0.45,0.45 0 0 0 -0.49,-0.04 q -6.11,3.32 -5.92,-1.59"
       id="path36" />
    <path
       stroke="#8b8a8b"
       stroke-opacity="0.969"
       vector-effect="non-scaling-stroke"
       d="m 114.58,153.62 q -0.39,-0.93 -1.08,-1.6"
       id="path37" />
    <path
       stroke="#f7f6f8"
       stroke-opacity="0.808"
       vector-effect="non-scaling-stroke"
       d="m 113.5,152.02 0.14,-2.56"
       id="path38" />
    <path
       stroke="#8b8a8b"
       stroke-opacity="0.969"
       vector-effect="non-scaling-stroke"
       d="m 113.64,149.46 q 0.19,-0.47 0.5,-0.64"
       id="path39" />
    <path
       stroke="#8b8a8b"
       stroke-opacity="0.969"
       vector-effect="non-scaling-stroke"
       d="m 107.29,165.1 q -0.39,0.19 -0.82,0.05"
       id="path40" />
    <path
       stroke="#8b8a8b"
       stroke-opacity="0.969"
       vector-effect="non-scaling-stroke"
       d="m 107.7,165.07 q 0.39,0.45 1.25,0.22"
       id="path41" />
    <path
       stroke="#8b8a8b"
       stroke-opacity="0.969"
       vector-effect="non-scaling-stroke"
       d="m 109.79,165.86 0.66,0.47"
       id="path42" />
    <path
       stroke="#8b8a8b"
       stroke-opacity="0.969"
       vector-effect="non-scaling-stroke"
       d="m 116.22,170.03 q -0.19,0.42 -0.03,1.05"
       id="path43" />
    <path
       stroke="#8b8a8b"
       stroke-opacity="0.969"
       vector-effect="non-scaling-stroke"
       d="m 107.66,181.75 -0.93,1.22"
       id="path44" />
    <path
       stroke="#f7f6f8"
       stroke-opacity="0.808"
       vector-effect="non-scaling-stroke"
       d="m 94.07,181.02 q 0.39,-0.37 0.17,-1.08"
       id="path45" />
    <path
       stroke="#8b8a8b"
       stroke-opacity="0.969"
       vector-effect="non-scaling-stroke"
       d="m 94.24,179.94 q 0.2,-0.28 0.29,-0.65"
       id="path46" />
    <path
       stroke="#f7f6f8"
       stroke-opacity="0.808"
       vector-effect="non-scaling-stroke"
       d="m 94.53,179.29 q 0.4,-0.56 0.17,-1.25"
       id="path47" />
    <path
       stroke="#8b8a8b"
       stroke-opacity="0.969"
       vector-effect="non-scaling-stroke"
       d="m 94.7,178.04 q 0.25,-0.64 0.27,-1.29"
       id="path48" />
    <path
       stroke="#8b8a8b"
       stroke-opacity="0.969"
       vector-effect="non-scaling-stroke"
       d="m 95.59,175.25 q 0.29,-0.04 0.49,-0.44"
       id="path49" />
    <path
       stroke="#8b8a8b"
       stroke-opacity="0.969"
       vector-effect="non-scaling-stroke"
       d="m 220.7,193.28 q -0.17,-0.44 -0.67,-0.56"
       id="path50" />
    <path
       stroke="#8b8a8b"
       stroke-opacity="0.969"
       vector-effect="non-scaling-stroke"
       d="m 218.73,191.28 q -0.23,-0.52 -0.51,-0.53"
       id="path51" />
    <path
       stroke="#8b8a8b"
       stroke-opacity="0.969"
       vector-effect="non-scaling-stroke"
       d="m 138.93,181.28 -0.1,0.68"
       id="path52" />
    <path
       stroke="#8b8a8b"
       stroke-opacity="0.969"
       vector-effect="non-scaling-stroke"
       d="m 138.62,182.46 q 0.01,0.42 -0.14,0.74"
       id="path53" />
    <path
       stroke="#8b8a8b"
       stroke-opacity="0.969"
       vector-effect="non-scaling-stroke"
       d="m 135.77,189.05 q -0.37,0.21 -0.55,0.66"
       id="path54" />
    <path
       stroke="#f7f6f8"
       stroke-opacity="0.808"
       vector-effect="non-scaling-stroke"
       d="m 74.81,181.16 q -0.09,0.62 0.06,1.13"
       id="path55" />
    <path
       stroke="#8b8a8b"
       stroke-opacity="0.969"
       vector-effect="non-scaling-stroke"
       d="m 74.87,182.29 q -0.02,0.34 -0.18,0.57"
       id="path56" />
    <path
       stroke="#8b8a8b"
       stroke-opacity="0.969"
       vector-effect="non-scaling-stroke"
       d="m 62.04,198.93 q -0.27,0.01 -0.27,0.56"
       id="path57" />
    <path
       stroke="#8b8a8b"
       stroke-opacity="0.969"
       vector-effect="non-scaling-stroke"
       d="m 52.53,197.94 -0.34,-4.4 a 1.14,0.99 -75.1 0 1 0.01,-0.16 q 0.61,-3.72 2.91,-6.74 1.92,-2.51 3.71,-5.1"
       id="path58" />
    <path
       stroke="#8b8a8b"
       stroke-opacity="0.969"
       vector-effect="non-scaling-stroke"
       d="m 59.22,180.97 q 0.35,-0.11 0.46,-0.45"
       id="path59" />
    <path
       stroke="#8b8a8b"
       stroke-opacity="0.969"
       vector-effect="non-scaling-stroke"
       d="m 61.31,178.96 q 0.45,-0.11 0.82,-0.42"
       id="path60" />
    <path
       stroke="#8b8a8b"
       stroke-opacity="0.969"
       vector-effect="non-scaling-stroke"
       d="m 62.47,178.28 1.97,-0.78"
       id="path61" />
    <path
       stroke="#8b8a8b"
       stroke-opacity="0.969"
       vector-effect="non-scaling-stroke"
       d="m 160.99,197.73 1.48,1.1"
       id="path62" />
    <path
       stroke="#8b8a8b"
       stroke-opacity="0.969"
       vector-effect="non-scaling-stroke"
       d="m 172.44,212.75 q 0.31,1.33 0.04,2.77 a 0.66,0.66 0 0 1 -0.49,0.52 q -0.24,0.06 -0.45,0.21"
       id="path63" />
    <path
       stroke="#8b8a8b"
       stroke-opacity="0.969"
       vector-effect="non-scaling-stroke"
       d="m 171.54,216.25 q -0.56,0.2 -0.99,0.66"
       id="path64" />
    <path
       stroke="#8b8a8b"
       stroke-opacity="0.969"
       vector-effect="non-scaling-stroke"
       d="m 84.75,200.46 -3.49,-0.02"
       id="path65" />
    <path
       stroke="#8b8a8b"
       stroke-opacity="0.969"
       vector-effect="non-scaling-stroke"
       d="m 84.75,200.46 q 0.44,0.22 1,0.29"
       id="path66" />
    <path
       stroke="#8b8a8b"
       stroke-opacity="0.969"
       vector-effect="non-scaling-stroke"
       d="m 85.75,200.75 1.46,0.76"
       id="path67" />
    <path
       stroke="#8b8a8b"
       stroke-opacity="0.969"
       vector-effect="non-scaling-stroke"
       d="m 87.79,202.05 q 0.16,0.27 0.43,0.46"
       id="path68" />
    <path
       stroke="#8b8a8b"
       stroke-opacity="0.969"
       vector-effect="non-scaling-stroke"
       d="m 91.04,207.24 0.43,4.17"
       id="path69" />
    <path
       stroke="#8b8a8b"
       stroke-opacity="0.969"
       vector-effect="non-scaling-stroke"
       d="m 91.13,211.79 q -0.35,0.25 -0.3,0.48"
       id="path70" />
    <path
       stroke="#8b8a8b"
       stroke-opacity="0.969"
       vector-effect="non-scaling-stroke"
       d="m 76.52,204.52 q 0.32,-0.1 0.53,-0.54"
       id="path71" />
    <path
       stroke="#8b8a8b"
       stroke-opacity="0.969"
       vector-effect="non-scaling-stroke"
       d="m 194.78,204 0.94,0.78"
       id="path72" />
    <path
       stroke="#8b8a8b"
       stroke-opacity="0.969"
       vector-effect="non-scaling-stroke"
       d="m 198.01,207.31 q 0.13,0.36 0.46,0.48"
       id="path73" />
    <path
       stroke="#f7f6f8"
       stroke-opacity="0.808"
       vector-effect="non-scaling-stroke"
       d="m 182.79,209.94 0.01,-1.71"
       id="path74" />
    <path
       stroke="#8b8a8b"
       stroke-opacity="0.969"
       vector-effect="non-scaling-stroke"
       d="m 245.71,210.42 q 0.24,0.31 0.77,0.22"
       id="path75" />
    <path
       stroke="#8b8a8b"
       stroke-opacity="0.969"
       vector-effect="non-scaling-stroke"
       d="m 247.04,210.81 0.71,0.23"
       id="path76" />
    <path
       stroke="#8b8a8b"
       stroke-opacity="0.969"
       vector-effect="non-scaling-stroke"
       d="m 247.75,211.04 0.71,0.24"
       id="path77" />
    <path
       stroke="#8b8a8b"
       stroke-opacity="0.969"
       vector-effect="non-scaling-stroke"
       d="m 248.79,211.5 q 0.29,0.29 0.77,0.27"
       id="path78" />
    <path
       stroke="#8b8a8b"
       stroke-opacity="0.969"
       vector-effect="non-scaling-stroke"
       d="m 235.77,216.05 0.21,-0.74"
       id="path79" />
    <path
       stroke="#8b8a8b"
       stroke-opacity="0.969"
       vector-effect="non-scaling-stroke"
       d="m 40.21,228.53 q -0.92,0.3 -1.54,0.88"
       id="path80" />
    <path
       stroke="#8b8a8b"
       stroke-opacity="0.969"
       vector-effect="non-scaling-stroke"
       d="m 36.07,231.31 -1.78,-0.04"
       id="path81" />
    <path
       stroke="#8b8a8b"
       stroke-opacity="0.969"
       vector-effect="non-scaling-stroke"
       d="M 34.04,231.15 34,230.71"
       id="path82" />
    <path
       stroke="#f7f6f8"
       stroke-opacity="0.808"
       vector-effect="non-scaling-stroke"
       d="m 34,230.71 q 0.08,-0.46 -0.03,-0.92"
       id="path83" />
    <path
       stroke="#f7f6f8"
       stroke-opacity="0.808"
       vector-effect="non-scaling-stroke"
       d="m 34.28,228.21 q 0.56,-0.6 0.15,-1"
       id="path84" />
    <path
       stroke="#8b8a8b"
       stroke-opacity="0.969"
       vector-effect="non-scaling-stroke"
       d="m 34.43,227.21 q 0.2,-1.08 -0.01,-2.25"
       id="path85" />
    <path
       stroke="#8b8a8b"
       stroke-opacity="0.969"
       vector-effect="non-scaling-stroke"
       d="m 34.6,222.25 0.05,-0.71"
       id="path86" />
    <path
       stroke="#f7f6f8"
       stroke-opacity="0.808"
       vector-effect="non-scaling-stroke"
       d="m 34.79,221.3 q 0.69,-1.26 0.47,-2.37"
       id="path87" />
    <path
       stroke="#8b8a8b"
       stroke-opacity="0.969"
       vector-effect="non-scaling-stroke"
       d="m 35.26,218.93 q 0.24,-0.21 0.23,-0.62"
       id="path88" />
    <path
       stroke="#8b8a8b"
       stroke-opacity="0.969"
       vector-effect="non-scaling-stroke"
       d="m 35.49,218.31 q 0.67,-0.05 0.48,-0.78"
       id="path89" />
    <path
       stroke="#8b8a8b"
       stroke-opacity="0.969"
       vector-effect="non-scaling-stroke"
       d="m 37.61,215.24 q 0.42,0.07 0.93,-0.62"
       id="path90" />
    <path
       stroke="#8b8a8b"
       stroke-opacity="0.969"
       vector-effect="non-scaling-stroke"
       d="m 39.05,214.28 q 1.66,-0.55 2.99,-1.71"
       id="path91" />
    <path
       stroke="#f7f6f8"
       stroke-opacity="0.808"
       vector-effect="non-scaling-stroke"
       d="m 42.99,212.15 q 0.42,0.06 0.71,-0.11"
       id="path92" />
    <path
       stroke="#8b8a8b"
       stroke-opacity="0.969"
       vector-effect="non-scaling-stroke"
       d="m 139.62,220.67 0.66,-0.06"
       id="path93" />
    <path
       stroke="#8b8a8b"
       stroke-opacity="0.969"
       vector-effect="non-scaling-stroke"
       d="m 140.54,220.61 0.92,0.06"
       id="path94" />
    <path
       stroke="#8b8a8b"
       stroke-opacity="0.969"
       vector-effect="non-scaling-stroke"
       d="m 138.2,235.54 -0.71,0.16"
       id="path95" />
    <path
       stroke="#8b8a8b"
       stroke-opacity="0.969"
       vector-effect="non-scaling-stroke"
       d="m 129.06,232.2 0.07,-0.66"
       id="path96" />
    <path
       stroke="#8b8a8b"
       stroke-opacity="0.969"
       vector-effect="non-scaling-stroke"
       d="m 129.25,230.96 0.21,-0.66"
       id="path97" />
    <path
       stroke="#8b8a8b"
       stroke-opacity="0.969"
       vector-effect="non-scaling-stroke"
       d="m 177.72,227.23 -2.01,-0.12"
       id="path98" />
    <path
       stroke="#f7f6f8"
       stroke-opacity="0.808"
       vector-effect="non-scaling-stroke"
       d="m 175.71,227.11 -0.77,0.14"
       id="path99" />
    <path
       stroke="#f7f6f8"
       stroke-opacity="0.808"
       vector-effect="non-scaling-stroke"
       d="m 180.93,228.72 c 2.81,2.5 2.62,6.01 2.92,10.04 a 1.34,1.34 0 0 1 -0.32,0.97 q -1.62,1.96 -1.65,4.04 a 0.56,0.56 0 0 1 -0.71,0.53 l -3.19,-0.85 a 0.78,0.77 -1.3 0 1 -0.54,-0.51 q -0.19,-0.58 -0.72,-1.22 a 0.76,0.76 0 0 0 -0.37,-0.23 l -3.36,-0.9 a 0.15033296,0.15033296 0 0 1 0.02,-0.3 l 0.42,-0.07 a 0.37,0.37 0 0 0 0.18,-0.63 l -1.98,-1.91"
       id="path100" />
    <path
       stroke="#f7f6f8"
       stroke-opacity="0.808"
       vector-effect="non-scaling-stroke"
       d="m 173.96,227.44 q 0.63,0.09 0.98,-0.19"
       id="path101" />
    <path
       stroke="#8b8a8b"
       stroke-opacity="0.969"
       vector-effect="non-scaling-stroke"
       d="m 173.96,227.44 -0.78,0.08"
       id="path102" />
    <path
       stroke="#8b8a8b"
       stroke-opacity="0.969"
       vector-effect="non-scaling-stroke"
       d="m 221.72,235.07 q 0.3,0.3 0.75,0.45"
       id="path103" />
    <path
       stroke="#8b8a8b"
       stroke-opacity="0.969"
       vector-effect="non-scaling-stroke"
       d="m 226.98,240.87 0.48,0.61"
       id="path104" />
    <path
       stroke="#8b8a8b"
       stroke-opacity="0.969"
       vector-effect="non-scaling-stroke"
       d="m 227.8,241.96 q 0.16,0.31 0.48,0.51"
       id="path105" />
    <path
       stroke="#8b8a8b"
       stroke-opacity="0.969"
       vector-effect="non-scaling-stroke"
       d="m 233.76,254.59 0.1,1.87"
       id="path106" />
    <path
       stroke="#f7f6f8"
       stroke-opacity="0.808"
       vector-effect="non-scaling-stroke"
       d="m 233.4,259.26 q -0.95,2.88 -4.69,2.11 a 2.55,2.38 64 0 1 -0.76,-0.29 q -1.96,-1.13 -3.59,-2.19 -0.81,-0.53 -1.87,-0.02 -0.79,0.38 -0.93,0.36 a 0.23135471,0.23135471 0 0 1 0.05,-0.46 q 0.28,0.01 0.45,-0.03 a 0.17007351,0.17007351 0 0 0 -0.01,-0.34 q -0.59,-0.11 -1.36,0.13"
       id="path107" />
    <path
       stroke="#f7f6f8"
       stroke-opacity="0.808"
       vector-effect="non-scaling-stroke"
       d="m 220.23,258.17 q -0.22,-2.2 -1.45,-1.7"
       id="path108" />
    <path
       stroke="#f7f6f8"
       stroke-opacity="0.808"
       vector-effect="non-scaling-stroke"
       d="m 213.58,251.6 0.12,-1.3 a 0.9,0.9 0 0 1 0.5,-0.72 q 1.82,-0.85 1.88,-3.25 0.1,-4.17 -0.44,-7.31"
       id="path109" />
    <path
       stroke="#f7f6f8"
       stroke-opacity="0.808"
       vector-effect="non-scaling-stroke"
       d="m 214.36,240.92 0.38,7.84 a 0.21,0.2 88.5 0 0 0.2,0.2 h 0.3 a 0.04,0.03 90 0 0 0.03,-0.04 l -0.36,-8.71"
       id="path110" />
    <path
       stroke="#8b8a8b"
       stroke-opacity="0.969"
       vector-effect="non-scaling-stroke"
       d="m 59.47,235.77 q -0.96,-0.24 -1.95,-0.05"
       id="path111" />
    <path
       stroke="#8b8a8b"
       stroke-opacity="0.969"
       vector-effect="non-scaling-stroke"
       d="m 55.2,257 -0.52,0.44"
       id="path112" />
    <path
       stroke="#f7f6f8"
       stroke-opacity="0.808"
       vector-effect="non-scaling-stroke"
       d="m 36.23,267.68 q -0.18,-0.3 -0.69,-0.18"
       id="path113" />
    <path
       stroke="#8b8a8b"
       stroke-opacity="0.969"
       vector-effect="non-scaling-stroke"
       d="M 50.57,240.54 50.95,240"
       id="path114" />
    <path
       stroke="#8b8a8b"
       stroke-opacity="0.969"
       vector-effect="non-scaling-stroke"
       d="m 50.95,240 q 0.39,-0.26 0.58,-0.74"
       id="path115" />
    <path
       stroke="#8b8a8b"
       stroke-opacity="0.969"
       vector-effect="non-scaling-stroke"
       d="m 154.6,243.8 q -0.13,1.27 1.37,1.71"
       id="path116" />
    <path
       stroke="#f7f6f8"
       stroke-opacity="0.808"
       vector-effect="non-scaling-stroke"
       d="m 155.97,245.51 q 0.97,0.2 1.59,-0.12"
       id="path117" />
    <path
       stroke="#f7f6f8"
       stroke-opacity="0.808"
       vector-effect="non-scaling-stroke"
       d="m 158.96,246.13 q 0.31,0.88 0.81,0.83"
       id="path118" />
    <path
       stroke="#f7f6f8"
       stroke-opacity="0.808"
       vector-effect="non-scaling-stroke"
       d="m 163.33,254.05 0.43,4.33"
       id="path119" />
    <path
       stroke="#8b8a8b"
       stroke-opacity="0.969"
       vector-effect="non-scaling-stroke"
       d="m 158.15,258.02 -0.05,-0.74"
       id="path120" />
    <path
       stroke="#8b8a8b"
       stroke-opacity="0.969"
       vector-effect="non-scaling-stroke"
       d="m 153.26,250.46 q 0.19,-0.8 -0.2,-1"
       id="path121" />
    <path
       stroke="#8b8a8b"
       stroke-opacity="0.969"
       vector-effect="non-scaling-stroke"
       d="m 152.71,249.18 q -0.16,-0.41 -0.59,-0.49"
       id="path122" />
    <path
       stroke="#f7f6f8"
       stroke-opacity="0.808"
       vector-effect="non-scaling-stroke"
       d="m 23.97,244.13 q -3.91,-1.61 -8.42,0.54 a 1.8,1.78 5.8 0 0 -0.68,0.55 l -1.46,1.96 a 0.81,0.78 -78.1 0 1 -0.44,0.3 q -0.81,0.22 -1.43,1.24 a 1.11,1.1 49.2 0 0 -0.07,1 q 0.57,1.36 0.34,2.76 -0.04,0.23 0.09,0.21 a 0.05,0.05 0 0 0 0.04,-0.05 q -0.2,-3.52 0.01,-4.03 a 0.21,0.21 0 0 1 0.4,0.04 q 0.5,2.26 -0.06,3.82 a 0.99,0.97 0.5 0 1 -0.62,0.6 q -1.98,0.65 -3.04,-0.37 a 0.19,0.19 0 0 0 -0.31,0.2 q 0.35,1.01 -0.57,7.03 -0.18,1.2 0.34,3.91 a 0.56,0.55 -10.1 0 0 0.64,0.44 L 17,262.87"
       id="path123" />
    <path
       stroke="#8b8a8b"
       stroke-opacity="0.969"
       vector-effect="non-scaling-stroke"
       d="m 25.56,248.45 q 0.14,1.07 -0.32,2.02"
       id="path124" />
    <path
       stroke="#8b8a8b"
       stroke-opacity="0.969"
       vector-effect="non-scaling-stroke"
       d="m 283.73,259.08 q 0.81,0.15 1.56,-0.02"
       id="path125" />
    <path
       stroke="#f7f6f8"
       stroke-opacity="0.808"
       vector-effect="non-scaling-stroke"
       d="m 285.97,266.65 q -0.32,-0.17 -0.68,-0.11"
       id="path126" />
    <path
       stroke="#8b8a8b"
       stroke-opacity="0.969"
       vector-effect="non-scaling-stroke"
       d="m 284.46,266.38 q -0.42,-0.18 -0.92,-0.12"
       id="path127" />
    <path
       stroke="#8b8a8b"
       stroke-opacity="0.969"
       vector-effect="non-scaling-stroke"
       d="m 282.21,265.96 -1.68,-0.09"
       id="path128" />
    <path
       stroke="#8b8a8b"
       stroke-opacity="0.969"
       vector-effect="non-scaling-stroke"
       d="m 276.23,264.86 q -0.43,0.03 -0.68,-0.15"
       id="path129" />
    <path
       stroke="#8b8a8b"
       stroke-opacity="0.969"
       vector-effect="non-scaling-stroke"
       d="m 97.8,244.12 1.42,0.29"
       id="path130" />
    <path
       stroke="#8b8a8b"
       stroke-opacity="0.969"
       vector-effect="non-scaling-stroke"
       d="m 96.06,259.25 -1.31,-0.44"
       id="path131" />
    <path
       stroke="#8b8a8b"
       stroke-opacity="0.969"
       vector-effect="non-scaling-stroke"
       d="m 91.61,256.28 q -0.66,0.12 -0.59,0.97"
       id="path132" />
    <path
       stroke="#8b8a8b"
       stroke-opacity="0.969"
       vector-effect="non-scaling-stroke"
       d="m 91.02,257.25 q -0.37,0.43 0.11,0.96"
       id="path133" />
    <path
       stroke="#8b8a8b"
       stroke-opacity="0.969"
       vector-effect="non-scaling-stroke"
       d="m 91.36,258.96 0.33,2.01"
       id="path134" />
    <path
       stroke="#f7f6f8"
       stroke-opacity="0.808"
       vector-effect="non-scaling-stroke"
       d="m 89.95,262.7 q 0.39,-0.05 0.32,-0.58 -0.07,-0.54 -0.33,-0.58 -0.34,-0.07 -0.22,-0.43 a 0.31,0.31 0 0 0 -0.26,-0.41 l -1.75,-0.16"
       id="path135" />
    <path
       stroke="#8b8a8b"
       stroke-opacity="0.969"
       vector-effect="non-scaling-stroke"
       d="m 87.71,260.54 q -0.33,-0.23 -0.72,-0.15"
       id="path136" />
    <path
       stroke="#8b8a8b"
       stroke-opacity="0.969"
       vector-effect="non-scaling-stroke"
       d="m 124.77,245.96 q -1.96,-0.43 -2.83,0.72"
       id="path137" />
    <path
       stroke="#8b8a8b"
       stroke-opacity="0.969"
       vector-effect="non-scaling-stroke"
       d="m 124.77,245.96 1.98,0.5"
       id="path138" />
    <path
       stroke="#8b8a8b"
       stroke-opacity="0.969"
       vector-effect="non-scaling-stroke"
       d="m 126.75,246.46 q 0.42,0.24 1,0.31"
       id="path139" />
    <path
       stroke="#8b8a8b"
       stroke-opacity="0.969"
       vector-effect="non-scaling-stroke"
       d="m 120.47,265.82 -2.44,-0.47"
       id="path140" />
    <path
       stroke="#f7f6f8"
       stroke-opacity="0.808"
       vector-effect="non-scaling-stroke"
       d="m 114.78,263.21 q -0.87,-0.95 -0.82,-3.04"
       id="path141" />
    <path
       stroke="#f7f6f8"
       stroke-opacity="0.808"
       vector-effect="non-scaling-stroke"
       d="m 195.51,267.99 3.98,-4.07 a 0.95,0.95 0 0 0 0.26,-0.57 l 0.3,-3 a 0.11,0.11 0 0 1 0.11,-0.1 q 0.21,-0.01 0.21,0.44 -0.29,-0.84 -0.05,-1.33 a 0.59,0.58 -63.2 0 0 -0.25,-0.78 q -1.05,-0.54 -1.59,-1.3 a 1.52,1.5 -17.4 0 0 -1.24,-0.64 l -2.89,-0.01 a 0.22,0.2 -8.8 0 1 -0.18,-0.12 v -0.01 a 0.11,0.11 0 0 1 0.08,-0.13 q 2.6,-0.77 4.68,0.44 a 0.28,0.27 -63.9 0 0 0.39,-0.14 0.24,0.24 0 0 0 -0.15,-0.32 q -3.95,-1.19 -7.96,0.68 a 0.21,0.21 0 0 0 -0.09,0.3 v 0.01 a 0.19,0.19 0 0 0 0.27,0.06 q 1.12,-0.73 2.04,-0.43 a 0.05024938,0.05024938 0 0 1 -0.01,0.1 l -3.23,0.8 a 0.75,0.75 0 0 0 -0.56,0.7 l -0.1,3.95"
       id="path142" />
    <path
       stroke="#f7f6f8"
       stroke-opacity="0.808"
       vector-effect="non-scaling-stroke"
       d="m 195.93,267.97 q -0.75,-0.12 -0.88,0.31"
       id="path143" />
    <path
       stroke="#f7f6f8"
       stroke-opacity="0.808"
       vector-effect="non-scaling-stroke"
       d="m 84.84,152.52 0.06,1.94"
       id="path144" />
    <path
       stroke="#f7f6f8"
       stroke-opacity="0.808"
       vector-effect="non-scaling-stroke"
       d="m 85.29,155.03 q -0.14,0.92 0.2,1.65 a 0.82,0.81 -12.6 0 0 0.76,0.48 q 0.83,-0.02 0.79,-0.62"
       id="path145" />
    <path
       stroke="#8b8a8b"
       stroke-opacity="0.969"
       vector-effect="non-scaling-stroke"
       d="m 87.03,156.21 q 0.48,0.04 0.92,-0.11 0.35,-0.12 0.41,-0.4 0.06,-0.25 -0.07,-0.57"
       id="path146" />
    <path
       stroke="#8b8a8b"
       stroke-opacity="0.969"
       vector-effect="non-scaling-stroke"
       d="m 89.05,154.96 q 0.3,-0.34 0.26,-0.96"
       id="path147" />
    <path
       stroke="#8b8a8b"
       stroke-opacity="0.969"
       vector-effect="non-scaling-stroke"
       d="m 89.31,154 q 0.34,0.11 0.72,-0.25"
       id="path148" />
  </g>
  <path
     fill="#ffffff"
     d="m 129.187,27.991006 q -0.1,-0.7 -1.01,-0.94 l -0.49,-0.91 q -0.02,-0.87 -0.54,-0.98 l -0.35,-4.06 q -0.06,-0.63 0.11,-1.3 l 0.26,-1.94 q 0.23,-0.64 0.14,-1.48 0.07,-0.16 0.14,-0.32 0.05,-0.47 0.22,-0.72 0.18,-6.8500001 3.02,-10.4200001 0.64,-0.81 5.43,-3.89 4.11,-2.64 7.15,1.48 3.6,4.88 5.7,7.36 a 0.94,0.94 0 0 1 0.03,1.1700001 l -12.84,17.22 a 2.98,2.99 18.3 0 1 -2.37,1.2 q -2.34,0.04 -4.6,-1.47 z"
     id="path149" />
  <path
     fill="#ebe7ed"
     fill-opacity="0.616"
     d="m 127.667,15.341006 q -0.17,0.25 -0.22,0.72 -0.01,-0.67 0.22,-0.72 z"
     id="path150" />
  <path
     fill="#0f0e10"
     fill-opacity="0.937"
     d="m 127.307,16.381006 q 0.09,0.84 -0.14,1.48 z"
     id="path151" />
  <path
     fill="#0f0e10"
     fill-opacity="0.937"
     d="m 127.167,17.861006 -0.26,1.94 z"
     id="path152" />
  <path
     fill="#ffffff"
     d="m 169.367,47.471006 q 0.18,-0.42 -0.02,-0.79 -0.2,-0.38 -0.67,-0.31 -0.47,-1.38 -1.52,-1.42 a 0.88,0.87 15.4 0 0 -0.8,0.45 q -0.52,0.91 -0.86,2.94 -0.43,2.61 -0.17,5.28 l -0.07,1.18 -0.46,1.01 a 0.98,0.99 37.3 0 1 -1.66,0.23 l -3.9,-4.75 a 1.56,1.55 85.9 0 0 -0.4,-0.35 q -2.38,-1.37 -4.23,-3.38 -0.07,-0.31 -0.41,-0.38 l -0.58,-0.38 q 0.32,-0.38 -0.47,-0.77 -0.15,-0.72 -0.45,-1.23 l -1.91,-3.96 a 2.17,2.24 9 0 0 -0.38,-0.54 q -5.59,-5.68 -4.51,-12.17 0.91,-5.44 5.61,-8.58 c 3.31,-2.21 6.4,-2.17 9.01,0.88 1.35,1.57 0.39,5.55 1.3,7.77 a 4.33,4.38 16.2 0 0 0.45,0.83 q 3.18,4.61 3.39,5.6 0.47,2.21 3.32,5.54 3.35,3.94 6.47,10.94 a 0.56,0.56 0 0 1 -0.65,0.77 l -1.11,-0.3 a 1.61,1.61 0 0 1 -1.01,-0.8 q -0.99,-1.79 -3.31,-3.31 z"
     id="path153" />
  <path
     fill="#0f0e10"
     fill-opacity="0.937"
     d="m 126.797,21.101006 0.35,4.06 q -1.11,-1.93 -0.35,-4.06 z"
     id="path154" />
  <path
     fill="#0f0e10"
     fill-opacity="0.937"
     d="m 127.687,26.141006 q -0.64,-0.03 -0.54,-0.98 0.52,0.11 0.54,0.98 z"
     id="path155" />
  <path
     fill="#0f0e10"
     fill-opacity="0.937"
     d="m 129.187,27.991006 q -0.82,0 -1.01,-0.94 0.91,0.24 1.01,0.94 z"
     id="path156" />
  <ellipse
     fill="#0f0e10"
     fill-opacity="0.937"
     cx="-129.82526"
     cy="-35.034634"
     transform="rotate(-178.7)"
     rx="2.5899999"
     ry="0.49000001"
     id="ellipse156" />
  <path
     fill="#0f0e10"
     fill-opacity="0.937"
     d="m 153.147,46.031006 q -0.49,0.21 -0.45,-1.23 0.3,0.51 0.45,1.23 z"
     id="path157" />
  <path
     fill="#0f0e10"
     fill-opacity="0.937"
     d="m 153.617,46.801006 q -0.34,0.05 -0.47,-0.77 0.79,0.39 0.47,0.77 z"
     id="path158" />
  <path
     fill="#ebe7ed"
     fill-opacity="0.616"
     d="m 169.367,47.471006 q -0.62,-0.34 -0.69,-1.1 0.47,-0.07 0.67,0.31 0.2,0.37 0.02,0.79 z"
     id="path159" />
  <path
     fill="#ffffff"
     d="m 111.467,47.621006 q -0.29,1.01 0.13,1.68 l 0.6,0.39 q 0.27,0.26 0.67,0.3 l 1.58,0.63 q 1.09,0.59 2.16,0.24 l 0.76,-0.23 q 1.02,-0.25 1.88,-0.83 0.34,-0.02 0.62,-0.18 l 1.81,-0.81 0.96,-0.13 2.84,-0.58 a 0.32,0.32 0 0 1 0.32,0.5 c -1.52,2.1 -2.38,4.5 -3.7,6.21 -3.52,4.56 -6.71,8.59 -11.83,12.12 q -1.73,1.19 -5.27,4.26 -0.93,0.8 -2.33,0.62 -0.33,-0.32 -0.76,-0.48 l -1.98,-3.32 a 2.34,2.34 0 0 0 -0.48,-0.6 q -2.51,-2.33 -2.92,-5.03 a 2.86,2.87 52.4 0 1 0.21,-1.6 q 2.84,-6.46 6.28,-11.29 c 1.42,-2 3.44,-2.97 5.43,-2.97 q 0.09,0.01 3.03,0.44 a 0.04031129,0.04031129 0 0 1 0.01,0.08 q -0.15,0.09 -0.21,0.17 a 0.19,0.19 0 0 0 0,0.24 q 0.08,0.1 0.19,0.17 z"
     id="path160" />
  <path
     fill="#ffffff"
     d="m 145.187,47.741006 q 0.23,0.26 0.55,0.26 l 5.32,6.13 a 0.7,0.77 10.9 0 1 0.14,0.23 l 0.52,1.44 -0.24,2.26 q -0.36,0.98 -1.87,1.95 -6.34,4.06 -12.22,6.54 a 3.06,3.05 61.9 0 1 -3.75,-1.14 l -2.51,-3.84 a 2.48,2.47 48.3 0 1 0.16,-2.93 c 1.23,-1.68 3.47,-4.64 5.58,-6.64 q 2.33,-2.21 4.51,-4.49 1.44,-1.52 3.81,0.23 z"
     id="path161" />
  <path
     fill="#ebe7ed"
     fill-opacity="0.616"
     d="m 154.607,47.561006 q -0.3,-0.12 -0.41,-0.38 0.34,0.07 0.41,0.38 z"
     id="path162" />
  <path
     fill="#0f0e10"
     fill-opacity="0.937"
     d="m 111.597,49.301006 q -0.42,-0.67 -0.13,-1.68 0.63,0.54 0.13,1.68 z"
     id="path163" />
  <path
     fill="#0f0e10"
     fill-opacity="0.937"
     d="m 145.737,48.001006 q -0.32,0 -0.55,-0.26 0.03,-0.15 0.55,0.26 z"
     id="path164" />
  <path
     fill="#0f0e10"
     fill-opacity="0.937"
     d="m 122.637,48.681006 -0.96,0.13 q 0.32,-0.36 0.96,-0.13 z"
     id="path165" />
  <path
     fill="#0f0e10"
     fill-opacity="0.937"
     d="m 112.867,49.991006 q -0.4,-0.04 -0.67,-0.3 0.42,0.02 0.67,0.3 z"
     id="path166" />
  <path
     fill="#0f0e10"
     fill-opacity="0.937"
     d="m 119.867,49.621006 q -0.28,0.16 -0.62,0.18 0.24,-0.2 0.62,-0.18 z"
     id="path167" />
  <path
     fill="#0f0e10"
     fill-opacity="0.937"
     d="m 116.607,50.861006 q -1.07,0.35 -2.16,-0.24 z"
     id="path168" />
  <path
     fill="#0f0e10"
     fill-opacity="0.937"
     d="m 117.367,50.631006 -0.76,0.23 q 0.3,-0.28 0.76,-0.23 z"
     id="path169" />
  <path
     fill="#0f0e10"
     fill-opacity="0.937"
     d="m 165.327,53.621006 -0.07,1.18 z"
     id="path170" />
  <path
     fill="#0f0e10"
     fill-opacity="0.937"
     d="m 151.477,58.061006 0.24,-2.26 q 0.39,1.1 -0.24,2.26 z"
     id="path171" />
  <path
     fill="#ffffff"
     d="m 194.677,67.871006 0.11,0.73 2.74,9.7 a 2.31,2.27 38.7 0 1 0.08,0.67 l -0.07,2.67 a 6.25,6.18 37.4 0 0 0.27,1.94 l 2.7,8.97 -0.07,0.99 q -0.21,0.93 -0.74,1.39 l -1,0.62 -1.83,0.84 -2.43,0.1 -4.38,0.61 a 1.01,1.01 0 0 1 -0.97,-0.41 q -2.68,-3.8 -8.1,-10.9 -0.9,-1.19 -2.98,-3.34 -3.31,-3.41 -4.21,-8.18 a 1.05,1.07 65.4 0 1 0.39,-1.03 c 3.93,-3.06 8.04,-4.5 13.14,-6.73 2.23,-0.97 6.25,-1.49 7.35,1.36 z"
     id="path172" />
  <path
     fill="#ffffff"
     d="m 167.467,86.601006 q -0.98,2.79 -3.34,4.2 l -0.43,0.11 -1.5,0.02 -2.83,-0.44 -1.4,-0.49 q -4.29,-1 -6.31,-3.39 -3.4,-4.02 -5.99,-11.51 -0.23,-0.66 -0.06,-3.73 a 1.13,1.16 75 0 1 0.54,-0.91 q 5.28,-3.31 10.55,-4.56 a 1.69,1.71 65.7 0 1 1.77,0.66 q 1.52,2.13 2.97,5.25 3.45,7.43 6.03,14.79 z"
     id="path173" />
  <path
     fill="#0f0e10"
     fill-opacity="0.937"
     d="m 194.787,68.601006 -0.11,-0.73 q 0.19,0.38 0.11,0.73 z"
     id="path174" />
  <path
     fill="#ffffff"
     d="m 92.757,87.011006 q -0.14,0.36 -0.47,0.51 l -2.8,3.64 q -0.21,0.12 -0.38,0.55 l -1.73,2.42 q -0.19,0.29 -0.23,0.66 l -1.97,2.11 a 0.49,0.44 68.6 0 0 -0.12,0.32 q 0,0.73 -1.33,0.44 a 0.58,0.57 21.3 0 0 -0.62,0.27 q -0.06,0.1 0.06,0.36 a 0.31,0.31 0 0 1 -0.28,0.43 h -0.68 q -0.48,-1.48 -1.5,-1.56 a 0.8,0.8 0 0 0 -0.62,1.38 q 0.29,0.29 0.17,1.32 -0.24,0.950004 -0.85,1.500004 a 0.62,0.58 17.6 0 1 -0.31,0.15 q -1.06,0.16 -1.66,-1.790004 2.8,-1.97 1.18,-2.67 1.78,-1.18 1.41,-2.07 -0.19,-0.46 -0.92,-0.26 l 0.2,-0.19 a 0.32,0.32 0 0 0 -0.16,-0.54 q -0.61,-0.11 -0.8,0.47 l -1.25,0.08 q 1.03,-0.65 2.26,-0.88 a 0.44,0.43 83.2 0 0 0.35,-0.45 q -0.03,-0.34 -0.29,-0.54 a 0.45,0.45 0 0 0 -0.49,-0.04 q -6.11,3.32 -5.92,-1.59 l 5.18,-11.83 a 2.27,2.31 75.3 0 1 0.31,-0.52 q 3.77,-4.79 8.56,-7.21 a 0.71,0.72 53.4 0 1 0.83,0.12 q 0.41,0.39 0.8,0.35 a 1.52,1.66 19.3 0 1 1.16,2.71 c -0.81,0.95 -2.09,1.54 -2.58,2.6 q -0.87,1.91 0.15,3.76 2.43,4.37 6.21,2.13 a 2.24,2.24 0 0 1 2.35,0.05 l 0.04,0.02 a 0.93,0.91 43.9 0 1 0.05,1.53 z m -11.26,0.1 0.06,1.94 0.39,0.57 q -0.14,0.92 0.2,1.65 a 0.81,0.82 77.4 0 0 0.76,0.48 q 0.83,-0.02 0.79,-0.62 -0.01,-0.16 -0.01,-0.33 0.48,0.04 0.92,-0.11 0.35,-0.12 0.41,-0.4 0.06,-0.25 -0.07,-0.57 l 0.76,-0.17 q 0.3,-0.34 0.26,-0.96 0.34,0.11 0.72,-0.25 2.1,-3.22 -1.22,-6.11 -1.84,-1.6 -2.89,0.53 -0.92,1.87 -1.08,4.35 z"
     id="path175" />
  <path
     fill="#0f0e10"
     fill-opacity="0.937"
     d="m 102.667,71.811006 q -0.6,-0.02 -0.76,-0.48 0.43,0.16 0.76,0.48 z"
     id="path176" />
  <path
     fill="#ffffff"
     d="m 111.237,88.211006 q -0.39,-0.93 -1.08,-1.6 l 0.14,-2.56 q 0.19,-0.47 0.5,-0.64 3.58,-7.17 8.48,-10.21 c 3.87,-2.39 9.99,2.53 12.51,5.56 a 0.56,0.55 47 0 1 -0.02,0.75 l -12.01,12.72 a 0.7,0.76 13 0 1 -0.28,0.19 c -3.58,1.42 -6.35,-1.34 -8.24,-4.21 z"
     id="path177" />
  <path
     fill="#0f0e10"
     fill-opacity="0.937"
     d="m 110.797,83.411006 q -0.31,0.17 -0.5,0.64 l -0.43,0.5 q 0.07,-0.9 0.93,-1.14 z"
     id="path178" />
  <path
     fill="#ebe7ed"
     fill-opacity="0.616"
     d="m 110.297,84.051006 -0.14,2.56 q -0.13,0 -0.25,-0.01 0.19,-0.71 -0.11,-1.52 l 0.07,-0.53 z"
     id="path179" />
  <path
     fill="#0f0e10"
     fill-opacity="0.937"
     d="m 109.797,85.081006 q 0.3,0.81 0.11,1.52 -0.86,-0.03 -0.11,-1.52 z"
     id="path180" />
  <path
     fill="#0f0e10"
     fill-opacity="0.937"
     d="m 110.157,86.611006 q 0.69,0.67 1.08,1.6 -1.68,-0.57 -1.33,-1.61 0.12,0.01 0.25,0.01 z"
     id="path181" />
  <path
     fill="#0f0e10"
     fill-opacity="0.937"
     d="m 164.127,90.801006 q 2.36,-1.41 3.34,-4.2 l -0.06,2.6 a 0.76,0.77 81.4 0 1 -0.53,0.71 z"
     id="path182" />
  <path
     fill="#ebe7ed"
     fill-opacity="0.616"
     d="m 81.557,89.051006 -0.06,-1.94 z"
     id="path183" />
  <path
     fill="#0f0e10"
     fill-opacity="0.937"
     d="m 92.757,87.011006 q 0.01,0.43 -0.47,0.51 0.33,-0.15 0.47,-0.51 z"
     id="path184" />
  <path
     fill="#0f0e10"
     fill-opacity="0.937"
     d="m 86.687,88.341006 q -0.38,0.36 -0.72,0.25 0.21,-0.18 0.72,-0.25 z"
     id="path185" />
  <path
     fill="#0f0e10"
     fill-opacity="0.937"
     d="m 85.967,88.591006 q 0.04,0.62 -0.26,0.96 0.02,-0.55 0.26,-0.96 z"
     id="path186" />
  <path
     fill="#ebe7ed"
     fill-opacity="0.616"
     d="m 83.697,91.131006 q 0.04,0.6 -0.79,0.62 a 0.81,0.82 77.4 0 1 -0.76,-0.48 q -0.34,-0.73 -0.2,-1.65 0.22,1.43 1.75,1.51 z"
     id="path187" />
  <path
     fill="#0f0e10"
     fill-opacity="0.937"
     d="m 84.947,89.721006 q 0.13,0.32 0.07,0.57 -0.06,0.28 -0.41,0.4 -0.44,0.15 -0.92,0.11 -0.1,-0.95 1.26,-1.08 z"
     id="path188" />
  <path
     fill="#0f0e10"
     fill-opacity="0.937"
     d="m 159.367,90.491006 q -1.36,0.13 -1.4,-0.49 z"
     id="path189" />
  <path
     fill="#0f0e10"
     fill-opacity="0.937"
     d="m 163.697,90.911006 q -0.73,0.16 -1.5,0.02 z"
     id="path190" />
  <path
     fill="#ebe7ed"
     fill-opacity="0.616"
     d="m 73.007,91.041006 q -0.19,4.91 5.92,1.59 a 0.45,0.45 0 0 1 0.49,0.04 q 0.26,0.2 0.29,0.54 a 0.44,0.43 83.2 0 1 -0.35,0.45 q -1.23,0.23 -2.26,0.88 0.24,1.52 1.52,2.51 1.62,0.7 -1.18,2.67 -0.69,-0.44 -1.16,-1.51 -0.27,-0.64 -1.9,-1.84 -2.45,-1.81 -1.37,-5.33 z"
     id="path191" />
  <path
     fill="#0f0e10"
     fill-opacity="0.937"
     d="m 89.487,91.161006 -0.38,0.55 q 0.17,-0.43 0.38,-0.55 z"
     id="path192" />
  <path
     fill="#0f0e10"
     fill-opacity="0.937"
     d="m 200.437,93.541006 0.07,-0.99 q 0.1,0.55 -0.07,0.99 z"
     id="path193" />
  <path
     fill="#ebe7ed"
     fill-opacity="0.616"
     d="m 79.107,94.721006 -0.76,-0.26 q 0.19,-0.58 0.8,-0.47 a 0.32,0.32 0 0 1 0.16,0.54 z"
     id="path194" />
  <path
     fill="#0f0e10"
     fill-opacity="0.937"
     d="m 87.377,94.131006 q -0.01,0.41 -0.23,0.66 0.04,-0.37 0.23,-0.66 z"
     id="path195" />
  <path
     fill="#0f0e10"
     fill-opacity="0.937"
     d="m 78.347,94.461006 0.76,0.26 q 0.73,-0.2 0.92,0.26 0.37,0.89 -1.41,2.07 -1.28,-0.99 -1.52,-2.51 z"
     id="path196" />
  <path
     fill="#0f0e10"
     fill-opacity="0.937"
     d="m 199.697,94.931006 c 0.48,0.71 -0.64,0.7 -1,0.62 z"
     id="path197" />
  <path
     fill="#0f0e10"
     fill-opacity="0.937"
     d="m 196.867,96.391006 q -1.19,0.27 -2.43,0.1 z"
     id="path198" />
  <path
     fill="#ebe7ed"
     fill-opacity="0.616"
     d="m 82.207,98.721006 -0.68,0.33 -0.41,0.66 q -0.38,0.410004 -0.86,0.15 0.12,-1.03 -0.17,-1.32 a 0.8,0.8 0 0 1 0.62,-1.38 q 1.02,0.08 1.5,1.56 z"
     id="path199" />
  <path
     fill="#0f0e10"
     fill-opacity="0.937"
     d="m 81.117,99.711006 0.41,-0.66 c 0.34,0.26 -0.01,0.75 -0.41,0.66 z"
     id="path200" />
  <path
     fill="#0f0e10"
     fill-opacity="0.937"
     d="m 103.947,99.691006 q -0.39,0.19 -0.82,0.05 z"
     id="path201" />
  <path
     fill="#ffffff"
     d="m 104.357,99.661006 q 0.39,0.450004 1.25,0.22 l 0.84,0.570004 0.66,0.47 q 1.92,1.48 5.05,2.71 0.61,0.24 0.72,0.99 -0.19,0.42 -0.03,1.05 -1.18,1.87 -3.06,3.47 a 0.78,0.93 83.5 0 0 -0.17,0.18 l -5.3,7.02 -0.93,1.22 c -1.95,2.29 -9.31,1.04 -11.94,0.32 a 0.9,0.89 0.6 0 1 -0.62,-0.63 q -0.23,-0.78 -0.1,-1.64 0.39,-0.37 0.17,-1.08 0.2,-0.28 0.29,-0.65 0.4,-0.56 0.17,-1.25 0.25,-0.64 0.27,-1.29 l 0.62,-1.5 q 0.29,-0.04 0.49,-0.44 1.12,-1.5 2.19,-3.07 3.16,-4.59 8.2,-6.590004 0.43,0.14 0.82,-0.05 z"
     id="path202" />
  <path
     fill="#0f0e10"
     fill-opacity="0.937"
     d="m 105.607,99.881006 q -0.86,0.230004 -1.25,-0.22 0.76,-0.07 1.25,0.22 z"
     id="path203" />
  <path
     fill="#0f0e10"
     fill-opacity="0.937"
     d="m 107.107,100.92101 -0.66,-0.47 q 0.52,-0.06 0.66,0.47 z"
     id="path204" />
  <path
     fill="#ffffff"
     d="m 182.617,126.85101 a 1.28,1.27 9.7 0 1 -1.62,1.14 q -8.32,-2.37 -12.65,-3.82 -2.35,-0.79 -3.1,-1.99 a 2.94,3.15 16 0 1 -0.27,-0.53 c -2,-4.91 -3.97,-9.66 -3.06,-14.7 a 1.82,1.84 77.4 0 1 0.77,-1.2 q 4.39,-3.04 10.14,-1.57 2.11,0.54 2.81,1.32 a 2.46,2.56 9.3 0 1 0.4,0.58 q 1.86,3.63 2.61,7.86 a 3.48,3.48 0 0 0 0.33,0.99 c 1.92,3.84 3.88,8.27 3.64,11.92 z"
     id="path205" />
  <path
     fill="#ffffff"
     d="m 217.357,127.87101 q -0.17,-0.44 -0.67,-0.56 l -1.3,-1.44 q -0.23,-0.52 -0.51,-0.53 -3.82,-5.05 -6.52,-10.84 a 1.76,1.96 21.6 0 1 -0.1,-0.27 l -1.89,-7.58 a 1.71,1.73 72.1 0 1 1.04,-2.01 c 4.51,-1.79 10.08,-0.06 14.75,0.67 a 1.37,1.38 83.6 0 1 1.07,0.85 c 1.52,3.79 0.9,7.45 0.4,12.47 a 2.84,2.84 0 0 0 1.35,2.71 c 4.46,2.69 12.6,6.55 13.89,12.23 a 0.96,0.96 0 0 1 -0.91,1.17 c -7.34,0.22 -12.98,-2.59 -20.6,-6.87 z"
     id="path206" />
  <path
     fill="#0f0e10"
     fill-opacity="0.937"
     d="m 112.877,104.62101 -0.03,1.05 q -0.16,-0.63 0.03,-1.05 z"
     id="path207" />
  <path
     fill="#ffffff"
     d="m 135.587,115.87101 -0.1,0.68 -0.21,0.5 q 0.01,0.42 -0.14,0.74 l -2.71,5.85 q -0.37,0.21 -0.55,0.66 c -2.94,3.61 -4.87,6.26 -9.7,5.45 -4.85,-0.81 -4.15,-5.27 -2.98,-8.9 a 3.99,4.16 69.4 0 1 0.48,-1 q 2.56,-3.93 5.48,-9.65 1.02,-2.01 3.82,-2.59 5.54,-1.15 7.41,4.04 0.78,2.17 -0.8,4.22 z"
     id="path208" />
  <path
     fill="#0f0e10"
     fill-opacity="0.937"
     d="m 92.737,109.40101 q -0.2,0.4 -0.49,0.44 0.16,-0.34 0.49,-0.44 z"
     id="path209" />
  <path
     fill="#0f0e10"
     fill-opacity="0.937"
     d="m 91.627,111.34101 q -0.02,0.65 -0.27,1.29 -0.07,0 -0.14,0 -0.2,-0.8 0.41,-1.29 z"
     id="path210" />
  <path
     fill="#ffffff"
     d="m 71.467,115.75101 q -0.09,0.62 0.06,1.13 -0.02,0.34 -0.18,0.57 -2.97,2.15 -3.89,3.18 -5.29,5.9 -8.76,12.89 -0.27,0.01 -0.27,0.56 -0.49,0.23 -0.75,0.59 a 0.75,0.76 15.7 0 1 -0.49,0.28 q -5.86,0.69 -8,-2.42 l -0.34,-4.4 a 0.99,1.14 14.9 0 1 0.01,-0.16 q 0.61,-3.72 2.91,-6.74 1.92,-2.51 3.71,-5.1 l 0.4,-0.57 q 0.35,-0.11 0.46,-0.45 l 1.63,-1.56 q 0.45,-0.11 0.82,-0.42 l 0.34,-0.26 1.97,-0.78 q 3,-0.54 6.53,2.02 a 2.2,2.38 76.5 0 0 0.5,0.28 z"
     id="path211" />
  <path
     fill="#0f0e10"
     fill-opacity="0.937"
     d="m 61.097,112.09101 -1.97,0.78 q 0.47,-0.85 1.97,-0.78 z"
     id="path212" />
  <path
     fill="#ebe7ed"
     fill-opacity="0.616"
     d="m 91.357,112.63101 q 0.23,0.69 -0.17,1.25 l -0.1,-0.58 0.13,-0.67 q 0.07,0 0.14,0 z"
     id="path213" />
  <path
     fill="#0f0e10"
     fill-opacity="0.937"
     d="m 58.787,113.13101 q -0.37,0.31 -0.82,0.42 0.33,-0.48 0.82,-0.42 z"
     id="path214" />
  <path
     fill="#0f0e10"
     fill-opacity="0.937"
     d="m 91.087,113.30101 0.1,0.58 q -0.09,0.37 -0.29,0.65 -0.13,-0.72 0.19,-1.23 z"
     id="path215" />
  <path
     fill="#ebe7ed"
     fill-opacity="0.616"
     d="m 90.897,114.53101 q 0.22,0.71 -0.17,1.08 -0.32,-0.66 0.17,-1.08 z"
     id="path216" />
  <path
     fill="#0f0e10"
     fill-opacity="0.937"
     d="m 56.337,115.11101 q -0.11,0.34 -0.46,0.45 0.15,-0.35 0.46,-0.45 z"
     id="path217" />
  <path
     fill="#ebe7ed"
     fill-opacity="0.616"
     d="m 71.687,116.88101 q -0.08,0 -0.16,0 -0.15,-0.51 -0.06,-1.13 0.42,0.06 0.22,1.13 z"
     id="path218" />
  <path
     fill="#0f0e10"
     fill-opacity="0.937"
     d="m 135.587,115.87101 q 0.02,0.31 -0.1,0.68 z"
     id="path219" />
  <path
     fill="#0f0e10"
     fill-opacity="0.937"
     d="m 55.477,116.13101 q -1.79,2.59 -3.71,5.1 -2.3,3.02 -2.91,6.74 a 0.99,1.14 14.9 0 0 -0.01,0.16 l 0.34,4.4 q -1.96,-4.53 0.36,-8.31 3.19,-5.2 5.93,-8.09 z"
     id="path220" />
  <path
     fill="#0f0e10"
     fill-opacity="0.937"
     d="m 104.317,116.34101 q -0.07,0.89 -0.93,1.22 z"
     id="path221" />
  <path
     fill="#0f0e10"
     fill-opacity="0.937"
     d="m 71.687,116.88101 q -0.03,0.47 -0.34,0.57 0.16,-0.23 0.18,-0.57 0.08,0 0.16,0 z"
     id="path222" />
  <path
     fill="#0f0e10"
     fill-opacity="0.937"
     d="m 110.467,116.91101 q 0.06,0.23 0.01,0.3 a 0.25,0.28 77.6 0 1 -0.46,-0.26 q 0.04,-0.05 0.31,-0.12 a 0.11,0.11 0 0 1 0.14,0.08 z"
     id="path223" />
  <path
     fill="#0f0e10"
     fill-opacity="0.937"
     d="m 135.137,117.79101 q 0.15,-0.32 0.14,-0.74 0.1,0.52 -0.14,0.74 z"
     id="path224" />
  <path
     fill="#0f0e10"
     fill-opacity="0.937"
     d="m 132.427,123.64101 q -0.24,0.44 -0.55,0.66 0.18,-0.45 0.55,-0.66 z"
     id="path225" />
  <path
     fill="#ffffff"
     d="m 157.647,132.32101 1.48,1.1 q 6.17,5.9 9.97,13.92 0.31,1.33 0.04,2.77 a 0.66,0.66 0 0 1 -0.49,0.52 q -0.24,0.06 -0.45,0.21 -0.56,0.2 -0.99,0.66 -6.08,2.14 -11.34,-1.15 a 2.98,2.85 86.1 0 1 -0.7,-0.64 q -3.05,-3.96 -5.56,-6.75 c -3.43,-3.79 -6.78,-9.78 -7,-13.82 -0.32,-6.12 6.13,-4.78 8.98,-2.23 q 3.05,2.73 6.06,5.41 z"
     id="path226" />
  <path
     fill="#0f0e10"
     fill-opacity="0.937"
     d="m 215.387,125.87101 q -0.28,-0.15 -0.51,-0.53 0.28,0.01 0.51,0.53 z"
     id="path227" />
  <path
     fill="#0f0e10"
     fill-opacity="0.937"
     d="m 217.357,127.87101 q -0.4,-0.21 -0.67,-0.56 0.5,0.12 0.67,0.56 z"
     id="path228" />
  <path
     fill="#0f0e10"
     fill-opacity="0.937"
     d="m 159.127,133.42101 -1.48,-1.1 q 0.72,-0.1 1.48,1.1 z"
     id="path229" />
  <path
     fill="#0f0e10"
     fill-opacity="0.937"
     d="m 58.697,133.52101 q 0.26,0.18 -0.27,0.56 0,-0.55 0.27,-0.56 z"
     id="path230" />
  <path
     fill="#0f0e10"
     fill-opacity="0.937"
     d="m 81.407,135.05101 -3.49,-0.02 q 1.85,-0.32 3.49,0.02 z"
     id="path231" />
  <path
     fill="#ffffff"
     d="m 77.917,135.03101 3.49,0.02 q 0.44,0.22 1,0.29 l 1.46,0.76 0.58,0.54 q 0.16,0.27 0.43,0.46 l 2.82,4.73 0.43,4.17 -0.34,0.38 q -0.35,0.25 -0.3,0.48 l -8.19,9.5 a 0.27,0.66 22.5 0 1 -0.1,0.1 l -3.98,3.52 a 2.24,2.19 11.9 0 1 -0.58,0.37 c -2.19,0.92 -8.53,2.36 -10.23,-0.28 q -2.76,-4.26 0.41,-8.56 4.46,-6.03 8.36,-12.4 0.32,-0.1 0.53,-0.54 1.39,-2.82 4.21,-3.54 z"
     id="path232" />
  <path
     fill="#0f0e10"
     fill-opacity="0.937"
     d="m 82.407,135.34101 q -0.56,-0.07 -1,-0.29 0.56,0.07 1,0.29 z"
     id="path233" />
  <path
     fill="#0f0e10"
     fill-opacity="0.937"
     d="m 83.867,136.10101 -1.46,-0.76 q 1.23,0.07 1.46,0.76 z"
     id="path234" />
  <path
     fill="#0f0e10"
     fill-opacity="0.937"
     d="m 84.877,137.10101 q -0.27,-0.19 -0.43,-0.46 0.34,0.09 0.43,0.46 z"
     id="path235" />
  <path
     fill="#ffffff"
     d="m 191.437,138.59101 0.94,0.78 q 1.31,1 2.29,2.53 0.13,0.36 0.46,0.48 l 2.92,5.12 a 1.34,1.33 8 0 0 0.22,0.29 q 3.19,3.2 7.23,9.2 1.34,1.99 1.99,4.07 a 1.44,1.44 0 0 1 -1.25,1.86 c -7.1,0.58 -15,-0.8 -19.35,-6.83 q -4.03,-5.59 -7.44,-11.56 l 0.01,-1.71 q 2.45,-2.39 5.16,-4.52 3.42,-2.7 6.82,0.29 z"
     id="path236" />
  <path
     fill="#0f0e10"
     fill-opacity="0.937"
     d="m 73.707,138.57101 q -0.21,0.44 -0.53,0.54 0.17,-0.49 0.53,-0.54 z"
     id="path237" />
  <path
     fill="#0f0e10"
     fill-opacity="0.937"
     d="m 192.377,139.37101 -0.94,-0.78 q 0.88,0 0.94,0.78 z"
     id="path238" />
  <path
     fill="#ffffff"
     d="m 107.877,150.06101 q 3.95,-5.29 5.84,-6.65 5.85,-4.19 9.83,1.64 a 1.18,1.18 0 0 1 0.17,0.95 c -1.11,4.47 -4.35,7.64 -7.05,11.25 q -3.94,5.28 -5.84,6.64 -5.85,4.2 -9.83,-1.63 a 1.18,1.18 0 0 1 -0.17,-0.96 c 1.12,-4.47 4.36,-7.64 7.05,-11.24 z"
     id="path239" />
  <path
     fill="#0f0e10"
     fill-opacity="0.937"
     d="m 88.127,146.00101 -0.43,-4.17 q 0.35,1.32 1.05,2.13 a 0.68,0.69 50.9 0 0 0.94,0.09 q 0.11,-0.08 0.16,-0.11 a 0.34,0.34 0 0 1 0.5,0.31 q -0.06,1.5 -2.22,1.75 z"
     id="path240" />
  <path
     fill="#0f0e10"
     fill-opacity="0.937"
     d="m 195.127,142.38101 q -0.33,-0.12 -0.46,-0.48 0.29,0.06 0.46,0.48 z"
     id="path241" />
  <path
     fill="#ebe7ed"
     fill-opacity="0.616"
     d="m 179.457,142.82101 -0.01,1.71 q -0.27,-0.18 -0.31,-0.65 l -0.09,-0.75 z"
     id="path242" />
  <path
     fill="#0f0e10"
     fill-opacity="0.937"
     d="m 179.047,143.13101 0.09,0.75 q -0.18,-0.36 -0.09,-0.75 z"
     id="path243" />
  <path
     fill="#ffffff"
     d="m 242.367,145.01101 q 0.24,0.31 0.77,0.22 l 0.56,0.17 0.71,0.23 0.71,0.24 0.33,0.22 q 0.29,0.29 0.77,0.27 4.29,4.28 7.36,9.77 a 3.79,3.73 28.1 0 1 0.48,1.54 q 0.13,1.38 2.78,2.3 a 1.31,1.31 0 0 1 0.45,0.25 c 2.54,2.01 6.25,4.61 7.43,7.64 a 1.07,1.07 0 0 1 -1,1.46 h -4.63 a 0.63,0.6 65.7 0 1 -0.42,-0.17 l -3.57,-3.36 a 1.57,1.57 0 0 0 -2.14,-0.02 c -1.8,1.64 -2.95,6.28 -3.47,8.37 a 1.53,1.53 0 0 1 -2.43,0.83 c -4.76,-3.73 -7.18,-8.66 -11.5,-15.8 q -2.38,-3.92 -3.13,-8.53 l 0.21,-0.74 q 3.95,-5.03 9.73,-4.89 z"
     id="path244" />
  <path
     fill="#0f0e10"
     fill-opacity="0.937"
     d="m 243.137,145.23101 q -0.53,0.09 -0.77,-0.22 0.26,0.26 0.77,0.22 z"
     id="path245" />
  <path
     fill="#0f0e10"
     fill-opacity="0.937"
     d="m 244.407,145.63101 -0.71,-0.23 q 0.39,0.04 0.71,0.23 z"
     id="path246" />
  <path
     fill="#0f0e10"
     fill-opacity="0.937"
     d="m 245.117,145.87101 -0.71,-0.24 q 0.41,0.04 0.71,0.24 z"
     id="path247" />
  <path
     fill="#0f0e10"
     fill-opacity="0.937"
     d="m 246.217,146.36101 q -0.48,0.02 -0.77,-0.27 0.3,0.03 0.77,0.27 z"
     id="path248" />
  <path
     fill="#ffffff"
     d="m 36.867,163.12101 q -0.92,0.3 -1.54,0.88 -1.06,1.65 -2.6,1.9 l -1.78,-0.04 q -0.13,-0.06 -0.25,-0.12 l -0.04,-0.44 q 0.08,-0.46 -0.03,-0.92 l 0.31,-1.58 q 0.56,-0.6 0.15,-1 0.2,-1.08 -0.01,-2.25 l 0.18,-2.71 0.05,-0.71 q 0.07,-0.12 0.14,-0.24 0.69,-1.26 0.47,-2.37 0.24,-0.21 0.23,-0.62 0.67,-0.05 0.48,-0.78 0.44,-1.42 1.64,-2.29 0.42,0.07 0.93,-0.62 0.27,-0.27 0.51,-0.34 1.66,-0.55 2.99,-1.71 0.43,-0.04 0.95,-0.42 0.42,0.06 0.71,-0.11 c 2.08,-0.44 8.74,-0.63 8.45,2.99 a 1.73,1.66 66.1 0 1 -0.3,0.83 c -3.94,5.49 -6.59,9.55 -11.64,12.67 z"
     id="path249" />
  <path
     fill="#0f0e10"
     fill-opacity="0.937"
     d="m 87.787,146.38101 q -0.03,0.25 -0.3,0.48 -0.05,-0.23 0.3,-0.48 z"
     id="path250" />
  <path
     fill="#ebe7ed"
     fill-opacity="0.616"
     d="m 40.357,146.63101 q -0.29,0.17 -0.71,0.11 0.34,-0.13 0.71,-0.11 z"
     id="path251" />
  <path
     fill="#0f0e10"
     fill-opacity="0.937"
     d="m 38.697,147.16101 q -1.33,1.16 -2.99,1.71 1.09,-1.52 2.99,-1.71 z"
     id="path252" />
  <path
     fill="#0f0e10"
     fill-opacity="0.937"
     d="m 168.197,150.84101 q 0.21,-0.15 0.45,-0.21 a 0.66,0.66 0 0 0 0.49,-0.52 q 0.27,-1.44 -0.04,-2.77 0.91,1.13 0.49,2.96 a 0.69,0.68 6.3 0 1 -0.67,0.53 z"
     id="path253" />
  <path
     fill="#0f0e10"
     fill-opacity="0.937"
     d="m 35.197,149.21101 q -0.51,0.69 -0.93,0.62 0.28,-0.59 0.93,-0.62 z"
     id="path254" />
  <path
     fill="#0f0e10"
     fill-opacity="0.937"
     d="m 232.637,149.90101 -0.21,0.74 q -0.53,-0.21 0.21,-0.74 z"
     id="path255" />
  <path
     fill="#0f0e10"
     fill-opacity="0.937"
     d="m 168.197,150.84101 q -0.33,0.78 -0.99,0.66 0.43,-0.46 0.99,-0.66 z"
     id="path256" />
  <path
     fill="#0f0e10"
     fill-opacity="0.937"
     d="m 32.627,152.12101 q 0.19,0.73 -0.48,0.78 -0.1,-1.22 0.48,-0.78 z"
     id="path257" />
  <path
     fill="#0f0e10"
     fill-opacity="0.937"
     d="m 32.147,152.90101 q 0.01,0.41 -0.23,0.62 -0.05,-0.41 0.23,-0.62 z"
     id="path258" />
  <path
     fill="#ebe7ed"
     fill-opacity="0.616"
     d="m 31.917,153.52101 q 0.22,1.11 -0.47,2.37 -0.38,-1.42 0.47,-2.37 z"
     id="path259" />
  <path
     fill="#ffffff"
     d="m 136.277,155.26101 0.66,-0.06 q 0.13,0 0.26,0 l 0.92,0.06 6.65,1.12 a 1.52,1.52 0 0 1 1.22,1.89 l -0.6,2.25 a 2.89,2.95 73.6 0 1 -0.7,1.25 q -0.76,0.8 -5.11,5.73 -1.58,1.79 -4.72,2.63 l -0.71,0.16 q -4.25,1.95 -7.93,-1.26 -0.8,-0.69 -0.5,-2.24 l 0.07,-0.66 0.12,-0.58 0.21,-0.66 c 1.5,-5.55 3.39,-9.82 10.16,-9.63 z"
     id="path260" />
  <path
     fill="#0f0e10"
     fill-opacity="0.937"
     d="m 136.937,155.20101 -0.66,0.06 q 0.19,-0.12 0.66,-0.06 z"
     id="path261" />
  <path
     fill="#0f0e10"
     fill-opacity="0.937"
     d="m 138.117,155.26101 -0.92,-0.06 z"
     id="path262" />
  <path
     fill="#0f0e10"
     fill-opacity="0.937"
     d="m 31.307,156.13101 -0.05,0.71 z"
     id="path263" />
  <ellipse
     fill="#0f0e10"
     fill-opacity="0.937"
     cx="26.902864"
     cy="177.70294"
     transform="rotate(-19.2)"
     rx="0.46000001"
     ry="0.34"
     id="ellipse263" />
  <path
     fill="#0f0e10"
     fill-opacity="0.937"
     d="m 31.077,159.55101 q 0.21,1.17 0.01,2.25 -0.09,0.04 -0.18,0.08 z"
     id="path264" />
  <path
     fill="#0f0e10"
     fill-opacity="0.937"
     d="m 174.377,161.82101 -2.01,-0.12 q 0,-0.06 0,-0.11 1.16,-0.39 2.01,0.23 z"
     id="path265" />
  <path
     fill="#0f0e10"
     fill-opacity="0.937"
     d="m 171.137,161.71101 q -0.33,0.1 -0.52,0.32 l -0.78,0.08 q 0.26,-0.63 1.3,-0.4 z"
     id="path266" />
  <path
     fill="#ebe7ed"
     fill-opacity="0.616"
     d="m 172.367,161.59101 q 0,0.05 0,0.11 l -0.77,0.14 q 0.29,-0.36 0.77,-0.25 z"
     id="path267" />
  <path
     fill="#ffffff"
     d="m 174.377,161.82101 q 2.54,0.11 3.21,1.49 c 2.81,2.5 2.62,6.01 2.92,10.04 a 1.34,1.34 0 0 1 -0.32,0.97 q -1.62,1.96 -1.65,4.04 a 0.56,0.56 0 0 1 -0.71,0.53 l -3.19,-0.85 a 0.77,0.78 88.7 0 1 -0.54,-0.51 q -0.19,-0.58 -0.72,-1.22 a 0.76,0.76 0 0 0 -0.37,-0.23 l -3.36,-0.9 a 0.15033296,0.15033296 0 0 1 0.02,-0.3 l 0.42,-0.07 a 0.37,0.37 0 0 0 0.18,-0.63 l -1.98,-1.91 c -1.83,-3.04 -2.22,-8.4 1.55,-10.16 l 0.78,-0.08 q 0.63,0.09 0.98,-0.19 l 0.77,-0.14 z"
     id="path268" />
  <path
     fill="#ebe7ed"
     fill-opacity="0.616"
     d="m 31.087,161.80101 q 0.41,0.4 -0.15,1 -0.16,-0.47 -0.03,-0.92 0.09,-0.04 0.18,-0.08 z"
     id="path269" />
  <path
     fill="#ebe7ed"
     fill-opacity="0.616"
     d="m 171.137,161.71101 0.46,0.13 q -0.35,0.28 -0.98,0.19 0.19,-0.22 0.52,-0.32 z"
     id="path270" />
  <path
     fill="#ebe7ed"
     fill-opacity="0.616"
     d="m 168.927,175.11101 q 0.32,-0.99 -0.25,-1.07 l -0.39,-1.77 1.98,1.91 a 0.37,0.37 0 0 1 -0.18,0.63 l -0.42,0.07 a 0.15033296,0.15033296 0 0 0 -0.02,0.3 l 3.36,0.9 a 0.76,0.76 0 0 1 0.37,0.23 q 0.53,0.64 0.72,1.22 a 0.77,0.78 88.7 0 0 0.54,0.51 l 3.19,0.85 a 0.56,0.56 0 0 0 0.71,-0.53 q 0.03,-2.08 1.65,-4.04 a 1.34,1.34 0 0 0 0.32,-0.97 c -0.3,-4.03 -0.11,-7.54 -2.92,-10.04 q 1.56,-0.81 3.47,1.55 1.97,2.42 2.11,3.93 a 0.23,0.22 77 0 0 0.3,0.19 l 0.39,-0.14 a 0.09,0.08 64.8 0 1 0.11,0.05 q 2.13,4.43 0.82,9.31 0.6,-2.13 0.55,-4.33 a 0.2,0.2 0 0 1 0.18,-0.21 h 0.01 a 0.18,0.18 0 0 1 0.19,0.16 c 0.74,4.43 -1.59,6.22 -4.3,9 a 3.06,3.18 78.8 0 0 -0.58,0.83 q -2.13,4.41 -6.59,2.13 a 1.69,1.69 0 0 1 -0.83,-0.93 l -2.15,-5.95 a 0.82,0.86 8.3 0 0 -0.25,-0.35 q -1.63,-1.33 -2.09,-3.44 z"
     id="path271" />
  <path
     fill="#0f0e10"
     fill-opacity="0.937"
     d="m 36.867,163.12101 q -0.57,0.71 -1.54,0.88 0.62,-0.58 1.54,-0.88 z"
     id="path272" />
  <path
     fill="#ebe7ed"
     fill-opacity="0.616"
     d="m 30.627,164.38101 q 0.11,0.46 0.03,0.92 l -0.28,-0.24 z"
     id="path273" />
  <path
     fill="#0f0e10"
     fill-opacity="0.937"
     d="m 126.117,164.89101 -0.21,0.66 q 0.05,-0.37 0.21,-0.66 z"
     id="path274" />
  <path
     fill="#0f0e10"
     fill-opacity="0.937"
     d="m 30.377,165.06101 0.28,0.24 0.04,0.44 c -0.4,0.17 -0.62,-0.64 -0.32,-0.68 z"
     id="path275" />
  <path
     fill="#0f0e10"
     fill-opacity="0.937"
     d="m 32.727,165.90101 q -0.91,0.28 -1.78,-0.04 z"
     id="path276" />
  <path
     fill="#0f0e10"
     fill-opacity="0.937"
     d="m 125.787,166.13101 -0.07,0.66 q -0.04,-0.33 0.07,-0.66 z"
     id="path277" />
  <path
     fill="#ffffff"
     d="m 218.377,169.66101 q 0.3,0.3 0.75,0.45 l 4.51,5.35 0.48,0.61 0.34,0.48 q 0.16,0.31 0.48,0.51 4.61,4.87 5.48,12.12 l 0.1,1.87 -0.46,2.8 q -0.95,2.88 -4.69,2.11 a 2.55,2.38 64 0 1 -0.76,-0.29 q -1.96,-1.13 -3.59,-2.19 -0.81,-0.53 -1.87,-0.02 -0.79,0.38 -0.93,0.36 a 0.23135471,0.23135471 0 0 1 0.05,-0.46 q 0.28,0.01 0.45,-0.03 a 0.17007351,0.17007351 0 0 0 -0.01,-0.34 q -0.59,-0.11 -1.36,0.13 0.23,-0.13 -0.46,-0.36 -0.22,-2.2 -1.45,-1.7 -0.25,-0.77 -0.53,-0.97 -2.49,-1.74 -4.67,-3.9 l 0.12,-1.3 a 0.9,0.9 0 0 1 0.5,-0.72 q 1.82,-0.85 1.88,-3.25 0.1,-4.17 -0.44,-7.31 c 1.79,-2.1 3.67,-5.14 6.08,-3.95 z"
     id="path278" />
  <path
     fill="#0f0e10"
     fill-opacity="0.937"
     d="m 219.127,170.11101 q -0.45,-0.15 -0.75,-0.45 0.63,-0.03 0.75,0.45 z"
     id="path279" />
  <path
     fill="#0f0e10"
     fill-opacity="0.937"
     d="m 56.127,170.36101 q -0.96,-0.24 -1.95,-0.05 0.8,-0.48 1.95,0.05 z"
     id="path280" />
  <path
     fill="#0f0e10"
     fill-opacity="0.937"
     d="m 134.857,170.13101 q -0.25,0.17 -0.71,0.16 z"
     id="path281" />
  <path
     fill="#ffffff"
     d="m 54.177,170.31101 q 0.99,-0.19 1.95,0.05 c 3.96,1.73 5.43,7.42 8.12,10.12 q 1.17,1.17 -0.39,2.78 -0.08,0.08 -4.22,3.74 a 0.86,0.73 4.7 0 1 -0.21,0.15 l -7.57,4.44 -0.52,0.44 -3.6,4.92 a 1.81,1.94 85.6 0 1 -0.33,0.36 q -3.85,3.31 -7.51,4.81 -3.31,1.37 -7.01,0.15 -0.18,-0.3 -0.69,-0.18 l -0.72,-0.28 a 0.71,0.73 8 0 1 -0.46,-0.63 c -0.14,-2.09 1.81,-6.26 3.01,-7.96 q 2.95,-4.17 5.7,-9.87 a 2.45,2.7 76.4 0 1 0.45,-0.66 l 7.05,-7.56 0.38,-0.54 q 0.39,-0.26 0.58,-0.74 2.31,-2.57 5.99,-3.54 z"
     id="path282" />
  <path
     fill="#ffffff"
     d="m 151.257,178.39101 q -0.13,1.27 1.37,1.71 0.97,0.2 1.59,-0.12 0.64,-0.29 1.4,0.74 0.31,0.88 0.81,0.83 l 3.56,7.09 0.43,4.33 q -2.38,1.94 -4.62,1.72 -1.11,-0.11 -0.99,-2.08 l -0.05,-0.74 -0.23,-1.13 a 0.99,0.99 0 0 0 -0.58,-0.7 l -2.54,-1.07 a 1.44,1.41 87.3 0 1 -0.72,-0.67 q -0.76,-1.47 -0.77,-3.25 0.19,-0.8 -0.2,-1 l -0.35,-0.28 q -0.16,-0.41 -0.59,-0.49 l -1.79,-2.41 a 1.17,1.17 0 0 0 -0.77,-0.46 q -3.1,-0.48 -5.15,-3.02 -2.03,-2.53 0.31,-3.73 1.26,-0.66 3.95,-0.73 2.12,-0.05 3.68,1.12 1.97,1.46 2.25,4.34 z"
     id="path283" />
  <path
     fill="#ebe7ed"
     fill-opacity="0.616"
     d="m 212.297,173.61101 q 0.54,3.14 0.44,7.31 -0.06,2.4 -1.88,3.25 a 0.9,0.9 0 0 0 -0.5,0.72 l -0.12,1.3 q -1.58,-2.82 -0.91,-6.91 -0.11,-0.16 0.09,-0.64 0.49,-1.81 1.6,-3.13 l 0.38,7.84 a 0.21,0.2 88.5 0 0 0.2,0.2 h 0.3 a 0.03,0.04 0 0 0 0.03,-0.04 l -0.36,-8.71 q 0.14,-0.78 0.73,-1.19 z"
     id="path284" />
  <path
     fill="#0f0e10"
     fill-opacity="0.937"
     d="m 48.187,173.85101 q -0.19,0.48 -0.58,0.74 0.18,-0.41 0.58,-0.74 z"
     id="path285" />
  <path
     fill="#0f0e10"
     fill-opacity="0.937"
     d="m 168.927,175.11101 q -0.27,-0.45 -0.25,-1.07 0.57,0.08 0.25,1.07 z"
     id="path286" />
  <path
     fill="#0f0e10"
     fill-opacity="0.937"
     d="m 47.607,174.59101 -0.38,0.54 q -0.03,-0.4 0.38,-0.54 z"
     id="path287" />
  <path
     fill="#ffffff"
     d="m 211.567,174.80101 0.36,8.71 a 0.03,0.04 0 0 1 -0.03,0.04 h -0.3 a 0.21,0.2 88.5 0 1 -0.2,-0.2 l -0.38,-7.84 q 0.15,-0.52 0.55,-0.71 z"
     id="path288" />
  <path
     fill="#0f0e10"
     fill-opacity="0.937"
     d="m 224.117,176.07101 -0.48,-0.61 q 0.37,0.06 0.48,0.61 z"
     id="path289" />
  <path
     fill="#ebe7ed"
     fill-opacity="0.616"
     d="m 20.627,178.72101 q -3.91,-1.61 -8.42,0.54 a 1.8,1.78 5.8 0 0 -0.68,0.55 l -1.46,1.96 a 0.78,0.81 11.9 0 1 -0.44,0.3 q -0.81,0.22 -1.43,1.24 a 1.11,1.1 49.2 0 0 -0.07,1 q 0.57,1.36 0.34,2.76 -0.04,0.23 0.09,0.21 a 0.05,0.05 0 0 0 0.04,-0.05 q -0.2,-3.52 0.01,-4.03 a 0.21,0.21 0 0 1 0.4,0.04 q 0.5,2.26 -0.06,3.82 a 0.99,0.97 0.5 0 1 -0.62,0.6 q -1.98,0.65 -3.04,-0.37 a 0.19,0.19 0 0 0 -0.31,0.2 q 0.35,1.01 -0.57,7.03 -0.18,1.2 0.34,3.91 a 0.55,0.56 79.9 0 0 0.64,0.44 l 8.27,-1.41 q -4.1,4.98 -9.07,7.47 a 1.22,1.23 45.7 0 1 -1.13,-0.01 q -1.88,-1 -3.15,-2.98 a 1.96,1.93 28.7 0 1 -0.3,-1 q -0.07,-3.99 0.56,-6.61 a 6.49,6.03 54.2 0 0 0.17,-1.37 q 0.03,-3.73 1.06,-7.18 c 1.16,-3.89 5.31,-6.81 8.81,-7.79 a 0.3,0.3 0 0 1 0.32,0.48 q -0.38,0.45 -1.1,0.38 -0.69,-0.07 -0.75,-0.02 a 0.23,0.23 0 0 0 0.2,0.41 q 2.64,-0.69 5.33,-2.49 a 1.73,1.72 29.9 0 1 1.08,-0.29 c 1.34,0.07 2.63,-0.76 3.76,-0.31 q 1.29,0.52 1.18,2.57 z"
     id="path290" />
  <path
     fill="#0f0e10"
     fill-opacity="0.937"
     d="m 224.937,177.06101 q -0.32,-0.2 -0.48,-0.51 0.25,0.14 0.48,0.51 z"
     id="path291" />
  <path
     fill="#ffffff"
     d="m 280.387,193.67101 q 0.81,0.15 1.56,-0.02 0.94,-1.39 1.21,-3.18 a 0.19,0.19 0 0 1 0.37,0 q 0.84,4.99 0.17,9.87 -0.17,1.19 -1.07,0.9 -0.32,-0.17 -0.68,-0.11 l -0.83,-0.16 q -0.42,-0.18 -0.92,-0.12 l -1.33,-0.3 -1.68,-0.09 -4.3,-1.01 q -0.43,0.03 -0.68,-0.15 c -5.37,-1.09 -7.88,-3.85 -12.03,-6.62 q -1.75,-1.16 -4.76,-5.62 a 1.71,1.71 0 0 1 -0.25,-1.37 q 0.51,-2.17 1.91,-2.98 3.81,-2.2 9.7,-4.74 c 2.35,-1.01 3.21,0.06 4.01,2.29 1.66,4.67 4.91,11.12 9.6,13.41 z"
     id="path292" />
  <path
     fill="#ffffff"
     d="m 20.627,178.72101 1.59,4.32 q 0.14,1.07 -0.32,2.02 l -8.24,12.4 -8.27,1.41 a 0.55,0.56 79.9 0 1 -0.64,-0.44 q -0.52,-2.71 -0.34,-3.91 0.92,-6.02 0.57,-7.03 a 0.19,0.19 0 0 1 0.31,-0.2 q 1.06,1.02 3.04,0.37 a 0.99,0.97 0.5 0 0 0.62,-0.6 q 0.56,-1.56 0.06,-3.82 a 0.21,0.21 0 0 0 -0.4,-0.04 q -0.21,0.51 -0.01,4.03 a 0.05,0.05 0 0 1 -0.04,0.05 q -0.13,0.02 -0.09,-0.21 0.23,-1.4 -0.34,-2.76 a 1.11,1.1 49.2 0 1 0.07,-1 q 0.62,-1.02 1.43,-1.24 a 0.78,0.81 11.9 0 0 0.44,-0.3 l 1.46,-1.96 a 1.8,1.78 5.8 0 1 0.68,-0.55 q 4.51,-2.15 8.42,-0.54 z"
     id="path293" />
  <path
     fill="#0f0e10"
     fill-opacity="0.937"
     d="m 153.147,179.85101 q -0.37,0.09 -0.52,0.25 -1.5,-0.44 -1.37,-1.71 0.57,1.03 1.89,1.46 z"
     id="path294" />
  <path
     fill="#ffffff"
     d="m 94.457,178.71101 1.42,0.29 c 5.11,1.49 7.53,5.45 3.43,9.96 -1.43,1.56 -3.47,5.3 -6.59,4.88 l -1.31,-0.44 -3.14,-2.53 q -0.66,0.12 -0.59,0.97 -0.37,0.43 0.11,0.96 0.01,0.4 0.23,0.75 l 0.33,2.01 q -0.25,0.69 0.16,1.1 0.12,0.11 0.44,0.08 a 0.28,0.28 0 0 1 0.3,0.35 q -0.39,1.36 -1.55,1.67 -1.11,0.29 -1.09,-1.47 0.39,-0.05 0.32,-0.58 -0.07,-0.54 -0.33,-0.58 -0.34,-0.07 -0.22,-0.43 a 0.31,0.31 0 0 0 -0.26,-0.41 l -1.75,-0.16 q -0.33,-0.23 -0.72,-0.15 -1.55,-0.18 -2.15,1.37 a 0.43,0.42 17 0 1 -0.5,0.26 l -0.37,-0.1 a 0.54,0.54 0 0 1 -0.37,-0.68 q 1.01,-3.14 2.77,-6.13 0.08,-0.13 6.18,-10.2 a 1.41,1.49 7 0 1 0.74,-0.61 q 2.1,-0.76 4.51,-0.18 z"
     id="path295" />
  <path
     fill="#0f0e10"
     fill-opacity="0.937"
     d="m 95.877,179.00101 -1.42,-0.29 q 1.01,-0.17 1.42,0.29 z"
     id="path296" />
  <path
     fill="#0f0e10"
     fill-opacity="0.937"
     d="m 209.417,178.64101 q -0.2,0.48 -0.09,0.64 -0.17,-0.24 0.09,-0.64 z"
     id="path297" />
  <path
     fill="#0f0e10"
     fill-opacity="0.937"
     d="m 121.427,180.55101 q -1.96,-0.43 -2.83,0.72 -0.21,-0.93 0.19,-1.42 0.46,-0.56 1.35,-0.27 0.77,0.25 1.29,0.97 z"
     id="path298" />
  <path
     fill="#ebe7ed"
     fill-opacity="0.616"
     d="m 153.147,179.85101 1.07,0.13 q -0.62,0.32 -1.59,0.12 0.15,-0.16 0.52,-0.25 z"
     id="path299" />
  <path
     fill="#ffffff"
     d="m 121.427,180.55101 1.98,0.5 q 0.42,0.24 1,0.31 l 6.93,4.7 a 2.18,2.18 0 0 1 0.08,3.55 q -5.33,4.01 -10.13,8.85 -1.63,1.64 -4.16,1.95 l -2.44,-0.47 -3.25,-2.14 q -0.87,-0.95 -0.82,-3.04 2.94,-7.33 7.98,-13.49 0.87,-1.15 2.83,-0.72 z"
     id="path300" />
  <path
     fill="#0f0e10"
     fill-opacity="0.937"
     d="m 123.407,181.05101 -1.98,-0.5 q 1.02,0.06 1.98,0.5 z"
     id="path301" />
  <path
     fill="#ebe7ed"
     fill-opacity="0.616"
     d="m 156.427,181.55101 q -0.5,0.05 -0.81,-0.83 0.39,-0.26 0.81,0.83 z"
     id="path302" />
  <path
     fill="#0f0e10"
     fill-opacity="0.937"
     d="m 124.407,181.36101 q -0.58,-0.07 -1,-0.31 z"
     id="path303" />
  <path
     fill="#0f0e10"
     fill-opacity="0.937"
     d="m 21.897,185.06101 q 0.46,-0.95 0.32,-2.02 0.54,1.34 -0.32,2.02 z"
     id="path304" />
  <path
     fill="#0f0e10"
     fill-opacity="0.937"
     d="m 149.367,183.77101 q -0.63,-0.08 -0.59,-0.49 0.43,0.08 0.59,0.49 z"
     id="path305" />
  <path
     fill="#0f0e10"
     fill-opacity="0.937"
     d="m 149.917,185.05101 q -0.23,-0.19 -0.2,-1 0.39,0.2 0.2,1 z"
     id="path306" />
  <path
     fill="#ebe7ed"
     fill-opacity="0.616"
     d="m 160.417,192.97101 -0.43,-4.33 q 0.31,0.97 1.01,1.79 a 0.22,0.22 0 0 1 -0.14,0.37 q -0.04,0.01 -0.19,-0.22 a 0.05,0.05 0 0 0 -0.09,0.02 l -0.23,0.88 a 0.14089003,0.14089003 0 0 0 0.25,0.13 q 0.28,-0.36 0.53,-0.26 a 0.45,0.42 13.2 0 1 0.26,0.39 v 1.65 a 0.39,0.39 0 0 1 -0.72,0.22 q -0.15,-0.23 -0.25,-0.64 z"
     id="path307" />
  <path
     fill="#ebe7ed"
     fill-opacity="0.616"
     d="m 192.167,202.58101 3.98,-4.07 a 0.95,0.95 0 0 0 0.26,-0.57 l 0.3,-3 a 0.11,0.11 0 0 1 0.11,-0.1 q 0.21,-0.01 0.21,0.44 -0.29,-0.84 -0.05,-1.33 a 0.58,0.59 26.8 0 0 -0.25,-0.78 q -1.05,-0.54 -1.59,-1.3 a 1.5,1.52 72.6 0 0 -1.24,-0.64 l -2.89,-0.01 a 0.2,0.22 81.2 0 1 -0.18,-0.12 v -0.01 a 0.11,0.11 0 0 1 0.08,-0.13 q 2.6,-0.77 4.68,0.44 a 0.27,0.28 26.1 0 0 0.39,-0.14 0.24,0.24 0 0 0 -0.15,-0.32 q -3.95,-1.19 -7.96,0.68 a 0.21,0.21 0 0 0 -0.09,0.3 v 0.01 a 0.19,0.19 0 0 0 0.27,0.06 q 1.12,-0.73 2.04,-0.43 a 0.05024938,0.05024938 0 0 1 -0.01,0.1 l -3.23,0.8 a 0.75,0.75 0 0 0 -0.56,0.7 l -0.1,3.95 -2.13,-4.03 a 1.41,1.42 71.8 0 1 1.04,-2.06 q 0.96,-0.15 2.04,-0.97 a 2.63,2.71 17.5 0 1 0.74,-0.4 q 4.15,-1.43 7.75,-1.07 a 1.47,1.44 72.2 0 1 0.95,0.5 q 1.65,1.94 1.77,2.6 0.72,3.91 0.33,6.48 -0.36,2.33 -3.42,3.08 a 0.16,0.17 76.4 0 0 -0.13,0.2 q 0.06,0.21 0.18,0.26 a 0.01118034,0.01118034 0 0 1 -0.01,0.02 q -0.18,-0.02 -0.37,-0.1 a 0.57,0.57 0 0 0 -0.59,0.08 q -0.89,0.7 -2.17,0.88 z"
     id="path308" />
  <path
     fill="#0f0e10"
     fill-opacity="0.937"
     d="m 230.517,191.05101 -0.1,-1.87 q 0.31,0.9 0.1,1.87 z"
     id="path309" />
  <path
     fill="#ffffff"
     d="m 192.167,202.58101 q 0.21,-0.01 0.42,-0.02 -0.75,-0.12 -0.88,0.31 -1.52,0.73 -2.83,0.27 a 1.04,1.03 89.2 0 1 -0.6,-0.59 l -2.09,-5.44 0.1,-3.95 a 0.75,0.75 0 0 1 0.56,-0.7 l 3.23,-0.8 a 0.05024938,0.05024938 0 0 0 0.01,-0.1 q -0.92,-0.3 -2.04,0.43 a 0.19,0.19 0 0 1 -0.27,-0.06 v -0.01 a 0.21,0.21 0 0 1 0.09,-0.3 q 4.01,-1.87 7.96,-0.68 a 0.24,0.24 0 0 1 0.15,0.32 0.27,0.28 26.1 0 1 -0.39,0.14 q -2.08,-1.21 -4.68,-0.44 a 0.11,0.11 0 0 0 -0.08,0.13 v 0.01 a 0.2,0.22 81.2 0 0 0.18,0.12 l 2.89,0.01 a 1.5,1.52 72.6 0 1 1.24,0.64 q 0.54,0.76 1.59,1.3 a 0.58,0.59 26.8 0 1 0.25,0.78 q -0.24,0.49 0.05,1.33 0,-0.45 -0.21,-0.44 a 0.11,0.11 0 0 0 -0.11,0.1 l -0.3,3 a 0.95,0.95 0 0 1 -0.26,0.57 z"
     id="path310" />
  <ellipse
     fill="#0f0e10"
     fill-opacity="0.937"
     cx="42.732315"
     cy="196.83641"
     transform="rotate(-6.1)"
     rx="0.91000003"
     ry="0.33000001"
     id="ellipse310" />
  <path
     fill="#0f0e10"
     fill-opacity="0.937"
     d="m 88.267,190.87101 q -0.27,0.73 -0.59,0.97 -0.07,-0.85 0.59,-0.97 z"
     id="path311" />
  <path
     fill="#ebe7ed"
     fill-opacity="0.616"
     d="m 216.887,192.76101 -1.45,-1.7 q 1.23,-0.5 1.45,1.7 z"
     id="path312" />
  <path
     fill="#0f0e10"
     fill-opacity="0.937"
     d="m 51.857,191.59101 q -0.17,0.34 -0.52,0.44 z"
     id="path313" />
  <path
     fill="#0f0e10"
     fill-opacity="0.937"
     d="m 87.677,191.84101 0.11,0.96 q -0.48,-0.53 -0.11,-0.96 z"
     id="path314" />
  <path
     fill="#0f0e10"
     fill-opacity="0.937"
     d="m 154.807,192.61101 q -0.09,-0.32 -0.05,-0.74 z"
     id="path315" />
  <path
     fill="#ebe7ed"
     fill-opacity="0.616"
     d="m 230.057,193.85101 q 1.14,1.53 -0.15,2.42 0.14,0.4 0.11,0.77 -0.25,0.53 -0.64,0.81 a 0.57,0.57 0 0 1 -0.86,-0.22 q -0.01,-0.01 -0.02,-0.09 a 0.62,0.62 0 0 0 -0.72,-0.56 q -1.59,0.26 -3.58,-0.96 a 0.12,0.12 0 0 0 -0.14,0.19 q 0.42,0.39 1.09,0.5 a 0.41,0.39 26.2 0 1 0.24,0.66 q -0.17,0.18 -0.59,-0.12 a 0.24390796,0.10162831 12.7 0 0 -0.36,0.07 q 0.57,0.45 0.89,0.37 a 0.42,0.42 0 0 1 0.41,0.15 q 0.29,0.37 0.13,1.3 a 1.14,1.14 0 0 1 -1.91,0.63 l -4.01,-3.79 a 0.81,0.86 14.8 0 1 -0.26,-0.48 q -0.11,-0.62 -0.6,-0.58 a 0.15,0.15 0 0 0 -0.09,0.25 q 0.13,0.14 0.19,0.24 a 0.04301163,0.04301163 0 0 1 -0.07,0.05 q -1.1,-1.16 -1.77,-2.34 0.77,-0.24 1.36,-0.13 a 0.17007351,0.17007351 0 0 1 0.01,0.34 q -0.17,0.04 -0.45,0.03 a 0.23135471,0.23135471 0 0 0 -0.05,0.46 q 0.14,0.02 0.93,-0.36 1.06,-0.51 1.87,0.02 1.63,1.06 3.59,2.19 a 2.55,2.38 64 0 0 0.76,0.29 q 3.74,0.77 4.69,-2.11 z"
     id="path316" />
  <path
     fill="#0f0e10"
     fill-opacity="0.937"
     d="m 92.717,193.84101 q -0.62,0.47 -1.31,-0.44 z"
     id="path317" />
  <path
     fill="#0f0e10"
     fill-opacity="0.937"
     d="m 88.347,195.56101 -0.33,-2.01 q 0.73,0.66 0.33,2.01 z"
     id="path318" />
  <path
     fill="#0f0e10"
     fill-opacity="0.937"
     d="m 281.947,193.65101 q -0.75,0.17 -1.56,0.02 z"
     id="path319" />
  <path
     fill="#0f0e10"
     fill-opacity="0.937"
     d="m 84.367,195.13101 q 0.38,0.66 1.08,0.84 -2.43,-0.19 -1.8,-0.99 0.39,-0.08 0.72,0.15 z"
     id="path320" />
  <path
     fill="#ebe7ed"
     fill-opacity="0.616"
     d="m 110.617,194.76101 q -0.05,2.09 0.82,3.04 -1.41,-0.45 -1.25,-1.22 0.22,-0.74 0.14,-1.5 z"
     id="path321" />
  <ellipse
     fill="#0f0e10"
     fill-opacity="0.937"
     cx="-302.60208"
     cy="103.1929"
     transform="rotate(-123.4)"
     rx="1.0599999"
     ry="0.44999999"
     id="ellipse321" />
  <path
     fill="#ebe7ed"
     fill-opacity="0.616"
     d="m 86.607,197.29101 q 0.04,-0.13 0.03,-0.28 a 0.22,0.22 0 0 0 -0.36,-0.17 q -0.1,0.07 -0.13,0.09 a 0.21,0.21 0 0 1 -0.29,-0.2 q 0.02,-0.59 -0.41,-0.76 -0.7,-0.18 -1.08,-0.84 l 1.75,0.16 a 0.31,0.31 0 0 1 0.26,0.41 q -0.12,0.36 0.22,0.43 0.26,0.04 0.33,0.58 0.07,0.53 -0.32,0.58 z"
     id="path322" />
  <path
     fill="#0f0e10"
     fill-opacity="0.937"
     d="m 110.327,195.08101 q 0.08,0.76 -0.14,1.5 -0.14,-0.82 0.14,-1.5 z"
     id="path323" />
  <ellipse
     fill="#0f0e10"
     fill-opacity="0.937"
     cx="-269.44955"
     cy="99.618713"
     transform="rotate(-116.8)"
     rx="0.52999997"
     ry="0.30000001"
     id="ellipse323" />
  <path
     fill="#0f0e10"
     fill-opacity="0.937"
     d="m 230.017,197.04101 q 0.03,-0.37 -0.11,-0.77 0.24,0.09 0.36,0.21 c 0.24,0.23 -0.01,0.49 -0.25,0.56 z"
     id="path324" />
  <path
     fill="#0f0e10"
     fill-opacity="0.937"
     d="m 272.887,199.45101 q -0.54,0.09 -0.68,-0.15 0.25,0.18 0.68,0.15 z"
     id="path325" />
  <path
     fill="#0f0e10"
     fill-opacity="0.937"
     d="m 117.127,200.41101 q -1.14,0.26 -2.44,-0.47 z"
     id="path326" />
  <path
     fill="#0f0e10"
     fill-opacity="0.937"
     d="m 278.867,200.55101 -1.68,-0.09 z"
     id="path327" />
  <circle
     fill="#0f0e10"
     fill-opacity="0.937"
     cx="216.177"
     cy="201.20099"
     r="0.61000001"
     id="circle327" />
  <path
     fill="#0f0e10"
     fill-opacity="0.937"
     d="m 281.117,200.97101 q -0.51,0.05 -0.92,-0.12 0.5,-0.06 0.92,0.12 z"
     id="path328" />
  <path
     fill="#ebe7ed"
     fill-opacity="0.616"
     d="m 282.627,201.24101 q -0.38,0.02 -0.68,-0.11 0.36,-0.06 0.68,0.11 z"
     id="path329" />
  <path
     fill="#ebe7ed"
     fill-opacity="0.616"
     d="m 32.887,202.27101 q -0.41,-0.04 -0.69,-0.18 0.51,-0.12 0.69,0.18 z"
     id="path330" />
  <path
     fill="#ebe7ed"
     fill-opacity="0.616"
     d="m 192.587,202.56101 q -0.61,0.36 -0.88,0.31 0.13,-0.43 0.88,-0.31 z"
     id="path331" />
  <ellipse
     fill="#0f0e10"
     fill-opacity="0.937"
     cx="-260.91077"
     cy="-152.56329"
     transform="rotate(-167.3)"
     rx="1.2"
     ry="0.46000001"
     id="ellipse331" />
  <path
     fill="#0f0e10"
     fill-opacity="0.937"
     d="m 20.437,206.91101 a 0.25,0.25 0 0 1 -0.27,-0.35 q 0.33,-0.7 0.74,-0.8 0.63,-0.16 0.55,0.62 -0.04,0.35 -1.02,0.53 z"
     id="path332" />
  <path
     fill="#0f0e10"
     fill-opacity="0.937"
     d="m 185.177,206.98101 a 0.3,0.31 68.7 0 1 -0.2,0.45 q -1.45,0.31 -1.66,-0.85 a 0.7,0.66 11.7 0 1 1.05,-0.65 q 0.33,0.2 0.81,1.05 z"
     id="path333" />
  <ellipse
     fill="#0f0e10"
     fill-opacity="0.937"
     cx="-212.8853"
     cy="-60.77734"
     transform="rotate(-126.8)"
     rx="0.49000001"
     ry="0.30000001"
     id="ellipse333" />
  <path
     fill="#0f0e10"
     fill-opacity="0.937"
     d="m 94.297,207.14101 q -0.14,0.12 -0.27,0.15 a 0.32,0.24 11 0 1 -0.36,-0.4 q 0.22,-0.23 0.53,-0.16 a 0.23,0.24 30.3 0 1 0.1,0.41 z"
     id="path334" />
  <path
     fill="#0f0e10"
     fill-opacity="0.937"
     d="m 201.287,212.08101 a 0.17,0.17 0 0 1 -0.17,0.18 h -0.22 a 0.46,10.49 88 0 1 -10.5,-0.09 v -0.02 a 0.46,10.49 88 0 1 10.47,-0.83 h 0.22 a 0.17,0.17 0 0 1 0.18,0.16 z"
     id="path335" />
  <ellipse
     fill="#0f0e10"
     fill-opacity="0.937"
     cx="85.847"
     cy="211.91101"
     rx="1.77"
     ry="0.28"
     id="ellipse335" />
  <ellipse
     fill="#0f0e10"
     fill-opacity="0.937"
     cx="118.657"
     cy="211.89099"
     rx="1.85"
     ry="0.36000001"
     id="ellipse336" />
</svg>
