<?xml version="1.0" encoding="UTF-8" standalone="no"?>
<!DOCTYPE svg PUBLIC "-//W3C//DTD SVG 1.1//EN" "http://www.w3.org/Graphics/SVG/1.1/DTD/svg11.dtd">
<svg xmlns="http://www.w3.org/2000/svg" version="1.1" viewBox="0.00 0.00 409.00 803.00">
<path fill="currentColor" d="
  M 342.61 803.00
  L 334.62 803.00
  C 330.89 802.13 328.67 799.30 326.37 796.84
  A 2.47 2.44 24.3 0 1 325.71 795.12
  Q 326.48 755.49 328.11 699.76
  Q 328.34 691.79 329.22 684.82
  A 2.56 2.56 0.0 0 0 328.20 682.42
  Q 326.29 681.02 324.71 680.28
  C 318.54 677.39 312.07 675.05 306.78 671.10
  Q 296.87 663.69 289.31 654.24
  C 283.05 646.42 279.41 634.42 278.01 624.73
  Q 275.34 606.25 286.34 588.62
  C 294.16 576.08 301.68 567.19 311.61 558.15
  Q 316.66 553.55 322.74 550.33
  A 0.60 0.60 0.0 0 0 323.07 549.78
  L 322.23 468.61
  A 1.31 1.31 0.0 0 0 321.30 467.37
  Q 315.22 465.49 312.64 464.57
  C 297.87 459.29 289.36 448.36 282.99 434.29
  Q 279.10 425.69 277.18 418.46
  C 272.94 402.50 276.45 384.31 287.74 371.24
  Q 297.41 360.03 305.39 352.65
  Q 311.84 346.68 319.02 342.75
  A 1.34 1.34 0.0 0 0 319.72 341.57
  C 319.56 313.87 319.30 282.24 321.56 253.07
  A 1.56 1.56 0.0 0 0 320.53 251.48
  Q 309.16 247.41 299.18 241.61
  C 288.73 235.52 283.18 226.89 279.42 215.34
  C 273.75 197.92 271.11 179.05 280.00 162.26
  Q 285.97 150.98 295.08 142.58
  Q 301.68 136.50 305.93 131.97
  Q 307.67 130.11 305.53 129.01
  C 296.50 124.34 290.68 117.44 284.67 109.19
  C 275.04 95.97 270.97 78.80 273.49 62.74
  Q 274.36 57.15 278.55 49.20
  Q 290.91 25.71 312.06 9.83
  C 317.68 5.61 325.49 2.15 333.52 1.91
  C 343.87 1.60 354.20 1.25 363.47 4.82
  C 371.85 8.05 379.85 12.00 385.98 18.55
  C 395.49 28.70 399.84 43.83 402.57 57.96
  C 407.54 83.66 392.72 99.53 376.36 115.86
  Q 373.36 118.86 371.80 121.47
  A 1.49 1.48 -54.5 0 0 372.11 123.36
  C 382.55 132.27 391.14 141.10 397.76 153.23
  C 404.29 165.18 405.35 177.03 403.27 190.50
  Q 402.37 196.32 400.86 199.59
  Q 391.37 220.10 373.88 236.14
  C 366.78 242.66 360.16 246.23 350.11 251.41
  A 1.00 0.98 78.0 0 0 349.58 252.24
  C 349.14 262.37 347.31 275.41 346.80 286.96
  Q 345.90 307.45 346.26 313.26
  Q 346.81 322.41 347.67 330.60
  A 1.41 1.40 17.6 0 0 348.14 331.50
  Q 349.54 332.70 351.70 333.37
  Q 359.80 335.86 365.07 337.89
  Q 383.63 345.03 394.37 361.05
  C 401.16 371.18 407.08 382.41 407.33 394.71
  Q 407.49 402.47 403.84 411.90
  C 396.33 431.32 383.84 449.35 366.52 461.02
  Q 364.75 462.21 355.85 467.08
  C 351.98 469.20 350.94 471.68 350.28 476.81
  Q 349.41 483.69 349.36 490.58
  Q 349.15 517.02 349.67 543.79
  A 1.78 1.77 -86.4 0 0 351.18 545.51
  Q 364.98 547.57 377.78 553.47
  C 391.62 559.84 397.50 569.57 402.75 584.08
  Q 408.48 599.91 407.07 618.51
  C 405.52 638.91 387.76 657.24 371.23 667.50
  Q 365.19 671.25 356.46 675.71
  A 0.90 0.89 77.4 0 0 355.98 676.47
  Q 354.44 721.37 352.32 779.27
  Q 352.21 782.20 351.75 786.77
  C 351.42 790.12 351.60 793.70 350.24 796.61
  Q 347.98 801.45 342.61 803.00
  Z
  M 378.63 93.58
  Q 382.53 88.54 381.90 80.25
  Q 380.30 58.98 371.96 44.28
  C 367.26 36.00 359.75 32.16 351.34 28.38
  Q 341.19 23.81 331.72 22.32
  Q 328.86 21.87 325.91 22.39
  Q 311.91 24.85 303.87 36.09
  C 297.71 44.70 293.21 51.04 293.78 61.50
  C 294.82 80.32 307.65 100.55 324.01 109.25
  C 329.30 112.06 334.29 112.58 340.09 112.26
  C 348.27 111.81 355.77 111.08 362.52 107.50
  Q 371.58 102.70 378.63 93.58
  Z
  M 384.39 192.51
  Q 381.13 172.06 367.68 156.08
  C 362.65 150.09 355.87 143.79 348.50 142.27
  Q 339.65 140.45 327.82 142.07
  C 310.37 144.45 291.39 157.95 294.74 178.01
  Q 297.48 194.37 304.30 207.46
  C 312.47 223.14 334.10 230.32 350.52 230.28
  Q 358.52 230.26 365.16 224.68
  Q 377.07 214.68 382.71 201.42
  C 383.85 198.74 384.76 194.86 384.39 192.51
  Z
  M 338.82 356.89
  Q 332.88 358.74 326.48 359.44
  C 315.98 360.60 306.40 369.33 300.38 377.39
  C 296.69 382.32 296.51 387.81 296.87 394.45
  C 297.48 405.78 303.35 417.80 309.26 427.45
  Q 313.98 435.16 320.90 439.09
  Q 333.98 446.52 350.45 446.72
  C 357.82 446.81 364.99 445.93 370.07 440.58
  Q 376.86 433.43 382.71 421.74
  Q 385.45 416.25 385.53 413.25
  Q 385.95 398.43 380.47 388.35
  Q 369.65 368.45 347.72 358.21
  Q 345.86 357.34 341.05 356.70
  A 5.25 5.16 39.7 0 0 338.82 356.89
  Z
  M 373.95 647.46
  C 382.49 640.54 389.65 632.82 387.51 620.74
  Q 384.97 606.44 378.96 592.81
  C 373.43 580.28 363.23 574.59 350.03 570.29
  Q 342.05 567.69 334.03 567.44
  C 315.45 566.86 306.80 581.11 299.58 596.41
  C 296.57 602.79 297.74 610.38 299.94 616.83
  C 305.05 631.84 314.97 645.31 328.74 653.47
  Q 336.30 657.95 344.51 657.29
  C 355.49 656.40 365.17 654.58 373.95 647.46
  Z"
/>
<path fill="currentColor" d="
  M 218.17 803.00
  L 199.79 803.00
  L 198.82 802.64
  A 0.71 0.70 -79.9 0 1 198.37 801.98
  Q 199.22 685.31 198.75 609.55
  C 198.64 592.33 198.48 575.38 196.97 558.51
  Q 196.70 555.48 194.93 552.15
  A 2.48 2.46 73.7 0 0 192.59 550.86
  C 183.38 551.52 174.56 547.20 166.72 542.26
  C 152.72 533.43 139.93 517.14 136.87 500.64
  Q 134.56 488.17 138.96 475.72
  Q 147.66 451.09 164.72 431.81
  A 1.22 1.22 0.0 0 0 164.65 430.12
  Q 149.92 416.08 140.54 396.45
  Q 136.75 388.52 135.95 383.31
  C 134.28 372.31 135.48 360.48 140.85 350.32
  Q 154.93 323.65 181.92 308.39
  Q 185.42 306.42 186.01 302.55
  Q 186.84 297.06 187.14 292.00
  Q 189.23 256.51 190.33 226.49
  Q 191.39 197.49 191.75 190.53
  C 192.65 173.31 192.70 157.07 193.58 141.41
  A 1.84 1.84 0.0 0 0 192.34 139.58
  Q 178.73 134.95 178.11 134.75
  C 156.40 127.79 143.05 112.82 134.49 91.98
  A 3.51 3.28 16.5 0 0 134.01 91.16
  Q 132.34 89.02 130.51 87.85
  A 1.09 1.09 0.0 0 0 128.92 88.36
  Q 126.15 95.25 121.15 101.66
  Q 112.92 112.22 104.78 120.78
  Q 104.26 121.32 103.02 123.16
  A 1.51 1.50 -56.8 0 0 103.46 125.29
  Q 115.33 132.76 122.02 145.11
  Q 128.17 156.45 130.69 162.43
  Q 134.80 172.20 134.59 186.02
  Q 134.44 195.15 130.01 203.79
  C 122.81 217.85 114.11 228.36 103.28 238.55
  A 1.39 1.39 0.0 0 0 103.49 240.73
  Q 119.21 250.69 126.96 267.05
  C 134.11 282.14 138.00 297.48 133.37 313.75
  C 127.19 335.52 104.75 355.36 84.22 365.00
  A 1.82 1.82 0.0 0 0 83.17 366.62
  C 82.11 416.12 81.12 460.44 81.35 508.51
  Q 81.38 514.10 86.16 515.03
  C 104.02 518.47 120.43 525.69 128.41 542.83
  C 134.90 556.76 138.73 571.76 137.04 586.75
  C 133.98 613.80 110.86 632.42 88.03 643.60
  A 2.42 2.40 -13.0 0 0 86.68 645.74
  Q 86.38 669.17 85.56 687.53
  C 85.08 698.36 77.40 701.15 68.07 699.96
  C 60.53 698.99 60.20 689.24 59.96 683.33
  Q 59.28 666.92 57.62 652.73
  C 57.11 648.38 53.57 648.10 50.39 647.36
  A 7.34 7.14 -24.6 0 1 48.82 646.80
  C 39.70 642.29 29.19 635.48 22.82 627.42
  C 15.97 618.74 8.47 606.49 8.20 595.50
  C 7.99 586.79 7.66 579.41 9.38 572.20
  Q 10.97 565.49 15.90 557.41
  Q 21.84 547.68 25.69 543.19
  Q 37.91 528.93 52.36 518.17
  A 1.73 1.70 -18.4 0 0 53.05 516.82
  L 55.14 371.76
  A 1.89 1.88 -78.8 0 0 53.97 370.00
  C 34.85 362.32 19.14 350.41 9.49 331.71
  C 4.70 322.42 4.27 312.33 5.10 302.06
  Q 5.50 297.10 6.93 293.69
  Q 14.46 275.71 18.62 268.85
  Q 25.53 257.47 35.90 247.89
  A 0.54 0.53 42.4 0 0 35.86 247.07
  C 18.41 234.15 2.94 215.77 3.33 192.60
  Q 3.47 184.32 7.92 173.23
  Q 16.21 152.59 31.13 134.92
  Q 32.55 133.24 33.78 131.23
  A 1.30 1.28 -57.8 0 0 33.39 129.47
  C 29.39 126.86 25.53 124.55 22.62 121.63
  C 10.96 109.90 -1.64 88.53 2.68 71.18
  Q 5.43 60.13 12.22 45.22
  C 18.34 31.77 28.78 20.43 40.66 12.17
  C 46.67 7.99 52.65 5.43 60.29 4.85
  Q 71.87 3.99 85.51 5.71
  Q 103.54 7.99 113.66 19.67
  Q 118.52 25.28 125.18 37.30
  Q 130.50 46.90 133.33 56.62
  A 0.74 0.73 -24.5 0 0 134.44 57.03
  Q 136.45 55.72 137.60 53.32
  C 143.50 40.94 150.70 27.78 161.78 17.83
  C 176.53 4.59 194.74 -0.02 213.98 3.61
  C 227.11 6.08 239.13 11.08 247.10 22.12
  Q 255.39 33.59 260.73 48.27
  C 264.18 57.76 265.42 67.27 262.71 76.94
  Q 259.97 86.73 255.77 93.30
  Q 247.82 105.74 234.24 118.49
  Q 228.71 123.68 224.90 125.90
  Q 217.40 130.27 215.82 131.32
  Q 214.35 132.30 214.11 134.67
  Q 212.81 147.62 212.50 163.77
  Q 211.60 210.94 209.55 254.87
  Q 209.00 266.71 207.27 295.50
  Q 207.16 297.36 208.05 298.96
  A 1.64 1.62 -0.4 0 0 208.74 299.63
  C 209.91 300.24 212.52 301.50 214.37 302.07
  C 234.73 308.39 250.97 319.38 260.70 338.26
  Q 266.25 349.03 267.01 358.27
  Q 267.44 363.36 265.35 372.19
  C 261.07 390.33 250.96 406.64 239.18 421.71
  A 1.64 1.64 0.0 0 0 239.30 423.87
  C 244.68 429.37 250.83 436.14 254.82 442.71
  C 264.38 458.47 271.74 476.31 265.36 494.84
  C 257.74 517.00 240.08 533.34 220.74 545.30
  A 3.27 3.24 -15.8 0 0 219.19 548.05
  L 218.17 803.00
  Z
  M 35.56 34.80
  Q 27.95 44.69 24.43 57.44
  C 21.09 69.52 25.05 79.25 31.63 89.48
  C 37.14 98.04 42.97 103.76 51.70 109.06
  C 59.52 113.80 65.24 116.29 73.82 115.12
  Q 81.04 114.13 88.01 111.74
  C 97.55 108.46 103.62 102.15 109.28 93.33
  Q 113.72 86.41 112.72 78.74
  Q 110.16 59.13 97.58 42.51
  C 91.21 34.11 83.70 29.50 74.07 27.85
  C 68.06 26.83 62.55 24.89 57.15 25.10
  C 49.88 25.38 39.90 29.16 35.56 34.80
  Z
  M 201.98 114.62
  Q 207.96 112.98 211.71 112.50
  Q 216.92 111.84 220.48 110.09
  C 230.74 105.06 241.52 93.97 242.50 82.14
  C 243.63 68.65 237.08 54.88 229.46 43.77
  Q 225.12 37.44 221.26 34.49
  C 209.71 25.68 194.70 23.67 180.24 25.53
  Q 172.29 26.56 167.02 32.55
  C 161.23 39.14 155.36 49.54 154.07 58.22
  Q 151.74 73.97 161.08 87.44
  C 169.58 99.68 184.77 113.22 200.03 114.78
  A 5.12 5.11 -49.6 0 0 201.98 114.62
  Z
  M 72.28 232.15
  Q 73.15 232.17 76.37 230.53
  A 8.13 8.01 27.4 0 1 79.02 229.71
  C 81.49 229.40 84.69 229.39 87.00 228.64
  C 99.98 224.46 109.77 212.77 113.90 200.10
  C 114.95 196.90 115.03 194.63 114.25 191.49
  Q 109.01 170.52 95.14 153.76
  C 93.03 151.21 89.68 148.29 86.95 147.28
  Q 72.92 142.09 57.24 141.68
  C 49.16 141.46 41.75 143.73 36.74 150.51
  Q 30.63 158.78 26.80 169.56
  C 22.45 181.81 24.20 192.50 31.47 203.77
  Q 40.32 217.49 54.92 225.72
  C 60.60 228.93 66.17 232.00 72.28 232.15
  Z
  M 24.26 297.58
  C 24.80 309.45 33.97 322.47 42.38 330.58
  C 52.96 340.80 64.81 349.65 80.50 346.26
  Q 88.94 344.43 93.65 341.87
  Q 102.38 337.12 110.56 326.15
  C 118.41 315.62 114.00 299.96 108.77 289.28
  C 102.86 277.21 95.52 266.04 83.12 261.43
  Q 73.23 257.75 60.49 257.26
  C 50.91 256.90 42.58 259.22 37.07 267.32
  Q 29.56 278.37 25.47 291.50
  Q 24.17 295.68 24.26 297.58
  Z
  M 196.53 324.27
  Q 191.15 324.48 179.44 328.27
  A 10.06 9.66 18.8 0 0 177.15 329.34
  C 168.07 335.07 157.96 345.74 156.43 356.61
  Q 155.34 364.36 158.41 373.13
  C 163.65 388.14 175.36 407.92 191.51 411.77
  Q 202.50 414.40 215.85 413.91
  C 223.26 413.64 228.54 410.92 232.89 405.66
  Q 245.81 390.11 244.78 370.66
  C 244.31 361.71 241.35 355.24 235.61 348.15
  Q 223.48 333.15 208.36 327.00
  Q 201.18 324.08 196.53 324.27
  Z
  M 248.03 493.66
  Q 243.77 473.24 231.47 455.47
  Q 227.83 450.22 224.64 447.93
  C 214.36 440.53 197.80 439.03 185.34 440.00
  C 178.03 440.56 172.51 443.07 168.67 448.96
  Q 162.49 458.43 158.85 469.60
  Q 155.05 481.24 159.92 492.35
  C 166.15 506.54 176.75 519.15 191.05 525.21
  C 216.65 536.05 240.73 519.91 247.98 495.04
  A 2.86 2.76 -44.0 0 0 248.03 493.66
  Z
  M 45.05 542.81
  C 36.33 550.58 27.54 562.82 27.87 574.54
  C 28.17 585.03 33.33 595.84 39.21 604.55
  Q 46.88 615.90 59.45 622.64
  C 63.43 624.77 67.20 625.59 71.51 625.51
  Q 80.00 625.34 88.25 623.97
  C 100.91 621.86 115.45 608.83 117.74 595.82
  Q 118.52 591.43 115.86 582.37
  C 111.93 568.95 108.42 554.78 95.74 546.77
  Q 86.44 540.90 74.67 537.56
  C 64.03 534.54 53.30 535.45 45.05 542.81
  Z"
/>
</svg>
