<?xml version="1.0" encoding="UTF-8" standalone="no"?>
<!DOCTYPE svg PUBLIC "-//W3C//DTD SVG 1.1//EN" "http://www.w3.org/Graphics/SVG/1.1/DTD/svg11.dtd">
<svg xmlns="http://www.w3.org/2000/svg" version="1.1" viewBox="0.00 0.00 214.00 212.00">
<path fill="#f45d27" d="
  M 47.47 0.00
  Q 56.58 2.04 66.23 0.00
  L 83.78 0.00
  Q 86.78 0.65 89.76 1.21
  Q 92.97 1.80 95.82 1.79
  Q 101.46 1.78 108.62 1.78
  C 111.40 1.78 113.47 0.74 116.43 0.94
  Q 120.51 1.22 124.28 0.00
  L 143.38 0.00
  Q 154.10 2.14 164.86 0.00
  L 187.19 0.00
  Q 194.03 2.03 200.79 0.00
  L 206.31 0.00
  Q 209.74 0.97 210.09 5.14
  Q 212.58 35.16 212.71 39.51
  C 213.11 52.56 211.76 66.07 213.11 79.45
  Q 213.76 85.92 213.72 94.58
  Q 213.66 107.24 214.00 119.89
  L 214.00 155.73
  Q 213.54 169.50 212.83 183.25
  Q 212.20 195.35 210.69 201.95
  Q 209.64 206.51 205.08 206.88
  Q 202.34 207.11 201.00 207.53
  Q 196.52 208.96 191.03 208.67
  A 1.40 1.26 -48.1 0 0 190.75 208.70
  L 179.98 211.04
  A 2.30 2.10 36.3 0 1 179.51 211.09
  Q 163.57 211.08 151.50 211.13
  Q 150.26 211.14 146.76 212.00
  L 27.65 212.00
  Q 18.21 210.61 8.40 211.03
  A 2.87 2.86 -32.1 0 1 6.95 210.70
  Q 3.56 208.92 3.20 204.51
  Q 2.49 195.85 2.40 186.75
  C 2.31 177.65 0.92 168.35 1.54 159.74
  Q 2.07 152.57 1.97 142.59
  Q 1.92 137.68 1.23 131.95
  Q 0.60 126.65 0.00 121.34
  L 0.00 115.88
  C 1.02 110.00 0.50 102.65 0.44 98.12
  C 0.34 91.57 1.46 86.73 1.81 80.76
  Q 2.10 75.76 1.02 66.26
  Q 0.47 61.41 1.41 53.31
  C 3.28 37.20 4.95 21.95 4.07 6.18
  A 1.35 1.31 64.6 0 1 4.38 5.27
  C 7.47 1.63 9.67 2.02 13.44 1.23
  C 16.30 0.63 19.88 1.08 23.26 0.00
  L 47.47 0.00
  Z
  M 202.40 6.82
  C 200.60 7.05 198.73 5.95 196.64 5.95
  Q 154.14 5.98 130.28 5.95
  A 41.91 25.97 27.0 0 0 123.27 6.54
  Q 121.04 6.95 119.75 6.87
  Q 112.50 6.44 107.20 7.61
  A 3.12 2.77 -48.4 0 1 106.52 7.69
  L 94.89 7.69
  A 2.42 2.08 49.3 0 1 94.23 7.59
  L 88.82 6.04
  A 2.50 2.39 52.0 0 0 88.13 5.94
  Q 82.18 6.00 80.19 5.90
  C 78.41 5.82 77.02 4.83 75.52 5.37
  Q 73.93 5.94 72.18 5.94
  Q 45.95 6.01 43.24 5.93
  A 4.22 3.74 48.5 0 1 42.50 5.84
  Q 34.59 4.19 26.09 5.88
  A 0.76 0.70 -47.4 0 1 25.97 5.89
  L 13.14 6.15
  A 2.21 2.21 0.0 0 0 10.99 8.23
  Q 9.42 35.57 7.11 61.14
  C 6.49 68.09 8.74 75.61 7.94 81.74
  Q 4.81 105.68 6.83 128.74
  Q 7.80 139.84 7.76 145.27
  C 7.64 162.68 7.58 179.57 8.74 196.00
  Q 9.03 200.10 9.97 202.92
  A 3.23 3.01 -74.6 0 0 10.42 203.78
  C 12.02 205.96 18.73 207.59 21.51 207.79
  C 25.21 208.05 28.53 209.04 31.51 208.59
  Q 37.38 207.70 37.99 207.74
  Q 44.78 208.23 50.38 207.01
  A 5.64 5.52 -50.4 0 1 51.53 206.89
  L 85.18 206.89
  A 2.38 2.23 -54.0 0 0 86.02 206.73
  L 87.50 206.17
  A 1.84 1.69 -52.7 0 1 88.11 206.06
  L 108.31 206.06
  A 1.71 1.42 31.9 0 0 108.75 206.00
  Q 115.88 204.19 122.99 205.92
  A 4.42 4.35 -37.3 0 0 124.09 206.06
  Q 141.87 206.07 145.68 206.05
  C 148.38 206.04 150.20 205.17 153.11 205.18
  Q 165.02 205.19 171.31 205.19
  C 175.84 205.19 180.86 204.01 184.99 203.70
  C 191.50 203.21 198.13 201.37 205.27 200.15
  A 0.42 0.41 -88.0 0 0 205.62 199.82
  C 208.32 187.26 208.58 174.99 208.49 162.00
  C 208.18 115.64 207.89 72.28 205.77 31.02
  Q 205.28 21.48 204.35 13.00
  Q 203.97 9.60 203.29 7.39
  A 0.82 0.81 -12.1 0 0 202.40 6.82
  Z"
/>
<path fill="#f45d27" d="
  M 15.36 16.15
  A 0.88 0.88 0.0 0 1 16.24 15.32
  L 26.07 15.32
  A 5.83 5.72 -50.3 0 0 27.24 15.20
  C 32.43 14.10 39.10 14.46 42.74 14.44
  C 45.22 14.42 47.62 13.53 50.05 13.62
  Q 55.53 13.84 59.52 13.40
  C 66.91 12.60 73.28 12.85 80.23 12.83
  C 83.35 12.82 85.46 11.90 88.43 11.92
  C 101.56 11.98 114.66 11.07 127.81 11.06
  C 131.18 11.05 133.76 10.18 136.80 10.18
  Q 157.96 10.15 171.88 10.19
  C 173.10 10.19 173.54 10.46 174.47 10.79
  A 5.02 4.97 -35.1 0 0 176.12 11.07
  L 182.94 11.09
  A 4.58 4.35 -35.9 0 1 184.13 11.25
  Q 187.30 12.16 190.91 11.86
  A 1.51 1.51 0.0 0 1 191.48 11.91
  L 197.77 13.59
  A 2.00 2.00 0.0 0 1 199.25 15.38
  Q 200.10 27.49 200.37 49.75
  Q 200.41 53.57 200.08 189.00
  C 200.06 194.87 195.42 193.49 191.70 194.52
  Q 187.94 195.55 185.59 195.72
  C 180.30 196.10 175.51 197.47 170.85 198.23
  A 12.82 12.57 -48.7 0 1 168.72 198.39
  C 163.26 198.30 158.61 199.21 153.46 199.21
  Q 124.95 199.19 103.12 199.21
  C 101.38 199.21 99.99 198.91 98.43 198.59
  A 8.84 8.47 51.0 0 0 97.00 198.41
  Q 96.92 198.40 80.62 198.39
  Q 79.98 198.39 77.19 199.05
  A 5.32 4.70 -48.6 0 1 76.15 199.18
  Q 73.80 199.22 64.28 199.19
  C 60.87 199.18 58.05 200.12 54.91 200.11
  Q 36.52 200.07 29.73 200.13
  C 24.86 200.18 19.87 199.07 15.99 198.29
  A 2.15 2.14 4.2 0 1 14.27 196.31
  Q 13.66 185.08 12.64 166.81
  Q 12.33 161.23 12.87 154.69
  Q 13.95 141.85 13.66 139.25
  Q 11.91 123.39 12.94 109.00
  C 13.47 101.68 14.07 96.13 13.91 88.67
  Q 13.16 53.47 15.36 16.15
  Z
  M 20.55 20.39
  C 19.75 26.97 20.00 32.71 20.97 39.51
  C 21.82 45.45 21.72 51.13 20.78 57.69
  Q 20.23 61.55 20.03 67.34
  Q 18.53 109.70 19.19 149.50
  C 19.25 152.79 18.00 156.71 17.87 159.94
  Q 17.17 176.85 18.83 190.20
  Q 19.04 191.94 20.37 194.16
  A 1.41 1.40 -7.6 0 0 21.21 194.80
  L 24.60 195.71
  A 0.94 0.81 49.4 0 0 24.86 195.75
  Q 36.87 196.11 43.69 195.61
  C 58.33 194.52 66.04 194.97 84.57 194.93
  C 86.25 194.93 87.78 195.29 89.29 195.64
  A 6.75 6.35 -36.7 0 0 90.78 195.81
  Q 93.35 195.82 127.50 195.84
  Q 131.18 195.84 133.97 195.33
  C 138.98 194.43 142.90 195.29 148.61 194.36
  Q 150.74 194.02 156.08 194.12
  A 19.29 19.05 -48.1 0 0 158.91 193.95
  Q 166.56 192.88 173.07 192.54
  C 180.04 192.17 187.04 191.25 192.62 189.75
  A 2.95 2.93 -2.3 0 0 194.75 187.46
  Q 195.82 181.79 196.09 174.00
  Q 197.24 141.21 195.91 110.75
  Q 195.44 100.05 195.79 87.25
  C 196.17 73.48 195.60 57.07 195.22 39.70
  Q 195.03 31.39 193.73 23.78
  Q 192.96 19.28 191.11 16.74
  A 1.34 1.34 0.0 0 0 190.01 16.19
  Q 188.14 16.22 185.91 15.48
  A 3.35 3.34 53.2 0 0 184.74 15.31
  C 182.02 15.39 175.62 15.80 170.24 14.75
  A 9.83 9.18 -37.5 0 0 168.39 14.57
  Q 149.41 14.58 138.27 14.56
  C 133.88 14.55 130.55 15.29 125.82 15.30
  Q 115.57 15.31 105.18 15.32
  Q 103.06 15.32 101.53 15.61
  C 97.13 16.45 92.71 16.20 85.21 16.16
  C 81.39 16.14 79.02 17.09 75.07 17.07
  C 67.42 17.03 63.75 16.90 59.82 17.82
  A 1.92 1.77 36.0 0 1 59.39 17.87
  L 46.46 17.92
  A 7.80 7.73 -51.6 0 0 44.80 18.12
  Q 41.97 18.81 41.01 18.80
  Q 25.74 18.71 21.28 19.60
  A 0.92 0.92 0.0 0 0 20.55 20.39
  Z"
/>
<path fill="#f45d27" d="
  M 29.65 190.53
  Q 26.67 189.19 26.12 185.30
  Q 25.55 181.19 23.98 161.46
  Q 22.94 148.30 23.17 137.53
  Q 23.35 129.43 23.02 102.69
  C 22.94 96.31 23.99 90.84 24.11 84.38
  Q 24.45 66.20 24.82 47.77
  Q 24.89 44.43 25.47 38.27
  Q 25.89 33.86 25.62 28.77
  C 25.41 24.78 30.12 23.82 33.15 23.83
  Q 46.26 23.86 55.19 23.82
  A 1.66 1.12 29.4 0 0 55.44 23.80
  L 71.22 21.39
  A 3.26 1.69 -23.2 0 1 71.63 21.35
  Q 80.56 21.25 106.99 21.28
  C 110.46 21.28 113.22 20.43 116.34 20.42
  Q 146.23 20.35 154.24 20.47
  Q 159.91 20.56 175.44 22.53
  Q 178.52 22.92 179.59 22.94
  C 184.65 23.03 188.63 25.79 189.22 31.02
  Q 189.73 35.46 191.03 55.25
  C 191.90 68.44 190.54 81.12 190.65 94.92
  Q 190.90 126.58 190.03 158.00
  Q 189.79 166.50 190.88 176.06
  C 191.24 179.20 188.25 181.77 186.37 183.29
  A 1.18 1.07 16.0 0 1 185.96 183.49
  L 176.97 185.62
  A 1.17 0.80 29.0 0 1 176.76 185.64
  Q 170.63 185.48 168.50 185.90
  C 163.63 186.86 159.08 186.18 154.32 186.80
  C 147.28 187.72 142.32 187.00 135.21 187.58
  Q 127.20 188.24 121.19 188.16
  Q 118.11 188.12 116.34 188.48
  C 111.27 189.52 106.33 188.72 101.90 189.33
  C 96.09 190.13 92.68 189.77 86.87 189.89
  A 6.29 6.09 -50.7 0 0 85.66 190.03
  Q 78.76 191.58 72.07 189.91
  A 1.80 1.57 -34.9 0 0 71.70 189.87
  L 52.79 189.87
  A 1.30 1.29 -35.9 0 1 52.40 189.81
  Q 48.92 188.65 45.66 189.24
  C 40.89 190.10 37.09 189.84 32.64 189.88
  A 3.65 3.53 32.5 0 0 31.32 190.15
  L 30.40 190.54
  A 0.94 0.92 -43.8 0 1 29.65 190.53
  Z
  M 32.62 28.96
  A 1.30 1.29 -2.1 0 0 31.35 30.32
  Q 31.70 36.91 31.04 43.34
  Q 30.34 50.07 30.12 56.34
  Q 28.79 94.33 28.62 127.25
  C 28.52 146.05 28.55 164.30 31.10 182.61
  A 1.56 1.55 -4.5 0 0 32.68 183.95
  C 39.54 183.78 45.63 184.29 52.34 183.23
  Q 54.69 182.86 60.61 183.06
  Q 61.04 183.08 66.64 183.68
  Q 69.87 184.03 73.75 183.91
  Q 103.41 182.94 123.73 182.24
  Q 126.07 182.15 127.77 182.20
  Q 131.28 182.31 134.23 181.44
  A 2.23 2.07 34.6 0 1 134.85 181.35
  L 146.25 181.30
  A 1.49 1.20 32.8 0 0 146.54 181.27
  L 149.38 180.69
  A 2.94 1.84 -39.4 0 1 149.77 180.64
  L 173.45 179.66
  A 4.33 3.79 32.9 0 0 174.21 179.55
  Q 177.78 178.63 182.73 178.86
  A 2.45 2.45 0.0 0 0 185.29 176.41
  L 185.29 27.98
  A 0.68 0.67 -86.7 0 0 184.70 27.31
  L 171.05 25.59
  A 0.76 0.70 47.4 0 0 170.93 25.58
  Q 160.21 25.48 156.11 25.60
  Q 151.50 25.72 142.93 24.93
  Q 135.82 24.27 127.50 24.94
  Q 119.17 25.61 113.96 25.60
  Q 93.51 25.53 93.23 25.54
  A 18.26 16.85 -22.5 0 0 90.68 25.81
  C 84.54 26.88 78.03 26.13 73.46 26.94
  C 70.96 27.38 68.49 26.89 66.34 27.36
  Q 62.66 28.16 61.75 28.10
  C 59.49 27.94 54.89 29.17 51.55 28.91
  Q 48.90 28.70 47.17 29.10
  C 43.53 29.95 38.36 30.24 35.41 29.45
  Q 33.54 28.95 32.62 28.96
  Z"
/>
<path fill="#f45d27" d="
  M 38.02 176.14
  Q 34.41 150.03 34.47 121.00
  C 34.54 93.08 34.53 68.48 36.04 44.56
  C 36.31 40.23 38.06 34.40 42.42 32.64
  C 47.93 30.43 53.04 30.29 58.27 30.97
  Q 62.90 31.58 65.26 31.52
  Q 70.11 31.39 89.06 31.50
  C 92.00 31.51 95.22 32.33 97.75 32.33
  Q 118.17 32.36 123.00 32.31
  Q 123.58 32.31 126.62 31.72
  A 10.68 9.88 27.5 0 1 128.08 31.54
  Q 129.41 31.48 143.56 31.50
  Q 146.23 31.51 148.41 31.02
  C 150.47 30.55 152.71 31.61 155.21 31.49
  Q 158.18 31.36 161.65 32.15
  A 7.96 7.74 -38.0 0 0 163.50 32.35
  Q 171.70 32.22 176.23 32.46
  C 179.41 32.63 179.89 34.49 179.88 37.50
  Q 179.86 51.46 180.44 82.00
  Q 181.01 111.91 179.43 143.00
  Q 179.13 148.89 180.28 156.49
  Q 181.46 164.27 180.81 168.98
  Q 180.57 170.66 178.95 171.75
  A 1.80 1.73 -61.0 0 1 177.97 172.05
  L 173.38 172.05
  A 2.50 2.27 36.4 0 0 172.89 172.10
  Q 165.81 173.79 159.18 173.71
  Q 155.38 173.67 153.85 174.09
  C 151.58 174.70 149.02 174.49 146.72 174.76
  Q 135.04 176.09 132.76 176.55
  Q 128.18 177.48 126.81 177.14
  A 1.76 1.75 36.1 0 0 125.46 177.35
  Q 124.45 177.96 120.01 177.96
  Q 110.17 177.95 94.87 177.92
  A 1.60 1.44 47.9 0 1 94.57 177.89
  L 91.42 177.23
  A 5.92 5.45 -37.0 0 0 90.30 177.12
  L 50.19 177.12
  A 4.49 4.44 36.3 0 0 48.90 177.31
  Q 45.89 178.24 44.37 177.77
  Q 41.82 176.99 39.21 177.12
  A 1.14 1.13 -5.5 0 1 38.02 176.14
  Z
  M 45.20 172.72
  L 46.15 172.29
  A 3.77 3.64 31.4 0 1 47.54 171.98
  Q 49.37 171.93 64.01 171.98
  Q 66.60 171.98 69.06 171.32
  A 5.52 5.39 36.7 0 1 70.49 171.13
  L 92.24 171.13
  A 1.46 1.30 -32.5 0 1 92.68 171.20
  L 94.44 171.75
  A 4.56 4.40 -35.2 0 0 95.80 171.96
  Q 111.12 171.95 124.68 171.95
  C 127.26 171.95 129.30 171.13 132.10 171.12
  Q 135.36 171.11 151.71 171.11
  C 157.31 171.11 162.13 169.88 167.85 170.25
  C 170.23 170.40 172.15 169.47 174.38 169.34
  A 0.87 0.87 0.0 0 0 175.15 168.74
  Q 176.15 165.77 175.65 161.78
  Q 174.17 149.83 174.26 137.25
  Q 174.57 96.82 174.92 68.25
  Q 175.12 51.93 174.62 38.30
  A 1.81 1.79 -57.8 0 0 174.47 37.63
  C 173.24 34.67 167.60 35.84 165.35 36.56
  A 2.07 1.92 -52.4 0 1 164.70 36.67
  Q 103.08 36.63 49.00 36.68
  Q 47.69 36.68 44.81 37.86
  C 42.97 38.62 42.69 40.15 42.53 42.00
  Q 41.06 59.21 40.66 74.00
  C 40.57 77.44 40.92 81.56 40.86 85.01
  Q 40.33 116.81 40.95 145.00
  Q 41.30 160.79 43.03 171.55
  A 1.55 1.55 0.0 0 0 45.20 172.72
  Z"
/>
<path fill="#f45d27" d="
  M 169.38 162.75
  A 2.32 2.32 0.0 0 1 167.13 165.03
  Q 159.12 165.27 151.34 165.17
  C 145.36 165.08 140.25 166.09 134.61 166.07
  Q 125.28 166.05 115.69 166.07
  C 113.13 166.08 110.95 166.87 108.46 166.88
  C 99.95 166.93 95.05 167.16 89.71 166.13
  A 4.35 4.02 -37.9 0 0 89.00 166.07
  L 61.79 166.07
  A 3.27 3.13 -51.4 0 0 60.96 166.18
  Q 56.37 167.41 50.86 166.71
  A 1.51 1.49 -8.9 0 1 49.68 165.86
  Q 48.68 163.78 48.54 161.23
  Q 45.88 113.00 47.33 72.00
  Q 47.83 57.84 48.94 46.22
  A 3.36 3.32 72.5 0 1 50.07 44.02
  Q 52.93 41.53 56.00 42.11
  Q 58.60 42.60 60.02 42.60
  Q 99.71 42.60 111.14 42.57
  Q 115.61 42.55 122.84 43.09
  Q 129.46 43.58 130.62 43.76
  Q 134.23 44.31 138.40 44.31
  Q 145.72 44.30 164.22 44.27
  A 1.42 1.33 -29.4 0 1 164.87 44.43
  C 169.02 46.50 168.81 54.21 168.56 58.51
  C 167.42 78.51 168.39 99.10 169.17 118.75
  C 169.81 134.69 169.59 150.17 169.38 162.75
  Z
  M 55.76 160.98
  C 61.20 160.84 69.05 160.34 75.86 161.70
  A 7.39 7.07 -38.1 0 0 77.28 161.84
  L 142.85 161.84
  A 8.44 8.30 38.8 0 0 144.53 161.67
  C 148.71 160.80 151.80 161.13 155.61 160.01
  Q 157.34 159.51 161.44 158.84
  Q 164.59 158.33 164.47 155.77
  Q 164.11 147.38 164.98 132.59
  Q 165.50 123.84 165.13 118.04
  Q 164.62 110.18 163.79 96.58
  C 162.82 80.72 162.86 68.44 162.99 54.25
  Q 163.00 53.02 162.65 50.68
  A 1.51 1.50 -4.2 0 0 161.16 49.40
  L 142.55 49.40
  A 1.11 0.90 32.4 0 0 142.30 49.43
  Q 136.47 50.94 131.48 49.62
  A 7.93 7.71 -37.6 0 0 129.40 49.38
  Q 123.29 49.50 121.73 49.24
  C 115.90 48.25 112.58 48.60 105.82 48.56
  C 104.08 48.55 103.10 48.29 101.25 47.88
  A 8.08 8.05 51.1 0 0 99.51 47.69
  L 68.33 47.69
  A 8.74 8.58 49.6 0 1 66.78 47.55
  Q 61.88 46.63 56.59 46.90
  A 1.51 1.50 1.3 0 0 55.16 48.26
  Q 53.39 66.46 52.93 86.23
  C 52.53 102.89 53.45 122.00 53.26 137.65
  Q 53.13 148.27 54.42 159.81
  A 1.32 1.31 -3.8 0 0 55.76 160.98
  Z"
/>
<path fill="#f45d27" d="
  M 60.18 153.90
  C 58.89 133.01 57.90 112.78 58.88 92.43
  C 59.41 81.35 59.18 70.80 60.23 58.75
  C 60.74 52.87 68.28 52.80 72.58 52.80
  Q 86.03 52.80 96.70 52.84
  Q 97.55 52.84 100.01 53.37
  A 10.70 10.44 49.6 0 0 102.47 53.60
  C 106.07 53.52 109.17 54.49 112.58 54.50
  Q 131.07 54.51 131.47 54.53
  A 8.41 7.99 51.7 0 1 132.80 54.72
  Q 135.65 55.40 137.00 55.32
  Q 140.20 55.13 148.87 53.89
  A 5.46 5.42 45.2 0 1 150.51 53.90
  L 154.67 54.57
  A 1.98 1.97 4.4 0 1 156.33 56.49
  Q 156.70 87.82 157.24 149.77
  Q 157.26 152.39 155.10 153.08
  A 2.89 2.77 -52.2 0 1 154.08 153.23
  Q 149.79 153.06 145.49 153.94
  A 8.72 8.65 38.9 0 1 143.73 154.12
  C 131.67 154.12 124.27 153.65 119.85 154.67
  A 9.74 9.68 38.3 0 1 117.66 154.92
  C 110.93 154.94 107.51 154.86 103.05 155.71
  A 5.99 5.62 37.4 0 1 101.87 155.83
  Q 92.68 155.87 91.04 155.79
  Q 87.66 155.64 80.65 156.52
  Q 75.76 157.13 70.22 156.39
  Q 65.30 155.74 63.52 155.76
  Q 62.45 155.77 60.70 154.75
  A 1.07 1.05 14.1 0 1 60.18 153.90
  Z
  M 151.60 59.47
  A 0.70 0.70 0.0 0 0 150.68 58.80
  L 146.37 60.19
  A 5.70 5.50 -54.1 0 1 144.86 60.46
  Q 144.57 60.46 121.93 60.47
  Q 117.46 60.47 113.11 59.89
  Q 109.52 59.40 104.28 59.61
  A 8.37 8.01 48.6 0 1 102.27 59.44
  C 95.52 58.00 88.15 59.81 80.52 58.32
  A 4.51 4.31 -42.2 0 0 78.96 58.28
  Q 72.82 59.21 65.70 58.71
  A 0.75 0.75 0.0 0 0 64.89 59.44
  Q 63.97 102.49 65.09 149.81
  A 1.77 1.77 0.0 0 0 66.85 151.54
  Q 84.75 151.61 96.45 151.57
  C 100.21 151.56 103.56 150.70 107.34 150.72
  Q 125.30 150.85 127.10 150.82
  C 129.81 150.76 130.99 150.48 133.59 150.01
  A 9.91 9.57 -49.4 0 1 135.40 149.84
  Q 140.17 149.85 144.94 149.87
  C 147.57 149.88 150.07 148.57 153.02 149.12
  A 0.62 0.61 -86.3 0 0 153.74 148.48
  Q 151.28 105.11 151.60 59.47
  Z"
/>
<path fill="#f45d27" d="
  M 146.38 144.40
  Q 145.90 144.03 145.51 144.01
  Q 136.71 143.46 129.86 144.64
  A 13.33 13.31 -49.1 0 1 127.14 144.84
  Q 120.31 144.64 116.37 145.09
  Q 109.40 145.90 107.12 145.66
  C 102.87 145.22 98.60 146.48 93.95 146.48
  Q 78.12 146.47 75.52 146.38
  A 3.94 3.93 78.2 0 1 72.10 144.14
  C 70.14 140.07 69.75 134.40 69.26 128.00
  Q 69.06 125.43 69.37 115.83
  C 69.75 104.14 69.17 90.62 69.41 81.00
  Q 69.60 73.28 71.14 68.63
  Q 72.52 64.50 77.25 64.92
  Q 83.49 65.47 86.50 65.51
  Q 96.84 65.63 145.77 65.51
  A 2.39 2.38 87.4 0 1 148.15 67.69
  Q 148.74 74.40 148.61 78.75
  C 148.01 98.68 147.73 114.56 149.12 135.28
  C 149.34 138.40 149.38 142.15 147.23 144.34
  A 0.64 0.64 0.0 0 1 146.38 144.40
  Z
  M 144.24 71.25
  A 0.58 0.58 0.0 0 0 143.64 70.67
  C 138.03 70.84 132.81 71.13 127.75 70.06
  A 9.50 9.40 50.7 0 0 125.77 69.85
  Q 93.95 69.83 80.73 69.82
  C 76.59 69.81 73.66 69.17 73.61 74.25
  Q 73.23 111.30 73.87 129.18
  Q 74.18 137.83 74.78 141.43
  A 0.89 0.88 -4.5 0 0 75.66 142.17
  L 98.08 142.17
  A 1.17 0.80 29.0 0 0 98.29 142.15
  C 104.97 140.62 111.18 141.26 120.52 141.33
  C 123.38 141.35 126.11 140.51 129.11 140.52
  Q 135.31 140.52 144.52 140.55
  A 0.73 0.72 -1.5 0 0 145.25 139.79
  Q 143.71 105.46 144.24 71.25
  Z"
/>
<path fill="#f45d27" d="
  M 139.38 75.03
  A 0.62 0.61 87.7 0 1 139.95 75.56
  Q 140.37 78.80 140.41 82.18
  Q 140.61 101.52 141.02 120.50
  Q 141.18 127.69 140.02 133.60
  A 2.16 2.15 -83.9 0 1 137.87 135.34
  C 134.48 135.29 131.82 136.01 128.18 136.32
  Q 118.88 137.11 117.14 137.36
  Q 111.83 138.11 109.19 137.95
  C 105.76 137.73 102.42 138.82 98.60 138.82
  Q 87.21 138.80 86.76 138.82
  Q 83.98 138.94 80.54 137.59
  A 1.24 1.22 -0.4 0 1 79.87 136.94
  Q 79.16 135.33 79.06 132.24
  Q 77.63 90.73 77.46 78.94
  A 2.15 2.14 87.0 0 1 79.41 76.77
  L 87.92 75.99
  A 1.53 1.48 46.0 0 1 88.22 76.00
  Q 95.48 77.13 102.21 76.44
  Q 108.75 75.77 111.84 75.81
  C 120.31 75.91 123.61 76.12 130.42 75.16
  Q 133.94 74.67 139.38 75.03
  Z
  M 81.32 79.11
  A 0.40 0.40 0.0 0 0 80.92 79.51
  Q 81.18 108.36 83.08 133.93
  A 0.56 0.55 89.3 0 0 83.59 134.44
  Q 91.68 134.93 97.37 134.26
  C 104.22 133.45 108.16 133.78 116.00 133.74
  C 120.33 133.71 124.70 132.50 128.88 132.86
  C 131.35 133.07 133.55 131.85 136.25 131.91
  A 0.81 0.80 -86.5 0 0 137.06 131.19
  Q 137.54 126.73 137.43 120.99
  Q 137.25 111.64 136.29 80.47
  A 0.98 0.95 11.6 0 0 135.72 79.63
  C 133.58 78.65 129.96 79.21 127.50 79.79
  Q 126.26 80.08 123.48 80.08
  Q 115.00 80.06 107.35 80.08
  C 104.15 80.09 101.50 79.14 97.99 79.14
  Q 88.74 79.17 81.32 79.11
  Z"
/>
<path fill="#f45d27" d="
  M 89.02 84.18
  A 0.80 0.79 -87.6 0 1 89.81 83.45
  Q 93.62 83.41 109.49 83.40
  C 112.60 83.40 114.93 84.23 117.68 84.25
  Q 122.13 84.30 130.75 84.26
  A 1.12 1.10 -11.7 0 1 131.77 84.92
  Q 133.01 87.68 132.84 91.26
  C 132.33 101.89 131.65 113.33 133.31 124.49
  Q 133.81 127.84 130.51 127.79
  Q 123.78 127.70 108.03 127.74
  Q 104.52 127.75 99.02 128.39
  Q 94.78 128.89 89.95 128.53
  A 1.98 1.96 -88.3 0 1 88.13 126.58
  C 87.99 111.11 87.82 98.24 89.02 84.18
  Z
  M 128.99 87.31
  A 0.48 0.48 0.0 0 0 128.51 86.83
  C 121.19 86.85 115.44 87.24 109.60 86.26
  A 6.07 6.01 -45.3 0 0 107.42 86.28
  Q 102.68 87.17 96.50 86.82
  Q 94.80 86.72 93.08 87.64
  A 1.67 1.66 76.0 0 0 92.20 89.11
  L 92.20 123.64
  A 0.66 0.66 0.0 0 0 92.86 124.30
  Q 118.90 124.29 121.46 124.30
  Q 124.35 124.32 125.03 124.10
  Q 127.58 123.27 128.48 123.50
  A 0.41 0.40 7.2 0 0 128.99 123.11
  L 128.99 87.31
  Z"
/>
<path fill="#f45d27" d="
  M 97.02 91.00
  A 1.05 1.04 8.3 0 1 98.07 90.22
  Q 102.54 90.38 105.76 89.86
  C 110.48 89.09 113.99 89.50 118.69 89.36
  C 123.04 89.23 126.33 90.65 126.06 95.48
  C 125.77 100.57 125.73 105.46 125.19 110.17
  Q 124.61 115.20 124.92 119.60
  A 1.09 1.09 0.0 0 1 123.88 120.76
  C 120.48 120.93 117.38 121.79 113.70 121.79
  Q 98.71 121.78 98.64 121.78
  A 1.91 1.90 86.0 0 1 96.81 120.19
  Q 95.66 113.26 95.84 104.37
  C 95.94 99.63 95.99 94.98 97.02 91.00
  Z
  M 99.45 118.39
  Q 103.43 118.09 107.31 118.95
  A 8.34 8.30 51.5 0 0 109.03 119.15
  C 114.21 119.22 118.04 119.76 121.61 117.86
  A 1.11 1.10 76.2 0 0 122.20 116.88
  L 122.20 95.61
  A 2.77 2.76 -0.0 0 0 119.43 92.85
  L 107.00 92.85
  A 3.81 3.60 -51.0 0 0 106.03 92.98
  Q 102.94 93.86 100.43 93.59
  A 0.54 0.53 4.4 0 0 99.83 94.10
  L 98.78 117.74
  A 0.63 0.62 88.8 0 0 99.45 118.39
  Z"
/>
<path fill="#f45d27" d="
  M 102.10 97.08
  A 1.17 1.17 0.0 0 1 103.54 96.16
  Q 108.58 97.45 115.59 97.02
  A 2.29 2.29 0.0 0 1 118.03 99.31
  Q 118.03 105.79 118.59 110.79
  Q 118.91 113.70 115.95 114.62
  Q 115.29 114.82 107.54 115.79
  Q 104.26 116.19 102.30 114.03
  A 1.59 1.55 23.5 0 1 101.89 113.03
  C 101.70 107.41 101.17 102.20 102.10 97.08
  Z"
/>
</svg>
