<?xml version="1.0" encoding="UTF-8" standalone="no"?>
<svg
   version="1.1"
   viewBox="0 0 510.19522 510.47104"
   id="svg10"
   sodipodi:docname="khipu-circle.svg"
   width="510.19522"
   height="510.47104"
   inkscape:version="1.4.2 (f4327f4, 2025-05-13)"
   xmlns:inkscape="http://www.inkscape.org/namespaces/inkscape"
   xmlns:sodipodi="http://sodipodi.sourceforge.net/DTD/sodipodi-0.dtd"
   xmlns="http://www.w3.org/2000/svg"
   xmlns:svg="http://www.w3.org/2000/svg">
  <defs
     id="defs10" />
  <sodipodi:namedview
     id="namedview10"
     pagecolor="#ffffff"
     bordercolor="#000000"
     borderopacity="0.25"
     inkscape:showpageshadow="2"
     inkscape:pageopacity="0.0"
     inkscape:pagecheckerboard="0"
     inkscape:deskcolor="#d1d1d1"
     inkscape:zoom="1.5606061"
     inkscape:cx="267.52427"
     inkscape:cy="268.16505"
     inkscape:window-width="2560"
     inkscape:window-height="1351"
     inkscape:window-x="-9"
     inkscape:window-y="-9"
     inkscape:window-maximized="1"
     inkscape:current-layer="svg10" />
  <path
     fill="currentColor"
     d="m 422.1495,73.629783 c 1.34,1.21 2.53,1.84 3.66,3.26 a 3.81,3.41 3.6 0 0 0.52,0.53 c 4.38,3.61 10.38,8.48 13.79,13.6 q 9.56,14.409997 14.71,22.629997 a 5.75,5.68 6.8 0 0 0.71,0.89 c 1.97,2.01 4.73,4.25 6.63,7.26 q 3.11,4.94 11.27,18.25 c 1.99,3.25 2.86,6.39 4.84,9.29 q 0.39,0.58 1.93,3.75 4.53,9.37 5.53,11.63 c 2.29,5.16 5.87,8.74 8.08,13.72 5.13,11.55 9.25,22.71 10.82,34.69 a 1.96,2 21.7 0 0 0.41,0.98 l 1.51,1.93 a 2.34,2.31 18 0 1 0.44,0.85 q 3.12,10.65 3.16,12.71 0.2,9.66 -0.72,25.56 -0.35,6.01 -2.17,12.8 c -2.33,8.71 -3.97,15.37 -5.18,22.38 -0.88,5.07 -3,9.81 -4.11,14.93 a 4.61,4.96 61.2 0 1 -0.34,1.03 q -3.39,7.56 -7.89,18.41 c -3.29,7.93 -8.76,18.17 -12.02,24.51 -2.54,4.97 -4.84,12.94 -7.12,21.59 q -1.49,5.66 -3.99,11.83 -2.05,5.05 -6.25,11.51 -6.91,10.62 -7.19,11.02 -10.14,14.63 -23.43,26.05 -9.82,8.45 -25.91,18.23 c -4.02,2.45 -9.65,4.77 -14.14,7.11 -3.07,1.61 -5.03,2.13 -8,3.19 a 6.75,6.35 17 0 0 -1.3,0.64 q -11.06,7.08 -15.7,11.54 c -7.52,7.24 -13.99,14.74 -22.01,21.97 a 5.17,5 8.1 0 1 -0.87,0.63 q -3.59,2.06 -8.08,4.49 c -6.29,3.4 -11.34,4.37 -20.46,7.18 -4.81,1.49 -9.92,1.4 -14.92,2.17 -20.71,3.15 -41.64,2.12 -63.3,1 -4.45,-0.23 -8.8,0.4 -12.77,0.68 a 7.86,8.01 49.5 0 1 -2.31,-0.16 c -4.03,-0.88 -5.81,-1.47 -9.18,-1.63 q -5.38,-0.25 -13.96,-0.27 a 18.33,18.33 0 0 1 -3.41,-0.32 q -13.26,-2.53 -25.01,-2.84 a 1.77,1.74 70 0 1 -1.28,-0.61 c -2.81,-3.21 -6.63,-4.13 -11.44,-5.18 q -4.68,-1.02 -8.57,-3.24 -19.38,-11.08 -36.46,-21.8 -1.72,-1.09 -3.14,-3.16 a 0.93,0.98 1.4 0 0 -0.19,-0.21 l -12.180005,-11.18 a 1.33,1.29 16.6 0 1 -0.41,-0.73 q -0.98,-4.76 -1.42,-8.05 a 2.7,2.96 86.1 0 0 -2.94,-2.34 q -0.9,0.01 -1.96,-0.23 a 2.61,2.59 70.3 0 1 -1,-0.48 q -0.02,-0.02 -3.82,-3.49 -3.81,-3.48 -3.83,-3.5 a 2.61,2.59 14.5 0 1 -0.56,-0.95 q -0.34,-1.03 -0.41,-1.93 a 2.96,2.7 88.7 0 0 -2.59,-2.72 q -3.32,-0.14 -8.15,-0.69 a 1.33,1.29 68.2 0 1 -0.76,-0.34 l -12.23,-11.13 a 0.93,0.98 83.4 0 0 -0.23,-0.17 q -2.19,-1.22 -3.43,-2.84 -12.21,-16.05 -24.99,-34.35 -2.56,-3.67 -4,-8.24 c -1.48,-4.7 -2.74,-8.42 -6.19,-10.93 a 1.77,1.74 14.8 0 1 -0.72,-1.22 q -1.36,-11.68 -5.08,-24.65 a 18.33,18.33 0 0 1 -0.6199995,-3.37 q -0.79,-8.55 -1.53,-13.88 c -0.46,-3.34 -1.21,-5.06 -2.45,-9 a 7.86,8.01 35.3 0 1 -0.36,-2.28 c -0.08,-3.98 0.16,-8.37 -0.47,-12.78 -3.07,-21.47 -5.98000001,-42.23 -4.70000001,-63.14 0.32,-5.05 -0.23,-10.13 0.82000001,-15.05 1.98,-9.34 2.49,-14.45 5.31,-21.02 q 2.01,-4.69 3.7399995,-8.46 a 5.17,5 76.7 0 1 0.55,-0.92 c 6.48,-8.64 13.37,-15.75 19.9,-23.9 q 4.03,-5.02 10.08,-16.67 a 6.75,6.35 67.8 0 0 0.53,-1.35 c 0.78,-3.06 1.13,-5.05 2.45,-8.26 1.93,-4.68 3.73,-10.49 5.81,-14.72 q 8.3,-16.9 15.83,-27.439997 10.18,-14.27 23.83,-25.68 0.38,-0.32 10.33,-8.15 6.060005,-4.77 10.900005,-7.26 5.92,-3.05 11.43,-5.04 c 8.41,-3.05 16.14,-6.06 20.86,-9.03 6.02,-3.82 15.73,-10.19 23.33,-14.18 q 10.4,-5.46 17.62,-9.51 a 4.61,4.96 23.7 0 1 1,-0.44 c 5,-1.56 9.53,-4.1 14.5,-5.43 6.87,-1.84 13.36,-4.0700004 21.82,-7.1700004 q 6.6,-2.43 12.56,-3.32 15.75,-2.33999999 25.39,-3.00999999 2.05,-0.15 12.94,1.99999999 a 2.34,2.31 66.8 0 1 0.89,0.36 l 2.05,1.33 a 1.96,2 63.2 0 0 1.02,0.32 c 12.07,0.49 23.56,3.59 35.52,7.6600004 5.16,1.75 9.05,5 14.39,6.81 q 2.34,0.8 12.08,4.46 3.3,1.25 3.91,1.59 c 3.07,1.71 6.27,2.29 9.69,3.98 q 13.99,6.93 19.19,9.59 c 3.17,1.62 5.65,4.17 7.82,5.95 a 5.75,5.68 78.1 0 0 0.95,0.62 q 8.65,4.39 23.87,12.62 c 5.4,2.93 10.79,8.47 14.78,12.51 a 3.81,3.41 81.2 0 0 0.57,0.47 c 1.53,1 2.25,2.13 3.58,3.35 z M 91.629495,435.37978 q 0.99,0.91 3.93,2.93 a 1.79,1.79 0 0 1 0.62,2.21 q -1.23,2.72 1.07,4.91 3.620005,3.43 7.270005,6.7 c 2.5,2.23 3.86,4.46 5.39,7.09 a 5.14,5.11 86.6 0 0 2.36,2.11 q 1.8,0.8 4.63,2.45 c 2.3,1.35 4.58,4.45 7.2,5.83 q 7.86,4.13 18.76,9.89 a 6.65,6.23 65.3 0 0 1.18,0.48 l 25.72,7.83 a 0.33,0.57 75.1 0 0 0.11,0.03 q 1.16,0.23 11.01,1.36 4.91,0.56 12.11,3.5 a 1.22,1.16 55.8 0 0 0.37,0.08 l 5.54,0.42 a 7.92,8.37 56.4 0 1 1.45,0.25 q 6.5,1.72 12.61,2.22 a 2.45,2.43 60.7 0 1 0.91,0.26 l 1.92,1.01 a 0.77,0.9 66.8 0 0 0.26,0.08 q 7.52,1.27 13.83,0.63 a 4.38,4.43 50.3 0 1 1.61,0.14 c 5.67,1.59 11.41,1.3 17.54,0.9 a 4.54,4.48 48.8 0 1 1.23,0.09 l 6.23,1.34 a 7.03,6.88 47.3 0 0 2.19,0.11 l 5.7,-0.6 a 4.98,5.14 49.8 0 1 1.73,0.12 q 4.26,1.02 11.05,1.3 0.88,0.04 4.11,-0.95 a 1.57,1.98 38.5 0 1 0.26,-0.06 l 27.43,-2.88 a 10.84,10.7 32.6 0 0 2.15,-0.46 q 12.73,-4.13 18.48,-7.14 12.28,-6.42 23.08,-17.9 9.6,-10.2 15.17,-14.33 6.58,-4.86 10.78,-6.28 7.95,-2.68 9.28,-3.4 6.51,-3.56 13.92,-6.89 c 12.28,-5.53 21.14,-16.05 32.55,-22.86 a 8.73,8.58 5.9 0 0 1.77,-1.41 q 9.47,-9.91 18.09,-22.33 1.49,-2.15 5.76,-10.67 1.11,-2.22 0.17,-3.84 -1.08,-1.88 -0.99,-2.33 c 0.51,-2.77 1.23,-3.57 3.34,-6.45 a 2.85,2.91 59.5 0 0 0.55,-2.04 q -0.63,-5.83 0.07,-11.25 0.49,-3.78 3.56,-10.52 5.03,-11.04 7.47,-15.35 c 6.13,-10.84 10.31,-21 13.99,-31.11 q 0.96,-2.63 1.91,-7.04 4.2,-19.45 7.96,-33.92 0.1,-0.39 0.42,-2.71 0.21,-1.51 0.2,-2.73 -0.21,-16.76 -3.29,-35.81 -1.02,-6.25 -3.35,-12.39 -5.02,-13.18 -9.23,-25.24 a 4.09,4.16 19 0 0 -0.32,-0.67 l -6.86,-11.55 a 2.11,2.46 15.8 0 1 -0.24,-0.52 l -3.64,-10.64 a 3.65,3.55 15.2 0 0 -0.75,-1.27 l -2.14,-2.33 a 2.24,2.2 17.9 0 1 -0.52,-0.99 q -1,-4.35 -1.59,-5.49 -3.66,-7.18 -4.19,-9.16 a 3.31,3.3 13.8 0 0 -0.98,-1.61 q -2,-1.78 -2.46,-4.02 -0.27,-1.29 -1.42,-2.34 -4.13,-3.76 -6.68,-6.21 a 3.46,3.53 9.6 0 1 -0.78,-1.12 c -1.52,-3.45 -3.07,-7.63 -5.44,-9.9 q -3.21,-3.07 -13.58,-12.42 -1.58,-1.429997 -2.68,-2.789997 a 3.82,3.66 18.2 0 1 -0.67,-1.26 q -1.55,-5.06 -2.19,-6.11 -3.38,-5.54 -8.73,-4.31 a 2.47,2.5 53.9 0 1 -1.81,-0.27 q -0.95,-0.56 -2.37,-1.86 -1.43,-1.29 -2.07,-2.2 a 2.47,2.5 31 0 1 -0.43,-1.77 q 0.74,-5.44 -5.08,-8.31 -1.1,-0.54 -6.28,-1.63 a 3.82,3.66 66.7 0 1 -1.32,-0.55 q -1.45,-0.98 -3.02,-2.42 -10.24,-9.49 -13.59,-12.41 c -2.47,-2.15 -6.78,-3.32 -10.35,-4.52 a 3.46,3.53 75.3 0 1 -1.18,-0.68 q -2.67,-2.32 -6.79,-6.09 -1.15,-1.05 -2.46,-1.2 -2.27,-0.26 -4.22,-2.09 a 3.31,3.3 71.1 0 0 -1.7,-0.83 q -2.02,-0.35 -9.5,-3.35 -1.18,-0.49 -5.61,-1.09 a 2.24,2.2 67 0 1 -1.03,-0.43 l -2.51,-1.92 a 3.65,3.55 69.6 0 0 -1.34,-0.63 l -10.92,-2.67 a 2.11,2.46 69.1 0 1 -0.54,-0.19 l -12.12,-5.79 a 4.09,4.16 65.9 0 0 -0.7,-0.26 q -12.39,-3.11 -25.97,-6.92 -6.32,-1.77 -12.64,-2.22 -19.25,-1.35 -35.96,-0.05 -1.21,0.1 -2.7,0.44 -2.28,0.53 -2.66,0.67 -14.07,5.05 -33.06,10.98 -4.31,1.34 -6.84,2.54 c -9.74,4.57 -19.48,9.65 -29.73,16.73 q -4.07,2.82 -14.61,8.83 -6.44,3.66 -10.16,4.49 -5.33,1.18 -11.2,1.08 a 2.85,2.91 25.4 0 0 -1.98,0.73 c -2.68,2.36 -3.41,3.15 -6.12,3.91 q -0.44,0.13 -2.41,-0.78 -1.7,-0.79 -3.81,0.52 -8.1,5.02 -10.11,6.7 -11.590005,9.7 -20.610005,20.03 a 8.73,8.58 78.9 0 0 -1.24,1.89 c -5.76,11.969997 -15.44,21.739997 -19.84,34.469997 q -2.65,7.68 -5.6,14.49 -0.6,1.39 -2.55,9.55 -1.04,4.31 -5.29,11.3 -3.61,5.92 -12.9,16.4 -10.46,11.79 -15.75,24.6 -2.48,5.99 -5.45,19.04 a 10.84,10.7 52.3 0 0 -0.26,2.19 l -0.4,27.57 a 1.57,1.98 46.3 0 1 -0.03,0.27 q -0.6999995,3.31 -0.5799995,4.18 0.8899995,6.74 2.2899995,10.89 a 4.98,5.14 35 0 1 0.27,1.71 l -0.08,5.73 a 7.03,6.88 37.6 0 0 0.31,2.17 l 1.89,6.08 a 4.54,4.48 36.1 0 1 0.2,1.22 c 0.16,6.14 0.39,11.88 2.48,17.39 a 4.38,4.43 34.5 0 1 0.28,1.59 q -0.06,6.34 1.88,13.72 a 0.77,0.9 18 0 0 0.1,0.25 l 1.18,1.82 a 2.45,2.43 24.1 0 1 0.34,0.88 q 1.05,6.04 3.35,12.36 a 7.92,8.37 28.4 0 1 0.38,1.42 l 0.92,5.48 a 1.22,1.16 29 0 0 0.11,0.36 q 3.58,6.91 4.58,11.75 2.01,9.71 2.34,10.84 a 0.33,0.57 9.7 0 0 0.04,0.11 l 10.12,24.91 a 6.65,6.23 19.5 0 0 0.58,1.13 q 6.72,10.34 11.54,17.79 c 1.61,2.49 4.9,4.48 6.46,6.65 q 1.89,2.67 2.85,4.39 a 5.11,5.14 88.2 0 0 2.32,2.16 c 2.75,1.29 5.1,2.44 7.54,4.73 q 3.59,3.34 7.33,6.64 2.39,2.09 4.99,0.62 a 1.79,1.79 0 0 1 2.26,0.41 q 2.28,2.75 3.27,3.66 z"
     id="path1" />
  <path
     fill="currentColor"
     d="m 403.9895,93.479783 c 1.05,0.97 2.62,1.74 3.97,2.6 q 2.16,1.35 3.68,2.73 6.89,6.249997 10.54,9.689997 a 1.54,1.21 11.7 0 1 0.16,0.19 l 4,5.99 a 5.52,5.38 5.6 0 0 0.76,0.9 l 4.63,4.4 a 1.83,1.84 5.3 0 1 0.34,0.41 q 11.01,18.07 13.52,22.78 0.69,1.28 2.46,7.22 a 9,9.35 19.5 0 0 1.02,2.25 q 3.05,4.89 4.67,10.8 a 10.83,10.72 21.7 0 0 1.22,2.79 q 3.05,4.93 3.64,6.62 4.93,14.25 8.14,21.49 1.49,3.35 6,11.92 3.32,6.32 6.04,14.86 c 0.82,2.59 2.08,4.82 3.12,6.88 a 4.24,4.45 25.6 0 1 0.43,1.32 q 1.25,7.93 1.11,11.51 c -0.25,6.19 -2.33,13.73 -3.32,20.04 q -2.35,14.87 -8.37,29.55 -6.6,16.11 -13.52,32.14 c -3.02,6.99 -4.46,12.76 -7.34,19.39 q -6.21,14.28 -11.23,31.9 -1.31,4.59 -4.19,9.15 c -7.18,11.41 -16.76,21.07 -26.09,30.47 q -12.25,12.35 -15.76,15.48 c -9.71,8.67 -19.95,15.53 -31.94,21.16 -6.97,3.26 -12.39,6.1 -19.28,10.22 q -18.62,11.13 -22.33,12.76 c -12.4,5.45 -20.76,9.51 -31.72,12.36 q -3.81,0.98 -10.06,1.19 -1.3,0.04 -10.14,0.59 -4.91,0.31 -10.6,-2.87 a 3.34,3.44 65.4 0 0 -1.07,-0.38 c -1.95,-0.35 -4.56,-0.22 -6.87,-0.59 q -2.25,-0.36 -23.28,-4.05 c -4.22,-0.74 -6.81,-0.58 -10.81,-0.51 q -2.44,0.05 -4.32,-0.25 -1.26,-0.2 -21.07,-3.18 -4.24,-0.63 -8.07,-0.23 c -7.27,0.76 -13.07,0.05 -21.25,0.19 a 5.82,6.02 56.3 0 1 -2.3,-0.42 q -4.27,-1.73 -7.89,-3.39 -2,-0.92 -7.69,-1.63 a 7.89,7.48 57.8 0 1 -1.91,-0.49 c -7.57,-3.06 -13.25,-4.79 -16.96,-11.56 q -4.81,-8.79 -9.92,-15.75 a 8.36,8.2 3.6 0 0 -1.18,-1.32 c -3.99,-3.58 -9.77,-8.52 -14.530005,-12.88 -4.77,-4.35 -10.22,-9.67 -14.14,-13.31 a 8.36,8.2 81.3 0 0 -1.42,-1.06 q -7.39,-4.46 -16.58,-8.46 c -7.08,-3.09 -9.31,-8.59 -13.04,-15.85 a 7.89,7.48 27 0 1 -0.66,-1.86 q -1.22,-5.6 -2.32,-7.51 -1.98,-3.46 -4.08,-7.55 a 5.82,6.02 28.5 0 1 -0.63,-2.26 c -0.6,-8.16 -1.83,-13.87 -1.72,-21.18 q 0.05,-3.85 -0.96,-8.01 -4.75,-19.47 -5.06,-20.7 -0.47,-1.85 -0.64,-4.28 c -0.29,-3.99 -0.37,-6.59 -1.48,-10.72 q -5.57,-20.62 -6.13,-22.82 c -0.58,-2.27 -0.69,-4.88 -1.21,-6.79 a 3.34,3.44 19.4 0 0 -0.47,-1.03 q -3.68,-5.38 -3.82,-10.3 -0.25,-8.86 -0.32,-10.15 -0.36,-6.25 0.28,-10.13 c 1.85,-11.17 5.14,-19.86 9.45,-32.7 q 1.29,-3.85 10.7,-23.39 c 3.48,-7.24 5.82,-12.89 8.44,-20.13 4.53,-12.44 10.44,-23.26 18.2,-33.71 q 2.8,-3.78 13.99,-17.09 c 8.53,-10.14 17.280005,-20.549997 28.000005,-28.729997 q 4.28,-3.28 8.74,-5 17.09,-6.58 30.76,-14.05 c 6.34,-3.47 11.96,-5.42 18.65,-9.06 q 15.34,-8.34 30.79,-16.36 14.08,-7.32 28.67,-11 c 6.2,-1.55 13.52,-4.3 19.66,-5.11 q 3.56,-0.46 11.57,0.07 a 4.24,4.45 59.3 0 1 1.35,0.31 c 2.15,0.85 4.48,1.91 7.13,2.49 q 8.75,1.94 15.35,4.68 8.94,3.72 12.41,4.9 7.5,2.54 22.13,6.17 1.74,0.43 6.93,3.03 a 10.83,10.72 63.2 0 0 2.88,0.96 q 6.04,1.08 11.18,3.68 a 9,9.35 65.3 0 0 2.33,0.81 q 6.08,1.23 7.42,1.8 4.91,2.08 23.9,11.42 a 1.83,1.84 79.6 0 1 0.44,0.3 l 4.8,4.21 a 5.52,5.38 79.3 0 0 0.96,0.68 l 6.33,3.44 a 1.54,1.21 73.2 0 1 0.2,0.15 q 3.76,3.32 10.6,9.62 1.51,1.39 3.06,3.41 c 0.97,1.28 1.88,2.77 2.94,3.73 z m -298.5,326.699997 q 1.54,1.41 2.44,1.93 a 1.85,1.83 60 0 0 1.11,0.3 l 1.13,-0.08 a 0.85,0.85 0 0 1 0.89,0.66 l 0.55,2.47 a 2.25,2.24 23 0 0 0.26,0.64 q 4.08,6.69 5.64,8.13 13.92,12.79 20.27,18.58 a 11.95,12.27 79.3 0 0 3.09,2.05 q 4.51,2.1 7.82,3.84 c 6.32,3.33 13.54,5.11 20.7,5.77 a 9.74,9.78 55.5 0 1 1.75,0.32 c 4.48,1.21 8,2.52 13.08,3.12 q 12.44,1.44 22.85,1.74 5,0.14 10.51,1.38 14.9,3.34 37.81,6.15 9.22,1.14 14.86,0.74 a 10.37,10.73 49.2 0 1 2.63,0.15 q 5.89,1.11 8.16,0.57 5.97,-1.39 18.29,-7.08 11.59,-5.35 13.65,-6.26 4.89,-2.16 13.42,-6.77 c 3.24,-1.75 6.81,-2.8 9.95,-4.46 17.7,-9.36 34.09,-18.78 49.46,-30.81 q 8.48,-6.63 15.73,-12.97 14.79,-12.93 24.61,-29.87 3.12,-5.4 4.63,-10.37 5.22,-17.28 8.53,-27.12 c 1.88,-5.58 6.18,-11.92 8.7,-18.08 q 1.82,-4.44 5.83,-12.42 c 3.93,-7.81 6.85,-15.59 11.15,-25.48 q 3.04,-6.98 7.04,-20.22 c 2,-6.62 3.68,-14.47 2.51,-21.51 -2.26,-13.7 -7.66,-23.25 -15.13,-38.65 q -3.45,-7.11 -8.12,-20.79 c -1.06,-3.09 -2.28,-4.91 -3.64,-7.54 a 6.44,6.71 24.3 0 1 -0.56,-1.58 l -1.14,-5.06 a 7.65,7.83 25.5 0 0 -0.57,-1.67 q -5.09,-10.71 -9.02,-23.18 -0.22,-0.69 -2.52,-3.31 a 6.35,6.35 0 0 1 -1.23,-2.1 q -0.99,-2.82 -3.44,-4.79 a 2.25,2.47 2.6 0 1 -0.59,-0.71 l -2.4,-4.46 a 2.82,2.93 4.5 0 0 -0.74,-0.9 q -3.21,-2.66 -5.26,-6.73 -0.8,-1.6 -2.18,-2.86 -5.43,-4.93 -6.79,-6.14 c -3.15,-2.82 -5.24,-6.31 -7.8,-10.04 a 1.26,1.27 51.9 0 0 -1.89,-0.22 c -2.92,2.63 -4.12,0.06 -6.04,-1.69 -1.91,-1.75 -4.57,-2.71 -2.22,-5.859997 a 1.26,1.27 32.9 0 0 -0.39,-1.86 c -3.95,-2.21 -7.61,-3.98 -10.7,-6.87 q -1.33,-1.24 -6.73,-6.21 -1.38,-1.26 -3.04,-1.91 -4.24,-1.67 -7.18,-4.63 a 2.82,2.93 80.4 0 0 -0.96,-0.66 l -4.66,-1.99 a 2.25,2.47 82.2 0 1 -0.76,-0.52 q -2.18,-2.26 -5.08,-3 a 6.35,6.35 0 0 1 -2.2,-1.03 q -2.82,-2.06 -3.52,-2.21 -12.78,-2.8 -23.9,-6.9 a 7.65,7.83 59.4 0 0 -1.72,-0.42 l -5.14,-0.68 a 6.44,6.71 60.5 0 1 -1.62,-0.41 c -2.74,-1.12 -4.67,-2.17 -7.84,-2.95 q -14.04,-3.42 -21.44,-6.22 c -16.01,-6.05 -26,-10.57 -39.85,-11.59 -7.12,-0.53 -14.78,1.85 -21.2,4.44 q -12.82,5.17 -19.5,8.83 c -9.47,5.17 -16.95,8.78 -24.38,13.4 q -7.58,4.71 -11.84,6.92 c -5.91,3.07 -11.84,7.92 -17.22,10.29 q -9.51,4.19 -26.25,10.94 -4.81,1.95 -9.91,5.54 -15.99,11.309997 -27.530005,27.199997 -5.66,7.79 -11.5,16.84 c -10.6,16.39 -18.51,33.56 -26.24,52.03 -1.37,3.27 -2.09,6.92 -3.54,10.31 q -3.83,8.91 -5.54,13.97 -0.72,2.14 -5,14.16 -4.56,12.78 -5.41,18.85 -0.33,2.31 1.3,8.08 a 10.37,10.73 35.6 0 1 0.39,2.61 q 0.11,5.65 2.07,14.73 4.86,22.56 9.53,37.1 1.73,5.38 2.32,10.35 1.24,10.34 3.79,22.6 c 1.05,5 2.68,8.39 4.28,12.74 a 9.74,9.78 29.3 0 1 0.48,1.72 c 1.3,7.07 3.72,14.1 7.61,20.09 q 2.03,3.14 4.53,7.45 a 11.95,12.27 5.5 0 0 2.32,2.89 q 6.34,5.8 20.33,18.51 1.57,1.43 8.6,4.89 a 2.25,2.24 61.8 0 0 0.66,0.2 l 2.510005,0.33 a 0.85,0.85 0 0 1 0.74,0.82 l 0.02,1.14 a 1.85,1.83 24.9 0 0 0.4,1.07 q 0.59,0.85 2.14,2.26 z"
     id="path2" />
  <path
     fill="currentColor"
     d="m 387.4995,111.53978 q 2.51,2.29 4.99,4.65 12.74,12.12 14.44,13.64 a 4.75,4.68 4.3 0 1 0.83,0.95 q 4.23,6.25 9.37,11.27 a 7.32,6.9 8.1 0 1 1.07,1.34 q 5.88,9.66 8.84,19.04 c 2.8,8.87 6.45,15.91 10.36,23.64 2.06,4.08 4.4,6.82 7.19,10.78 a 1.88,1.8 17.1 0 1 0.14,0.25 l 2.69,6.91 a 4.84,4.82 14.8 0 0 0.73,1.25 q 1.87,2.3 2.66,4.87 a 3.27,3.19 16.1 0 0 0.7,1.23 q 1.48,1.67 1.56,2.76 0.58,7.49 0.61,23.98 0.02,8.85 -1.49,23.92 -1.26,12.58 -2.19,25.33 -0.86,11.73 -3.72,21.71 c -2.6,9.09 -3.7,14.43 -6.9,21.11 q -6.7,13.95 -17.11,25.23 c -7.55,8.17 -17.06,13.5 -21.28,24.36 -1.87,4.79 -7.45,9.19 -11.82,12.42 q -37.73,27.9 -44.43,33.55 -13.93,11.77 -24.9,20.09 c -4.61,3.5 -10.87,7.66 -17.02,9.34 -6.95,1.91 -9.13,2.74 -16.91,3.9 -7.41,1.11 -15.91,3.76 -23.54,3.47 -7.46,-0.28 -10.33,-0.82 -15.76,-0.13 q -2.95,0.38 -6.02,-0.09 c -5.04,-0.76 -7.04,-0.57 -11.91,-0.55 a 12.03,12.23 50.5 0 1 -2.14,-0.19 q -3.81,-0.67 -10.46,-2.19 c -5.65,-1.28 -10.87,-0.63 -16.26,-2.02 q -19.23,-4.94 -38.69,-10.51 a 4.92,4.99 67.2 0 1 -1.05,-0.42 q -26.75,-14.3 -29.21,-15.54 c -6.13,-3.1 -11.07,-7.82 -15.17,-12.04 a 4.04,4.01 12.3 0 1 -0.88,-1.36 q -1,-2.54 -2.93,-4.3 -1.93,-1.76 -4.55,-2.53 a 4.04,4.01 72.5 0 1 -1.43,-0.75 c -4.57,-3.71 -9.720005,-8.2 -13.360005,-14.03 q -1.45,-2.34 -18.1,-27.69 a 4.92,4.99 17.6 0 1 -0.52,-1.01 q -7.3,-18.88 -13.95,-37.58 c -1.87,-5.25 -1.69,-10.5 -3.47,-16.02 q -2.11,-6.48 -3.13,-10.22 a 12.03,12.23 34.3 0 1 -0.38,-2.11 c -0.42,-4.85 -0.41,-6.86 -1.62,-11.81 q -0.74,-3.02 -0.63,-5.99 c 0.2,-5.47 -0.6,-8.28 -1.55,-15.69 -0.97,-7.57 0.9,-16.27 1.34,-23.75 0.45,-7.85 1.08,-10.1 2.36,-17.19 1.12,-6.28 4.7,-12.89 7.77,-17.8 q 7.3,-11.67 17.77,-26.6 5.02,-7.19 29.410005,-47.27 c 2.82,-4.65 6.7,-10.6 11.31,-12.89 10.43,-5.19 14.88,-15.14 22.34,-23.389997 q 10.3,-11.38 23.59,-19.31 c 6.36,-3.79 11.58,-5.37 20.4,-8.78 q 9.68,-3.74 21.29,-5.66 12.61,-2.07 25.03,-4.46 14.87,-2.86 23.69,-3.64 16.42,-1.45 23.93,-1.55 1.1,-0.02 2.89,1.31 a 3.27,3.19 68.7 0 0 1.29,0.58 q 2.63,0.56 5.09,2.22 a 4.84,4.82 70 0 0 1.31,0.61 l 7.12,2.06 a 1.88,1.8 67.7 0 1 0.27,0.11 c 4.19,2.43 7.13,4.51 11.38,6.19 8.05,3.2 15.39,6.2 24.48,8.19 q 9.61,2.11 19.76,7.09 a 7.32,6.9 76.7 0 1 1.43,0.95 q 5.46,4.66 12.06,8.31 a 4.75,4.68 80.5 0 1 1.03,0.75 q 1.66,1.55 14.88,13.149997 2.58,2.26 5.08,4.55 z m -262.42,295.8 q 1.25,2.53 2.69,3.86 3.74,3.45 9.96,9 a 13.86,13.87 80.3 0 0 2.64,1.87 c 5.67,3.11 10.39,4.48 15.16,9.05 a 5.91,6.09 81.4 0 0 1.44,1.03 q 10.47,5.5 13.16,6.22 8.17,2.19 16.47,4.71 3.51,1.07 23.94,3.92 c 5.26,0.73 9.63,1.4 14.55,2.69 q 6.25,1.65 11.54,2.29 a 4.63,4.83 59 0 1 1.01,0.23 l 4.56,1.5 a 2.84,2.9 50.7 0 0 1.23,0.11 q 3.65,-0.51 6.97,0.22 a 7.61,7.6 49.8 0 0 1.9,0.16 q 9.7,-0.45 16.67,-2.01 a 8.62,7.9 36.2 0 1 1.82,-0.2 h 4.33 a 6.03,6.13 37.4 0 0 1.69,-0.24 q 4.34,-1.25 13.8,-2.94 c 3.17,-0.57 5.62,-0.42 8.8,-1.92 q 9.58,-4.51 17.71,-10.81 15.35,-11.9 26.83,-21.47 c 1.86,-1.55 4.66,-3.23 6.2,-4.48 q 15.06,-12.2 31.19,-22.97 c 1.61,-1.08 4.14,-3.3 4.55,-4.81 1.5,-5.46 7.41,-12.79 11.77,-16.47 10.99,-9.28 20.3,-18.29 27.24,-30.19 q 2.6,-4.45 5.81,-13.85 0,-0.02 4.95,-14.22 0.96,-2.76 2.02,-11.49 0.6,-4.93 1.84,-10.44 2.3,-10.23 2.03,-20.08 -0.18,-6.86 0.2,-12.07 1.23,-16.74 -0.45,-36.84 a 6.19,5.94 33.5 0 0 -0.36,-1.6 c -2.36,-6.37 -5.63,-12.59 -9.29,-18.07 q -2.12,-3.16 -4.36,-8.45 -3.4,-8 -7.57,-15.47 c -2.61,-4.68 -4.73,-10.61 -5.96,-13.96 a 20.39,20.09 18.4 0 0 -2.21,-4.34 l -10.96,-16.43 a 20.78,20.63 4.9 0 0 -3.11,-3.66 q -1.25,-1.2 -11.25,-10.21 -1.21,-1.09 -3.17,-1.4 a 3.8,3.75 69.6 0 1 -1.83,-0.85 c -2,-1.71 -5.2,-3.54 -5.43,-6.73 a 1.87,1.89 19.3 0 0 -0.57,-1.2 q -6.58,-6.25 -12.59,-11.53 -1.32,-1.17 -3.1,-2.13 -16.5,-8.909997 -18.26,-9.779997 a 22.49,22.69 65.9 0 0 -4.31,-1.62 c -5.33,-1.41 -9.64,-2.64 -15.72,-5.27 q -7.02,-3.04 -15.66,-5.85 -4.35,-1.42 -6.58,-2.67 c -5.53,-3.1 -12.02,-5.76 -18.11,-7.65 a 11.53,11.7 53.7 0 0 -3.57,-0.52 q -20.6,0.15 -40.56,3.56 c -3.71,0.63 -7.69,0.35 -10.87,0.82 q -10.09,1.48 -17.36,3.88 -4.86,1.6 -10.34,2.75 -7.79,1.64 -10.38,2.84 -9.6,4.48 -13.82,6.28 c -13.49,5.73 -23.71,14.399997 -32.75,26.049997 -5.09,6.57 -10.37,15.15 -17.91,20.9 q -1.26,0.96 -4.52,2.68 -3.3,1.75 -5.19,5.3 c -5.24,9.83 -10.51,18.24 -19.760005,32.96 -7.43,11.82 -15.09,22.87 -22.62,34.62 q -6.8,10.61 -10.39,21.64 a 3.25,2.99 58.5 0 0 -0.13,0.66 l -2.1,21.22 a 3.32,3.58 41.5 0 0 0.02,0.83 q 0.61,4.02 0.07,9.07 c -0.48,4.55 -0.17,8.54 -0.3,12.97 a 5.78,5.95 36.7 0 0 0.25,1.89 q 1.12,3.68 1.11,7.48 a 4.68,4.53 32.5 0 0 0.49,2.06 c 2.11,4.16 3.04,9.72 4.78,14.82 q 3.47,10.17 6.77,25.63 0.26,1.21 1.34,5.01 c 1.35,4.73 2.2,8.16 4.01,12.38 2.27,5.29 3.81,11.3 6.74,16.07 q 3.29,5.35 4.54,7.46 c 1.15,1.95 3.68,3.86 4.7,4.95 a 14.4,14.25 7.8 0 1 1.78,2.32 l 4.75,7.75 a 23.36,23.32 5.3 0 0 4.320005,5.19 q 8.36,7.52 10.05,8.97 c 0.78,0.68 2.05,0.99 2.77,1.54 a 2.06,2.14 1.1 0 1 0.52,0.56 q 2.82,4.35 7.09,6.29 a 1.33,1.35 89.6 0 1 0.65,0.63 z"
     id="path3" />
  <path
     fill="currentColor"
     d="m 371.1595,129.33978 q 2.45,2.24 3.04,2.46 8.61,3.25 11,5.3 4.85,4.14 10.61,9.61 c 1.34,1.27 1.93,2.08 2.23,3.84 q 0.68,3.86 2.46,7.08 c 2.84,5.16 3.31,8.03 5.6,14.23 q 6,16.25 15.17,28.39 a 2.77,2.83 19.9 0 1 0.51,1.12 q 1.11,5.29 2.35,10.79 c 0.82,3.63 0.17,7.6 0.96,11.29 q 2.1,9.78 2.2,10.31 a 22.26,22.26 0 0 1 0.42,4.2 c 0.03,6.34 -0.48,11.79 0.63,17.86 0.94,5.11 0.91,10.59 -0.2,15.54 q -1.02,4.51 -1.27,7 c -0.65,6.32 -4.25,13.97 -7.39,18.85 q -11.66,18.18 -23.46,37.02 c -2.54,4.07 -5.79,10.76 -9.29,15.51 q -3.88,5.27 -9.88,13.01 c -2.19,2.83 -3.61,5.8 -5.04,8.14 a 10.21,10.09 84.3 0 1 -1.73,2.14 c -5.59,5.24 -11.55,11.54 -17.63,16.39 -9.84,7.86 -15.43,12.61 -25.27,16.9 -19.77,8.63 -31.67,13.68 -46.95,23.74 a 7.25,7.82 19.6 0 1 -1.34,0.7 c -10.22,4.06 -21.79,7.28 -33.02,6.43 q -3.43,-0.26 -12.18,-0.46 a 5.07,4.5 48.4 0 1 -0.92,-0.11 l -5.35,-1.22 a 1.21,1.12 47.1 0 0 -0.4,-0.03 l -14.49,1.38 a 2.92,2.81 50.5 0 1 -1.2,-0.14 q -14.82,-4.93 -26.31,-9.01 c -4.45,-1.58 -10.17,-2.76 -13.59,-4.1 -3.24,-1.26 -7.48,-3.72 -10.75,-6.72 q -6.23,-5.72 -21.55,-19.45 -5.15,-4.62 -6.94,-6.26 -1.8,-1.64 -6.87,-6.35 -15.06,-14.01 -21.32,-19.69 c -3.29,-2.99 -6.120005,-6.99 -7.670005,-10.1 -1.65,-3.28 -3.34,-8.87 -5.32,-13.16 q -5.1,-11.07 -11.36,-25.39 a 2.92,2.81 34.3 0 1 -0.25,-1.18 l 0.06,-14.55 a 1.21,1.12 37.6 0 0 -0.06,-0.4 l -1.7,-5.22 a 5.07,4.5 36.4 0 1 -0.2,-0.9 q -0.99,-8.7 -1.56,-12.09 c -1.86,-11.11 0.29,-22.92 3.41,-33.47 a 7.25,7.82 65.2 0 1 0.57,-1.4 c 8.64,-16.13 12.59,-28.43 19.39,-48.91 3.380005,-10.18 7.600005,-16.18 14.530005,-26.7 4.28,-6.49 10.02,-13 14.73,-19.04 a 10.21,10.09 0.5 0 1 1.97,-1.92 c 2.2,-1.63 5.03,-3.32 7.65,-5.75 q 7.16,-6.68 12.06,-11.02 c 4.41,-3.92 10.78,-7.76 14.6,-10.66 q 17.7,-13.46 34.74,-26.729997 c 4.58,-3.56 11.87,-7.84 18.1,-9.06 q 2.46,-0.48 6.86,-1.9 c 4.83,-1.56 10.28,-2.09 15.46,-1.61 6.14,0.55 11.52,-0.45 17.84,-1 a 22.26,22.26 0 0 1 4.22,0.04 q 0.54,0.05 10.47,1.26 c 3.75,0.45 7.64,-0.56 11.33,-0.07 q 5.59,0.73 10.96,1.36 a 2.77,2.83 64.9 0 1 1.16,0.41 q 12.92,8.03 29.65,12.53 c 6.38,1.709997 9.28,1.919997 14.68,4.279997 q 3.37,1.48 7.27,1.81 c 1.78,0.14 2.64,0.65 4.03,1.87 q 5.97,5.24 10.53,9.7 2.26,2.19 6.28,10.47 0.27,0.57 2.73,2.81 z m -7.09,12.72 -5.22,-4.79 a 0.73,0.7 30.6 0 1 -0.2,-0.73 q 1.15,-3.79 -1.35,-6.01 -3.56,-3.15 -5.37,-7.03 -0.73,-1.55 -2.36,-2.05 -3.66,-1.11 -6.31,-3.91 a 4.63,4.71 73.4 0 0 -2.62,-1.39 l -5.57,-0.93 a 2.73,2.8 62.7 0 1 -0.69,-0.21 c -3.2,-1.47 -5.17,-2.55 -8.38,-3.46 q -11.4,-3.22 -16.36,-5.25 -9.94,-4.06 -11.74,-4.38 -1.56,-0.27 -3.76,-1.88 -2.43,-1.769997 -4.99,-1.769997 c -5.52,0.01 -13.05,-1.21 -18.74,-1.4 q -12.7,-0.42 -36.5,-1.11 a 10.17,10.02 40.2 0 0 -2.1,0.16 q -2.96,0.54 -11.85,2.06 -4.5,0.78 -13,5.239997 -4.39,2.29 -14.58,9.9 -1.83,1.37 -18.48,15.51 -7.87,6.69 -16.28,12.72 -5.99,4.3 -9.96,8.59 c -5.29,5.71 -9,8.62 -15.92,9.26 a 2.19,2.21 14.8 0 0 -1.63,0.96 q -7.9,11.66 -10.52,15.64 -2.64,4.01 -9.19,17.56 -2.02,4.17 -3.66,13.21 a 12.32,11.94 62.5 0 1 -0.75,2.51 q -3.69,8.74 -5.26,13.19 c -2.220005,6.28 -5.120005,11.28 -8.390005,18.79 q -3.35,7.7 -4.1,11.87 -1.19,6.56 -1.67,17.67 -0.26,5.84 0.48,8.6 0.93,3.49 0.91,6.37 -0.02,5.54 1.89,11.85 a 13.3,12.93 34.3 0 1 0.49,2.42 q 0.69,6.77 1.04,8 1.95,6.81 7.86,22.25 a 12.84,13 15.7 0 0 1.740005,3.15 q 3.87,5.1 6.19,11.69 a 8.05,8.1 11 0 0 2.22,3.31 q 4.09,3.62 6.53,5.94 c 1.77,1.69 3.87,4.79 4.98,6.45 q 1.33,1.98 4.12,4.57 3.85,3.55 13.79,12.33 c 6.59,5.81 15.5,15.29 22.59,20.79 q 1.23,0.95 7.84,4.75 a 0.8,0.96 84.8 0 1 0.13,0.09 l 7.67,6.99 a 7.28,7.36 73.9 0 0 3.11,1.69 q 6.86,1.81 13.32,5.6 a 10.74,10.79 68.3 0 0 2.43,1.04 q 10.65,3.07 20.73,5.38 c 3.12,0.72 6.31,0.65 9.09,0.65 q 2,0 6.77,0.84 4.25,0.75 8.4,0.35 c 3.07,-0.29 6.76,0.22 8.93,0.44 a 12.56,13.14 45.3 0 0 2.99,-0.05 q 15.62,-2.08 20.17,-3.46 c 6.86,-2.09 15.21,-6.83 20.1,-9.87 7.22,-4.49 13.22,-7.01 20.67,-11 q 3.28,-1.76 5.6,-2.31 c 9.5,-2.24 17.57,-7.97 26.15,-13.73 q 2.47,-1.65 8.12,-6.39 3.79,-3.17 8.14,-6.52 a 3.17,3.16 71.7 0 0 1.25,-2.5 c 0.04,-5.72 2.18,-10.19 6.67,-15.13 q 5.18,-5.7 9.86,-13.65 c 4.93,-8.39 10.08,-15.8 16.04,-24 4.84,-6.67 7.84,-11.63 12.49,-19.22 q 4.85,-7.92 7.29,-17.93 c 1.27,-5.2 0.94,-10.05 1.61,-15.34 a 8.89,8.89 0 0 0 0,-2.3 q -2.09,-16.53 -4.01,-32.77 -0.92,-7.81 -2.45,-14.6 c -1.03,-4.6 -0.3,-9.18 -4.1,-12.85 a 3.92,3.9 14.1 0 1 -1.05,-1.74 q -0.6,-2.16 -1.8,-4.39 -6.06,-11.26 -10.29,-22.51 c -1.42,-3.78 -2.82,-5.97 -4.73,-9.55 a 2.56,2.52 24 0 1 -0.24,-0.61 l -1.3,-4.9 a 5.16,5.27 13.9 0 0 -1.44,-2.44 l -2.73,-2.61 a 1.32,1.53 4.1 0 1 -0.24,-0.32 l -2.34,-4.17 a 2.5,2.52 83.2 0 0 -1.52,-1.19 q -2.95,-0.82 -7.5,-4.7 -2.5,-2.14 -6.31,-1.12 a 0.91,0.95 60 0 1 -0.85,-0.21 z"
     id="path4" />
  <path
     fill="currentColor"
     d="m 356.3395,145.36978 q 1.23,1.13 1.59,1.52 a 1.66,1.66 0 0 1 0.47,1.05 l 0.13,1.85 a 1.73,1.73 0 0 0 0.54,1.13 q 13.24,12.26 15.67,14.32 4.22,3.61 7.3,8.12 8.96,13.14 10.55,16.55 0.98,2.1 3.37,13.6 a 1.05,1.21 22.5 0 0 0.1,0.3 l 1.72,3.86 a 4.52,4.48 34 0 1 0.38,1.9 c -0.05,1.98 -0.68,4.97 -0.52,7.59 q 0.27,4.43 0.63,11.68 c 0.23,4.82 -0.78,8.92 -0.69,12.84 q 0.19,9.01 -0.78,23.41 c -0.45,6.66 -2.4,10.43 -5.28,18.26 -2.93,7.93 -5.97,13.39 -10.41,22.74 q -1.42,3 -6.03,16.11 a 6.49,6.43 58 0 0 -0.33,1.46 c -1.38,13.5 -8.33,19.16 -19.68,28.56 q -11.62,9.63 -26.13,20.88 c -8.48,6.58 -17.44,11.29 -27.34,17.51 -6.33,3.98 -11.95,8.76 -19.06,11.66 q -0.02,0.01 -8.67,3.83 -0.94,0.41 -7.24,1.59 a 1.71,2.58 51.9 0 1 -0.37,0.03 l -14.06,-0.35 a 11.63,5.97 4.7 0 1 -1.64,-0.1 q -0.13,-0.02 -11.97,-1.94 -2.44,-0.4 -9.48,0.17 a 2.21,1.77 40 0 1 -0.45,-0.01 l -6.94,-0.86 a 3.87,3.78 45.7 0 0 -0.78,-0.02 c -10.62,0.74 -20.21,0.6 -29.54,-4.01 q -8.07,-3.98 -13.49,-6.68 a 13.52,13.53 80.1 0 1 -3.21,-2.25 q -6.88,-6.5 -18.2,-16.46 -2.68,-2.36 -5.31,-4.75 -2.63,-2.4 -5.23,-4.85 -10.96,-10.35 -18.07,-16.6 a 13.52,13.53 4.6 0 1 -2.54,-2.99 q -3.19,-5.15 -7.9,-12.82 c -5.45,-8.86 -6.47,-18.4 -6.72,-29.04 a 3.87,3.78 39 0 0 -0.09,-0.77 l -1.5,-6.83 a 2.21,1.77 44.7 0 1 -0.05,-0.45 q -0.08,-7.06 -0.71,-9.46 -3.01,-11.61 -3.04,-11.74 a 11.63,5.97 80 0 1 -0.25,-1.62 l -1.65,-13.97 a 1.71,2.58 32.8 0 1 0,-0.37 q 0.59,-6.38 0.91,-7.35 3.01,-8.97 3.01,-8.99 c 2.23,-7.35 6.47,-13.39 9.85,-20.06 5.28,-10.43 9.14,-19.79 14.91,-28.84 q 9.86,-15.49 18.37,-27.95 c 8.31,-12.17 13.31,-19.61 26.62,-22.24 a 6.49,6.43 26.7 0 0 1.42,-0.46 q 12.63,-5.8 15.49,-7.49 c 8.9,-5.29 14.05,-8.82 21.68,-12.47 7.53,-3.59 11.1,-5.88 17.69,-6.95 q 14.25,-2.29 23.24,-2.94 c 3.91,-0.27 7.9,-1.66 12.72,-1.87 q 7.25,-0.31 11.69,-0.46 c 2.62,-0.08 5.54,-0.98 7.51,-1.21 a 4.52,4.48 50.7 0 1 1.93,0.2 l 4,1.35 a 1.05,1.21 62.2 0 0 0.31,0.08 q 11.67,1.31 13.85,2.09 3.54,1.27 17.45,8.98 4.78,2.65 8.76,6.52 2.28,2.23 15.71,14.27 a 1.73,1.73 0 0 0 1.18,0.44 l 1.85,-0.04 a 1.66,1.66 0 0 1 1.09,0.36 q 0.42,0.33 1.66,1.45 z m -199.42,218.78 q 2.44,2.23 4.84,4.54 7.73,7.46 12.39,11.65 a 11.36,11.81 82.2 0 0 1.91,1.39 q 12.43,7.17 14.66,8 1.55,0.58 11.87,3.58 4.76,1.38 10.85,1.67 14.5,0.69 21.41,0.9 a 8.17,7.71 50.4 0 1 1.53,0.19 q 5.72,1.33 10.5,1.01 c 7.93,-0.53 15.52,1.26 23.49,-0.89 q 2.44,-0.65 7.67,-3.83 c 9.54,-5.8 15.95,-10.2 26.52,-16.55 q 19.41,-11.68 38.76,-26.54 5.87,-4.51 12.31,-10.93 9.23,-9.21 9.91,-22.45 a 3.4,3.29 58.1 0 1 0.22,-1.02 c 1.5,-3.8 1.95,-8.05 3.96,-11.29 q 4.6,-7.44 9.74,-16.84 6.33,-11.59 6.57,-25.16 c 0.15,-9.05 0.8,-19.59 0.54,-26.24 q -0.39,-9.51 -0.35,-10.01 0.35,-5.24 -0.37,-9.95 -0.29,-1.96 -0.97,-13.15 a 5.76,5.67 32.2 0 0 -0.44,-1.87 l -6.32,-14.73 a 5.81,5.78 11.2 0 0 -1.24,-1.84 l -4.6,-4.63 a 2.05,1.99 7.2 0 1 -0.28,-0.35 q -2.93,-4.68 -7,-10.74 c -3.23,-4.8 -8.23,-6.75 -12.33,-9.04 q -0.73,-0.41 -2.03,-0.64 a 1.22,1.2 76.7 0 1 -0.8,-0.5 c -0.66,-0.92 -1.37,-2.09 -2.26,-2.9 -0.89,-0.81 -2.12,-1.41 -3.1,-1.99 a 1.22,1.2 8 0 1 -0.57,-0.74 q -0.35,-1.28 -0.82,-1.97 c -2.66,-3.87 -5.07,-8.67 -10.14,-11.44 q -6.41,-3.49 -11.34,-5.98 a 2.05,1.99 77.5 0 1 -0.38,-0.24 l -5.03,-4.16 a 5.81,5.78 73.5 0 0 -1.95,-1.06 l -15.25,-4.93 a 5.76,5.67 52.5 0 0 -1.9,-0.27 q -11.21,0.36 -13.19,0.25 -4.75,-0.28 -9.94,0.55 -0.49,0.09 -10,0.58 c -6.64,0.35 -17.08,1.97 -26.08,2.96 q -13.49,1.49 -24.44,8.86 -8.89,5.99 -15.87,11.26 c -3.04,2.3 -7.23,3.14 -10.88,4.98 a 3.4,3.29 26.6 0 1 -0.99,0.32 q -13.12,1.9 -21.44,11.94 -5.8,7 -9.75,13.26 -13.01,20.64 -22.84,41.05 c -5.35,11.11 -9.14,17.9 -14.03,27.94 q -2.69,5.5 -3.11,7.99 c -1.4,8.13 1.08,15.52 1.28,23.47 q 0.13,4.79 1.98,10.36 a 8.17,7.71 34.3 0 1 0.33,1.51 q 0.85,6.86 2.87,21.23 0.86,6.04 2.67,10.65 3.94,10 4.66,11.49 1.03,2.14 9.32,13.86 a 11.36,11.81 2.5 0 0 1.56,1.77 q 4.6,4.25 12.75,11.27 2.52,2.17 4.96,4.39 z"
     id="path5" />
  <path
     fill="currentColor"
     d="m 339.8195,163.57978 q 2.88,2.63 6.75,3.38 a 2.65,2.36 59.5 0 1 0.62,0.2 c 10.1,4.51 16.43,11.89 20.34,22.03 q 2.3,5.98 2.88,6.92 a 4.88,5.27 6 0 0 0.62,0.83 c 2.02,2.22 3.6,3.68 3.31,7.66 q -0.43,5.71 -0.88,14.23 c -0.46,8.47 -2.73,15.21 -3.49,24.15 q -1.48,17.17 -2.25,20.88 -3.12,15.07 -4.47,28.08 -0.82,7.88 -3.26,15.28 -3.33,10.08 -3.36,10.16 -4.81,12.12 -17.19,18.59 -22.36,11.67 -39.6,21.57 -7.03,4.04 -14.24,6.87 -8.97,3.51 -13.46,5.44 c -11.85,5.08 -18.55,8.08 -29.62,9.77 a 7.75,7.6 42.8 0 1 -1.79,0.05 c -4.07,-0.38 -5.77,-0.66 -9.48,-0.5 q -4.63,0.21 -5.88,-0.05 -16.33,-3.41 -21.93,-5.2 -1.93,-0.61 -7.31,-3.52 a 0.2,0.04 10.9 0 0 -0.05,-0.02 l -9.39,-2.78 q -0.03,-0.01 -0.06,-0.02 l -12.33,-6.47 a 0.56,0.61 69.2 0 0 -0.15,-0.06 l -8.05,-2.57 a 1.02,1.01 1.5 0 1 -0.67,-0.7 c -0.23,-0.85 -0.32,-1.69 -0.81,-2.13 -0.49,-0.45 -1.33,-0.46 -2.19,-0.61 a 1.02,1.01 83.3 0 1 -0.76,-0.6 l -3.3,-7.79 a 0.56,0.61 15.6 0 0 -0.07,-0.14 l -7.58,-11.68 q -0.01,-0.03 -0.02,-0.06 l -3.63,-9.1 a 0.2,0.04 73.8 0 0 -0.03,-0.05 q -3.39,-5.09 -4.17,-6.95 -2.3,-5.41 -7.19,-21.36 -0.37,-1.22 -0.59,-5.85 c -0.18,-3.71 -0.62,-5.38 -1.37,-9.4 a 7.75,7.6 41.9 0 1 -0.11,-1.78 c 0.67,-11.18 3.04,-18.13 7.01,-30.4 q 1.51,-4.64 4.19,-13.9 2.15,-7.44 5.53,-14.81 8.28,-18.07 17.85,-41.41 5.31,-12.92 16.94,-18.82 0.07,-0.04 9.8,-4.28 7.15,-3.11 14.92,-4.64 12.83,-2.54 27.55,-7.03 3.63,-1.11 20.59,-4.16 c 8.83,-1.57 15.33,-4.45 23.73,-5.68 q 8.44,-1.23 14.09,-2.19 c 3.93,-0.65 5.53,0.79 7.93,2.6 a 4.88,5.27 78.7 0 0 0.88,0.54 q 0.99,0.49 7.16,2.23 c 10.45,2.97 18.38,8.59 23.8,18.24 a 2.65,2.36 25.2 0 1 0.25,0.59 q 1.1,3.79 3.99,6.42 z m -168.12,184.31 q 1.25,1.14 2.67,1.92 8.95,4.92 18.41,9.08 c 3.8,1.66 10.14,6.05 14.67,7.11 q 1.4,0.32 9.68,2.39 3.4,0.85 9.82,0.89 4.33,0.03 10.17,0.5 c 8.5,0.68 15.83,-3.96 22.82,-6.38 7.6,-2.63 15.1,-5.92 20.07,-8.45 9.08,-4.63 18.99,-7.43 27.9,-12.74 3.74,-2.24 8.46,-3.66 12.94,-6.24 q 1.28,-0.74 5.82,-2.92 c 10.62,-5.09 18.56,-9.72 22.04,-21.66 q 3.34,-11.43 4.27,-21.21 0.69,-7.19 1.97,-13.09 1.61,-7.4 2.55,-18.05 c 0.49,-5.43 2.37,-10.17 2.95,-15.54 q 0.75,-6.83 1.61,-15.54 c 0.39,-4 1.32,-7.29 1.89,-10.34 1.57,-8.38 -1.11,-15.68 -4.67,-24.91 q -2.7,-6.97 -11.06,-13.47 a 1.3,0.76 59.5 0 0 -0.18,-0.1 l -9.51,-3.64 a 1.15,1.13 48 0 0 -0.69,-0.04 l -1.3,0.35 a 1.02,1.02 0 0 1 -0.91,-0.18 q -1.03,-0.8 -3.78,-3.31 -2.75,-2.51 -3.65,-3.47 a 1.02,1.02 0 0 1 -0.26,-0.88 l 0.23,-1.33 a 1.15,1.13 36.8 0 0 -0.1,-0.68 l -4.5,-9.14 a 1.3,0.76 25.2 0 0 -0.11,-0.17 q -7.24,-7.73 -14.43,-9.78 c -9.52,-2.7 -17.03,-4.7 -25.23,-2.36 -2.99,0.84 -6.18,2.07 -10.13,2.83 q -8.59,1.65 -15.32,3.02 c -5.3,1.07 -9.85,3.38 -15.21,4.37 q -10.52,1.91 -17.74,4.19 -5.76,1.81 -12.85,3.16 -9.66,1.82 -20.73,6.2 c -11.57,4.56 -15.45,12.89 -19.55,23.93 q -1.75,4.72 -2.37,6.06 c -2.16,4.7 -3.14,9.53 -5.03,13.46 -4.47,9.36 -6.35,19.48 -10.13,28.95 -2.07,5.18 -4.65,12.95 -6.58,20.76 -1.77,7.18 -5.71,14.91 -4.26,23.31 q 1.01,5.77 1.43,10.08 0.63,6.39 1.79,9.7 2.82,8.05 3.27,9.42 c 1.47,4.41 6.42,10.32 8.42,13.95 q 5.01,9.04 10.73,17.5 0.91,1.35 2.16,2.49 z"
     id="path6" />
  <path
     fill="currentColor"
     d="m 320.9495,184.25978 q 0.03,0.03 0.14,0.1 9.76,7.23 19.49,12.32 a 3.66,3.74 80.4 0 1 0.82,0.57 l 8.97,8.07 a 2.37,2.41 11.2 0 1 0.65,0.99 l 3.68,10.88 a 1.81,1.83 40.3 0 1 0.07,0.9 c -1.2,7.13 -1.52,12.13 -2.75,17.68 -1.43,6.51 -1.98,13.85 -3.46,20.36 q -2.53,11.17 -4.98,24.37 c -0.79,4.25 -2.48,9.81 -3.47,12.4 a 14.47,13.75 71.6 0 1 -0.93,1.98 c -3.2,5.77 -8.82,12.48 -17.52,23.75 q -4.35,5.64 -9.78,10.04 a 4.11,4.52 15.7 0 1 -0.83,0.52 q -12.98,6.09 -16.28,6.94 -7,1.82 -45.32,8.94 c -7.07,1.31 -13.55,1.6 -20.6,2.42 q -6.65,0.77 -12.62,-0.47 a 6.9,6.72 50.5 0 0 -1.27,-0.14 q -3.78,-0.06 -9.59,0.21 -0.21,0.01 -6.87,-0.69 c -5.33,-0.56 -10.63,-3.25 -15.18,-4.32 a 3.46,3.45 70.4 0 1 -1.24,-0.59 q -0.86,-0.65 -2.54,-2.19 -1.68,-1.53 -2.41,-2.32 a 3.46,3.45 14.3 0 1 -0.7,-1.18 c -1.48,-4.44 -4.65,-9.47 -5.69,-14.72 q -1.31,-6.57 -1.32,-6.78 -0.27,-5.81 -0.67,-9.57 a 6.9,6.72 34.2 0 0 -0.26,-1.25 q -1.78,-5.83 -1.63,-12.52 c 0.17,-7.1 -0.13,-13.58 0.52,-20.74 q 3.57,-38.81 4.74,-45.95 0.55,-3.36 5.42,-16.85 a 4.11,4.52 69 0 1 0.44,-0.87 q 3.88,-5.81 9.1,-10.66 c 10.43,-9.7 16.59,-15.91 22.04,-19.63 a 14.47,13.75 13.1 0 1 1.89,-1.11 c 2.49,-1.22 7.87,-3.41 12.03,-4.59 q 12.92,-3.65 23.81,-7.2 c 6.34,-2.07 13.6,-3.29 19.95,-5.31 5.42,-1.73 10.37,-2.51 17.36,-4.36 a 1.81,1.83 44.4 0 1 0.9,-0.02 l 11.17,2.67 a 2.37,2.41 73.5 0 1 1.05,0.56 l 8.86,8.19 a 3.66,3.74 4.3 0 1 0.64,0.76 q 5.96,9.22 14.06,18.28 0.08,0.1 0.11,0.13 z m -134.44,147.42 q 2.46,2.23 3.81,3.18 1.74,1.22 7.77,2 14.14,1.83 26.92,0.8 11.09,-0.88 16.24,-1.16 7.56,-0.4 16.01,-2.77 c 9.21,-2.58 13.21,-3.05 23.77,-5.07 4.38,-0.84 10.16,-1.11 14.22,-2.76 14.16,-5.79 22.06,-16.55 31.3,-29.55 2.04,-2.86 3.83,-5.33 5.11,-8.74 5.55,-14.8 7.59,-27.39 10.73,-45.19 1.2,-6.79 1.52,-12.43 2.77,-19.33 q 1.29,-7.13 -2.9,-13.74 -1.67,-2.63 -4.14,-4.05 -9.4,-5.43 -15.12,-8.84 c -2.2,-1.3 -4.23,-1.9 -6.15,-2.83 q -0.81,-0.4 -2.61,-2.04 -1.8,-1.64 -2.27,-2.41 c -1.11,-1.83 -1.89,-3.8 -3.39,-5.87 q -3.92,-5.38 -10.2,-14.24 -1.64,-2.33 -4.41,-3.75 -6.97,-3.56 -13.95,-1.62 c -6.75,1.88 -12.34,2.72 -18.99,4.54 -17.44,4.76 -29.78,7.96 -44.01,14.85 -3.28,1.58 -5.57,3.59 -8.23,5.89 -12.1,10.4 -22.08,19.25 -26.54,33.89 -1.27,4.19 -1.01,9.97 -1.44,14.41 -1.04,10.7 -1.14,14.73 -2.86,24.14 q -1.58,8.63 -1.28,16.19 0.19,5.16 0.34,16.28 0.15,12.82 3.27,26.73 1.34,5.94 2.71,7.56 1.07,1.26 3.52,3.5 z"
     id="path7" />
  <path
     fill="currentColor"
     d="m 303.1295,203.83978 c 1.96,1.79 5.12,3.68 6.97,5.36 q 11.85,10.81 15.05,13.87 a 4.36,4.26 7.5 0 1 0.7,0.89 q 4.57,7.95 5.16,9.84 0.43,1.35 0.95,7.94 c 0.38,4.85 -1.6,13.14 -2.65,16.08 q -6.82,19.04 -14.16,36.55 -3.59,8.56 -11.84,13.65 c -10.08,6.22 -19.81,10.08 -30.7,14.13 -2.97,1.11 -7.7,1.49 -10.01,2.41 -5.25,2.1 -12.32,3.73 -19.07,3.29 q -3.97,-0.26 -10.38,0.59 a 4.67,4.76 44.5 0 1 -1.06,0.02 l -18.21,-2.02 a 4.26,4.37 59.2 0 1 -1.12,-0.27 q -2.46,-0.94 -4.27,-1.73 c -2.71,-1.16 -4.16,-0.85 -6.99,0.43 a 1.78,1.78 0 0 1 -2.42,-1.04 c -0.46,-1.35 -0.99,-2.69 -2.11,-3.71 -1.11,-1.02 -2.5,-1.43 -3.89,-1.76 a 1.78,1.78 0 0 1 -1.25,-2.32 c 1.02,-2.93 1.2,-4.4 -0.21,-7 q -0.95,-1.73 -2.11,-4.09 a 4.26,4.37 25.5 0 1 -0.37,-1.09 l -3.66,-17.96 a 4.67,4.76 40.3 0 1 -0.08,-1.05 q 0.26,-6.46 -0.35,-10.39 c -1.06,-6.69 -0.08,-13.87 1.54,-19.29 0.71,-2.39 0.65,-7.13 1.49,-10.19 3.04,-11.21 6,-21.25 11.28,-31.86 q 4.32,-8.68 12.52,-13.03 16.77,-8.9 35.11,-17.42 c 2.84,-1.31 10.91,-4.04 15.78,-4.1 q 6.61,-0.08 7.99,0.23 1.94,0.41 10.27,4.24 a 4.36,4.26 77.3 0 1 0.95,0.62 q 3.34,2.91 15.18,13.73 c 1.84,1.68 4.01,4.66 5.97,6.45 z m -98.94,108.54 c 2,1.83 5.66,1.83 8.67,1.73 a 5.5,5.08 47.6 0 1 1.32,0.11 q 11.95,2.51 18.73,2.52 3.05,0 19.95,-1.41 c 5.87,-0.49 11.57,-2.7 16.79,-3.39 5.2,-0.68 9.15,-2.73 14.8,-4.58 5.4,-1.78 11.34,-5.41 15.35,-8.62 q 3.88,-3.12 5.05,-5.17 3.02,-5.32 5.53,-12.48 2.99,-8.5 7.88,-17.61 2.02,-3.77 3.29,-11.65 0.72,-4.47 -0.94,-10.9 -2.44,-9.45 -3.84,-13.88 a 5.02,4.99 12.8 0 0 -1.39,-2.19 l -12.26,-11.25 a 1.21,1.2 63.8 0 0 -0.92,-0.32 c -2.84,0.24 -3.48,-0.93 -5.38,-2.66 -1.9,-1.73 -3.12,-2.26 -3.16,-5.11 a 1.21,1.2 20.9 0 0 -0.4,-0.88 l -12.34,-11.16 a 5.02,4.99 71.9 0 0 -2.32,-1.18 q -4.54,-0.97 -14.17,-2.52 -6.56,-1.05 -10.94,0.08 -7.73,2.01 -11.29,4.37 -8.62,5.72 -16.8,9.49 -6.89,3.17 -11.91,6.68 -1.93,1.35 -4.67,5.51 c -2.82,4.29 -5.88,10.55 -7.15,16.09 -1.31,5.8 -2.98,9.92 -3.17,15.16 -0.2,5.26 -1.87,11.15 -1.81,17.04 q 0.18,16.95 0.47,19.99 0.64,6.75 4.26,18.41 a 5.5,5.08 37 0 1 0.23,1.31 c 0.18,3 0.53,6.64 2.54,8.47 z"
     id="path8" />
  <path
     fill="currentColor"
     d="m 290.2595,217.79978 q 1.75,1.59 2.57,2.61 a 1.32,1.44 17.3 0 1 0.27,0.58 l 0.61,2.7 a 1.38,1.79 18.7 0 0 0.11,0.32 c 1.34,2.7 2.63,4.87 3.19,7.9 q 1.34,7.23 1.4,9.92 c 0.12,5.51 -1.56,9.71 -4.08,16.96 -3.61,10.4 -12.98,21.41 -21.99,26.52 q -14.19,8.05 -28.24,10.42 -2.27,0.38 -13.33,0.36 a 1.09,1.1 24.6 0 0 -0.72,0.27 l -1.66,1.42 a 1.48,1.42 18.1 0 1 -0.67,0.32 c -3.99,0.77 -4.99,-0.76 -7.64,-3.16 -2.64,-2.41 -4.25,-3.26 -3.87,-7.3 a 1.48,1.42 66.4 0 1 0.26,-0.7 l 1.26,-1.79 a 1.09,1.1 60 0 0 0.2,-0.74 q -1.06,-11.01 -0.9,-13.31 1.03,-14.21 7.71,-29.09 c 4.24,-9.46 14.31,-19.82 24.33,-24.4 6.98,-3.19 11,-5.26 16.5,-5.66 q 2.68,-0.19 10,0.46 c 3.07,0.27 5.36,1.35 8.17,2.43 a 1.38,1.79 65.9 0 0 0.33,0.08 l 2.74,0.35 a 1.32,1.44 67.3 0 1 0.61,0.22 q 1.09,0.72 2.84,2.31 z m -61.51,67.71 q 0.15,0.14 0.17,0.14 c 6.84,0.16 13.05,-0.24 20.17,-2.76 q 1.33,-0.47 9.19,-2.86 c 3.39,-1.03 7.8,-2.88 11.08,-4.29 a 4.27,4.34 15.9 0 0 0.9,-0.51 c 9.87,-7.27 17.16,-15.88 20.02,-27.68 1.18,-4.86 -0.21,-11.24 -1.39,-15.72 q -1.34,-5.1 -4.33,-7.81 -2.99,-2.72 -8.2,-3.56 c -4.57,-0.74 -11.05,-1.51 -15.78,0.13 -11.47,3.99 -19.33,12.08 -25.61,22.6 a 4.27,4.34 68.5 0 0 -0.43,0.95 c -1.08,3.4 -2.5,7.97 -3.2,11.44 q -1.62,8.05 -1.96,9.42 c -1.82,7.33 -1.61,13.55 -0.79,20.35 q 0,0.01 0.16,0.16 z"
     id="path9" />
  <path
     fill="currentColor"
     d="m 268.6495,241.58978 q 1.44,1.32 3.33,0.53 a 0.56,0.57 87 0 1 0.76,0.68 l -0.47,1.53 a 3.42,3.42 0 0 0 -0.04,1.85 c 1.1,4.27 2.37,9.73 -0.42,13.24 q -1,1.26 -5.35,4.86 c -4.42,3.65 -9.68,6.9 -15.64,7.98 a 1.6,1.59 22.6 0 0 -0.59,0.24 l -4.21,2.81 a 2.48,2.47 49.1 0 1 -3.04,-0.22 q -0.59,-0.54 -2.67,-2.43 -2.08,-1.9 -2.66,-2.44 a 2.48,2.47 35.7 0 1 -0.5,-3 l 2.41,-4.45 a 1.6,1.59 62.1 0 0 0.18,-0.61 c 0.53,-6.04 3.28,-11.57 6.51,-16.31 q 3.19,-4.66 4.35,-5.77 c 3.24,-3.1 8.8,-2.34 13.15,-1.64 a 3.42,3.42 0 0 0 1.84,-0.21 l 1.48,-0.6 a 0.57,0.56 87.7 0 1 0.75,0.69 q -0.61,1.95 0.83,3.27 z m -21.59,23.83 q 0.06,0.04 0.07,0.05 a 0.39,0.2 58.2 0 0 0.14,0.09 c 6.42,2.42 19.98,-4.94 18.71,-12.74 -0.2,-1.21 -1.25,-4.75 -2.41,-5.8 -1.17,-1.04 -4.8,-1.7 -6.03,-1.77 -7.89,-0.42 -13.74,13.86 -10.64,19.98 a 0.39,0.2 25.5 0 0 0.1,0.13 q 0.01,0.01 0.06,0.06 z"
     id="path10" />
</svg>
